<?xml version="1.0" encoding="UTF-8"?><svg xmlns="http://www.w3.org/2000/svg" xmlns:xlink="http://www.w3.org/1999/xlink" fill-opacity="1" color-rendering="auto" color-interpolation="auto" text-rendering="auto" stroke="black" stroke-linecap="square" width="2079" stroke-miterlimit="10" shape-rendering="auto" stroke-opacity="1" fill="black" stroke-dasharray="none" font-weight="normal" stroke-width="1" height="1354" font-family="'Dialog'" font-style="normal" stroke-linejoin="miter" font-size="12px" stroke-dashoffset="0" image-rendering="auto">
  <!--Generated by ySVG 2.5-->
  <defs id="genericDefs"/>
  <g>
    <defs id="defs1">
      <clipPath clipPathUnits="userSpaceOnUse" id="clipPath1">
        <path d="M0 0 L2079 0 L2079 1354 L0 1354 L0 0 Z"/>
      </clipPath>
      <clipPath clipPathUnits="userSpaceOnUse" id="clipPath2">
        <path d="M137 -173 L2216 -173 L2216 1181 L137 1181 L137 -173 Z"/>
      </clipPath>
      <clipPath clipPathUnits="userSpaceOnUse" id="clipPath3">
        <path d="M141 -169 L2220 -169 L2220 1185 L141 1185 L141 -169 Z"/>
      </clipPath>
    </defs>
    <g fill="rgb(210,210,210)" text-rendering="geometricPrecision" shape-rendering="geometricPrecision" transform="matrix(1,0,0,1,-141,169) translate(4,4)" stroke="rgb(210,210,210)">
      <rect x="156.8187" width="147.3196" height="216" y="-52.6543" clip-path="url(#clipPath2)" stroke="none"/>
    </g>
    <g fill="rgb(242,240,216)" text-rendering="geometricPrecision" shape-rendering="geometricPrecision" transform="matrix(1,0,0,1,-141,169)" stroke="rgb(242,240,216)">
      <rect x="156.8187" width="147.3196" height="216" y="-52.6543" clip-path="url(#clipPath3)" stroke="none"/>
      <rect x="156.8187" y="-52.6543" clip-path="url(#clipPath3)" fill="rgb(183,182,158)" width="147.3196" height="21.4609" stroke="none"/>
    </g>
    <g font-size="15px" stroke-linecap="butt" transform="matrix(1,0,0,1,-141,169)" text-rendering="geometricPrecision" font-family="sans-serif" shape-rendering="geometricPrecision" stroke-miterlimit="1.45">
      <text x="222.4581" xml:space="preserve" y="-36.7309" clip-path="url(#clipPath3)" stroke="none">Shape Key</text>
      <rect fill="none" x="156.8187" width="147.3196" height="216" y="-52.6543" clip-path="url(#clipPath3)"/>
    </g>
    <g fill="rgb(255,204,0)" text-rendering="geometricPrecision" shape-rendering="geometricPrecision" transform="matrix(1,0,0,1,-141,169)" stroke="rgb(255,204,0)">
      <rect x="171.8187" width="117.3196" height="35.3086" y="-12.6543" clip-path="url(#clipPath3)" stroke="none"/>
    </g>
    <g text-rendering="geometricPrecision" stroke-miterlimit="1.45" shape-rendering="geometricPrecision" transform="matrix(1,0,0,1,-141,169)" stroke-linecap="butt">
      <rect fill="none" x="171.8187" width="117.3196" height="35.3086" y="-12.6543" clip-path="url(#clipPath3)"/>
      <text x="190.998" xml:space="preserve" y="9.1543" clip-path="url(#clipPath3)" font-family="sans-serif" stroke="none">Halberd Task</text>
    </g>
    <g fill="rgb(255,204,0)" text-rendering="geometricPrecision" shape-rendering="geometricPrecision" transform="matrix(1,0,0,1,-141,169)" stroke="rgb(255,204,0)">
      <rect x="171.8187" y="35.6668" clip-path="url(#clipPath3)" width="117.3196" rx="4" ry="4" height="35.3086" stroke="none"/>
    </g>
    <g stroke-linecap="butt" transform="matrix(1,0,0,1,-141,169)" fill="gray" text-rendering="geometricPrecision" shape-rendering="geometricPrecision" stroke="gray" stroke-miterlimit="1.45">
      <rect x="171.8187" y="35.6668" clip-path="url(#clipPath3)" fill="none" width="117.3196" rx="4" ry="4" height="35.3086"/>
      <text x="189.6298" y="57.4754" clip-path="url(#clipPath3)" fill="black" font-family="sans-serif" stroke="none" xml:space="preserve">External Task</text>
    </g>
    <g fill="rgb(255,204,0)" text-rendering="geometricPrecision" shape-rendering="geometricPrecision" transform="matrix(1,0,0,1,-141,169)" stroke="rgb(255,204,0)">
      <circle r="29.864" clip-path="url(#clipPath3)" cx="230.4785" cy="113.852" stroke="none"/>
    </g>
    <g text-rendering="geometricPrecision" stroke-miterlimit="1.45" shape-rendering="geometricPrecision" transform="matrix(1,0,0,1,-141,169)" stroke-linecap="butt">
      <circle fill="none" r="29.864" clip-path="url(#clipPath3)" cx="230.4785" cy="113.852"/>
      <text x="206.7656" xml:space="preserve" y="118.0063" clip-path="url(#clipPath3)" font-family="sans-serif" stroke="none">Release</text>
    </g>
    <g fill="rgb(210,210,210)" text-rendering="geometricPrecision" shape-rendering="geometricPrecision" transform="matrix(1,0,0,1,-141,169) translate(4,4)" stroke="rgb(210,210,210)">
      <rect x="156.8187" width="147.3196" height="279.9426" y="188.2305" clip-path="url(#clipPath2)" stroke="none"/>
    </g>
    <g fill="rgb(242,240,216)" text-rendering="geometricPrecision" shape-rendering="geometricPrecision" transform="matrix(1,0,0,1,-141,169)" stroke="rgb(242,240,216)">
      <rect x="156.8187" width="147.3196" height="279.9426" y="188.2305" clip-path="url(#clipPath3)" stroke="none"/>
      <rect x="156.8187" y="188.2305" clip-path="url(#clipPath3)" fill="rgb(183,182,158)" width="147.3196" height="21.4609" stroke="none"/>
    </g>
    <g font-size="15px" stroke-linecap="butt" transform="matrix(1,0,0,1,-141,169)" text-rendering="geometricPrecision" font-family="sans-serif" shape-rendering="geometricPrecision" stroke-miterlimit="1.45">
      <text x="230.2657" xml:space="preserve" y="204.1538" clip-path="url(#clipPath3)" stroke="none">Color Key</text>
      <rect fill="none" x="156.8187" width="147.3196" height="279.9426" y="188.2305" clip-path="url(#clipPath3)"/>
    </g>
    <g fill="maroon" text-rendering="geometricPrecision" shape-rendering="geometricPrecision" transform="matrix(1,0,0,1,-141,169)" stroke="maroon">
      <rect x="171.8187" width="117.3196" height="35.3086" y="224.6914" clip-path="url(#clipPath3)" stroke="none"/>
    </g>
    <g text-rendering="geometricPrecision" stroke-miterlimit="1.45" shape-rendering="geometricPrecision" transform="matrix(1,0,0,1,-141,169)" stroke-linecap="butt">
      <rect fill="none" x="171.8187" width="117.3196" height="35.3086" y="224.6914" clip-path="url(#clipPath3)"/>
      <text x="193.4589" y="246.5" clip-path="url(#clipPath3)" fill="rgb(255,204,153)" font-family="sans-serif" stroke="none" xml:space="preserve">Future Work</text>
    </g>
    <g fill="red" text-rendering="geometricPrecision" shape-rendering="geometricPrecision" transform="matrix(1,0,0,1,-141,169)" stroke="red">
      <rect x="171.8187" width="117.3196" height="35.3086" y="273.0863" clip-path="url(#clipPath3)" stroke="none"/>
    </g>
    <g text-rendering="geometricPrecision" stroke-miterlimit="1.45" shape-rendering="geometricPrecision" transform="matrix(1,0,0,1,-141,169)" stroke-linecap="butt">
      <rect fill="none" x="171.8187" width="117.3196" height="35.3086" y="273.0863" clip-path="url(#clipPath3)"/>
      <text x="182.7334" xml:space="preserve" y="294.8949" clip-path="url(#clipPath3)" font-family="sans-serif" stroke="none">Upcoming Work</text>
    </g>
    <g fill="rgb(255,102,0)" text-rendering="geometricPrecision" shape-rendering="geometricPrecision" transform="matrix(1,0,0,1,-141,169)" stroke="rgb(255,102,0)">
      <rect x="171.8187" width="117.3196" height="35.3086" y="321.3457" clip-path="url(#clipPath3)" stroke="none"/>
    </g>
    <g text-rendering="geometricPrecision" stroke-miterlimit="1.45" shape-rendering="geometricPrecision" transform="matrix(1,0,0,1,-141,169)" stroke-linecap="butt">
      <rect fill="none" x="171.8187" width="117.3196" height="35.3086" y="321.3457" clip-path="url(#clipPath3)"/>
      <text x="198.9433" xml:space="preserve" y="343.1543" clip-path="url(#clipPath3)" font-family="sans-serif" stroke="none">Next Work</text>
    </g>
    <g fill="rgb(255,204,0)" text-rendering="geometricPrecision" shape-rendering="geometricPrecision" transform="matrix(1,0,0,1,-141,169)" stroke="rgb(255,204,0)">
      <rect x="171.8187" width="117.3196" height="35.3086" y="369.6051" clip-path="url(#clipPath3)" stroke="none"/>
    </g>
    <g text-rendering="geometricPrecision" stroke-miterlimit="1.45" shape-rendering="geometricPrecision" transform="matrix(1,0,0,1,-141,169)" stroke-linecap="butt">
      <rect fill="none" x="171.8187" width="117.3196" height="35.3086" y="369.6051" clip-path="url(#clipPath3)"/>
      <text x="197.0244" xml:space="preserve" y="391.4137" clip-path="url(#clipPath3)" font-family="sans-serif" stroke="none">In Progress</text>
    </g>
    <g fill="rgb(153,204,0)" text-rendering="geometricPrecision" shape-rendering="geometricPrecision" transform="matrix(1,0,0,1,-141,169)" stroke="rgb(153,204,0)">
      <rect x="171.8187" width="117.3196" height="35.3086" y="417.8645" clip-path="url(#clipPath3)" stroke="none"/>
    </g>
    <g text-rendering="geometricPrecision" stroke-miterlimit="1.45" shape-rendering="geometricPrecision" transform="matrix(1,0,0,1,-141,169)" stroke-linecap="butt">
      <rect fill="none" x="171.8187" width="117.3196" height="35.3086" y="417.8645" clip-path="url(#clipPath3)"/>
      <text x="214.6933" xml:space="preserve" y="439.6731" clip-path="url(#clipPath3)" font-family="sans-serif" stroke="none">Done</text>
    </g>
    <g fill="rgb(153,204,0)" text-rendering="geometricPrecision" shape-rendering="geometricPrecision" transform="matrix(1,0,0,1,-141,169)" stroke="rgb(153,204,0)">
      <circle r="37.8" clip-path="url(#clipPath3)" cx="836.7382" cy="-115.7812" stroke="none"/>
    </g>
    <g text-rendering="geometricPrecision" stroke-miterlimit="1.45" shape-rendering="geometricPrecision" transform="matrix(1,0,0,1,-141,169)" stroke-linecap="butt">
      <circle fill="none" r="37.8" clip-path="url(#clipPath3)" cx="836.7382" cy="-115.7812"/>
      <text x="817.9208" xml:space="preserve" y="-118.6113" clip-path="url(#clipPath3)" font-family="sans-serif" stroke="none">v0.0.1</text>
      <text x="813.1454" xml:space="preserve" y="-104.6425" clip-path="url(#clipPath3)" font-family="sans-serif" stroke="none">Preview</text>
    </g>
    <g fill="maroon" text-rendering="geometricPrecision" shape-rendering="geometricPrecision" transform="matrix(1,0,0,1,-141,169)" stroke="maroon">
      <ellipse rx="37.8" ry="36.5" clip-path="url(#clipPath3)" cx="1024.1382" cy="214.5188" stroke="none"/>
    </g>
    <g text-rendering="geometricPrecision" stroke-miterlimit="1.45" shape-rendering="geometricPrecision" transform="matrix(1,0,0,1,-141,169)" stroke-linecap="butt">
      <ellipse rx="37.8" fill="none" ry="36.5" clip-path="url(#clipPath3)" cx="1024.1382" cy="214.5188"/>
      <text x="998.108" y="211.6888" clip-path="url(#clipPath3)" fill="rgb(255,204,153)" font-family="sans-serif" stroke="none" xml:space="preserve">Example</text>
      <text x="1006.2759" y="225.6575" clip-path="url(#clipPath3)" fill="rgb(255,204,153)" font-family="sans-serif" stroke="none" xml:space="preserve">Game</text>
    </g>
    <g fill="red" text-rendering="geometricPrecision" shape-rendering="geometricPrecision" transform="matrix(1,0,0,1,-141,169)" stroke="red">
      <rect x="1340.4382" width="180" height="73" y="-32.9812" clip-path="url(#clipPath3)" stroke="none"/>
    </g>
    <g text-rendering="geometricPrecision" stroke-miterlimit="1.45" shape-rendering="geometricPrecision" transform="matrix(1,0,0,1,-141,169)" stroke-linecap="butt">
      <rect fill="none" x="1340.4382" width="180" height="73" y="-32.9812" clip-path="url(#clipPath3)"/>
      <text x="1382.8455" xml:space="preserve" y="7.6731" clip-path="url(#clipPath3)" font-family="sans-serif" stroke="none">Map Transitions</text>
    </g>
    <g fill="rgb(255,204,0)" text-rendering="geometricPrecision" shape-rendering="geometricPrecision" transform="matrix(1,0,0,1,-141,169)" stroke="rgb(255,204,0)">
      <rect x="740.4382" width="180" height="73" y="-32.9812" clip-path="url(#clipPath3)" stroke="none"/>
    </g>
    <g text-rendering="geometricPrecision" stroke-miterlimit="1.45" shape-rendering="geometricPrecision" transform="matrix(1,0,0,1,-141,169)" stroke-linecap="butt">
      <rect fill="none" x="740.4382" width="180" height="73" y="-32.9812" clip-path="url(#clipPath3)"/>
      <text x="782.8337" xml:space="preserve" y="7.6731" clip-path="url(#clipPath3)" font-family="sans-serif" stroke="none">Win/Loss States</text>
    </g>
    <g fill="maroon" text-rendering="geometricPrecision" shape-rendering="geometricPrecision" transform="matrix(1,0,0,1,-141,169)" stroke="maroon">
      <ellipse rx="37.8" ry="36.5" clip-path="url(#clipPath3)" cx="843.0382" cy="1133.1464" stroke="none"/>
    </g>
    <g text-rendering="geometricPrecision" stroke-miterlimit="1.45" shape-rendering="geometricPrecision" transform="matrix(1,0,0,1,-141,169)" stroke-linecap="butt">
      <ellipse rx="37.8" fill="none" ry="36.5" clip-path="url(#clipPath3)" cx="843.0382" cy="1133.1464"/>
      <text x="804.3254" y="1137.3008" clip-path="url(#clipPath3)" fill="rgb(255,204,153)" font-family="sans-serif" stroke="none" xml:space="preserve">v1.0 Release</text>
    </g>
    <g fill="maroon" text-rendering="geometricPrecision" shape-rendering="geometricPrecision" transform="matrix(1,0,0,1,-141,169)" stroke="maroon">
      <rect x="753.0382" width="180" height="73" y="993.6464" clip-path="url(#clipPath3)" stroke="none"/>
    </g>
    <g text-rendering="geometricPrecision" stroke-miterlimit="1.45" shape-rendering="geometricPrecision" transform="matrix(1,0,0,1,-141,169)" stroke-linecap="butt">
      <rect fill="none" x="753.0382" width="180" height="73" y="993.6464" clip-path="url(#clipPath3)"/>
      <text x="756.2521" y="1034.3008" clip-path="url(#clipPath3)" fill="rgb(255,204,153)" font-family="sans-serif" stroke="none" xml:space="preserve">Full Turn-Based RPG Support</text>
    </g>
    <g fill="maroon" text-rendering="geometricPrecision" shape-rendering="geometricPrecision" transform="matrix(1,0,0,1,-141,169)" stroke="maroon">
      <ellipse rx="37.8" ry="36.5" clip-path="url(#clipPath3)" cx="1024.1382" cy="328.2018" stroke="none"/>
    </g>
    <g text-rendering="geometricPrecision" stroke-miterlimit="1.45" shape-rendering="geometricPrecision" transform="matrix(1,0,0,1,-141,169)" stroke-linecap="butt">
      <ellipse rx="37.8" fill="none" ry="36.5" clip-path="url(#clipPath3)" cx="1024.1382" cy="328.2018"/>
      <text x="987.4527" y="325.3717" clip-path="url(#clipPath3)" fill="rgb(255,204,153)" font-family="sans-serif" stroke="none" xml:space="preserve">v0.1 (AMVP)</text>
      <text x="1000.4254" y="339.3405" clip-path="url(#clipPath3)" fill="rgb(255,204,153)" font-family="sans-serif" stroke="none" xml:space="preserve">Release</text>
    </g>
    <g fill="rgb(153,204,0)" text-rendering="geometricPrecision" shape-rendering="geometricPrecision" transform="matrix(1,0,0,1,-141,169)" stroke="rgb(153,204,0)">
      <rect x="1140.4382" width="180" height="73" y="-32.9812" clip-path="url(#clipPath3)" stroke="none"/>
    </g>
    <g text-rendering="geometricPrecision" stroke-miterlimit="1.45" shape-rendering="geometricPrecision" transform="matrix(1,0,0,1,-141,169)" stroke-linecap="butt">
      <rect fill="none" x="1140.4382" width="180" height="73" y="-32.9812" clip-path="url(#clipPath3)"/>
      <text x="1156.9792" xml:space="preserve" y="7.6731" clip-path="url(#clipPath3)" font-family="sans-serif" stroke="none">Sound Effects and Music</text>
    </g>
    <g fill="rgb(153,204,0)" text-rendering="geometricPrecision" shape-rendering="geometricPrecision" transform="matrix(1,0,0,1,-141,169)" stroke="rgb(153,204,0)">
      <rect x="340.4382" width="180" height="73" y="-32.9812" clip-path="url(#clipPath3)" stroke="none"/>
    </g>
    <g text-rendering="geometricPrecision" stroke-miterlimit="1.45" shape-rendering="geometricPrecision" transform="matrix(1,0,0,1,-141,169)" stroke-linecap="butt">
      <rect fill="none" x="340.4382" width="180" height="73" y="-32.9812" clip-path="url(#clipPath3)"/>
      <text x="401.6189" xml:space="preserve" y="7.6731" clip-path="url(#clipPath3)" font-family="sans-serif" stroke="none">XP/Levels</text>
    </g>
    <g fill="maroon" text-rendering="geometricPrecision" shape-rendering="geometricPrecision" transform="matrix(1,0,0,1,-141,169)" stroke="maroon">
      <rect x="540.4382" width="180" height="73" y="70.0188" clip-path="url(#clipPath3)" stroke="none"/>
    </g>
    <g text-rendering="geometricPrecision" stroke-miterlimit="1.45" shape-rendering="geometricPrecision" transform="matrix(1,0,0,1,-141,169)" stroke-linecap="butt">
      <rect fill="none" x="540.4382" width="180" height="73" y="70.0188" clip-path="url(#clipPath3)"/>
      <text x="587.7292" y="110.6731" clip-path="url(#clipPath3)" fill="rgb(255,204,153)" font-family="sans-serif" stroke="none" xml:space="preserve">Game 'Export'</text>
    </g>
    <g fill="rgb(255,204,0)" text-rendering="geometricPrecision" shape-rendering="geometricPrecision" transform="matrix(1,0,0,1,-141,169)" stroke="rgb(255,204,0)">
      <rect x="540.4382" width="180" height="73" y="-32.9812" clip-path="url(#clipPath3)" stroke="none"/>
    </g>
    <g text-rendering="geometricPrecision" stroke-miterlimit="1.45" shape-rendering="geometricPrecision" transform="matrix(1,0,0,1,-141,169)" stroke-linecap="butt">
      <rect fill="none" x="540.4382" width="180" height="73" y="-32.9812" clip-path="url(#clipPath3)"/>
      <text x="569.9783" xml:space="preserve" y="7.6731" clip-path="url(#clipPath3)" font-family="sans-serif" stroke="none">Game Configuration</text>
    </g>
    <g fill="maroon" text-rendering="geometricPrecision" shape-rendering="geometricPrecision" transform="matrix(1,0,0,1,-141,169)" stroke="maroon">
      <ellipse rx="37.8" ry="36.5" clip-path="url(#clipPath3)" cx="1523.5882" cy="765.2018" stroke="none"/>
    </g>
    <g text-rendering="geometricPrecision" stroke-miterlimit="1.45" shape-rendering="geometricPrecision" transform="matrix(1,0,0,1,-141,169)" stroke-linecap="butt">
      <ellipse rx="37.8" fill="none" ry="36.5" clip-path="url(#clipPath3)" cx="1523.5882" cy="765.2018"/>
      <text x="1497.0072" y="755.3873" clip-path="url(#clipPath3)" fill="rgb(255,204,153)" font-family="sans-serif" stroke="none" xml:space="preserve">Finalized</text>
      <text x="1497.558" y="769.3561" clip-path="url(#clipPath3)" fill="rgb(255,204,153)" font-family="sans-serif" stroke="none" xml:space="preserve">Example</text>
      <text x="1505.726" y="783.3248" clip-path="url(#clipPath3)" fill="rgb(255,204,153)" font-family="sans-serif" stroke="none" xml:space="preserve">Game</text>
    </g>
    <g fill="maroon" text-rendering="geometricPrecision" shape-rendering="geometricPrecision" transform="matrix(1,0,0,1,-141,169)" stroke="maroon">
      <ellipse rx="37.8" ry="36.5" clip-path="url(#clipPath3)" cx="843.0382" cy="872.5188" stroke="none"/>
    </g>
    <g text-rendering="geometricPrecision" stroke-miterlimit="1.45" shape-rendering="geometricPrecision" transform="matrix(1,0,0,1,-141,169)" stroke-linecap="butt">
      <ellipse rx="37.8" fill="none" ry="36.5" clip-path="url(#clipPath3)" cx="843.0382" cy="872.5188"/>
      <text x="829.9455" y="862.7043" clip-path="url(#clipPath3)" fill="rgb(255,204,153)" font-family="sans-serif" stroke="none" xml:space="preserve">v0.2</text>
      <text x="814.6057" y="876.6731" clip-path="url(#clipPath3)" fill="rgb(255,204,153)" font-family="sans-serif" stroke="none" xml:space="preserve">True MVP</text>
      <text x="819.3254" y="890.6418" clip-path="url(#clipPath3)" fill="rgb(255,204,153)" font-family="sans-serif" stroke="none" xml:space="preserve">Release</text>
    </g>
    <g fill="rgb(255,102,0)" text-rendering="geometricPrecision" shape-rendering="geometricPrecision" transform="matrix(1,0,0,1,-141,169)" stroke="rgb(255,102,0)">
      <rect x="940.4382" width="180" height="73" y="-32.9812" clip-path="url(#clipPath3)" stroke="none"/>
    </g>
    <g text-rendering="geometricPrecision" stroke-miterlimit="1.45" shape-rendering="geometricPrecision" transform="matrix(1,0,0,1,-141,169)" stroke-linecap="butt">
      <rect fill="none" x="940.4382" width="180" height="73" y="-32.9812" clip-path="url(#clipPath3)"/>
      <text x="992.9792" xml:space="preserve" y="7.6731" clip-path="url(#clipPath3)" font-family="sans-serif" stroke="none">Sprite Editor</text>
    </g>
    <g fill="maroon" text-rendering="geometricPrecision" shape-rendering="geometricPrecision" transform="matrix(1,0,0,1,-141,169)" stroke="maroon">
      <rect x="1134.1382" width="180" height="73" y="409.7018" clip-path="url(#clipPath3)" stroke="none"/>
    </g>
    <g text-rendering="geometricPrecision" stroke-miterlimit="1.45" shape-rendering="geometricPrecision" transform="matrix(1,0,0,1,-141,169)" stroke-linecap="butt">
      <rect fill="none" x="1134.1382" width="180" height="73" y="409.7018" clip-path="url(#clipPath3)"/>
      <text x="1165.562" y="450.3561" clip-path="url(#clipPath3)" fill="rgb(255,204,153)" font-family="sans-serif" stroke="none" xml:space="preserve">Settable Resolution</text>
    </g>
    <g fill="maroon" text-rendering="geometricPrecision" shape-rendering="geometricPrecision" transform="matrix(1,0,0,1,-141,169)" stroke="maroon">
      <rect x="934.1382" width="180" height="73" y="409.7018" clip-path="url(#clipPath3)" stroke="none"/>
    </g>
    <g text-rendering="geometricPrecision" stroke-miterlimit="1.45" shape-rendering="geometricPrecision" transform="matrix(1,0,0,1,-141,169)" stroke-linecap="butt">
      <rect fill="none" x="934.1382" width="180" height="73" y="409.7018" clip-path="url(#clipPath3)"/>
      <text x="987.3765" y="450.3561" clip-path="url(#clipPath3)" fill="rgb(255,204,153)" font-family="sans-serif" stroke="none" xml:space="preserve">Test Profiles</text>
    </g>
    <g fill="maroon" text-rendering="geometricPrecision" shape-rendering="geometricPrecision" transform="matrix(1,0,0,1,-141,169)" stroke="maroon">
      <rect x="734.1382" width="180" height="73" y="409.7018" clip-path="url(#clipPath3)" stroke="none"/>
    </g>
    <g text-rendering="geometricPrecision" stroke-miterlimit="1.45" shape-rendering="geometricPrecision" transform="matrix(1,0,0,1,-141,169)" stroke-linecap="butt">
      <rect fill="none" x="734.1382" width="180" height="73" y="409.7018" clip-path="url(#clipPath3)"/>
      <text x="783.5269" y="450.3561" clip-path="url(#clipPath3)" fill="rgb(255,204,153)" font-family="sans-serif" stroke="none" xml:space="preserve">Landing Page</text>
    </g>
    <g fill="maroon" text-rendering="geometricPrecision" shape-rendering="geometricPrecision" transform="matrix(1,0,0,1,-141,169)" stroke="maroon">
      <rect x="1224.1382" width="180" height="73" y="517.7018" clip-path="url(#clipPath3)" stroke="none"/>
    </g>
    <g text-rendering="geometricPrecision" stroke-miterlimit="1.45" shape-rendering="geometricPrecision" transform="matrix(1,0,0,1,-141,169)" stroke-linecap="butt">
      <rect fill="none" x="1224.1382" width="180" height="73" y="517.7018" clip-path="url(#clipPath3)"/>
      <text x="1298.7163" y="558.3561" clip-path="url(#clipPath3)" fill="rgb(255,204,153)" font-family="sans-serif" stroke="none" xml:space="preserve">NPCs</text>
    </g>
    <g fill="maroon" text-rendering="geometricPrecision" shape-rendering="geometricPrecision" transform="matrix(1,0,0,1,-141,169)" stroke="maroon">
      <rect x="1224.1382" width="180" height="73" y="620.7018" clip-path="url(#clipPath3)" stroke="none"/>
    </g>
    <g text-rendering="geometricPrecision" stroke-miterlimit="1.45" shape-rendering="geometricPrecision" transform="matrix(1,0,0,1,-141,169)" stroke-linecap="butt">
      <rect fill="none" x="1224.1382" width="180" height="73" y="620.7018" clip-path="url(#clipPath3)"/>
      <text x="1269.7417" y="661.3561" clip-path="url(#clipPath3)" fill="rgb(255,204,153)" font-family="sans-serif" stroke="none" xml:space="preserve">Basic Dialogue</text>
    </g>
    <g fill="maroon" text-rendering="geometricPrecision" shape-rendering="geometricPrecision" transform="matrix(1,0,0,1,-141,169)" stroke="maroon">
      <rect x="1646.6382" width="180" height="73" y="409.7018" clip-path="url(#clipPath3)" stroke="none"/>
    </g>
    <g text-rendering="geometricPrecision" stroke-miterlimit="1.45" shape-rendering="geometricPrecision" transform="matrix(1,0,0,1,-141,169)" stroke-linecap="butt">
      <rect fill="none" x="1646.6382" width="180" height="73" y="409.7018" clip-path="url(#clipPath3)"/>
      <text x="1687.9233" y="450.3561" clip-path="url(#clipPath3)" fill="rgb(255,204,153)" font-family="sans-serif" stroke="none" xml:space="preserve">Customizable UI</text>
    </g>
    <g fill="maroon" text-rendering="geometricPrecision" shape-rendering="geometricPrecision" transform="matrix(1,0,0,1,-141,169)" stroke="maroon">
      <rect x="1624.1382" width="180" height="73" y="620.7018" clip-path="url(#clipPath3)" stroke="none"/>
    </g>
    <g text-rendering="geometricPrecision" stroke-miterlimit="1.45" shape-rendering="geometricPrecision" transform="matrix(1,0,0,1,-141,169)" stroke-linecap="butt">
      <rect fill="none" x="1624.1382" width="180" height="73" y="620.7018" clip-path="url(#clipPath3)"/>
      <text x="1681.5688" y="661.3561" clip-path="url(#clipPath3)" fill="rgb(255,204,153)" font-family="sans-serif" stroke="none" xml:space="preserve">Equipment</text>
    </g>
    <g fill="maroon" text-rendering="geometricPrecision" shape-rendering="geometricPrecision" transform="matrix(1,0,0,1,-141,169)" stroke="maroon">
      <rect x="1824.1382" width="180" height="73" y="517.7018" clip-path="url(#clipPath3)" stroke="none"/>
    </g>
    <g text-rendering="geometricPrecision" stroke-miterlimit="1.45" shape-rendering="geometricPrecision" transform="matrix(1,0,0,1,-141,169)" stroke-linecap="butt">
      <rect fill="none" x="1824.1382" width="180" height="73" y="517.7018" clip-path="url(#clipPath3)"/>
      <text x="1896.3696" y="558.3561" clip-path="url(#clipPath3)" fill="rgb(255,204,153)" font-family="sans-serif" stroke="none" xml:space="preserve">Spells</text>
    </g>
    <g fill="maroon" text-rendering="geometricPrecision" shape-rendering="geometricPrecision" transform="matrix(1,0,0,1,-141,169)" stroke="maroon">
      <rect x="1624.1382" width="180" height="73" y="517.7018" clip-path="url(#clipPath3)" stroke="none"/>
    </g>
    <g text-rendering="geometricPrecision" stroke-miterlimit="1.45" shape-rendering="geometricPrecision" transform="matrix(1,0,0,1,-141,169)" stroke-linecap="butt">
      <rect fill="none" x="1624.1382" width="180" height="73" y="517.7018" clip-path="url(#clipPath3)"/>
      <text x="1697.354" y="558.3561" clip-path="url(#clipPath3)" fill="rgb(255,204,153)" font-family="sans-serif" stroke="none" xml:space="preserve">Items</text>
    </g>
    <g fill="maroon" text-rendering="geometricPrecision" shape-rendering="geometricPrecision" transform="matrix(1,0,0,1,-141,169)" stroke="maroon">
      <rect x="1334.1382" width="180" height="73" y="409.7018" clip-path="url(#clipPath3)" stroke="none"/>
    </g>
    <g text-rendering="geometricPrecision" stroke-miterlimit="1.45" shape-rendering="geometricPrecision" transform="matrix(1,0,0,1,-141,169)" stroke-linecap="butt">
      <rect fill="none" x="1334.1382" width="180" height="73" y="409.7018" clip-path="url(#clipPath3)"/>
      <text x="1370.4517" y="450.3561" clip-path="url(#clipPath3)" fill="rgb(255,204,153)" font-family="sans-serif" stroke="none" xml:space="preserve">Embedded Assets</text>
    </g>
    <g fill="maroon" text-rendering="geometricPrecision" shape-rendering="geometricPrecision" transform="matrix(1,0,0,1,-141,169)" stroke="maroon">
      <rect x="334.1382" width="180" height="73" y="409.7018" clip-path="url(#clipPath3)" stroke="none"/>
    </g>
    <g text-rendering="geometricPrecision" stroke-miterlimit="1.45" shape-rendering="geometricPrecision" transform="matrix(1,0,0,1,-141,169)" stroke-linecap="butt">
      <rect fill="none" x="334.1382" width="180" height="73" y="409.7018" clip-path="url(#clipPath3)"/>
      <text x="390.1627" y="450.3561" clip-path="url(#clipPath3)" fill="rgb(255,204,153)" font-family="sans-serif" stroke="none" xml:space="preserve">Asset Icons</text>
    </g>
    <g fill="maroon" text-rendering="geometricPrecision" shape-rendering="geometricPrecision" transform="matrix(1,0,0,1,-141,169)" stroke="maroon">
      <rect x="534.1382" width="180" height="73" y="409.7018" clip-path="url(#clipPath3)" stroke="none"/>
    </g>
    <g text-rendering="geometricPrecision" stroke-miterlimit="1.45" shape-rendering="geometricPrecision" transform="matrix(1,0,0,1,-141,169)" stroke-linecap="butt">
      <rect fill="none" x="534.1382" width="180" height="73" y="409.7018" clip-path="url(#clipPath3)"/>
      <text x="581.1832" y="450.3561" clip-path="url(#clipPath3)" fill="rgb(255,204,153)" font-family="sans-serif" stroke="none" xml:space="preserve">Asset Selector</text>
    </g>
    <g fill="maroon" text-rendering="geometricPrecision" shape-rendering="geometricPrecision" transform="matrix(1,0,0,1,-141,169)" stroke="maroon">
      <rect x="734.1382" width="180" height="73" y="517.7018" clip-path="url(#clipPath3)" stroke="none"/>
    </g>
    <g text-rendering="geometricPrecision" stroke-miterlimit="1.45" shape-rendering="geometricPrecision" transform="matrix(1,0,0,1,-141,169)" stroke-linecap="butt">
      <rect fill="none" x="734.1382" width="180" height="73" y="517.7018" clip-path="url(#clipPath3)"/>
      <text x="793.3062" y="558.3561" clip-path="url(#clipPath3)" fill="rgb(255,204,153)" font-family="sans-serif" stroke="none" xml:space="preserve">Packaging</text>
    </g>
    <g fill="maroon" text-rendering="geometricPrecision" shape-rendering="geometricPrecision" transform="matrix(1,0,0,1,-141,169)" stroke="maroon">
      <rect x="1424.1382" width="180" height="73" y="517.7018" clip-path="url(#clipPath3)" stroke="none"/>
    </g>
    <g text-rendering="geometricPrecision" stroke-miterlimit="1.45" shape-rendering="geometricPrecision" transform="matrix(1,0,0,1,-141,169)" stroke-linecap="butt">
      <rect fill="none" x="1424.1382" width="180" height="73" y="517.7018" clip-path="url(#clipPath3)"/>
      <text x="1482.8901" y="558.3561" clip-path="url(#clipPath3)" fill="rgb(255,204,153)" font-family="sans-serif" stroke="none" xml:space="preserve">Save/Load</text>
    </g>
    <g fill="maroon" text-rendering="geometricPrecision" shape-rendering="geometricPrecision" transform="matrix(1,0,0,1,-141,169)" stroke="maroon">
      <rect x="2024.1382" width="180" height="73" y="517.7018" clip-path="url(#clipPath3)" stroke="none"/>
    </g>
    <g text-rendering="geometricPrecision" stroke-miterlimit="1.45" shape-rendering="geometricPrecision" transform="matrix(1,0,0,1,-141,169)" stroke-linecap="butt">
      <rect fill="none" x="2024.1382" width="180" height="73" y="517.7018" clip-path="url(#clipPath3)"/>
      <text x="2064.2983" y="558.3561" clip-path="url(#clipPath3)" fill="rgb(255,204,153)" font-family="sans-serif" stroke="none" xml:space="preserve">Custom Controls</text>
      <path fill="none" d="M868.2382 -77.9812 L868.2382 -67.9812 L1430.4382 -67.9812 L1430.4382 -41.0154" clip-path="url(#clipPath3)"/>
      <path d="M1430.4382 -33.0154 L1435.4382 -45.0154 L1430.4382 -42.0154 L1425.4382 -45.0154 Z" clip-path="url(#clipPath3)" stroke="none"/>
      <path fill="none" d="M1430.4382 40.0188 L1430.4382 126.5188 L1055.6382 126.5188 L1055.6382 170.0188" clip-path="url(#clipPath3)"/>
      <path d="M1055.6382 178.0188 L1060.6382 166.0188 L1055.6382 169.0188 L1050.6382 166.0188 Z" clip-path="url(#clipPath3)" stroke="none"/>
      <path fill="none" d="M830.4382 -77.9812 L830.4382 -41.0251" clip-path="url(#clipPath3)"/>
      <path d="M830.4382 -33.0251 L835.4382 -45.0251 L830.4382 -42.0251 L825.4382 -45.0251 Z" clip-path="url(#clipPath3)" stroke="none"/>
      <path fill="none" d="M830.4382 40.0188 L830.4382 116.5188 L1017.8383 116.5188 L1017.8383 170.0188" clip-path="url(#clipPath3)"/>
      <path d="M1017.8383 178.0188 L1022.8383 166.0188 L1017.8383 169.0188 L1012.8383 166.0188 Z" clip-path="url(#clipPath3)" stroke="none"/>
      <path fill="none" d="M843.0383 1066.6465 L843.0383 1088.6465" clip-path="url(#clipPath3)"/>
      <path d="M843.0383 1096.6465 L848.0383 1084.6465 L843.0383 1087.6465 L838.0383 1084.6465 Z" clip-path="url(#clipPath3)" stroke="none"/>
      <path fill="none" d="M1024.1382 251.0188 L1024.1382 283.7018" clip-path="url(#clipPath3)"/>
      <path d="M1024.1382 291.7018 L1029.1382 279.7018 L1024.1382 282.7018 L1019.1382 279.7018 Z" clip-path="url(#clipPath3)" stroke="none"/>
      <path fill="none" d="M855.6382 -77.9812 L855.6382 -57.9812 L1230.4382 -57.9812 L1230.4382 -41.03" clip-path="url(#clipPath3)"/>
      <path d="M1230.4382 -33.03 L1235.4382 -45.03 L1230.4382 -42.03 L1225.4382 -45.03 Z" clip-path="url(#clipPath3)" stroke="none"/>
      <path fill="none" d="M1230.4382 40.0188 L1230.4382 116.5188 L1043.0382 116.5188 L1043.0382 170.0188" clip-path="url(#clipPath3)"/>
      <path d="M1043.0382 178.0188 L1048.0382 166.0188 L1043.0382 169.0188 L1038.0382 166.0188 Z" clip-path="url(#clipPath3)" stroke="none"/>
      <path fill="none" d="M805.2382 -77.9812 L805.2382 -67.9812 L430.4382 -67.9812 L430.4382 -41.0154" clip-path="url(#clipPath3)"/>
      <path d="M430.4382 -33.0154 L435.4382 -45.0154 L430.4382 -42.0154 L425.4382 -45.0154 Z" clip-path="url(#clipPath3)" stroke="none"/>
      <path fill="none" d="M430.4382 40.0188 L430.4382 163.0188 L992.6382 163.0188 L992.6382 170.0188" clip-path="url(#clipPath3)"/>
      <path d="M992.6382 178.0188 L997.6382 166.0188 L992.6382 169.0188 L987.6382 166.0188 Z" clip-path="url(#clipPath3)" stroke="none"/>
      <path fill="none" d="M630.4382 143.0188 L630.4382 153.0188 L1005.2382 153.0188 L1005.2382 170.0188" clip-path="url(#clipPath3)"/>
      <path d="M1005.2382 178.0188 L1010.2382 166.0188 L1005.2382 169.0188 L1000.2382 166.0188 Z" clip-path="url(#clipPath3)" stroke="none"/>
      <path fill="none" d="M817.8383 -77.9812 L817.8383 -57.9812 L630.4382 -57.9812 L630.4382 -41.03" clip-path="url(#clipPath3)"/>
      <path d="M630.4382 -33.03 L635.4382 -45.03 L630.4382 -42.03 L625.4382 -45.03 Z" clip-path="url(#clipPath3)" stroke="none"/>
      <path fill="none" d="M630.4382 40.0188 L630.4382 61.9895" clip-path="url(#clipPath3)"/>
      <path d="M630.4382 69.9895 L635.4382 57.9895 L630.4382 60.9895 L625.4382 57.9895 Z" clip-path="url(#clipPath3)" stroke="none"/>
      <path fill="none" d="M1523.5883 801.7018 L1523.5883 816.0188 L866.2382 816.0188 L866.2382 835.69" clip-path="url(#clipPath3)"/>
      <path d="M866.2382 843.69 L871.2382 831.69 L866.2382 834.69 L861.2382 831.69 Z" clip-path="url(#clipPath3)" stroke="none"/>
    </g>
    <g stroke-linecap="round" transform="matrix(1,0,0,1,-141,169)" stroke-dashoffset="2" text-rendering="geometricPrecision" shape-rendering="geometricPrecision" stroke-dasharray="0,20" stroke-width="5" stroke-miterlimit="1.45">
      <path fill="none" d="M843.0383 909.0188 L843.0383 924.0188 L843.0383 924.0188 L843.0383 981.6124" clip-path="url(#clipPath3)"/>
      <path d="M843.0383 993.6124 L850.5383 975.6124 L843.0383 980.1124 L835.5383 975.6124 Z" clip-path="url(#clipPath3)" stroke="none"/>
    </g>
    <g text-rendering="geometricPrecision" stroke-miterlimit="1.45" shape-rendering="geometricPrecision" transform="matrix(1,0,0,1,-141,169)" stroke-linecap="butt">
      <path fill="none" d="M843.0383 -77.9812 L843.0383 -47.9812 L1030.4382 -47.9812 L1030.4382 -41.0105" clip-path="url(#clipPath3)"/>
      <path d="M1030.4382 -33.0105 L1035.4382 -45.0105 L1030.4382 -42.0105 L1025.4382 -45.0105 Z" clip-path="url(#clipPath3)" stroke="none"/>
      <path fill="none" d="M1030.4382 40.0188 L1030.4382 170.0188" clip-path="url(#clipPath3)"/>
      <path d="M1030.4382 178.0188 L1035.4382 166.0188 L1030.4382 169.0188 L1025.4382 166.0188 Z" clip-path="url(#clipPath3)" stroke="none"/>
      <path fill="none" d="M1034.9382 364.7018 L1034.9382 394.7018 L1224.1382 394.7018 L1224.1382 401.6725" clip-path="url(#clipPath3)"/>
      <path d="M1224.1382 409.6725 L1229.1382 397.6725 L1224.1382 400.6725 L1219.1382 397.6725 Z" clip-path="url(#clipPath3)" stroke="none"/>
      <path fill="none" d="M1024.1382 364.7018 L1024.1382 401.6579" clip-path="url(#clipPath3)"/>
      <path d="M1024.1382 409.6579 L1029.1382 397.6579 L1024.1382 400.6579 L1019.1382 397.6579 Z" clip-path="url(#clipPath3)" stroke="none"/>
      <path fill="none" d="M1013.3383 364.7018 L1013.3383 394.7018 L824.1382 394.7018 L824.1382 401.6725" clip-path="url(#clipPath3)"/>
      <path d="M824.1382 409.6725 L829.1382 397.6725 L824.1382 400.6725 L819.1382 397.6725 Z" clip-path="url(#clipPath3)" stroke="none"/>
      <path fill="none" d="M1314.1382 590.7018 L1314.1382 612.6725" clip-path="url(#clipPath3)"/>
      <path d="M1314.1382 620.6725 L1319.1382 608.6725 L1314.1382 611.6725 L1309.1382 608.6725 Z" clip-path="url(#clipPath3)" stroke="none"/>
      <path fill="none" d="M1314.1382 693.7018 L1314.1382 703.7018 L1495.2383 703.7018 L1495.2383 720.7018" clip-path="url(#clipPath3)"/>
      <path d="M1495.2383 728.7018 L1500.2383 716.7018 L1495.2383 719.7018 L1490.2383 716.7018 Z" clip-path="url(#clipPath3)" stroke="none"/>
      <path fill="none" d="M1056.5382 364.7018 L1056.5382 374.7018 L1736.6382 374.7018 L1736.6382 401.6676" clip-path="url(#clipPath3)"/>
      <path d="M1736.6382 409.6676 L1741.6382 397.6676 L1736.6382 400.6676 L1731.6382 397.6676 Z" clip-path="url(#clipPath3)" stroke="none"/>
      <path fill="none" d="M1714.1382 693.7018 L1714.1382 703.7018 L1533.0382 703.7018 L1533.0382 720.7018" clip-path="url(#clipPath3)"/>
      <path d="M1533.0382 728.7018 L1538.0382 716.7018 L1533.0382 719.7018 L1528.0382 716.7018 Z" clip-path="url(#clipPath3)" stroke="none"/>
      <path fill="none" d="M1759.1382 482.7409 L1759.1382 502.7018 L1914.1382 502.7018 L1914.1382 509.6725" clip-path="url(#clipPath3)"/>
      <path d="M1914.1382 517.6725 L1919.1382 505.6725 L1914.1382 508.6725 L1909.1382 505.6725 Z" clip-path="url(#clipPath3)" stroke="none"/>
      <path fill="none" d="M1914.1382 590.7018 L1914.1382 713.7018 L1551.9382 713.7018 L1551.9382 720.7018" clip-path="url(#clipPath3)"/>
      <path d="M1551.9382 728.7018 L1556.9382 716.7018 L1551.9382 719.7018 L1546.9382 716.7018 Z" clip-path="url(#clipPath3)" stroke="none"/>
      <path fill="none" d="M1714.1382 482.736 L1714.1382 509.6677" clip-path="url(#clipPath3)"/>
      <path d="M1714.1382 517.6677 L1719.1382 505.6677 L1714.1382 508.6677 L1709.1382 505.6677 Z" clip-path="url(#clipPath3)" stroke="none"/>
      <path fill="none" d="M1714.1382 590.7018 L1714.1382 612.6725" clip-path="url(#clipPath3)"/>
      <path d="M1714.1382 620.6725 L1719.1382 608.6725 L1714.1382 611.6725 L1709.1382 608.6725 Z" clip-path="url(#clipPath3)" stroke="none"/>
      <path fill="none" d="M1045.7383 364.7018 L1045.7383 384.7018 L1424.1382 384.7018 L1424.1382 401.653" clip-path="url(#clipPath3)"/>
      <path d="M1424.1382 409.653 L1429.1382 397.653 L1424.1382 400.653 L1419.1382 397.653 Z" clip-path="url(#clipPath3)" stroke="none"/>
      <path fill="none" d="M1379.1382 482.7409 L1379.1382 492.7018 L1314.1382 492.7018 L1314.1382 509.653" clip-path="url(#clipPath3)"/>
      <path d="M1314.1382 517.653 L1319.1382 505.653 L1314.1382 508.653 L1309.1382 505.653 Z" clip-path="url(#clipPath3)" stroke="none"/>
      <path fill="none" d="M991.7382 364.7018 L991.7382 374.7018 L424.1382 374.7018 L424.1382 401.6676" clip-path="url(#clipPath3)"/>
      <path d="M424.1382 409.6676 L429.1382 397.6676 L424.1382 400.6676 L419.1382 397.6676 Z" clip-path="url(#clipPath3)" stroke="none"/>
      <path fill="none" d="M1002.5383 364.7018 L1002.5383 384.7018 L624.1382 384.7018 L624.1382 401.653" clip-path="url(#clipPath3)"/>
      <path d="M624.1382 409.653 L629.1382 397.653 L624.1382 400.653 L619.1382 397.653 Z" clip-path="url(#clipPath3)" stroke="none"/>
      <path fill="none" d="M824.1382 482.736 L824.1382 509.6677" clip-path="url(#clipPath3)"/>
      <path d="M824.1382 517.6677 L829.1382 505.6677 L824.1382 508.6677 L819.1382 505.6677 Z" clip-path="url(#clipPath3)" stroke="none"/>
      <path fill="none" d="M1224.1382 482.7409 L1224.1382 502.7018 L896.1382 502.7018 L896.1382 509.6725" clip-path="url(#clipPath3)"/>
      <path d="M896.1382 517.6725 L901.1382 505.6725 L896.1382 508.6725 L891.1382 505.6725 Z" clip-path="url(#clipPath3)" stroke="none"/>
      <path fill="none" d="M1024.1382 482.7409 L1024.1382 492.7018 L860.1382 492.7018 L860.1382 509.653" clip-path="url(#clipPath3)"/>
      <path d="M860.1382 517.653 L865.1382 505.653 L860.1382 508.653 L855.1382 505.653 Z" clip-path="url(#clipPath3)" stroke="none"/>
      <path fill="none" d="M624.1382 482.7409 L624.1382 492.7018 L788.1382 492.7018 L788.1382 509.653" clip-path="url(#clipPath3)"/>
      <path d="M788.1382 517.653 L793.1382 505.653 L788.1382 508.653 L783.1382 505.653 Z" clip-path="url(#clipPath3)" stroke="none"/>
      <path fill="none" d="M424.1382 482.7409 L424.1382 502.7018 L752.1382 502.7018 L752.1382 509.6725" clip-path="url(#clipPath3)"/>
      <path d="M752.1382 517.6725 L757.1382 505.6725 L752.1382 508.6725 L747.1382 505.6725 Z" clip-path="url(#clipPath3)" stroke="none"/>
      <path fill="none" d="M824.1382 590.7018 L824.1382 832.9039" clip-path="url(#clipPath3)"/>
      <path d="M824.1382 840.9039 L829.1382 828.9039 L824.1382 831.9039 L819.1382 828.9039 Z" clip-path="url(#clipPath3)" stroke="none"/>
      <path fill="none" d="M1469.1382 482.736 L1469.1382 509.6677" clip-path="url(#clipPath3)"/>
      <path d="M1469.1382 517.6677 L1474.1382 505.6677 L1469.1382 508.6677 L1464.1382 505.6677 Z" clip-path="url(#clipPath3)" stroke="none"/>
      <path fill="none" d="M1669.1382 482.7409 L1669.1382 492.7018 L1559.1382 492.7018 L1559.1382 509.653" clip-path="url(#clipPath3)"/>
      <path d="M1559.1382 517.653 L1564.1382 505.653 L1559.1382 508.653 L1554.1382 505.653 Z" clip-path="url(#clipPath3)" stroke="none"/>
      <path fill="none" d="M1514.1382 590.7018 L1514.1382 720.7018" clip-path="url(#clipPath3)"/>
      <path d="M1514.1382 728.7018 L1519.1382 716.7018 L1514.1382 719.7018 L1509.1382 716.7018 Z" clip-path="url(#clipPath3)" stroke="none"/>
      <path fill="none" d="M1804.1382 482.7409 L1804.1382 492.7018 L2114.1382 492.7018 L2114.1382 509.653" clip-path="url(#clipPath3)"/>
      <path d="M2114.1382 517.653 L2119.1382 505.653 L2114.1382 508.653 L2109.1382 505.653 Z" clip-path="url(#clipPath3)" stroke="none"/>
      <path fill="none" d="M2114.1382 590.7018 L2114.1382 872.5188 L888.8383 872.5188" clip-path="url(#clipPath3)"/>
      <path d="M880.8383 872.5188 L892.8383 877.5188 L889.8383 872.5188 L892.8383 867.5188 Z" clip-path="url(#clipPath3)" stroke="none"/>
    </g>
  </g>
</svg>
