<?xml version="1.0" encoding="UTF-8"?><svg xmlns="http://www.w3.org/2000/svg" xmlns:xlink="http://www.w3.org/1999/xlink" fill-opacity="1" color-rendering="auto" color-interpolation="auto" text-rendering="auto" stroke="black" stroke-linecap="square" width="1111" stroke-miterlimit="10" shape-rendering="auto" stroke-opacity="1" fill="black" stroke-dasharray="none" font-weight="normal" stroke-width="1" height="1060" font-family="'Dialog'" font-style="normal" stroke-linejoin="miter" font-size="12px" stroke-dashoffset="0" image-rendering="auto">
  <!--Generated by ySVG 2.5-->
  <defs id="genericDefs"/>
  <g>
    <defs id="defs1">
      <clipPath clipPathUnits="userSpaceOnUse" id="clipPath1">
        <path d="M0 0 L1111 0 L1111 1060 L0 1060 L0 0 Z"/>
      </clipPath>
      <clipPath clipPathUnits="userSpaceOnUse" id="clipPath2">
        <path d="M137 -72 L1248 -72 L1248 988 L137 988 L137 -72 Z"/>
      </clipPath>
      <clipPath clipPathUnits="userSpaceOnUse" id="clipPath3">
        <path d="M141 -68 L1252 -68 L1252 992 L141 992 L141 -68 Z"/>
      </clipPath>
    </defs>
    <g fill="rgb(210,210,210)" text-rendering="geometricPrecision" shape-rendering="geometricPrecision" transform="matrix(1,0,0,1,-141,68) translate(4,4)" stroke="rgb(210,210,210)">
      <rect x="156.8187" width="147.3196" height="216" y="-52.6543" clip-path="url(#clipPath2)" stroke="none"/>
    </g>
    <g fill="rgb(242,240,216)" text-rendering="geometricPrecision" shape-rendering="geometricPrecision" transform="matrix(1,0,0,1,-141,68)" stroke="rgb(242,240,216)">
      <rect x="156.8187" width="147.3196" height="216" y="-52.6543" clip-path="url(#clipPath3)" stroke="none"/>
      <rect x="156.8187" y="-52.6543" clip-path="url(#clipPath3)" fill="rgb(183,182,158)" width="147.3196" height="21.4609" stroke="none"/>
    </g>
    <g font-size="15px" stroke-linecap="butt" transform="matrix(1,0,0,1,-141,68)" text-rendering="geometricPrecision" font-family="sans-serif" shape-rendering="geometricPrecision" stroke-miterlimit="1.45">
      <text x="222.4581" xml:space="preserve" y="-36.7309" clip-path="url(#clipPath3)" stroke="none">Shape Key</text>
      <rect fill="none" x="156.8187" width="147.3196" height="216" y="-52.6543" clip-path="url(#clipPath3)"/>
    </g>
    <g fill="rgb(255,204,0)" text-rendering="geometricPrecision" shape-rendering="geometricPrecision" transform="matrix(1,0,0,1,-141,68)" stroke="rgb(255,204,0)">
      <rect x="171.8187" width="117.3196" height="35.3086" y="-12.6543" clip-path="url(#clipPath3)" stroke="none"/>
    </g>
    <g text-rendering="geometricPrecision" stroke-miterlimit="1.45" shape-rendering="geometricPrecision" transform="matrix(1,0,0,1,-141,68)" stroke-linecap="butt">
      <rect fill="none" x="171.8187" width="117.3196" height="35.3086" y="-12.6543" clip-path="url(#clipPath3)"/>
      <text x="190.998" xml:space="preserve" y="9.1543" clip-path="url(#clipPath3)" font-family="sans-serif" stroke="none">Halberd Task</text>
    </g>
    <g fill="rgb(255,204,0)" text-rendering="geometricPrecision" shape-rendering="geometricPrecision" transform="matrix(1,0,0,1,-141,68)" stroke="rgb(255,204,0)">
      <rect x="171.8187" y="35.6668" clip-path="url(#clipPath3)" width="117.3196" rx="4" ry="4" height="35.3086" stroke="none"/>
    </g>
    <g stroke-linecap="butt" transform="matrix(1,0,0,1,-141,68)" fill="gray" text-rendering="geometricPrecision" shape-rendering="geometricPrecision" stroke="gray" stroke-miterlimit="1.45">
      <rect x="171.8187" y="35.6668" clip-path="url(#clipPath3)" fill="none" width="117.3196" rx="4" ry="4" height="35.3086"/>
      <text x="189.6298" y="57.4754" clip-path="url(#clipPath3)" fill="black" font-family="sans-serif" stroke="none" xml:space="preserve">External Task</text>
    </g>
    <g fill="rgb(255,204,0)" text-rendering="geometricPrecision" shape-rendering="geometricPrecision" transform="matrix(1,0,0,1,-141,68)" stroke="rgb(255,204,0)">
      <circle r="29.864" clip-path="url(#clipPath3)" cx="230.4785" cy="113.852" stroke="none"/>
    </g>
    <g text-rendering="geometricPrecision" stroke-miterlimit="1.45" shape-rendering="geometricPrecision" transform="matrix(1,0,0,1,-141,68)" stroke-linecap="butt">
      <circle fill="none" r="29.864" clip-path="url(#clipPath3)" cx="230.4785" cy="113.852"/>
      <text x="206.7656" xml:space="preserve" y="118.0063" clip-path="url(#clipPath3)" font-family="sans-serif" stroke="none">Release</text>
    </g>
    <g fill="rgb(210,210,210)" text-rendering="geometricPrecision" shape-rendering="geometricPrecision" transform="matrix(1,0,0,1,-141,68) translate(4,4)" stroke="rgb(210,210,210)">
      <rect x="156.8187" width="147.3196" height="279.9426" y="188.2305" clip-path="url(#clipPath2)" stroke="none"/>
    </g>
    <g fill="rgb(242,240,216)" text-rendering="geometricPrecision" shape-rendering="geometricPrecision" transform="matrix(1,0,0,1,-141,68)" stroke="rgb(242,240,216)">
      <rect x="156.8187" width="147.3196" height="279.9426" y="188.2305" clip-path="url(#clipPath3)" stroke="none"/>
      <rect x="156.8187" y="188.2305" clip-path="url(#clipPath3)" fill="rgb(183,182,158)" width="147.3196" height="21.4609" stroke="none"/>
    </g>
    <g font-size="15px" stroke-linecap="butt" transform="matrix(1,0,0,1,-141,68)" text-rendering="geometricPrecision" font-family="sans-serif" shape-rendering="geometricPrecision" stroke-miterlimit="1.45">
      <text x="230.2657" xml:space="preserve" y="204.1538" clip-path="url(#clipPath3)" stroke="none">Color Key</text>
      <rect fill="none" x="156.8187" width="147.3196" height="279.9426" y="188.2305" clip-path="url(#clipPath3)"/>
    </g>
    <g fill="maroon" text-rendering="geometricPrecision" shape-rendering="geometricPrecision" transform="matrix(1,0,0,1,-141,68)" stroke="maroon">
      <rect x="171.8187" width="117.3196" height="35.3086" y="224.6914" clip-path="url(#clipPath3)" stroke="none"/>
    </g>
    <g text-rendering="geometricPrecision" stroke-miterlimit="1.45" shape-rendering="geometricPrecision" transform="matrix(1,0,0,1,-141,68)" stroke-linecap="butt">
      <rect fill="none" x="171.8187" width="117.3196" height="35.3086" y="224.6914" clip-path="url(#clipPath3)"/>
      <text x="193.4589" y="246.5" clip-path="url(#clipPath3)" fill="rgb(255,204,153)" font-family="sans-serif" stroke="none" xml:space="preserve">Future Work</text>
    </g>
    <g fill="red" text-rendering="geometricPrecision" shape-rendering="geometricPrecision" transform="matrix(1,0,0,1,-141,68)" stroke="red">
      <rect x="171.8187" width="117.3196" height="35.3086" y="273.0863" clip-path="url(#clipPath3)" stroke="none"/>
    </g>
    <g text-rendering="geometricPrecision" stroke-miterlimit="1.45" shape-rendering="geometricPrecision" transform="matrix(1,0,0,1,-141,68)" stroke-linecap="butt">
      <rect fill="none" x="171.8187" width="117.3196" height="35.3086" y="273.0863" clip-path="url(#clipPath3)"/>
      <text x="182.7334" xml:space="preserve" y="294.8949" clip-path="url(#clipPath3)" font-family="sans-serif" stroke="none">Upcoming Work</text>
    </g>
    <g fill="rgb(255,102,0)" text-rendering="geometricPrecision" shape-rendering="geometricPrecision" transform="matrix(1,0,0,1,-141,68)" stroke="rgb(255,102,0)">
      <rect x="171.8187" width="117.3196" height="35.3086" y="321.3457" clip-path="url(#clipPath3)" stroke="none"/>
    </g>
    <g text-rendering="geometricPrecision" stroke-miterlimit="1.45" shape-rendering="geometricPrecision" transform="matrix(1,0,0,1,-141,68)" stroke-linecap="butt">
      <rect fill="none" x="171.8187" width="117.3196" height="35.3086" y="321.3457" clip-path="url(#clipPath3)"/>
      <text x="198.9433" xml:space="preserve" y="343.1543" clip-path="url(#clipPath3)" font-family="sans-serif" stroke="none">Next Work</text>
    </g>
    <g fill="rgb(255,204,0)" text-rendering="geometricPrecision" shape-rendering="geometricPrecision" transform="matrix(1,0,0,1,-141,68)" stroke="rgb(255,204,0)">
      <rect x="171.8187" width="117.3196" height="35.3086" y="369.6051" clip-path="url(#clipPath3)" stroke="none"/>
    </g>
    <g text-rendering="geometricPrecision" stroke-miterlimit="1.45" shape-rendering="geometricPrecision" transform="matrix(1,0,0,1,-141,68)" stroke-linecap="butt">
      <rect fill="none" x="171.8187" width="117.3196" height="35.3086" y="369.6051" clip-path="url(#clipPath3)"/>
      <text x="197.0244" xml:space="preserve" y="391.4137" clip-path="url(#clipPath3)" font-family="sans-serif" stroke="none">In Progress</text>
    </g>
    <g fill="rgb(153,204,0)" text-rendering="geometricPrecision" shape-rendering="geometricPrecision" transform="matrix(1,0,0,1,-141,68)" stroke="rgb(153,204,0)">
      <rect x="171.8187" width="117.3196" height="35.3086" y="417.8645" clip-path="url(#clipPath3)" stroke="none"/>
    </g>
    <g text-rendering="geometricPrecision" stroke-miterlimit="1.45" shape-rendering="geometricPrecision" transform="matrix(1,0,0,1,-141,68)" stroke-linecap="butt">
      <rect fill="none" x="171.8187" width="117.3196" height="35.3086" y="417.8645" clip-path="url(#clipPath3)"/>
      <text x="214.6933" xml:space="preserve" y="439.6731" clip-path="url(#clipPath3)" font-family="sans-serif" stroke="none">Done</text>
    </g>
    <g fill="rgb(255,102,0)" text-rendering="geometricPrecision" shape-rendering="geometricPrecision" transform="matrix(1,0,0,1,-141,68)" stroke="rgb(255,102,0)">
      <rect x="921.36" width="180" height="73" y="71.5" clip-path="url(#clipPath3)" stroke="none"/>
    </g>
    <g text-rendering="geometricPrecision" stroke-miterlimit="1.45" shape-rendering="geometricPrecision" transform="matrix(1,0,0,1,-141,68)" stroke-linecap="butt">
      <rect fill="none" x="921.36" width="180" height="73" y="71.5" clip-path="url(#clipPath3)"/>
      <text x="951.6764" xml:space="preserve" y="112.1543" clip-path="url(#clipPath3)" font-family="sans-serif" stroke="none">Main Editor Window</text>
    </g>
    <g fill="rgb(255,102,0)" text-rendering="geometricPrecision" shape-rendering="geometricPrecision" transform="matrix(1,0,0,1,-141,68)" stroke="rgb(255,102,0)">
      <rect x="721.36" width="180" height="73" y="71.5" clip-path="url(#clipPath3)" stroke="none"/>
    </g>
    <g text-rendering="geometricPrecision" stroke-miterlimit="1.45" shape-rendering="geometricPrecision" transform="matrix(1,0,0,1,-141,68)" stroke-linecap="butt">
      <rect fill="none" x="721.36" width="180" height="73" y="71.5" clip-path="url(#clipPath3)"/>
      <text x="751.5709" xml:space="preserve" y="112.1543" clip-path="url(#clipPath3)" font-family="sans-serif" stroke="none">Main Game Window</text>
    </g>
    <g fill="red" text-rendering="geometricPrecision" shape-rendering="geometricPrecision" transform="matrix(1,0,0,1,-141,68)" stroke="red">
      <rect x="766.36" width="180" height="73" y="174.5" clip-path="url(#clipPath3)" stroke="none"/>
    </g>
    <g text-rendering="geometricPrecision" stroke-miterlimit="1.45" shape-rendering="geometricPrecision" transform="matrix(1,0,0,1,-141,68)" stroke-linecap="butt">
      <rect fill="none" x="766.36" width="180" height="73" y="174.5" clip-path="url(#clipPath3)"/>
      <text x="779.4645" xml:space="preserve" y="215.1543" clip-path="url(#clipPath3)" font-family="sans-serif" stroke="none">'Playable' Editor Viewport</text>
    </g>
    <g fill="red" text-rendering="geometricPrecision" shape-rendering="geometricPrecision" transform="matrix(1,0,0,1,-141,68)" stroke="red">
      <rect x="856.36" width="180" height="73" y="277.5" clip-path="url(#clipPath3)" stroke="none"/>
    </g>
    <g text-rendering="geometricPrecision" stroke-miterlimit="1.45" shape-rendering="geometricPrecision" transform="matrix(1,0,0,1,-141,68)" stroke-linecap="butt">
      <rect fill="none" x="856.36" width="180" height="73" y="277.5" clip-path="url(#clipPath3)"/>
      <text x="902.6754" xml:space="preserve" y="318.1543" clip-path="url(#clipPath3)" font-family="sans-serif" stroke="none">Tilemap Editor</text>
    </g>
    <g fill="maroon" text-rendering="geometricPrecision" shape-rendering="geometricPrecision" transform="matrix(1,0,0,1,-141,68)" stroke="maroon">
      <rect x="456.36" width="180" height="73" y="277.5" clip-path="url(#clipPath3)" stroke="none"/>
    </g>
    <g text-rendering="geometricPrecision" stroke-miterlimit="1.45" shape-rendering="geometricPrecision" transform="matrix(1,0,0,1,-141,68)" stroke-linecap="butt">
      <rect fill="none" x="456.36" width="180" height="73" y="277.5" clip-path="url(#clipPath3)"/>
      <text x="503.153" y="318.1543" clip-path="url(#clipPath3)" fill="rgb(255,204,153)" font-family="sans-serif" stroke="none" xml:space="preserve">Combat Editor</text>
    </g>
    <g fill="red" text-rendering="geometricPrecision" shape-rendering="geometricPrecision" transform="matrix(1,0,0,1,-141,68)" stroke="red">
      <rect x="966.36" y="174.5" clip-path="url(#clipPath3)" width="180" rx="4" ry="4" height="73" stroke="none"/>
    </g>
    <g stroke-linecap="butt" transform="matrix(1,0,0,1,-141,68)" fill="gray" text-rendering="geometricPrecision" shape-rendering="geometricPrecision" stroke="gray" stroke-miterlimit="1.45">
      <rect x="966.36" y="174.5" clip-path="url(#clipPath3)" fill="none" width="180" rx="4" ry="4" height="73"/>
      <text x="994.1041" y="215.1543" clip-path="url(#clipPath3)" fill="black" font-family="sans-serif" stroke="none" xml:space="preserve">DFGame Tile Module</text>
    </g>
    <g fill="maroon" text-rendering="geometricPrecision" shape-rendering="geometricPrecision" transform="matrix(1,0,0,1,-141,68)" stroke="maroon">
      <rect x="1056.36" width="180" height="73" y="277.5" clip-path="url(#clipPath3)" stroke="none"/>
    </g>
    <g text-rendering="geometricPrecision" stroke-miterlimit="1.45" shape-rendering="geometricPrecision" transform="matrix(1,0,0,1,-141,68)" stroke-linecap="butt">
      <rect fill="none" x="1056.36" width="180" height="73" y="277.5" clip-path="url(#clipPath3)"/>
      <text x="1106.8356" y="318.1543" clip-path="url(#clipPath3)" fill="rgb(255,204,153)" font-family="sans-serif" stroke="none" xml:space="preserve">Tileset Editor</text>
    </g>
    <g fill="rgb(153,204,0)" text-rendering="geometricPrecision" shape-rendering="geometricPrecision" transform="matrix(1,0,0,1,-141,68)" stroke="rgb(153,204,0)">
      <rect x="766.36" width="180" height="73" y="-31.5" clip-path="url(#clipPath3)" stroke="none"/>
    </g>
    <g text-rendering="geometricPrecision" stroke-miterlimit="1.45" shape-rendering="geometricPrecision" transform="matrix(1,0,0,1,-141,68)" stroke-linecap="butt">
      <rect fill="none" x="766.36" width="180" height="73" y="-31.5" clip-path="url(#clipPath3)"/>
      <text x="817.0172" xml:space="preserve" y="9.1543" clip-path="url(#clipPath3)" font-family="sans-serif" stroke="none">Build System</text>
    </g>
    <g fill="red" text-rendering="geometricPrecision" shape-rendering="geometricPrecision" transform="matrix(1,0,0,1,-141,68)" stroke="red">
      <rect x="951.36" width="180" height="73" y="380.5" clip-path="url(#clipPath3)" stroke="none"/>
    </g>
    <g text-rendering="geometricPrecision" stroke-miterlimit="1.45" shape-rendering="geometricPrecision" transform="matrix(1,0,0,1,-141,68)" stroke-linecap="butt">
      <rect fill="none" x="951.36" width="180" height="73" y="380.5" clip-path="url(#clipPath3)"/>
      <text x="1009.5787" xml:space="preserve" y="421.1543" clip-path="url(#clipPath3)" font-family="sans-serif" stroke="none">Movement</text>
    </g>
    <g fill="maroon" text-rendering="geometricPrecision" shape-rendering="geometricPrecision" transform="matrix(1,0,0,1,-141,68)" stroke="maroon">
      <rect x="551.36" width="180" height="73" y="380.5" clip-path="url(#clipPath3)" stroke="none"/>
    </g>
    <g text-rendering="geometricPrecision" stroke-miterlimit="1.45" shape-rendering="geometricPrecision" transform="matrix(1,0,0,1,-141,68)" stroke-linecap="butt">
      <rect fill="none" x="551.36" width="180" height="73" y="380.5" clip-path="url(#clipPath3)"/>
      <text x="577.1295" y="421.1543" clip-path="url(#clipPath3)" fill="rgb(255,204,153)" font-family="sans-serif" stroke="none" xml:space="preserve">Encounter Placement</text>
    </g>
    <g fill="maroon" text-rendering="geometricPrecision" shape-rendering="geometricPrecision" transform="matrix(1,0,0,1,-141,68)" stroke="maroon">
      <rect x="551.36" width="180" height="73" y="483.5" clip-path="url(#clipPath3)" stroke="none"/>
    </g>
    <g text-rendering="geometricPrecision" stroke-miterlimit="1.45" shape-rendering="geometricPrecision" transform="matrix(1,0,0,1,-141,68)" stroke-linecap="butt">
      <rect fill="none" x="551.36" width="180" height="73" y="483.5" clip-path="url(#clipPath3)"/>
      <text x="553.4108" y="524.1543" clip-path="url(#clipPath3)" fill="rgb(255,204,153)" font-family="sans-serif" stroke="none" xml:space="preserve">Playable Random Encounters</text>
    </g>
    <g fill="maroon" text-rendering="geometricPrecision" shape-rendering="geometricPrecision" transform="matrix(1,0,0,1,-141,68)" stroke="maroon">
      <rect x="461.36" width="180" height="73" y="174.5" clip-path="url(#clipPath3)" stroke="none"/>
    </g>
    <g text-rendering="geometricPrecision" stroke-miterlimit="1.45" shape-rendering="geometricPrecision" transform="matrix(1,0,0,1,-141,68)" stroke-linecap="butt">
      <rect fill="none" x="461.36" width="180" height="73" y="174.5" clip-path="url(#clipPath3)"/>
      <text x="475.7653" y="215.1543" clip-path="url(#clipPath3)" fill="rgb(255,204,153)" font-family="sans-serif" stroke="none" xml:space="preserve">Monster/Character Editor</text>
    </g>
    <g fill="maroon" text-rendering="geometricPrecision" shape-rendering="geometricPrecision" transform="matrix(1,0,0,1,-141,68)" stroke="maroon">
      <rect x="461.36" width="180" height="73" y="71.5" clip-path="url(#clipPath3)" stroke="none"/>
    </g>
    <g text-rendering="geometricPrecision" stroke-miterlimit="1.45" shape-rendering="geometricPrecision" transform="matrix(1,0,0,1,-141,68)" stroke-linecap="butt">
      <rect fill="none" x="461.36" width="180" height="73" y="71.5" clip-path="url(#clipPath3)"/>
      <text x="536.0436" y="112.1543" clip-path="url(#clipPath3)" fill="rgb(255,204,153)" font-family="sans-serif" stroke="none" xml:space="preserve">Stats</text>
    </g>
    <g fill="maroon" text-rendering="geometricPrecision" shape-rendering="geometricPrecision" transform="matrix(1,0,0,1,-141,68)" stroke="maroon">
      <rect x="751.36" width="180" height="73" y="483.5" clip-path="url(#clipPath3)" stroke="none"/>
    </g>
    <g text-rendering="geometricPrecision" stroke-miterlimit="1.45" shape-rendering="geometricPrecision" transform="matrix(1,0,0,1,-141,68)" stroke-linecap="butt">
      <rect fill="none" x="751.36" width="180" height="73" y="483.5" clip-path="url(#clipPath3)"/>
      <text x="765.0182" y="524.1543" clip-path="url(#clipPath3)" fill="rgb(255,204,153)" font-family="sans-serif" stroke="none" xml:space="preserve">Initial Asset Management</text>
    </g>
    <g fill="maroon" text-rendering="geometricPrecision" shape-rendering="geometricPrecision" transform="matrix(1,0,0,1,-141,68)" stroke="maroon">
      <circle r="37.8" clip-path="url(#clipPath3)" cx="1031.91" cy="629.3" stroke="none"/>
    </g>
    <g text-rendering="geometricPrecision" stroke-miterlimit="1.45" shape-rendering="geometricPrecision" transform="matrix(1,0,0,1,-141,68)" stroke-linecap="butt">
      <circle fill="none" r="37.8" clip-path="url(#clipPath3)" cx="1031.91" cy="629.3"/>
      <text x="999.3289" y="626.4699" clip-path="url(#clipPath3)" fill="rgb(255,204,153)" font-family="sans-serif" stroke="none" xml:space="preserve">v0.1 (MVP)</text>
      <text x="1008.1971" y="640.4387" clip-path="url(#clipPath3)" fill="rgb(255,204,153)" font-family="sans-serif" stroke="none" xml:space="preserve">Release</text>
    </g>
    <g fill="maroon" text-rendering="geometricPrecision" shape-rendering="geometricPrecision" transform="matrix(1,0,0,1,-141,68)" stroke="maroon">
      <ellipse rx="37.8" ry="36.5" clip-path="url(#clipPath3)" cx="1031.91" cy="733.6" stroke="none"/>
    </g>
    <g text-rendering="geometricPrecision" stroke-miterlimit="1.45" shape-rendering="geometricPrecision" transform="matrix(1,0,0,1,-141,68)" stroke-linecap="butt">
      <ellipse rx="37.8" fill="none" ry="36.5" clip-path="url(#clipPath3)" cx="1031.91" cy="733.6"/>
      <text x="1005.8797" y="730.7699" clip-path="url(#clipPath3)" fill="rgb(255,204,153)" font-family="sans-serif" stroke="none" xml:space="preserve">Example</text>
      <text x="1014.0477" y="744.7386" clip-path="url(#clipPath3)" fill="rgb(255,204,153)" font-family="sans-serif" stroke="none" xml:space="preserve">Game</text>
    </g>
    <g fill="maroon" text-rendering="geometricPrecision" shape-rendering="geometricPrecision" transform="matrix(1,0,0,1,-141,68)" stroke="maroon">
      <rect x="941.91" width="180" height="73" y="800.1" clip-path="url(#clipPath3)" stroke="none"/>
    </g>
    <g text-rendering="geometricPrecision" stroke-miterlimit="1.45" shape-rendering="geometricPrecision" transform="matrix(1,0,0,1,-141,68)" stroke-linecap="butt">
      <rect fill="none" x="941.91" width="180" height="73" y="800.1" clip-path="url(#clipPath3)"/>
      <text x="945.1238" y="840.7543" clip-path="url(#clipPath3)" fill="rgb(255,204,153)" font-family="sans-serif" stroke="none" xml:space="preserve">Full Turn-Based RPG Support</text>
    </g>
    <g fill="maroon" text-rendering="geometricPrecision" shape-rendering="geometricPrecision" transform="matrix(1,0,0,1,-141,68)" stroke="maroon">
      <ellipse rx="37.8" ry="36.5" clip-path="url(#clipPath3)" cx="1031.91" cy="939.6" stroke="none"/>
    </g>
    <g text-rendering="geometricPrecision" stroke-miterlimit="1.45" shape-rendering="geometricPrecision" transform="matrix(1,0,0,1,-141,68)" stroke-linecap="butt">
      <ellipse rx="37.8" fill="none" ry="36.5" clip-path="url(#clipPath3)" cx="1031.91" cy="939.6"/>
      <text x="993.1971" y="943.7543" clip-path="url(#clipPath3)" fill="rgb(255,204,153)" font-family="sans-serif" stroke="none" xml:space="preserve">v1.0 Release</text>
    </g>
    <g fill="maroon" text-rendering="geometricPrecision" shape-rendering="geometricPrecision" transform="matrix(1,0,0,1,-141,68)" stroke="maroon">
      <rect x="351.36" width="180" height="73" y="380.5" clip-path="url(#clipPath3)" stroke="none"/>
    </g>
    <g text-rendering="geometricPrecision" stroke-miterlimit="1.45" shape-rendering="geometricPrecision" transform="matrix(1,0,0,1,-141,68)" stroke-linecap="butt">
      <rect fill="none" x="351.36" width="180" height="73" y="380.5" clip-path="url(#clipPath3)"/>
      <text x="416.6891" y="421.1543" clip-path="url(#clipPath3)" fill="rgb(255,204,153)" font-family="sans-serif" stroke="none" xml:space="preserve">Initial UI</text>
    </g>
    <g fill="maroon" text-rendering="geometricPrecision" shape-rendering="geometricPrecision" transform="matrix(1,0,0,1,-141,68)" stroke="maroon">
      <rect x="751.36" width="180" height="73" y="380.5" clip-path="url(#clipPath3)" stroke="none"/>
    </g>
    <g text-rendering="geometricPrecision" stroke-miterlimit="1.45" shape-rendering="geometricPrecision" transform="matrix(1,0,0,1,-141,68)" stroke-linecap="butt">
      <rect fill="none" x="751.36" width="180" height="73" y="380.5" clip-path="url(#clipPath3)"/>
      <text x="779.1627" y="421.1543" clip-path="url(#clipPath3)" fill="rgb(255,204,153)" font-family="sans-serif" stroke="none" xml:space="preserve">Project Management</text>
      <path fill="none" d="M966.36 144.5 L966.36 154.5 L901.36 154.5 L901.36 166.4609" clip-path="url(#clipPath3)"/>
      <path d="M901.36 174.4609 L906.36 162.4609 L901.36 165.4609 L896.36 162.4609 Z" clip-path="url(#clipPath3)" stroke="none"/>
      <path fill="none" d="M811.36 144.5 L811.36 166.4707" clip-path="url(#clipPath3)"/>
      <path d="M811.36 174.4707 L816.36 162.4707 L811.36 165.4707 L806.36 162.4707 Z" clip-path="url(#clipPath3)" stroke="none"/>
      <path fill="none" d="M901.36 247.5 L901.36 269.4707" clip-path="url(#clipPath3)"/>
      <path d="M901.36 277.4707 L906.36 265.4707 L901.36 268.4707 L896.36 265.4707 Z" clip-path="url(#clipPath3)" stroke="none"/>
      <path fill="none" d="M811.36 247.5 L811.36 257.5 L591.36 257.5 L591.36 269.4609" clip-path="url(#clipPath3)"/>
      <path d="M591.36 277.4609 L596.36 265.4609 L591.36 268.4609 L586.36 265.4609 Z" clip-path="url(#clipPath3)" stroke="none"/>
      <path fill="none" d="M1011.36 247.5 L1011.36 257.5 L991.36 257.5 L991.36 269.4609" clip-path="url(#clipPath3)"/>
      <path d="M991.36 277.4609 L996.36 265.4609 L991.36 268.4609 L986.36 265.4609 Z" clip-path="url(#clipPath3)" stroke="none"/>
      <path fill="none" d="M1056.36 144.5 L1056.36 154.5 L1191.36 154.5 L1191.36 269.47" clip-path="url(#clipPath3)"/>
      <path d="M1191.36 277.47 L1196.36 265.47 L1191.36 268.47 L1186.36 265.47 Z" clip-path="url(#clipPath3)" stroke="none"/>
      <path fill="none" d="M1101.36 247.5 L1101.36 269.4707" clip-path="url(#clipPath3)"/>
      <path d="M1101.36 277.4707 L1106.36 265.4707 L1101.36 268.4707 L1096.36 265.4707 Z" clip-path="url(#clipPath3)" stroke="none"/>
      <path fill="none" d="M901.36 41.5 L901.36 51.5 L1011.36 51.5 L1011.36 63.4609" clip-path="url(#clipPath3)"/>
      <path d="M1011.36 71.4609 L1016.36 59.4609 L1011.36 62.4609 L1006.36 59.4609 Z" clip-path="url(#clipPath3)" stroke="none"/>
      <path fill="none" d="M811.36 41.5 L811.36 63.4707" clip-path="url(#clipPath3)"/>
      <path d="M811.36 71.4707 L816.36 59.4707 L811.36 62.4707 L806.36 59.4707 Z" clip-path="url(#clipPath3)" stroke="none"/>
      <path fill="none" d="M991.36 350.5 L991.36 360.5 L1041.36 360.5 L1041.36 372.4609" clip-path="url(#clipPath3)"/>
      <path d="M1041.36 380.4609 L1046.36 368.4609 L1041.36 371.4609 L1036.36 368.4609 Z" clip-path="url(#clipPath3)" stroke="none"/>
      <path fill="none" d="M901.36 350.5 L901.36 360.5 L641.36 360.5 L641.36 372.4609" clip-path="url(#clipPath3)"/>
      <path d="M641.36 380.4609 L646.36 368.4609 L641.36 371.4609 L636.36 368.4609 Z" clip-path="url(#clipPath3)" stroke="none"/>
      <path fill="none" d="M546.36 350.5 L546.36 463.5 L641.36 463.5 L641.36 475.4609" clip-path="url(#clipPath3)"/>
      <path d="M641.36 483.4609 L646.36 471.4609 L641.36 474.4609 L636.36 471.4609 Z" clip-path="url(#clipPath3)" stroke="none"/>
      <path fill="none" d="M641.36 453.5 L641.36 475.4707" clip-path="url(#clipPath3)"/>
      <path d="M641.36 483.4707 L646.36 471.4707 L641.36 474.4707 L636.36 471.4707 Z" clip-path="url(#clipPath3)" stroke="none"/>
      <path fill="none" d="M551.36 247.5 L551.36 262.5 L551.36 269.4886" clip-path="url(#clipPath3)"/>
      <path d="M551.36 277.4886 L556.36 265.4886 L551.36 268.4886 L546.36 265.4886 Z" clip-path="url(#clipPath3)" stroke="none"/>
      <path fill="none" d="M551.36 144.5 L551.36 166.4707" clip-path="url(#clipPath3)"/>
      <path d="M551.36 174.4707 L556.36 162.4707 L551.36 165.4707 L546.36 162.4707 Z" clip-path="url(#clipPath3)" stroke="none"/>
      <path fill="none" d="M1041.36 453.5 L1041.36 583.5" clip-path="url(#clipPath3)"/>
      <path d="M1041.36 591.5 L1046.36 579.5 L1041.36 582.5 L1036.36 579.5 Z" clip-path="url(#clipPath3)" stroke="none"/>
      <path fill="none" d="M641.36 556.5 L641.36 576.5 L1003.56 576.5 L1003.56 583.5" clip-path="url(#clipPath3)"/>
      <path d="M1003.56 591.5 L1008.56 579.5 L1003.56 582.5 L998.56 579.5 Z" clip-path="url(#clipPath3)" stroke="none"/>
      <path fill="none" d="M1146.36 350.5 L1146.36 530 L1060.26 530 L1060.26 583.5" clip-path="url(#clipPath3)"/>
      <path d="M1060.26 591.5 L1065.26 579.5 L1060.26 582.5 L1055.26 579.5 Z" clip-path="url(#clipPath3)" stroke="none"/>
      <path fill="none" d="M841.36 556.4922 L841.36 565.75 L1023.56 565.75 L1023.56 584.4397" clip-path="url(#clipPath3)"/>
      <path d="M1023.56 592.4397 L1028.5601 580.4397 L1023.56 583.4397 L1018.56 580.4397 Z" clip-path="url(#clipPath3)" stroke="none"/>
      <path fill="none" d="M1031.91 667.1 L1031.91 689.1" clip-path="url(#clipPath3)"/>
      <path d="M1031.91 697.1 L1036.91 685.1 L1031.91 688.1 L1026.91 685.1 Z" clip-path="url(#clipPath3)" stroke="none"/>
      <path fill="none" d="M1031.91 770.1 L1031.91 792.0707" clip-path="url(#clipPath3)"/>
      <path d="M1031.91 800.0707 L1036.91 788.0707 L1031.91 791.0707 L1026.91 788.0707 Z" clip-path="url(#clipPath3)" stroke="none"/>
      <path fill="none" d="M1031.91 873.1 L1031.91 895.1" clip-path="url(#clipPath3)"/>
      <path d="M1031.91 903.1 L1036.91 891.1 L1031.91 894.1 L1026.91 891.1 Z" clip-path="url(#clipPath3)" stroke="none"/>
      <path fill="none" d="M441.36 453.5 L441.36 463.5 L641.36 463.5 L641.36 475.4609" clip-path="url(#clipPath3)"/>
      <path d="M641.36 483.4609 L646.36 471.4609 L641.36 474.4609 L636.36 471.4609 Z" clip-path="url(#clipPath3)" stroke="none"/>
      <path fill="none" d="M841.36 453.5 L841.36 468.5 L841.36 468.5 L841.36 475.5" clip-path="url(#clipPath3)"/>
      <path d="M841.36 483.5 L846.36 471.5 L841.36 474.5 L836.36 471.5 Z" clip-path="url(#clipPath3)" stroke="none"/>
    </g>
  </g>
</svg>
