<?xml version="1.0" encoding="UTF-8"?><svg xmlns="http://www.w3.org/2000/svg" xmlns:xlink="http://www.w3.org/1999/xlink" fill-opacity="1" color-rendering="auto" color-interpolation="auto" text-rendering="auto" stroke="black" stroke-linecap="square" width="1704" stroke-miterlimit="10" shape-rendering="auto" stroke-opacity="1" fill="black" stroke-dasharray="none" font-weight="normal" stroke-width="1" height="645" font-family="'Dialog'" font-style="normal" stroke-linejoin="miter" font-size="12px" stroke-dashoffset="0" image-rendering="auto">
  <!--Generated by ySVG 2.5-->
  <defs id="genericDefs"/>
  <g>
    <defs id="defs1">
      <clipPath clipPathUnits="userSpaceOnUse" id="clipPath1">
        <path d="M0 0 L1704 0 L1704 645 L0 645 L0 0 Z"/>
      </clipPath>
      <clipPath clipPathUnits="userSpaceOnUse" id="clipPath2">
        <path d="M137 -161 L1841 -161 L1841 484 L137 484 L137 -161 Z"/>
      </clipPath>
      <clipPath clipPathUnits="userSpaceOnUse" id="clipPath3">
        <path d="M141 -157 L1845 -157 L1845 488 L141 488 L141 -157 Z"/>
      </clipPath>
    </defs>
    <g fill="rgb(210,210,210)" text-rendering="geometricPrecision" shape-rendering="geometricPrecision" transform="matrix(1,0,0,1,-141,157) translate(4,4)" stroke="rgb(210,210,210)">
      <rect x="156.8187" width="147.3196" height="216" y="-52.6543" clip-path="url(#clipPath2)" stroke="none"/>
    </g>
    <g fill="rgb(242,240,216)" text-rendering="geometricPrecision" shape-rendering="geometricPrecision" transform="matrix(1,0,0,1,-141,157)" stroke="rgb(242,240,216)">
      <rect x="156.8187" width="147.3196" height="216" y="-52.6543" clip-path="url(#clipPath3)" stroke="none"/>
      <rect x="156.8187" y="-52.6543" clip-path="url(#clipPath3)" fill="rgb(183,182,158)" width="147.3196" height="21.4609" stroke="none"/>
    </g>
    <g font-size="15px" stroke-linecap="butt" transform="matrix(1,0,0,1,-141,157)" text-rendering="geometricPrecision" font-family="sans-serif" shape-rendering="geometricPrecision" stroke-miterlimit="1.45">
      <text x="222.4581" xml:space="preserve" y="-36.7309" clip-path="url(#clipPath3)" stroke="none">Shape Key</text>
      <rect fill="none" x="156.8187" width="147.3196" height="216" y="-52.6543" clip-path="url(#clipPath3)"/>
    </g>
    <g fill="rgb(255,204,0)" text-rendering="geometricPrecision" shape-rendering="geometricPrecision" transform="matrix(1,0,0,1,-141,157)" stroke="rgb(255,204,0)">
      <rect x="171.8187" width="117.3196" height="35.3086" y="-12.6543" clip-path="url(#clipPath3)" stroke="none"/>
    </g>
    <g text-rendering="geometricPrecision" stroke-miterlimit="1.45" shape-rendering="geometricPrecision" transform="matrix(1,0,0,1,-141,157)" stroke-linecap="butt">
      <rect fill="none" x="171.8187" width="117.3196" height="35.3086" y="-12.6543" clip-path="url(#clipPath3)"/>
      <text x="190.998" xml:space="preserve" y="9.1543" clip-path="url(#clipPath3)" font-family="sans-serif" stroke="none">Halberd Task</text>
    </g>
    <g fill="rgb(255,204,0)" text-rendering="geometricPrecision" shape-rendering="geometricPrecision" transform="matrix(1,0,0,1,-141,157)" stroke="rgb(255,204,0)">
      <rect x="171.8187" y="35.6668" clip-path="url(#clipPath3)" width="117.3196" rx="4" ry="4" height="35.3086" stroke="none"/>
    </g>
    <g stroke-linecap="butt" transform="matrix(1,0,0,1,-141,157)" fill="gray" text-rendering="geometricPrecision" shape-rendering="geometricPrecision" stroke="gray" stroke-miterlimit="1.45">
      <rect x="171.8187" y="35.6668" clip-path="url(#clipPath3)" fill="none" width="117.3196" rx="4" ry="4" height="35.3086"/>
      <text x="189.6298" y="57.4754" clip-path="url(#clipPath3)" fill="black" font-family="sans-serif" stroke="none" xml:space="preserve">External Task</text>
    </g>
    <g fill="rgb(255,204,0)" text-rendering="geometricPrecision" shape-rendering="geometricPrecision" transform="matrix(1,0,0,1,-141,157)" stroke="rgb(255,204,0)">
      <circle r="29.864" clip-path="url(#clipPath3)" cx="230.4785" cy="113.852" stroke="none"/>
    </g>
    <g text-rendering="geometricPrecision" stroke-miterlimit="1.45" shape-rendering="geometricPrecision" transform="matrix(1,0,0,1,-141,157)" stroke-linecap="butt">
      <circle fill="none" r="29.864" clip-path="url(#clipPath3)" cx="230.4785" cy="113.852"/>
      <text x="206.7656" xml:space="preserve" y="118.0063" clip-path="url(#clipPath3)" font-family="sans-serif" stroke="none">Release</text>
    </g>
    <g fill="rgb(210,210,210)" text-rendering="geometricPrecision" shape-rendering="geometricPrecision" transform="matrix(1,0,0,1,-141,157) translate(4,4)" stroke="rgb(210,210,210)">
      <rect x="156.8187" width="147.3196" height="279.9426" y="188.2305" clip-path="url(#clipPath2)" stroke="none"/>
    </g>
    <g fill="rgb(242,240,216)" text-rendering="geometricPrecision" shape-rendering="geometricPrecision" transform="matrix(1,0,0,1,-141,157)" stroke="rgb(242,240,216)">
      <rect x="156.8187" width="147.3196" height="279.9426" y="188.2305" clip-path="url(#clipPath3)" stroke="none"/>
      <rect x="156.8187" y="188.2305" clip-path="url(#clipPath3)" fill="rgb(183,182,158)" width="147.3196" height="21.4609" stroke="none"/>
    </g>
    <g font-size="15px" stroke-linecap="butt" transform="matrix(1,0,0,1,-141,157)" text-rendering="geometricPrecision" font-family="sans-serif" shape-rendering="geometricPrecision" stroke-miterlimit="1.45">
      <text x="230.2657" xml:space="preserve" y="204.1538" clip-path="url(#clipPath3)" stroke="none">Color Key</text>
      <rect fill="none" x="156.8187" width="147.3196" height="279.9426" y="188.2305" clip-path="url(#clipPath3)"/>
    </g>
    <g fill="maroon" text-rendering="geometricPrecision" shape-rendering="geometricPrecision" transform="matrix(1,0,0,1,-141,157)" stroke="maroon">
      <rect x="171.8187" width="117.3196" height="35.3086" y="224.6914" clip-path="url(#clipPath3)" stroke="none"/>
    </g>
    <g text-rendering="geometricPrecision" stroke-miterlimit="1.45" shape-rendering="geometricPrecision" transform="matrix(1,0,0,1,-141,157)" stroke-linecap="butt">
      <rect fill="none" x="171.8187" width="117.3196" height="35.3086" y="224.6914" clip-path="url(#clipPath3)"/>
      <text x="193.4589" y="246.5" clip-path="url(#clipPath3)" fill="rgb(255,204,153)" font-family="sans-serif" stroke="none" xml:space="preserve">Future Work</text>
    </g>
    <g fill="red" text-rendering="geometricPrecision" shape-rendering="geometricPrecision" transform="matrix(1,0,0,1,-141,157)" stroke="red">
      <rect x="171.8187" width="117.3196" height="35.3086" y="273.0863" clip-path="url(#clipPath3)" stroke="none"/>
    </g>
    <g text-rendering="geometricPrecision" stroke-miterlimit="1.45" shape-rendering="geometricPrecision" transform="matrix(1,0,0,1,-141,157)" stroke-linecap="butt">
      <rect fill="none" x="171.8187" width="117.3196" height="35.3086" y="273.0863" clip-path="url(#clipPath3)"/>
      <text x="182.7334" xml:space="preserve" y="294.8949" clip-path="url(#clipPath3)" font-family="sans-serif" stroke="none">Upcoming Work</text>
    </g>
    <g fill="rgb(255,102,0)" text-rendering="geometricPrecision" shape-rendering="geometricPrecision" transform="matrix(1,0,0,1,-141,157)" stroke="rgb(255,102,0)">
      <rect x="171.8187" width="117.3196" height="35.3086" y="321.3457" clip-path="url(#clipPath3)" stroke="none"/>
    </g>
    <g text-rendering="geometricPrecision" stroke-miterlimit="1.45" shape-rendering="geometricPrecision" transform="matrix(1,0,0,1,-141,157)" stroke-linecap="butt">
      <rect fill="none" x="171.8187" width="117.3196" height="35.3086" y="321.3457" clip-path="url(#clipPath3)"/>
      <text x="198.9433" xml:space="preserve" y="343.1543" clip-path="url(#clipPath3)" font-family="sans-serif" stroke="none">Next Work</text>
    </g>
    <g fill="rgb(255,204,0)" text-rendering="geometricPrecision" shape-rendering="geometricPrecision" transform="matrix(1,0,0,1,-141,157)" stroke="rgb(255,204,0)">
      <rect x="171.8187" width="117.3196" height="35.3086" y="369.6051" clip-path="url(#clipPath3)" stroke="none"/>
    </g>
    <g text-rendering="geometricPrecision" stroke-miterlimit="1.45" shape-rendering="geometricPrecision" transform="matrix(1,0,0,1,-141,157)" stroke-linecap="butt">
      <rect fill="none" x="171.8187" width="117.3196" height="35.3086" y="369.6051" clip-path="url(#clipPath3)"/>
      <text x="197.0244" xml:space="preserve" y="391.4137" clip-path="url(#clipPath3)" font-family="sans-serif" stroke="none">In Progress</text>
    </g>
    <g fill="rgb(153,204,0)" text-rendering="geometricPrecision" shape-rendering="geometricPrecision" transform="matrix(1,0,0,1,-141,157)" stroke="rgb(153,204,0)">
      <rect x="171.8187" width="117.3196" height="35.3086" y="417.8645" clip-path="url(#clipPath3)" stroke="none"/>
    </g>
    <g text-rendering="geometricPrecision" stroke-miterlimit="1.45" shape-rendering="geometricPrecision" transform="matrix(1,0,0,1,-141,157)" stroke-linecap="butt">
      <rect fill="none" x="171.8187" width="117.3196" height="35.3086" y="417.8645" clip-path="url(#clipPath3)"/>
      <text x="214.6933" xml:space="preserve" y="439.6731" clip-path="url(#clipPath3)" font-family="sans-serif" stroke="none">Done</text>
    </g>
    <g fill="rgb(153,204,0)" text-rendering="geometricPrecision" shape-rendering="geometricPrecision" transform="matrix(1,0,0,1,-141,157)" stroke="rgb(153,204,0)">
      <circle r="37.8" clip-path="url(#clipPath3)" cx="834.1382" cy="-103.448" stroke="none"/>
    </g>
    <g text-rendering="geometricPrecision" stroke-miterlimit="1.45" shape-rendering="geometricPrecision" transform="matrix(1,0,0,1,-141,157)" stroke-linecap="butt">
      <circle fill="none" r="37.8" clip-path="url(#clipPath3)" cx="834.1382" cy="-103.448"/>
      <text x="815.3209" xml:space="preserve" y="-106.2781" clip-path="url(#clipPath3)" font-family="sans-serif" stroke="none">v0.0.1</text>
      <text x="810.5455" xml:space="preserve" y="-92.3093" clip-path="url(#clipPath3)" font-family="sans-serif" stroke="none">Preview</text>
    </g>
    <g fill="rgb(153,204,0)" text-rendering="geometricPrecision" shape-rendering="geometricPrecision" transform="matrix(1,0,0,1,-141,157)" stroke="rgb(153,204,0)">
      <rect x="334.1382" width="180" height="73" y="-30.648" clip-path="url(#clipPath3)" stroke="none"/>
    </g>
    <g text-rendering="geometricPrecision" stroke-miterlimit="1.45" shape-rendering="geometricPrecision" transform="matrix(1,0,0,1,-141,157)" stroke-linecap="butt">
      <rect fill="none" x="334.1382" width="180" height="73" y="-30.648" clip-path="url(#clipPath3)"/>
      <text x="365.5621" xml:space="preserve" y="10.0063" clip-path="url(#clipPath3)" font-family="sans-serif" stroke="none">Settable Resolution</text>
    </g>
    <g fill="maroon" text-rendering="geometricPrecision" shape-rendering="geometricPrecision" transform="matrix(1,0,0,1,-141,157)" stroke="maroon">
      <rect x="744.1382" width="180" height="73" y="-30.648" clip-path="url(#clipPath3)" stroke="none"/>
    </g>
    <g text-rendering="geometricPrecision" stroke-miterlimit="1.45" shape-rendering="geometricPrecision" transform="matrix(1,0,0,1,-141,157)" stroke-linecap="butt">
      <rect fill="none" x="744.1382" width="180" height="73" y="-30.648" clip-path="url(#clipPath3)"/>
      <text x="797.3765" y="10.0063" clip-path="url(#clipPath3)" fill="rgb(255,204,153)" font-family="sans-serif" stroke="none" xml:space="preserve">Test Profiles</text>
    </g>
    <g fill="rgb(255,102,0)" text-rendering="geometricPrecision" shape-rendering="geometricPrecision" transform="matrix(1,0,0,1,-141,157)" stroke="rgb(255,102,0)">
      <rect x="639.1382" width="180" height="73" y="77.352" clip-path="url(#clipPath3)" stroke="none"/>
    </g>
    <g text-rendering="geometricPrecision" stroke-miterlimit="1.45" shape-rendering="geometricPrecision" transform="matrix(1,0,0,1,-141,157)" stroke-linecap="butt">
      <rect fill="none" x="639.1382" width="180" height="73" y="77.352" clip-path="url(#clipPath3)"/>
      <text x="688.5269" xml:space="preserve" y="118.0063" clip-path="url(#clipPath3)" font-family="sans-serif" stroke="none">Landing Page</text>
    </g>
    <g fill="maroon" text-rendering="geometricPrecision" shape-rendering="geometricPrecision" transform="matrix(1,0,0,1,-141,157)" stroke="maroon">
      <rect x="1649.1382" width="180" height="73" y="77.352" clip-path="url(#clipPath3)" stroke="none"/>
    </g>
    <g text-rendering="geometricPrecision" stroke-miterlimit="1.45" shape-rendering="geometricPrecision" transform="matrix(1,0,0,1,-141,157)" stroke-linecap="butt">
      <rect fill="none" x="1649.1382" width="180" height="73" y="77.352" clip-path="url(#clipPath3)"/>
      <text x="1723.7163" y="118.0063" clip-path="url(#clipPath3)" fill="rgb(255,204,153)" font-family="sans-serif" stroke="none" xml:space="preserve">NPCs</text>
    </g>
    <g fill="maroon" text-rendering="geometricPrecision" shape-rendering="geometricPrecision" transform="matrix(1,0,0,1,-141,157)" stroke="maroon">
      <rect x="1649.1382" width="180" height="73" y="185.352" clip-path="url(#clipPath3)" stroke="none"/>
    </g>
    <g text-rendering="geometricPrecision" stroke-miterlimit="1.45" shape-rendering="geometricPrecision" transform="matrix(1,0,0,1,-141,157)" stroke-linecap="butt">
      <rect fill="none" x="1649.1382" width="180" height="73" y="185.352" clip-path="url(#clipPath3)"/>
      <text x="1694.7417" y="226.0063" clip-path="url(#clipPath3)" fill="rgb(255,204,153)" font-family="sans-serif" stroke="none" xml:space="preserve">Basic Dialogue</text>
    </g>
    <g fill="red" text-rendering="geometricPrecision" shape-rendering="geometricPrecision" transform="matrix(1,0,0,1,-141,157)" stroke="red">
      <rect x="1071.6382" width="180" height="73" y="-30.648" clip-path="url(#clipPath3)" stroke="none"/>
    </g>
    <g text-rendering="geometricPrecision" stroke-miterlimit="1.45" shape-rendering="geometricPrecision" transform="matrix(1,0,0,1,-141,157)" stroke-linecap="butt">
      <rect fill="none" x="1071.6382" width="180" height="73" y="-30.648" clip-path="url(#clipPath3)"/>
      <text x="1112.9233" xml:space="preserve" y="10.0063" clip-path="url(#clipPath3)" font-family="sans-serif" stroke="none">Customizable UI</text>
    </g>
    <g fill="maroon" text-rendering="geometricPrecision" shape-rendering="geometricPrecision" transform="matrix(1,0,0,1,-141,157)" stroke="maroon">
      <rect x="1249.1382" width="180" height="73" y="185.352" clip-path="url(#clipPath3)" stroke="none"/>
    </g>
    <g text-rendering="geometricPrecision" stroke-miterlimit="1.45" shape-rendering="geometricPrecision" transform="matrix(1,0,0,1,-141,157)" stroke-linecap="butt">
      <rect fill="none" x="1249.1382" width="180" height="73" y="185.352" clip-path="url(#clipPath3)"/>
      <text x="1306.5688" y="226.0063" clip-path="url(#clipPath3)" fill="rgb(255,204,153)" font-family="sans-serif" stroke="none" xml:space="preserve">Equipment</text>
    </g>
    <g fill="maroon" text-rendering="geometricPrecision" shape-rendering="geometricPrecision" transform="matrix(1,0,0,1,-141,157)" stroke="maroon">
      <rect x="849.1382" width="180" height="73" y="77.352" clip-path="url(#clipPath3)" stroke="none"/>
    </g>
    <g text-rendering="geometricPrecision" stroke-miterlimit="1.45" shape-rendering="geometricPrecision" transform="matrix(1,0,0,1,-141,157)" stroke-linecap="butt">
      <rect fill="none" x="849.1382" width="180" height="73" y="77.352" clip-path="url(#clipPath3)"/>
      <text x="921.3697" y="118.0063" clip-path="url(#clipPath3)" fill="rgb(255,204,153)" font-family="sans-serif" stroke="none" xml:space="preserve">Spells</text>
    </g>
    <g fill="maroon" text-rendering="geometricPrecision" shape-rendering="geometricPrecision" transform="matrix(1,0,0,1,-141,157)" stroke="maroon">
      <rect x="1249.1382" width="180" height="73" y="77.352" clip-path="url(#clipPath3)" stroke="none"/>
    </g>
    <g text-rendering="geometricPrecision" stroke-miterlimit="1.45" shape-rendering="geometricPrecision" transform="matrix(1,0,0,1,-141,157)" stroke-linecap="butt">
      <rect fill="none" x="1249.1382" width="180" height="73" y="77.352" clip-path="url(#clipPath3)"/>
      <text x="1322.354" y="118.0063" clip-path="url(#clipPath3)" fill="rgb(255,204,153)" font-family="sans-serif" stroke="none" xml:space="preserve">Items</text>
    </g>
    <g fill="maroon" text-rendering="geometricPrecision" shape-rendering="geometricPrecision" transform="matrix(1,0,0,1,-141,157)" stroke="maroon">
      <rect x="1539.1382" width="180" height="73" y="-30.648" clip-path="url(#clipPath3)" stroke="none"/>
    </g>
    <g text-rendering="geometricPrecision" stroke-miterlimit="1.45" shape-rendering="geometricPrecision" transform="matrix(1,0,0,1,-141,157)" stroke-linecap="butt">
      <rect fill="none" x="1539.1382" width="180" height="73" y="-30.648" clip-path="url(#clipPath3)"/>
      <text x="1575.4517" y="10.0063" clip-path="url(#clipPath3)" fill="rgb(255,204,153)" font-family="sans-serif" stroke="none" xml:space="preserve">Embedded Assets</text>
    </g>
    <g fill="red" text-rendering="geometricPrecision" shape-rendering="geometricPrecision" transform="matrix(1,0,0,1,-141,157)" stroke="red">
      <rect x="439.1382" width="180" height="73" y="77.352" clip-path="url(#clipPath3)" stroke="none"/>
    </g>
    <g text-rendering="geometricPrecision" stroke-miterlimit="1.45" shape-rendering="geometricPrecision" transform="matrix(1,0,0,1,-141,157)" stroke-linecap="butt">
      <rect fill="none" x="439.1382" width="180" height="73" y="77.352" clip-path="url(#clipPath3)"/>
      <text x="486.1832" xml:space="preserve" y="118.0063" clip-path="url(#clipPath3)" font-family="sans-serif" stroke="none">Asset Selector</text>
    </g>
    <g fill="maroon" text-rendering="geometricPrecision" shape-rendering="geometricPrecision" transform="matrix(1,0,0,1,-141,157)" stroke="maroon">
      <rect x="461.6382" width="180" height="73" y="185.352" clip-path="url(#clipPath3)" stroke="none"/>
    </g>
    <g text-rendering="geometricPrecision" stroke-miterlimit="1.45" shape-rendering="geometricPrecision" transform="matrix(1,0,0,1,-141,157)" stroke-linecap="butt">
      <rect fill="none" x="461.6382" width="180" height="73" y="185.352" clip-path="url(#clipPath3)"/>
      <text x="520.8062" y="226.0063" clip-path="url(#clipPath3)" fill="rgb(255,204,153)" font-family="sans-serif" stroke="none" xml:space="preserve">Packaging</text>
    </g>
    <g fill="maroon" text-rendering="geometricPrecision" shape-rendering="geometricPrecision" transform="matrix(1,0,0,1,-141,157)" stroke="maroon">
      <rect x="1449.1382" width="180" height="73" y="77.352" clip-path="url(#clipPath3)" stroke="none"/>
    </g>
    <g text-rendering="geometricPrecision" stroke-miterlimit="1.45" shape-rendering="geometricPrecision" transform="matrix(1,0,0,1,-141,157)" stroke-linecap="butt">
      <rect fill="none" x="1449.1382" width="180" height="73" y="77.352" clip-path="url(#clipPath3)"/>
      <text x="1507.8901" y="118.0063" clip-path="url(#clipPath3)" fill="rgb(255,204,153)" font-family="sans-serif" stroke="none" xml:space="preserve">Save/Load</text>
    </g>
    <g fill="maroon" text-rendering="geometricPrecision" shape-rendering="geometricPrecision" transform="matrix(1,0,0,1,-141,157)" stroke="maroon">
      <rect x="1049.1382" width="180" height="73" y="77.352" clip-path="url(#clipPath3)" stroke="none"/>
    </g>
    <g text-rendering="geometricPrecision" stroke-miterlimit="1.45" shape-rendering="geometricPrecision" transform="matrix(1,0,0,1,-141,157)" stroke-linecap="butt">
      <rect fill="none" x="1049.1382" width="180" height="73" y="77.352" clip-path="url(#clipPath3)"/>
      <text x="1089.2983" y="118.0063" clip-path="url(#clipPath3)" fill="rgb(255,204,153)" font-family="sans-serif" stroke="none" xml:space="preserve">Custom Controls</text>
    </g>
    <g fill="rgb(255,204,0)" text-rendering="geometricPrecision" shape-rendering="geometricPrecision" transform="matrix(1,0,0,1,-141,157)" stroke="rgb(255,204,0)">
      <rect x="544.1382" width="180" height="73" y="-30.648" clip-path="url(#clipPath3)" stroke="none"/>
    </g>
    <g text-rendering="geometricPrecision" stroke-miterlimit="1.45" shape-rendering="geometricPrecision" transform="matrix(1,0,0,1,-141,157)" stroke-linecap="butt">
      <rect fill="none" x="544.1382" width="180" height="73" y="-30.648" clip-path="url(#clipPath3)"/>
      <text x="618.4703" xml:space="preserve" y="10.0063" clip-path="url(#clipPath3)" font-family="sans-serif" stroke="none">Icons</text>
      <path fill="none" d="M803.8983 -65.648 L803.8983 -55.648 L424.1382 -55.648 L424.1382 -38.6968" clip-path="url(#clipPath3)"/>
      <path d="M424.1382 -30.6968 L429.1382 -42.6968 L424.1382 -39.6968 L419.1382 -42.6968 Z" clip-path="url(#clipPath3)" stroke="none"/>
      <path fill="none" d="M834.1382 -65.648 L834.1382 -38.6822" clip-path="url(#clipPath3)"/>
      <path d="M834.1382 -30.6822 L839.1382 -42.6822 L834.1382 -39.6822 L829.1382 -42.6822 Z" clip-path="url(#clipPath3)" stroke="none"/>
      <path fill="none" d="M1739.1382 150.352 L1739.1382 177.3178" clip-path="url(#clipPath3)"/>
      <path d="M1739.1382 185.3178 L1744.1382 173.3178 L1739.1382 176.3178 L1734.1382 173.3178 Z" clip-path="url(#clipPath3)" stroke="none"/>
      <path fill="none" d="M849.2582 -65.648 L849.2582 -45.648 L1161.6382 -45.648 L1161.6382 -38.6773" clip-path="url(#clipPath3)"/>
      <path d="M1161.6382 -30.6773 L1166.6382 -42.6773 L1161.6382 -39.6773 L1156.6382 -42.6773 Z" clip-path="url(#clipPath3)" stroke="none"/>
      <path fill="none" d="M1094.1382 42.352 L1094.1382 52.352 L939.1382 52.352 L939.1382 69.3032" clip-path="url(#clipPath3)"/>
      <path d="M939.1382 77.3032 L944.1382 65.3032 L939.1382 68.3032 L934.1382 65.3032 Z" clip-path="url(#clipPath3)" stroke="none"/>
      <path fill="none" d="M1184.1382 42.352 L1184.1382 62.352 L1339.1382 62.352 L1339.1382 69.3227" clip-path="url(#clipPath3)"/>
      <path d="M1339.1382 77.3227 L1344.1382 65.3227 L1339.1382 68.3227 L1334.1382 65.3227 Z" clip-path="url(#clipPath3)" stroke="none"/>
      <path fill="none" d="M1339.1382 150.352 L1339.1382 177.3178" clip-path="url(#clipPath3)"/>
      <path d="M1339.1382 185.3178 L1344.1382 173.3178 L1339.1382 176.3178 L1334.1382 173.3178 Z" clip-path="url(#clipPath3)" stroke="none"/>
      <path fill="none" d="M864.3782 -65.648 L864.3782 -55.648 L1629.1382 -55.648 L1629.1382 -38.6968" clip-path="url(#clipPath3)"/>
      <path d="M1629.1382 -30.6968 L1634.1382 -42.6968 L1629.1382 -39.6968 L1624.1382 -42.6968 Z" clip-path="url(#clipPath3)" stroke="none"/>
      <path fill="none" d="M1674.1382 42.352 L1674.1382 52.352 L1739.1382 52.352 L1739.1382 69.3032" clip-path="url(#clipPath3)"/>
      <path d="M1739.1382 77.3032 L1744.1382 65.3032 L1739.1382 68.3032 L1734.1382 65.3032 Z" clip-path="url(#clipPath3)" stroke="none"/>
      <path fill="none" d="M729.1382 150.352 L729.1382 160.352 L574.1382 160.352 L574.1382 177.3032" clip-path="url(#clipPath3)"/>
      <path d="M574.1382 185.3032 L579.1382 173.3032 L574.1382 176.3032 L569.1382 173.3032 Z" clip-path="url(#clipPath3)" stroke="none"/>
      <path fill="none" d="M424.1382 42.352 L424.1382 160.352 L484.1382 160.352 L484.1382 177.3032" clip-path="url(#clipPath3)"/>
      <path d="M484.1382 185.3032 L489.1382 173.3032 L484.1382 176.3032 L479.1382 173.3032 Z" clip-path="url(#clipPath3)" stroke="none"/>
      <path fill="none" d="M834.1382 42.352 L834.1382 170.352 L619.1382 170.352 L619.1382 177.3227" clip-path="url(#clipPath3)"/>
      <path d="M619.1382 185.3227 L624.1382 173.3227 L619.1382 176.3227 L614.1382 173.3227 Z" clip-path="url(#clipPath3)" stroke="none"/>
      <path fill="none" d="M529.1382 150.352 L529.1382 177.3178" clip-path="url(#clipPath3)"/>
      <path d="M529.1382 185.3178 L534.1382 173.3178 L529.1382 176.3178 L524.1382 173.3178 Z" clip-path="url(#clipPath3)" stroke="none"/>
      <path fill="none" d="M1584.1382 42.352 L1584.1382 69.3178" clip-path="url(#clipPath3)"/>
      <path d="M1584.1382 77.3178 L1589.1382 65.3178 L1584.1382 68.3178 L1579.1382 65.3178 Z" clip-path="url(#clipPath3)" stroke="none"/>
      <path fill="none" d="M1229.1382 42.352 L1229.1382 52.352 L1494.1382 52.352 L1494.1382 69.3032" clip-path="url(#clipPath3)"/>
      <path d="M1494.1382 77.3032 L1499.1382 65.3032 L1494.1382 68.3032 L1489.1382 65.3032 Z" clip-path="url(#clipPath3)" stroke="none"/>
      <path fill="none" d="M1139.1382 42.352 L1139.1382 69.3178" clip-path="url(#clipPath3)"/>
      <path d="M1139.1382 77.3178 L1144.1382 65.3178 L1139.1382 68.3178 L1134.1382 65.3178 Z" clip-path="url(#clipPath3)" stroke="none"/>
      <path fill="none" d="M819.0182 -65.648 L819.0182 -45.648 L634.1382 -45.648 L634.1382 -38.6773" clip-path="url(#clipPath3)"/>
      <path d="M634.1382 -30.6773 L639.1382 -42.6773 L634.1382 -39.6773 L629.1382 -42.6773 Z" clip-path="url(#clipPath3)" stroke="none"/>
      <path fill="none" d="M679.1382 42.352 L679.1382 52.352 L729.1382 52.352 L729.1382 69.3032" clip-path="url(#clipPath3)"/>
      <path d="M729.1382 77.3032 L734.1382 65.3032 L729.1382 68.3032 L724.1382 65.3032 Z" clip-path="url(#clipPath3)" stroke="none"/>
      <path fill="none" d="M589.1382 42.352 L589.1382 52.352 L529.1382 52.352 L529.1382 69.3032" clip-path="url(#clipPath3)"/>
      <path d="M529.1382 77.3032 L534.1382 65.3032 L529.1382 68.3032 L524.1382 65.3032 Z" clip-path="url(#clipPath3)" stroke="none"/>
    </g>
  </g>
</svg>
