<?xml version="1.0" encoding="UTF-8"?><svg xmlns="http://www.w3.org/2000/svg" xmlns:xlink="http://www.w3.org/1999/xlink" fill-opacity="1" color-rendering="auto" color-interpolation="auto" text-rendering="auto" stroke="black" stroke-linecap="square" width="1705" stroke-miterlimit="10" shape-rendering="auto" stroke-opacity="1" fill="black" stroke-dasharray="none" font-weight="normal" stroke-width="1" height="1546" font-family="'Dialog'" font-style="normal" stroke-linejoin="miter" font-size="12px" stroke-dashoffset="0" image-rendering="auto">
  <!--Generated by ySVG 2.5-->
  <defs id="genericDefs"/>
  <g>
    <defs id="defs1">
      <clipPath clipPathUnits="userSpaceOnUse" id="clipPath1">
        <path d="M0 0 L1705 0 L1705 1546 L0 1546 L0 0 Z"/>
      </clipPath>
      <clipPath clipPathUnits="userSpaceOnUse" id="clipPath2">
        <path d="M137 -162 L1842 -162 L1842 1384 L137 1384 L137 -162 Z"/>
      </clipPath>
      <clipPath clipPathUnits="userSpaceOnUse" id="clipPath3">
        <path d="M141 -158 L1846 -158 L1846 1388 L141 1388 L141 -158 Z"/>
      </clipPath>
    </defs>
    <g fill="rgb(210,210,210)" text-rendering="geometricPrecision" shape-rendering="geometricPrecision" transform="matrix(1,0,0,1,-141,158) translate(4,4)" stroke="rgb(210,210,210)">
      <rect x="156.8187" width="147.3196" height="216" y="-52.6543" clip-path="url(#clipPath2)" stroke="none"/>
    </g>
    <g fill="rgb(242,240,216)" text-rendering="geometricPrecision" shape-rendering="geometricPrecision" transform="matrix(1,0,0,1,-141,158)" stroke="rgb(242,240,216)">
      <rect x="156.8187" width="147.3196" height="216" y="-52.6543" clip-path="url(#clipPath3)" stroke="none"/>
      <rect x="156.8187" y="-52.6543" clip-path="url(#clipPath3)" fill="rgb(183,182,158)" width="147.3196" height="21.4609" stroke="none"/>
    </g>
    <g font-size="15px" stroke-linecap="butt" transform="matrix(1,0,0,1,-141,158)" text-rendering="geometricPrecision" font-family="sans-serif" shape-rendering="geometricPrecision" stroke-miterlimit="1.45">
      <text x="222.4581" xml:space="preserve" y="-36.7309" clip-path="url(#clipPath3)" stroke="none">Shape Key</text>
      <rect fill="none" x="156.8187" width="147.3196" height="216" y="-52.6543" clip-path="url(#clipPath3)"/>
    </g>
    <g fill="rgb(255,204,0)" text-rendering="geometricPrecision" shape-rendering="geometricPrecision" transform="matrix(1,0,0,1,-141,158)" stroke="rgb(255,204,0)">
      <rect x="171.8187" width="117.3196" height="35.3086" y="-12.6543" clip-path="url(#clipPath3)" stroke="none"/>
    </g>
    <g text-rendering="geometricPrecision" stroke-miterlimit="1.45" shape-rendering="geometricPrecision" transform="matrix(1,0,0,1,-141,158)" stroke-linecap="butt">
      <rect fill="none" x="171.8187" width="117.3196" height="35.3086" y="-12.6543" clip-path="url(#clipPath3)"/>
      <text x="190.998" xml:space="preserve" y="9.1543" clip-path="url(#clipPath3)" font-family="sans-serif" stroke="none">Halberd Task</text>
    </g>
    <g fill="rgb(255,204,0)" text-rendering="geometricPrecision" shape-rendering="geometricPrecision" transform="matrix(1,0,0,1,-141,158)" stroke="rgb(255,204,0)">
      <rect x="171.8187" y="35.6668" clip-path="url(#clipPath3)" width="117.3196" rx="4" ry="4" height="35.3086" stroke="none"/>
    </g>
    <g stroke-linecap="butt" transform="matrix(1,0,0,1,-141,158)" fill="gray" text-rendering="geometricPrecision" shape-rendering="geometricPrecision" stroke="gray" stroke-miterlimit="1.45">
      <rect x="171.8187" y="35.6668" clip-path="url(#clipPath3)" fill="none" width="117.3196" rx="4" ry="4" height="35.3086"/>
      <text x="189.6298" y="57.4754" clip-path="url(#clipPath3)" fill="black" font-family="sans-serif" stroke="none" xml:space="preserve">External Task</text>
    </g>
    <g fill="rgb(255,204,0)" text-rendering="geometricPrecision" shape-rendering="geometricPrecision" transform="matrix(1,0,0,1,-141,158)" stroke="rgb(255,204,0)">
      <circle r="29.864" clip-path="url(#clipPath3)" cx="230.4785" cy="113.852" stroke="none"/>
    </g>
    <g text-rendering="geometricPrecision" stroke-miterlimit="1.45" shape-rendering="geometricPrecision" transform="matrix(1,0,0,1,-141,158)" stroke-linecap="butt">
      <circle fill="none" r="29.864" clip-path="url(#clipPath3)" cx="230.4785" cy="113.852"/>
      <text x="206.7656" xml:space="preserve" y="118.0063" clip-path="url(#clipPath3)" font-family="sans-serif" stroke="none">Release</text>
    </g>
    <g fill="rgb(210,210,210)" text-rendering="geometricPrecision" shape-rendering="geometricPrecision" transform="matrix(1,0,0,1,-141,158) translate(4,4)" stroke="rgb(210,210,210)">
      <rect x="156.8187" width="147.3196" height="279.9426" y="188.2305" clip-path="url(#clipPath2)" stroke="none"/>
    </g>
    <g fill="rgb(242,240,216)" text-rendering="geometricPrecision" shape-rendering="geometricPrecision" transform="matrix(1,0,0,1,-141,158)" stroke="rgb(242,240,216)">
      <rect x="156.8187" width="147.3196" height="279.9426" y="188.2305" clip-path="url(#clipPath3)" stroke="none"/>
      <rect x="156.8187" y="188.2305" clip-path="url(#clipPath3)" fill="rgb(183,182,158)" width="147.3196" height="21.4609" stroke="none"/>
    </g>
    <g font-size="15px" stroke-linecap="butt" transform="matrix(1,0,0,1,-141,158)" text-rendering="geometricPrecision" font-family="sans-serif" shape-rendering="geometricPrecision" stroke-miterlimit="1.45">
      <text x="230.2657" xml:space="preserve" y="204.1538" clip-path="url(#clipPath3)" stroke="none">Color Key</text>
      <rect fill="none" x="156.8187" width="147.3196" height="279.9426" y="188.2305" clip-path="url(#clipPath3)"/>
    </g>
    <g fill="maroon" text-rendering="geometricPrecision" shape-rendering="geometricPrecision" transform="matrix(1,0,0,1,-141,158)" stroke="maroon">
      <rect x="171.8187" width="117.3196" height="35.3086" y="224.6914" clip-path="url(#clipPath3)" stroke="none"/>
    </g>
    <g text-rendering="geometricPrecision" stroke-miterlimit="1.45" shape-rendering="geometricPrecision" transform="matrix(1,0,0,1,-141,158)" stroke-linecap="butt">
      <rect fill="none" x="171.8187" width="117.3196" height="35.3086" y="224.6914" clip-path="url(#clipPath3)"/>
      <text x="193.4589" y="246.5" clip-path="url(#clipPath3)" fill="rgb(255,204,153)" font-family="sans-serif" stroke="none" xml:space="preserve">Future Work</text>
    </g>
    <g fill="red" text-rendering="geometricPrecision" shape-rendering="geometricPrecision" transform="matrix(1,0,0,1,-141,158)" stroke="red">
      <rect x="171.8187" width="117.3196" height="35.3086" y="273.0863" clip-path="url(#clipPath3)" stroke="none"/>
    </g>
    <g text-rendering="geometricPrecision" stroke-miterlimit="1.45" shape-rendering="geometricPrecision" transform="matrix(1,0,0,1,-141,158)" stroke-linecap="butt">
      <rect fill="none" x="171.8187" width="117.3196" height="35.3086" y="273.0863" clip-path="url(#clipPath3)"/>
      <text x="182.7334" xml:space="preserve" y="294.8949" clip-path="url(#clipPath3)" font-family="sans-serif" stroke="none">Upcoming Work</text>
    </g>
    <g fill="rgb(255,102,0)" text-rendering="geometricPrecision" shape-rendering="geometricPrecision" transform="matrix(1,0,0,1,-141,158)" stroke="rgb(255,102,0)">
      <rect x="171.8187" width="117.3196" height="35.3086" y="321.3457" clip-path="url(#clipPath3)" stroke="none"/>
    </g>
    <g text-rendering="geometricPrecision" stroke-miterlimit="1.45" shape-rendering="geometricPrecision" transform="matrix(1,0,0,1,-141,158)" stroke-linecap="butt">
      <rect fill="none" x="171.8187" width="117.3196" height="35.3086" y="321.3457" clip-path="url(#clipPath3)"/>
      <text x="198.9433" xml:space="preserve" y="343.1543" clip-path="url(#clipPath3)" font-family="sans-serif" stroke="none">Next Work</text>
    </g>
    <g fill="rgb(255,204,0)" text-rendering="geometricPrecision" shape-rendering="geometricPrecision" transform="matrix(1,0,0,1,-141,158)" stroke="rgb(255,204,0)">
      <rect x="171.8187" width="117.3196" height="35.3086" y="369.6051" clip-path="url(#clipPath3)" stroke="none"/>
    </g>
    <g text-rendering="geometricPrecision" stroke-miterlimit="1.45" shape-rendering="geometricPrecision" transform="matrix(1,0,0,1,-141,158)" stroke-linecap="butt">
      <rect fill="none" x="171.8187" width="117.3196" height="35.3086" y="369.6051" clip-path="url(#clipPath3)"/>
      <text x="197.0244" xml:space="preserve" y="391.4137" clip-path="url(#clipPath3)" font-family="sans-serif" stroke="none">In Progress</text>
    </g>
    <g fill="rgb(153,204,0)" text-rendering="geometricPrecision" shape-rendering="geometricPrecision" transform="matrix(1,0,0,1,-141,158)" stroke="rgb(153,204,0)">
      <rect x="171.8187" width="117.3196" height="35.3086" y="417.8645" clip-path="url(#clipPath3)" stroke="none"/>
    </g>
    <g text-rendering="geometricPrecision" stroke-miterlimit="1.45" shape-rendering="geometricPrecision" transform="matrix(1,0,0,1,-141,158)" stroke-linecap="butt">
      <rect fill="none" x="171.8187" width="117.3196" height="35.3086" y="417.8645" clip-path="url(#clipPath3)"/>
      <text x="214.6933" xml:space="preserve" y="439.6731" clip-path="url(#clipPath3)" font-family="sans-serif" stroke="none">Done</text>
    </g>
    <g fill="rgb(153,204,0)" text-rendering="geometricPrecision" shape-rendering="geometricPrecision" transform="matrix(1,0,0,1,-141,158)" stroke="rgb(153,204,0)">
      <circle r="37.8" clip-path="url(#clipPath3)" cx="929.1382" cy="-104.3" stroke="none"/>
    </g>
    <g text-rendering="geometricPrecision" stroke-miterlimit="1.45" shape-rendering="geometricPrecision" transform="matrix(1,0,0,1,-141,158)" stroke-linecap="butt">
      <circle fill="none" r="37.8" clip-path="url(#clipPath3)" cx="929.1382" cy="-104.3"/>
      <text x="910.3209" xml:space="preserve" y="-107.1301" clip-path="url(#clipPath3)" font-family="sans-serif" stroke="none">v0.0.1</text>
      <text x="905.5455" xml:space="preserve" y="-93.1613" clip-path="url(#clipPath3)" font-family="sans-serif" stroke="none">Preview</text>
    </g>
    <g fill="rgb(255,204,0)" text-rendering="geometricPrecision" shape-rendering="geometricPrecision" transform="matrix(1,0,0,1,-141,158)" stroke="rgb(255,204,0)">
      <ellipse rx="37.8" ry="36.5" clip-path="url(#clipPath3)" cx="929.1382" cy="422" stroke="none"/>
    </g>
    <g text-rendering="geometricPrecision" stroke-miterlimit="1.45" shape-rendering="geometricPrecision" transform="matrix(1,0,0,1,-141,158)" stroke-linecap="butt">
      <ellipse rx="37.8" fill="none" ry="36.5" clip-path="url(#clipPath3)" cx="929.1382" cy="422"/>
      <text x="903.108" xml:space="preserve" y="419.1699" clip-path="url(#clipPath3)" font-family="sans-serif" stroke="none">Example</text>
      <text x="911.2759" xml:space="preserve" y="433.1387" clip-path="url(#clipPath3)" font-family="sans-serif" stroke="none">Game</text>
    </g>
    <g fill="rgb(153,204,0)" text-rendering="geometricPrecision" shape-rendering="geometricPrecision" transform="matrix(1,0,0,1,-141,158)" stroke="rgb(153,204,0)">
      <rect x="839.1382" width="180" height="73" y="71.5" clip-path="url(#clipPath3)" stroke="none"/>
    </g>
    <g text-rendering="geometricPrecision" stroke-miterlimit="1.45" shape-rendering="geometricPrecision" transform="matrix(1,0,0,1,-141,158)" stroke-linecap="butt">
      <rect fill="none" x="839.1382" width="180" height="73" y="71.5" clip-path="url(#clipPath3)"/>
      <text x="889.8687" xml:space="preserve" y="112.1543" clip-path="url(#clipPath3)" font-family="sans-serif" stroke="none">Map Triggers</text>
    </g>
    <g fill="rgb(153,204,0)" text-rendering="geometricPrecision" shape-rendering="geometricPrecision" transform="matrix(1,0,0,1,-141,158)" stroke="rgb(153,204,0)">
      <rect x="639.1382" width="180" height="73" y="71.5" clip-path="url(#clipPath3)" stroke="none"/>
    </g>
    <g text-rendering="geometricPrecision" stroke-miterlimit="1.45" shape-rendering="geometricPrecision" transform="matrix(1,0,0,1,-141,158)" stroke-linecap="butt">
      <rect fill="none" x="639.1382" width="180" height="73" y="71.5" clip-path="url(#clipPath3)"/>
      <text x="681.5338" xml:space="preserve" y="112.1543" clip-path="url(#clipPath3)" font-family="sans-serif" stroke="none">Win/Loss States</text>
    </g>
    <g fill="maroon" text-rendering="geometricPrecision" shape-rendering="geometricPrecision" transform="matrix(1,0,0,1,-141,158)" stroke="maroon">
      <ellipse rx="37.8" ry="36.5" clip-path="url(#clipPath3)" cx="1413.2882" cy="1335.5" stroke="none"/>
    </g>
    <g text-rendering="geometricPrecision" stroke-miterlimit="1.45" shape-rendering="geometricPrecision" transform="matrix(1,0,0,1,-141,158)" stroke-linecap="butt">
      <ellipse rx="37.8" fill="none" ry="36.5" clip-path="url(#clipPath3)" cx="1413.2882" cy="1335.5"/>
      <text x="1374.5753" y="1339.6543" clip-path="url(#clipPath3)" fill="rgb(255,204,153)" font-family="sans-serif" stroke="none" xml:space="preserve">v1.0 Release</text>
    </g>
    <g fill="maroon" text-rendering="geometricPrecision" shape-rendering="geometricPrecision" transform="matrix(1,0,0,1,-141,158)" stroke="maroon">
      <rect x="1323.2882" width="180" height="73" y="1196" clip-path="url(#clipPath3)" stroke="none"/>
    </g>
    <g text-rendering="geometricPrecision" stroke-miterlimit="1.45" shape-rendering="geometricPrecision" transform="matrix(1,0,0,1,-141,158)" stroke-linecap="butt">
      <rect fill="none" x="1323.2882" width="180" height="73" y="1196" clip-path="url(#clipPath3)"/>
      <text x="1326.5021" y="1236.6543" clip-path="url(#clipPath3)" fill="rgb(255,204,153)" font-family="sans-serif" stroke="none" xml:space="preserve">Full Turn-Based RPG Support</text>
    </g>
    <g fill="red" text-rendering="geometricPrecision" shape-rendering="geometricPrecision" transform="matrix(1,0,0,1,-141,158)" stroke="red">
      <ellipse rx="37.8" ry="36.5" clip-path="url(#clipPath3)" cx="704.2198" cy="550" stroke="none"/>
    </g>
    <g text-rendering="geometricPrecision" stroke-miterlimit="1.45" shape-rendering="geometricPrecision" transform="matrix(1,0,0,1,-141,158)" stroke-linecap="butt">
      <ellipse rx="37.8" fill="none" ry="36.5" clip-path="url(#clipPath3)" cx="704.2198" cy="550"/>
      <text x="667.5343" xml:space="preserve" y="547.1699" clip-path="url(#clipPath3)" font-family="sans-serif" stroke="none">v0.1 (AMVP)</text>
      <text x="680.507" xml:space="preserve" y="561.1387" clip-path="url(#clipPath3)" font-family="sans-serif" stroke="none">Release</text>
    </g>
    <g fill="rgb(153,204,0)" text-rendering="geometricPrecision" shape-rendering="geometricPrecision" transform="matrix(1,0,0,1,-141,158)" stroke="rgb(153,204,0)">
      <rect x="1159.2585" width="180" height="73" y="-31.5" clip-path="url(#clipPath3)" stroke="none"/>
    </g>
    <g text-rendering="geometricPrecision" stroke-miterlimit="1.45" shape-rendering="geometricPrecision" transform="matrix(1,0,0,1,-141,158)" stroke-linecap="butt">
      <rect fill="none" x="1159.2585" width="180" height="73" y="-31.5" clip-path="url(#clipPath3)"/>
      <text x="1175.7994" xml:space="preserve" y="9.1543" clip-path="url(#clipPath3)" font-family="sans-serif" stroke="none">Sound Effects and Music</text>
    </g>
    <g fill="rgb(153,204,0)" text-rendering="geometricPrecision" shape-rendering="geometricPrecision" transform="matrix(1,0,0,1,-141,158)" stroke="rgb(153,204,0)">
      <rect x="334.1382" width="180" height="73" y="-31.5" clip-path="url(#clipPath3)" stroke="none"/>
    </g>
    <g text-rendering="geometricPrecision" stroke-miterlimit="1.45" shape-rendering="geometricPrecision" transform="matrix(1,0,0,1,-141,158)" stroke-linecap="butt">
      <rect fill="none" x="334.1382" width="180" height="73" y="-31.5" clip-path="url(#clipPath3)"/>
      <text x="395.3189" xml:space="preserve" y="9.1543" clip-path="url(#clipPath3)" font-family="sans-serif" stroke="none">XP/Levels</text>
    </g>
    <g fill="rgb(153,204,0)" text-rendering="geometricPrecision" shape-rendering="geometricPrecision" transform="matrix(1,0,0,1,-141,158)" stroke="rgb(153,204,0)">
      <rect x="439.1382" width="180" height="73" y="71.5" clip-path="url(#clipPath3)" stroke="none"/>
    </g>
    <g text-rendering="geometricPrecision" stroke-miterlimit="1.45" shape-rendering="geometricPrecision" transform="matrix(1,0,0,1,-141,158)" stroke-linecap="butt">
      <rect fill="none" x="439.1382" width="180" height="73" y="71.5" clip-path="url(#clipPath3)"/>
      <text x="486.4293" xml:space="preserve" y="112.1543" clip-path="url(#clipPath3)" font-family="sans-serif" stroke="none">Game 'Export'</text>
    </g>
    <g fill="rgb(153,204,0)" text-rendering="geometricPrecision" shape-rendering="geometricPrecision" transform="matrix(1,0,0,1,-141,158)" stroke="rgb(153,204,0)">
      <rect x="594.1382" width="180" height="73" y="-31.5" clip-path="url(#clipPath3)" stroke="none"/>
    </g>
    <g text-rendering="geometricPrecision" stroke-miterlimit="1.45" shape-rendering="geometricPrecision" transform="matrix(1,0,0,1,-141,158)" stroke-linecap="butt">
      <rect fill="none" x="594.1382" width="180" height="73" y="-31.5" clip-path="url(#clipPath3)"/>
      <text x="623.6783" xml:space="preserve" y="9.1543" clip-path="url(#clipPath3)" font-family="sans-serif" stroke="none">Game Configuration</text>
    </g>
    <g fill="maroon" text-rendering="geometricPrecision" shape-rendering="geometricPrecision" transform="matrix(1,0,0,1,-141,158)" stroke="maroon">
      <ellipse rx="37.8" ry="36.5" clip-path="url(#clipPath3)" cx="781.3382" cy="990.5188" stroke="none"/>
    </g>
    <g text-rendering="geometricPrecision" stroke-miterlimit="1.45" shape-rendering="geometricPrecision" transform="matrix(1,0,0,1,-141,158)" stroke-linecap="butt">
      <ellipse rx="37.8" fill="none" ry="36.5" clip-path="url(#clipPath3)" cx="781.3382" cy="990.5188"/>
      <text x="754.7572" y="980.7043" clip-path="url(#clipPath3)" fill="rgb(255,204,153)" font-family="sans-serif" stroke="none" xml:space="preserve">Finalized</text>
      <text x="755.308" y="994.6731" clip-path="url(#clipPath3)" fill="rgb(255,204,153)" font-family="sans-serif" stroke="none" xml:space="preserve">Example</text>
      <text x="763.476" y="1008.6418" clip-path="url(#clipPath3)" fill="rgb(255,204,153)" font-family="sans-serif" stroke="none" xml:space="preserve">Game</text>
    </g>
    <g fill="maroon" text-rendering="geometricPrecision" shape-rendering="geometricPrecision" transform="matrix(1,0,0,1,-141,158)" stroke="maroon">
      <ellipse rx="37.8" ry="36.5" clip-path="url(#clipPath3)" cx="1413.2882" cy="1093.5188" stroke="none"/>
    </g>
    <g text-rendering="geometricPrecision" stroke-miterlimit="1.45" shape-rendering="geometricPrecision" transform="matrix(1,0,0,1,-141,158)" stroke-linecap="butt">
      <ellipse rx="37.8" fill="none" ry="36.5" clip-path="url(#clipPath3)" cx="1413.2882" cy="1093.5188"/>
      <text x="1400.1954" y="1083.7043" clip-path="url(#clipPath3)" fill="rgb(255,204,153)" font-family="sans-serif" stroke="none" xml:space="preserve">v0.2</text>
      <text x="1384.8556" y="1097.6731" clip-path="url(#clipPath3)" fill="rgb(255,204,153)" font-family="sans-serif" stroke="none" xml:space="preserve">True MVP</text>
      <text x="1389.5753" y="1111.6418" clip-path="url(#clipPath3)" fill="rgb(255,204,153)" font-family="sans-serif" stroke="none" xml:space="preserve">Release</text>
    </g>
    <g fill="rgb(153,204,0)" text-rendering="geometricPrecision" shape-rendering="geometricPrecision" transform="matrix(1,0,0,1,-141,158)" stroke="rgb(153,204,0)">
      <rect x="959.2585" width="180" height="73" y="-31.5" clip-path="url(#clipPath3)" stroke="none"/>
    </g>
    <g text-rendering="geometricPrecision" stroke-miterlimit="1.45" shape-rendering="geometricPrecision" transform="matrix(1,0,0,1,-141,158)" stroke-linecap="butt">
      <rect fill="none" x="959.2585" width="180" height="73" y="-31.5" clip-path="url(#clipPath3)"/>
      <text x="1011.7995" xml:space="preserve" y="9.1543" clip-path="url(#clipPath3)" font-family="sans-serif" stroke="none">Sprite Editor</text>
    </g>
    <g fill="maroon" text-rendering="geometricPrecision" shape-rendering="geometricPrecision" transform="matrix(1,0,0,1,-141,158)" stroke="maroon">
      <rect x="1545.7882" width="180" height="73" y="846.0188" clip-path="url(#clipPath3)" stroke="none"/>
    </g>
    <g text-rendering="geometricPrecision" stroke-miterlimit="1.45" shape-rendering="geometricPrecision" transform="matrix(1,0,0,1,-141,158)" stroke-linecap="butt">
      <rect fill="none" x="1545.7882" width="180" height="73" y="846.0188" clip-path="url(#clipPath3)"/>
      <text x="1577.212" y="886.6731" clip-path="url(#clipPath3)" fill="rgb(255,204,153)" font-family="sans-serif" stroke="none" xml:space="preserve">Settable Resolution</text>
    </g>
    <g fill="maroon" text-rendering="geometricPrecision" shape-rendering="geometricPrecision" transform="matrix(1,0,0,1,-141,158)" stroke="maroon">
      <rect x="1345.7882" width="180" height="73" y="846.0188" clip-path="url(#clipPath3)" stroke="none"/>
    </g>
    <g text-rendering="geometricPrecision" stroke-miterlimit="1.45" shape-rendering="geometricPrecision" transform="matrix(1,0,0,1,-141,158)" stroke-linecap="butt">
      <rect fill="none" x="1345.7882" width="180" height="73" y="846.0188" clip-path="url(#clipPath3)"/>
      <text x="1399.0265" y="886.6731" clip-path="url(#clipPath3)" fill="rgb(255,204,153)" font-family="sans-serif" stroke="none" xml:space="preserve">Test Profiles</text>
    </g>
    <g fill="maroon" text-rendering="geometricPrecision" shape-rendering="geometricPrecision" transform="matrix(1,0,0,1,-141,158)" stroke="maroon">
      <rect x="1145.7882" width="180" height="73" y="846.0188" clip-path="url(#clipPath3)" stroke="none"/>
    </g>
    <g text-rendering="geometricPrecision" stroke-miterlimit="1.45" shape-rendering="geometricPrecision" transform="matrix(1,0,0,1,-141,158)" stroke-linecap="butt">
      <rect fill="none" x="1145.7882" width="180" height="73" y="846.0188" clip-path="url(#clipPath3)"/>
      <text x="1195.1769" y="886.6731" clip-path="url(#clipPath3)" fill="rgb(255,204,153)" font-family="sans-serif" stroke="none" xml:space="preserve">Landing Page</text>
    </g>
    <g fill="maroon" text-rendering="geometricPrecision" shape-rendering="geometricPrecision" transform="matrix(1,0,0,1,-141,158)" stroke="maroon">
      <rect x="300.7882" width="180" height="73" y="743.0188" clip-path="url(#clipPath3)" stroke="none"/>
    </g>
    <g text-rendering="geometricPrecision" stroke-miterlimit="1.45" shape-rendering="geometricPrecision" transform="matrix(1,0,0,1,-141,158)" stroke-linecap="butt">
      <rect fill="none" x="300.7882" width="180" height="73" y="743.0188" clip-path="url(#clipPath3)"/>
      <text x="375.3664" y="783.6731" clip-path="url(#clipPath3)" fill="rgb(255,204,153)" font-family="sans-serif" stroke="none" xml:space="preserve">NPCs</text>
    </g>
    <g fill="maroon" text-rendering="geometricPrecision" shape-rendering="geometricPrecision" transform="matrix(1,0,0,1,-141,158)" stroke="maroon">
      <rect x="300.7882" width="180" height="73" y="846.0188" clip-path="url(#clipPath3)" stroke="none"/>
    </g>
    <g text-rendering="geometricPrecision" stroke-miterlimit="1.45" shape-rendering="geometricPrecision" transform="matrix(1,0,0,1,-141,158)" stroke-linecap="butt">
      <rect fill="none" x="300.7882" width="180" height="73" y="846.0188" clip-path="url(#clipPath3)"/>
      <text x="346.3918" y="886.6731" clip-path="url(#clipPath3)" fill="rgb(255,204,153)" font-family="sans-serif" stroke="none" xml:space="preserve">Basic Dialogue</text>
    </g>
    <g fill="maroon" text-rendering="geometricPrecision" shape-rendering="geometricPrecision" transform="matrix(1,0,0,1,-141,158)" stroke="maroon">
      <rect x="878.2882" width="180" height="73" y="635.0188" clip-path="url(#clipPath3)" stroke="none"/>
    </g>
    <g text-rendering="geometricPrecision" stroke-miterlimit="1.45" shape-rendering="geometricPrecision" transform="matrix(1,0,0,1,-141,158)" stroke-linecap="butt">
      <rect fill="none" x="878.2882" width="180" height="73" y="635.0188" clip-path="url(#clipPath3)"/>
      <text x="919.5734" y="675.6731" clip-path="url(#clipPath3)" fill="rgb(255,204,153)" font-family="sans-serif" stroke="none" xml:space="preserve">Customizable UI</text>
    </g>
    <g fill="maroon" text-rendering="geometricPrecision" shape-rendering="geometricPrecision" transform="matrix(1,0,0,1,-141,158)" stroke="maroon">
      <rect x="700.7882" width="180" height="73" y="846.0188" clip-path="url(#clipPath3)" stroke="none"/>
    </g>
    <g text-rendering="geometricPrecision" stroke-miterlimit="1.45" shape-rendering="geometricPrecision" transform="matrix(1,0,0,1,-141,158)" stroke-linecap="butt">
      <rect fill="none" x="700.7882" width="180" height="73" y="846.0188" clip-path="url(#clipPath3)"/>
      <text x="758.2189" y="886.6731" clip-path="url(#clipPath3)" fill="rgb(255,204,153)" font-family="sans-serif" stroke="none" xml:space="preserve">Equipment</text>
    </g>
    <g fill="maroon" text-rendering="geometricPrecision" shape-rendering="geometricPrecision" transform="matrix(1,0,0,1,-141,158)" stroke="maroon">
      <rect x="900.7882" width="180" height="73" y="743.0188" clip-path="url(#clipPath3)" stroke="none"/>
    </g>
    <g text-rendering="geometricPrecision" stroke-miterlimit="1.45" shape-rendering="geometricPrecision" transform="matrix(1,0,0,1,-141,158)" stroke-linecap="butt">
      <rect fill="none" x="900.7882" width="180" height="73" y="743.0188" clip-path="url(#clipPath3)"/>
      <text x="973.0197" y="783.6731" clip-path="url(#clipPath3)" fill="rgb(255,204,153)" font-family="sans-serif" stroke="none" xml:space="preserve">Spells</text>
    </g>
    <g fill="maroon" text-rendering="geometricPrecision" shape-rendering="geometricPrecision" transform="matrix(1,0,0,1,-141,158)" stroke="maroon">
      <rect x="700.7882" width="180" height="73" y="743.0188" clip-path="url(#clipPath3)" stroke="none"/>
    </g>
    <g text-rendering="geometricPrecision" stroke-miterlimit="1.45" shape-rendering="geometricPrecision" transform="matrix(1,0,0,1,-141,158)" stroke-linecap="butt">
      <rect fill="none" x="700.7882" width="180" height="73" y="743.0188" clip-path="url(#clipPath3)"/>
      <text x="774.0041" y="783.6731" clip-path="url(#clipPath3)" fill="rgb(255,204,153)" font-family="sans-serif" stroke="none" xml:space="preserve">Items</text>
    </g>
    <g fill="maroon" text-rendering="geometricPrecision" shape-rendering="geometricPrecision" transform="matrix(1,0,0,1,-141,158)" stroke="maroon">
      <rect x="345.7882" width="180" height="73" y="635.0188" clip-path="url(#clipPath3)" stroke="none"/>
    </g>
    <g text-rendering="geometricPrecision" stroke-miterlimit="1.45" shape-rendering="geometricPrecision" transform="matrix(1,0,0,1,-141,158)" stroke-linecap="butt">
      <rect fill="none" x="345.7882" width="180" height="73" y="635.0188" clip-path="url(#clipPath3)"/>
      <text x="382.1017" y="675.6731" clip-path="url(#clipPath3)" fill="rgb(255,204,153)" font-family="sans-serif" stroke="none" xml:space="preserve">Embedded Assets</text>
    </g>
    <g fill="maroon" text-rendering="geometricPrecision" shape-rendering="geometricPrecision" transform="matrix(1,0,0,1,-141,158)" stroke="maroon">
      <rect x="945.7882" width="180" height="73" y="846.0188" clip-path="url(#clipPath3)" stroke="none"/>
    </g>
    <g text-rendering="geometricPrecision" stroke-miterlimit="1.45" shape-rendering="geometricPrecision" transform="matrix(1,0,0,1,-141,158)" stroke-linecap="butt">
      <rect fill="none" x="945.7882" width="180" height="73" y="846.0188" clip-path="url(#clipPath3)"/>
      <text x="992.8332" y="886.6731" clip-path="url(#clipPath3)" fill="rgb(255,204,153)" font-family="sans-serif" stroke="none" xml:space="preserve">Asset Selector</text>
    </g>
    <g fill="maroon" text-rendering="geometricPrecision" shape-rendering="geometricPrecision" transform="matrix(1,0,0,1,-141,158)" stroke="maroon">
      <rect x="1323.2882" width="180" height="73" y="954.0188" clip-path="url(#clipPath3)" stroke="none"/>
    </g>
    <g text-rendering="geometricPrecision" stroke-miterlimit="1.45" shape-rendering="geometricPrecision" transform="matrix(1,0,0,1,-141,158)" stroke-linecap="butt">
      <rect fill="none" x="1323.2882" width="180" height="73" y="954.0188" clip-path="url(#clipPath3)"/>
      <text x="1382.4562" y="994.6731" clip-path="url(#clipPath3)" fill="rgb(255,204,153)" font-family="sans-serif" stroke="none" xml:space="preserve">Packaging</text>
    </g>
    <g fill="maroon" text-rendering="geometricPrecision" shape-rendering="geometricPrecision" transform="matrix(1,0,0,1,-141,158)" stroke="maroon">
      <rect x="500.7882" width="180" height="73" y="743.0188" clip-path="url(#clipPath3)" stroke="none"/>
    </g>
    <g text-rendering="geometricPrecision" stroke-miterlimit="1.45" shape-rendering="geometricPrecision" transform="matrix(1,0,0,1,-141,158)" stroke-linecap="butt">
      <rect fill="none" x="500.7882" width="180" height="73" y="743.0188" clip-path="url(#clipPath3)"/>
      <text x="559.5402" y="783.6731" clip-path="url(#clipPath3)" fill="rgb(255,204,153)" font-family="sans-serif" stroke="none" xml:space="preserve">Save/Load</text>
    </g>
    <g fill="maroon" text-rendering="geometricPrecision" shape-rendering="geometricPrecision" transform="matrix(1,0,0,1,-141,158)" stroke="maroon">
      <rect x="1650.7882" width="180" height="73" y="743.0188" clip-path="url(#clipPath3)" stroke="none"/>
    </g>
    <g text-rendering="geometricPrecision" stroke-miterlimit="1.45" shape-rendering="geometricPrecision" transform="matrix(1,0,0,1,-141,158)" stroke-linecap="butt">
      <rect fill="none" x="1650.7882" width="180" height="73" y="743.0188" clip-path="url(#clipPath3)"/>
      <text x="1690.9484" y="783.6731" clip-path="url(#clipPath3)" fill="rgb(255,204,153)" font-family="sans-serif" stroke="none" xml:space="preserve">Custom Controls</text>
    </g>
    <g fill="maroon" text-rendering="geometricPrecision" shape-rendering="geometricPrecision" transform="matrix(1,0,0,1,-141,158)" stroke="maroon">
      <rect x="1100.7882" width="180" height="73" y="743.0188" clip-path="url(#clipPath3)" stroke="none"/>
    </g>
    <g text-rendering="geometricPrecision" stroke-miterlimit="1.45" shape-rendering="geometricPrecision" transform="matrix(1,0,0,1,-141,158)" stroke-linecap="butt">
      <rect fill="none" x="1100.7882" width="180" height="73" y="743.0188" clip-path="url(#clipPath3)"/>
      <text x="1175.1202" y="783.6731" clip-path="url(#clipPath3)" fill="rgb(255,204,153)" font-family="sans-serif" stroke="none" xml:space="preserve">Icons</text>
    </g>
    <g fill="rgb(153,204,0)" text-rendering="geometricPrecision" shape-rendering="geometricPrecision" transform="matrix(1,0,0,1,-141,158)" stroke="rgb(153,204,0)">
      <rect x="1039.1382" width="180" height="73" y="174.5" clip-path="url(#clipPath3)" stroke="none"/>
    </g>
    <g text-rendering="geometricPrecision" stroke-miterlimit="1.45" shape-rendering="geometricPrecision" transform="matrix(1,0,0,1,-141,158)" stroke-linecap="butt">
      <rect fill="none" x="1039.1382" width="180" height="73" y="174.5" clip-path="url(#clipPath3)"/>
      <text x="1075.7593" xml:space="preserve" y="215.1543" clip-path="url(#clipPath3)" font-family="sans-serif" stroke="none">Transition Trigger</text>
    </g>
    <g fill="rgb(153,204,0)" text-rendering="geometricPrecision" shape-rendering="geometricPrecision" transform="matrix(1,0,0,1,-141,158)" stroke="rgb(153,204,0)">
      <rect x="839.1382" width="180" height="73" y="174.5" clip-path="url(#clipPath3)" stroke="none"/>
    </g>
    <g text-rendering="geometricPrecision" stroke-miterlimit="1.45" shape-rendering="geometricPrecision" transform="matrix(1,0,0,1,-141,158)" stroke-linecap="butt">
      <rect fill="none" x="839.1382" width="180" height="73" y="174.5" clip-path="url(#clipPath3)"/>
      <text x="882.1138" xml:space="preserve" y="215.1543" clip-path="url(#clipPath3)" font-family="sans-serif" stroke="none">Combat Trigger</text>
    </g>
    <g fill="rgb(153,204,0)" text-rendering="geometricPrecision" shape-rendering="geometricPrecision" transform="matrix(1,0,0,1,-141,158)" stroke="rgb(153,204,0)">
      <rect x="639.1382" width="180" height="73" y="174.5" clip-path="url(#clipPath3)" stroke="none"/>
    </g>
    <g text-rendering="geometricPrecision" stroke-miterlimit="1.45" shape-rendering="geometricPrecision" transform="matrix(1,0,0,1,-141,158)" stroke-linecap="butt">
      <rect fill="none" x="639.1382" width="180" height="73" y="174.5" clip-path="url(#clipPath3)"/>
      <text x="678.9673" xml:space="preserve" y="215.1543" clip-path="url(#clipPath3)" font-family="sans-serif" stroke="none">Win/Loss Trigger</text>
    </g>
    <g fill="rgb(153,204,0)" text-rendering="geometricPrecision" shape-rendering="geometricPrecision" transform="matrix(1,0,0,1,-141,158)" stroke="rgb(153,204,0)">
      <rect x="839.1382" width="180" height="73" y="277.5" clip-path="url(#clipPath3)" stroke="none"/>
    </g>
    <g text-rendering="geometricPrecision" stroke-miterlimit="1.45" shape-rendering="geometricPrecision" transform="matrix(1,0,0,1,-141,158)" stroke-linecap="butt">
      <rect fill="none" x="839.1382" width="180" height="73" y="277.5" clip-path="url(#clipPath3)"/>
      <text x="856.9185" xml:space="preserve" y="318.1543" clip-path="url(#clipPath3)" font-family="sans-serif" stroke="none">Post-Encounter Triggers</text>
    </g>
    <g fill="rgb(153,204,0)" text-rendering="geometricPrecision" shape-rendering="geometricPrecision" transform="matrix(1,0,0,1,-141,158)" stroke="rgb(153,204,0)">
      <rect x="439.1382" width="180" height="73" y="174.5" clip-path="url(#clipPath3)" stroke="none"/>
    </g>
    <g text-rendering="geometricPrecision" stroke-miterlimit="1.45" shape-rendering="geometricPrecision" transform="matrix(1,0,0,1,-141,158)" stroke-linecap="butt">
      <rect fill="none" x="439.1382" width="180" height="73" y="174.5" clip-path="url(#clipPath3)"/>
      <text x="487.1002" xml:space="preserve" y="215.1543" clip-path="url(#clipPath3)" font-family="sans-serif" stroke="none">Game Startup</text>
      <path fill="none" d="M929.1382 -66.5 L929.1382 63.4663" clip-path="url(#clipPath3)"/>
      <path d="M929.1382 71.4663 L934.1382 59.4663 L929.1382 62.4663 L924.1382 59.4663 Z" clip-path="url(#clipPath3)" stroke="none"/>
      <path fill="none" d="M1413.2882 1269 L1413.2882 1291" clip-path="url(#clipPath3)"/>
      <path d="M1413.2882 1299 L1418.2882 1287 L1413.2882 1290 L1408.2882 1287 Z" clip-path="url(#clipPath3)" stroke="none"/>
      <path fill="none" d="M929.1382 458.5 L929.1382 473.9441 L704.2198 473.9441 L704.2198 505.5" clip-path="url(#clipPath3)"/>
      <path d="M704.2198 513.5 L709.2198 501.5 L704.2198 504.5 L699.2198 501.5 Z" clip-path="url(#clipPath3)" stroke="none"/>
      <path fill="none" d="M959.3782 -66.5 L959.3782 -56.5 L1249.2584 -56.5 L1249.2584 -39.5488" clip-path="url(#clipPath3)"/>
      <path d="M1249.2584 -31.5488 L1254.2584 -43.5488 L1249.2584 -40.5488 L1244.2584 -43.5488 Z" clip-path="url(#clipPath3)" stroke="none"/>
      <path fill="none" d="M1249.2584 41.5 L1249.2584 370.5 L959.3782 370.5 L959.3782 377.5" clip-path="url(#clipPath3)"/>
      <path d="M959.3782 385.5 L964.3782 373.5 L959.3782 376.5 L954.3782 373.5 Z" clip-path="url(#clipPath3)" stroke="none"/>
      <path fill="none" d="M898.8983 -66.5 L898.8983 -56.5 L424.1382 -56.5 L424.1382 -39.5488" clip-path="url(#clipPath3)"/>
      <path d="M424.1382 -31.5488 L429.1382 -43.5488 L424.1382 -40.5488 L419.1382 -43.5488 Z" clip-path="url(#clipPath3)" stroke="none"/>
      <path fill="none" d="M424.1382 41.5 L424.1382 370.5 L898.8983 370.5 L898.8983 377.5" clip-path="url(#clipPath3)"/>
      <path d="M898.8983 385.5 L903.8983 373.5 L898.8983 376.5 L893.8983 373.5 Z" clip-path="url(#clipPath3)" stroke="none"/>
      <path fill="none" d="M914.0182 -66.5 L914.0182 -46.5 L684.1382 -46.5 L684.1382 -39.5293" clip-path="url(#clipPath3)"/>
      <path d="M684.1382 -31.5293 L689.1382 -43.5293 L684.1382 -40.5293 L679.1382 -43.5293 Z" clip-path="url(#clipPath3)" stroke="none"/>
      <path fill="none" d="M639.1382 41.5 L639.1382 51.5 L529.1382 51.5 L529.1382 63.4609" clip-path="url(#clipPath3)"/>
      <path d="M529.1382 71.4609 L534.1382 59.4609 L529.1382 62.4609 L524.1382 59.4609 Z" clip-path="url(#clipPath3)" stroke="none"/>
      <path fill="none" d="M729.1382 41.5 L729.1382 63.4707" clip-path="url(#clipPath3)"/>
      <path d="M729.1382 71.4707 L734.1382 59.4707 L729.1382 62.4707 L724.1382 59.4707 Z" clip-path="url(#clipPath3)" stroke="none"/>
      <path fill="none" d="M781.3383 1027.0188 L781.3383 1037.0188 L1388.0883 1037.0188 L1388.0883 1049.0188" clip-path="url(#clipPath3)"/>
      <path d="M1388.0883 1057.0188 L1393.0883 1045.0188 L1388.0883 1048.0188 L1383.0883 1045.0188 Z" clip-path="url(#clipPath3)" stroke="none"/>
    </g>
    <g stroke-linecap="round" transform="matrix(1,0,0,1,-141,158)" stroke-dashoffset="2" text-rendering="geometricPrecision" shape-rendering="geometricPrecision" stroke-dasharray="0,20" stroke-width="5" stroke-miterlimit="1.45">
      <path fill="none" d="M1413.2882 1130.0188 L1413.2882 1183.9678" clip-path="url(#clipPath3)"/>
      <path d="M1413.2882 1195.9678 L1420.7882 1177.9678 L1413.2882 1182.4678 L1405.7882 1177.9678 Z" clip-path="url(#clipPath3)" stroke="none"/>
    </g>
    <g text-rendering="geometricPrecision" stroke-miterlimit="1.45" shape-rendering="geometricPrecision" transform="matrix(1,0,0,1,-141,158)" stroke-linecap="butt">
      <path fill="none" d="M944.2582 -66.5 L944.2582 -46.5 L1049.2584 -46.5 L1049.2584 -39.5293" clip-path="url(#clipPath3)"/>
      <path d="M1049.2584 -31.5293 L1054.2584 -43.5293 L1049.2584 -40.5293 L1044.2584 -43.5293 Z" clip-path="url(#clipPath3)" stroke="none"/>
      <path fill="none" d="M1049.2584 41.5 L1049.2584 51.5 L1234.1382 51.5 L1234.1382 360.5 L944.2582 360.5 L944.2582 377.5" clip-path="url(#clipPath3)"/>
      <path d="M944.2582 385.5 L949.2582 373.5 L944.2582 376.5 L939.2582 373.5 Z" clip-path="url(#clipPath3)" stroke="none"/>
      <path fill="none" d="M732.9868 586.5 L732.9868 601.5557 L1597.7882 601.5557 L1597.7882 837.989" clip-path="url(#clipPath3)"/>
      <path d="M1597.7882 845.989 L1602.7882 833.989 L1597.7882 836.989 L1592.7882 833.989 Z" clip-path="url(#clipPath3)" stroke="none"/>
      <path fill="none" d="M720.9206 586.5 L720.9206 608.2594 L1435.7882 608.2594 L1435.7882 837.9898" clip-path="url(#clipPath3)"/>
      <path d="M1435.7882 845.9898 L1440.7882 833.9898 L1435.7882 836.9898 L1430.7882 833.9898 Z" clip-path="url(#clipPath3)" stroke="none"/>
      <path fill="none" d="M390.7882 816.0481 L390.7882 837.9896" clip-path="url(#clipPath3)"/>
      <path d="M390.7882 845.9896 L395.7882 833.9896 L390.7882 836.9896 L385.7882 833.9896 Z" clip-path="url(#clipPath3)" stroke="none"/>
      <path fill="none" d="M390.7882 919.0579 L390.7882 939.0188 L752.9882 939.0188 L752.9882 946.0188" clip-path="url(#clipPath3)"/>
      <path d="M752.9882 954.0188 L757.9882 942.0188 L752.9882 945.0188 L747.9882 942.0188 Z" clip-path="url(#clipPath3)" stroke="none"/>
      <path fill="none" d="M696.7883 586.5 L696.7883 621.6669 L968.2883 621.6669 L968.2883 626.9927" clip-path="url(#clipPath3)"/>
      <path d="M968.2883 634.9927 L973.2883 622.9927 L968.2883 625.9927 L963.2883 622.9927 Z" clip-path="url(#clipPath3)" stroke="none"/>
      <path fill="none" d="M790.7883 919.053 L790.7883 946.0188" clip-path="url(#clipPath3)"/>
      <path d="M790.7883 954.0188 L795.7883 942.0188 L790.7883 945.0188 L785.7883 942.0188 Z" clip-path="url(#clipPath3)" stroke="none"/>
      <path fill="none" d="M990.7883 708.0188 L990.7883 734.9846" clip-path="url(#clipPath3)"/>
      <path d="M990.7883 742.9846 L995.7883 730.9846 L990.7883 733.9846 L985.7883 730.9846 Z" clip-path="url(#clipPath3)" stroke="none"/>
      <path fill="none" d="M990.7883 816.0579 L990.7883 826.0188 L930.7883 826.0188 L930.7883 929.0188 L809.6882 929.0188 L809.6882 946.0188" clip-path="url(#clipPath3)"/>
      <path d="M809.6882 954.0188 L814.6882 942.0188 L809.6882 945.0188 L804.6882 942.0188 Z" clip-path="url(#clipPath3)" stroke="none"/>
      <path fill="none" d="M945.7883 708.0188 L945.7883 728.0188 L790.7883 728.0188 L790.7883 734.9895" clip-path="url(#clipPath3)"/>
      <path d="M790.7883 742.9895 L795.7883 730.9895 L790.7883 733.9895 L785.7883 730.9895 Z" clip-path="url(#clipPath3)" stroke="none"/>
      <path fill="none" d="M790.7883 816.0481 L790.7883 837.9896" clip-path="url(#clipPath3)"/>
      <path d="M790.7883 845.9896 L795.7883 833.9896 L790.7883 836.9896 L785.7883 833.9896 Z" clip-path="url(#clipPath3)" stroke="none"/>
      <path fill="none" d="M678.5426 586.5 L678.5426 594.8519 L435.7882 594.8519 L435.7882 626.9796" clip-path="url(#clipPath3)"/>
      <path d="M435.7882 634.9796 L440.7882 622.9796 L435.7882 625.9796 L430.7882 622.9796 Z" clip-path="url(#clipPath3)" stroke="none"/>
      <path fill="none" d="M390.7882 708.0188 L390.7882 734.9846" clip-path="url(#clipPath3)"/>
      <path d="M390.7882 742.9846 L395.7882 730.9846 L390.7882 733.9846 L385.7882 730.9846 Z" clip-path="url(#clipPath3)" stroke="none"/>
      <path fill="none" d="M1235.7882 919.0579 L1235.7882 929.0188 L1390.7882 929.0188 L1390.7882 945.97" clip-path="url(#clipPath3)"/>
      <path d="M1390.7882 953.97 L1395.7882 941.97 L1390.7882 944.97 L1385.7882 941.97 Z" clip-path="url(#clipPath3)" stroke="none"/>
      <path fill="none" d="M1635.7882 919.0579 L1635.7882 929.0188 L1480.7882 929.0188 L1480.7882 945.97" clip-path="url(#clipPath3)"/>
      <path d="M1480.7882 953.97 L1485.7882 941.97 L1480.7882 944.97 L1475.7882 941.97 Z" clip-path="url(#clipPath3)" stroke="none"/>
      <path fill="none" d="M1435.7882 919.053 L1435.7882 945.9847" clip-path="url(#clipPath3)"/>
      <path d="M1435.7882 953.9847 L1440.7882 941.9847 L1435.7882 944.9847 L1430.7882 941.9847 Z" clip-path="url(#clipPath3)" stroke="none"/>
      <path fill="none" d="M1035.7882 919.0579 L1035.7882 939.0188 L1345.7882 939.0188 L1345.7882 945.9895" clip-path="url(#clipPath3)"/>
      <path d="M1345.7882 953.9895 L1350.7882 941.9895 L1345.7882 944.9895 L1340.7882 941.9895 Z" clip-path="url(#clipPath3)" stroke="none"/>
      <path fill="none" d="M1413.2882 1027.0188 L1413.2882 1049.0188" clip-path="url(#clipPath3)"/>
      <path d="M1413.2882 1057.0188 L1418.2882 1045.0188 L1413.2882 1048.0188 L1408.2882 1045.0188 Z" clip-path="url(#clipPath3)" stroke="none"/>
      <path fill="none" d="M480.7882 708.0188 L480.7882 718.0188 L545.7883 718.0188 L545.7883 734.97" clip-path="url(#clipPath3)"/>
      <path d="M545.7883 742.97 L550.7883 730.97 L545.7883 733.97 L540.7883 730.97 Z" clip-path="url(#clipPath3)" stroke="none"/>
      <path fill="none" d="M900.7883 708.0188 L900.7883 718.0188 L635.7883 718.0188 L635.7883 734.97" clip-path="url(#clipPath3)"/>
      <path d="M635.7883 742.97 L640.7883 730.97 L635.7883 733.97 L630.7883 730.97 Z" clip-path="url(#clipPath3)" stroke="none"/>
      <path fill="none" d="M590.7883 816.0464 L590.7883 929.0188 L771.8882 929.0188 L771.8882 946.0188" clip-path="url(#clipPath3)"/>
      <path d="M771.8882 954.0188 L776.8882 942.0188 L771.8882 945.0188 L766.8882 942.0188 Z" clip-path="url(#clipPath3)" stroke="none"/>
      <path fill="none" d="M1035.7882 708.0188 L1035.7882 718.0188 L1740.7882 718.0188 L1740.7882 734.97" clip-path="url(#clipPath3)"/>
      <path d="M1740.7882 742.97 L1745.7882 730.97 L1740.7882 733.97 L1735.7882 730.97 Z" clip-path="url(#clipPath3)" stroke="none"/>
      <path fill="none" d="M1740.7882 816.0458 L1740.7882 1037.0188 L1438.4883 1037.0188 L1438.4883 1049.0188" clip-path="url(#clipPath3)"/>
      <path d="M1438.4883 1057.0188 L1443.4883 1045.0188 L1438.4883 1048.0188 L1433.4883 1045.0188 Z" clip-path="url(#clipPath3)" stroke="none"/>
      <path fill="none" d="M708.8544 586.5 L708.8544 614.9632 L1190.7882 614.9632 L1190.7882 735.0188" clip-path="url(#clipPath3)"/>
      <path d="M1190.7882 743.0188 L1195.7882 731.0188 L1190.7882 734.0188 L1185.7882 731.0188 Z" clip-path="url(#clipPath3)" stroke="none"/>
      <path fill="none" d="M1235.7882 816.0481 L1235.7882 837.9896" clip-path="url(#clipPath3)"/>
      <path d="M1235.7882 845.9896 L1240.7882 833.9896 L1235.7882 836.9896 L1230.7882 833.9896 Z" clip-path="url(#clipPath3)" stroke="none"/>
      <path fill="none" d="M1145.7882 816.0579 L1145.7882 826.0188 L1035.7882 826.0188 L1035.7882 837.9797" clip-path="url(#clipPath3)"/>
      <path d="M1035.7882 845.9797 L1040.7882 833.9797 L1035.7882 836.9797 L1030.7882 833.9797 Z" clip-path="url(#clipPath3)" stroke="none"/>
      <path fill="none" d="M989.1382 144.5 L989.1382 154.5 L1129.1382 154.5 L1129.1382 166.4609" clip-path="url(#clipPath3)"/>
      <path d="M1129.1382 174.4609 L1134.1382 162.4609 L1129.1382 165.4609 L1124.1382 162.4609 Z" clip-path="url(#clipPath3)" stroke="none"/>
      <path fill="none" d="M929.1382 144.5 L929.1382 166.4707" clip-path="url(#clipPath3)"/>
      <path d="M929.1382 174.4707 L934.1382 162.4707 L929.1382 165.4707 L924.1382 162.4707 Z" clip-path="url(#clipPath3)" stroke="none"/>
      <path fill="none" d="M869.1382 144.5 L869.1382 154.5 L774.1382 154.5 L774.1382 166.4609" clip-path="url(#clipPath3)"/>
      <path d="M774.1382 174.4609 L779.1382 162.4609 L774.1382 165.4609 L769.1382 162.4609 Z" clip-path="url(#clipPath3)" stroke="none"/>
      <path fill="none" d="M729.1382 144.5 L729.1382 154.5 L684.1382 154.5 L684.1382 166.4609" clip-path="url(#clipPath3)"/>
      <path d="M684.1382 174.4609 L689.1382 162.4609 L684.1382 165.4609 L679.1382 162.4609 Z" clip-path="url(#clipPath3)" stroke="none"/>
      <path fill="none" d="M1129.1382 247.5 L1129.1382 257.5 L989.1382 257.5 L989.1382 269.4609" clip-path="url(#clipPath3)"/>
      <path d="M989.1382 277.4609 L994.1382 265.4609 L989.1382 268.4609 L984.1382 265.4609 Z" clip-path="url(#clipPath3)" stroke="none"/>
      <path fill="none" d="M929.1382 247.5 L929.1382 269.4707" clip-path="url(#clipPath3)"/>
      <path d="M929.1382 277.4707 L934.1382 265.4707 L929.1382 268.4707 L924.1382 265.4707 Z" clip-path="url(#clipPath3)" stroke="none"/>
      <path fill="none" d="M729.1382 247.5 L729.1382 257.5 L869.1382 257.5 L869.1382 269.4609" clip-path="url(#clipPath3)"/>
      <path d="M869.1382 277.4609 L874.1382 265.4609 L869.1382 268.4609 L864.1382 265.4609 Z" clip-path="url(#clipPath3)" stroke="none"/>
      <path fill="none" d="M929.1382 350.5342 L929.1382 377.5" clip-path="url(#clipPath3)"/>
      <path d="M929.1382 385.5 L934.1382 373.5 L929.1382 376.5 L924.1382 373.5 Z" clip-path="url(#clipPath3)" stroke="none"/>
      <path fill="none" d="M529.1382 144.5 L529.1382 166.4707" clip-path="url(#clipPath3)"/>
      <path d="M529.1382 174.4707 L534.1382 162.4707 L529.1382 165.4707 L524.1382 162.4707 Z" clip-path="url(#clipPath3)" stroke="none"/>
      <path fill="none" d="M529.1382 247.5276 L529.1382 360.5 L914.0182 360.5 L914.0182 377.5" clip-path="url(#clipPath3)"/>
      <path d="M914.0182 385.5 L919.0182 373.5 L914.0182 376.5 L909.0182 373.5 Z" clip-path="url(#clipPath3)" stroke="none"/>
    </g>
  </g>
</svg>
