<?xml version="1.0" encoding="UTF-8"?><svg xmlns="http://www.w3.org/2000/svg" xmlns:xlink="http://www.w3.org/1999/xlink" fill-opacity="1" color-rendering="auto" color-interpolation="auto" text-rendering="auto" stroke="black" stroke-linecap="square" width="1512" stroke-miterlimit="10" shape-rendering="auto" stroke-opacity="1" fill="black" stroke-dasharray="none" font-weight="normal" stroke-width="1" height="573" font-family="'Dialog'" font-style="normal" stroke-linejoin="miter" font-size="12px" stroke-dashoffset="0" image-rendering="auto">
  <!--Generated by ySVG 2.5-->
  <defs id="genericDefs"/>
  <g>
    <defs id="defs1">
      <clipPath clipPathUnits="userSpaceOnUse" id="clipPath1">
        <path d="M0 0 L1512 0 L1512 573 L0 573 L0 0 Z"/>
      </clipPath>
      <clipPath clipPathUnits="userSpaceOnUse" id="clipPath2">
        <path d="M145 244 L1657 244 L1657 817 L145 817 L145 244 Z"/>
      </clipPath>
      <clipPath clipPathUnits="userSpaceOnUse" id="clipPath3">
        <path d="M149 248 L1661 248 L1661 821 L149 821 L149 248 Z"/>
      </clipPath>
    </defs>
    <g fill="rgb(210,210,210)" text-rendering="geometricPrecision" shape-rendering="geometricPrecision" transform="matrix(1,0,0,1,-149,-248) translate(4,4)" stroke="rgb(210,210,210)">
      <rect x="164.8187" width="147.3196" height="216" y="263.3457" clip-path="url(#clipPath2)" stroke="none"/>
    </g>
    <g fill="rgb(242,240,216)" text-rendering="geometricPrecision" shape-rendering="geometricPrecision" transform="matrix(1,0,0,1,-149,-248)" stroke="rgb(242,240,216)">
      <rect x="164.8187" width="147.3196" height="216" y="263.3457" clip-path="url(#clipPath3)" stroke="none"/>
      <rect x="164.8187" y="263.3457" clip-path="url(#clipPath3)" fill="rgb(183,182,158)" width="147.3196" height="21.4609" stroke="none"/>
    </g>
    <g font-size="15px" stroke-linecap="butt" transform="matrix(1,0,0,1,-149,-248)" text-rendering="geometricPrecision" font-family="sans-serif" shape-rendering="geometricPrecision" stroke-miterlimit="1.45">
      <text x="230.4581" xml:space="preserve" y="279.269" clip-path="url(#clipPath3)" stroke="none">Shape Key</text>
      <rect fill="none" x="164.8187" width="147.3196" height="216" y="263.3457" clip-path="url(#clipPath3)"/>
    </g>
    <g fill="rgb(255,204,0)" text-rendering="geometricPrecision" shape-rendering="geometricPrecision" transform="matrix(1,0,0,1,-149,-248)" stroke="rgb(255,204,0)">
      <rect x="179.8187" width="117.3196" height="35.3086" y="303.3457" clip-path="url(#clipPath3)" stroke="none"/>
    </g>
    <g text-rendering="geometricPrecision" stroke-miterlimit="1.45" shape-rendering="geometricPrecision" transform="matrix(1,0,0,1,-149,-248)" stroke-linecap="butt">
      <rect fill="none" x="179.8187" width="117.3196" height="35.3086" y="303.3457" clip-path="url(#clipPath3)"/>
      <text x="204.7666" xml:space="preserve" y="325.1543" clip-path="url(#clipPath3)" font-family="sans-serif" stroke="none">Game Task</text>
    </g>
    <g fill="rgb(255,204,0)" text-rendering="geometricPrecision" shape-rendering="geometricPrecision" transform="matrix(1,0,0,1,-149,-248)" stroke="rgb(255,204,0)">
      <rect x="179.8187" y="351.6668" clip-path="url(#clipPath3)" width="117.3196" rx="4" ry="4" height="35.3086" stroke="none"/>
    </g>
    <g stroke-linecap="butt" transform="matrix(1,0,0,1,-149,-248)" fill="gray" text-rendering="geometricPrecision" shape-rendering="geometricPrecision" stroke="gray" stroke-miterlimit="1.45">
      <rect x="179.8187" y="351.6668" clip-path="url(#clipPath3)" fill="none" width="117.3196" rx="4" ry="4" height="35.3086"/>
      <text x="197.6298" y="373.4754" clip-path="url(#clipPath3)" fill="black" font-family="sans-serif" stroke="none" xml:space="preserve">External Task</text>
    </g>
    <g fill="rgb(255,204,0)" text-rendering="geometricPrecision" shape-rendering="geometricPrecision" transform="matrix(1,0,0,1,-149,-248)" stroke="rgb(255,204,0)">
      <circle r="29.864" clip-path="url(#clipPath3)" cx="238.4785" cy="429.852" stroke="none"/>
    </g>
    <g text-rendering="geometricPrecision" stroke-miterlimit="1.45" shape-rendering="geometricPrecision" transform="matrix(1,0,0,1,-149,-248)" stroke-linecap="butt">
      <circle fill="none" r="29.864" clip-path="url(#clipPath3)" cx="238.4785" cy="429.852"/>
      <text x="214.7656" xml:space="preserve" y="434.0063" clip-path="url(#clipPath3)" font-family="sans-serif" stroke="none">Release</text>
    </g>
    <g fill="rgb(210,210,210)" text-rendering="geometricPrecision" shape-rendering="geometricPrecision" transform="matrix(1,0,0,1,-149,-248) translate(4,4)" stroke="rgb(210,210,210)">
      <rect x="164.8187" width="147.3196" height="279.9426" y="504.2305" clip-path="url(#clipPath2)" stroke="none"/>
    </g>
    <g fill="rgb(242,240,216)" text-rendering="geometricPrecision" shape-rendering="geometricPrecision" transform="matrix(1,0,0,1,-149,-248)" stroke="rgb(242,240,216)">
      <rect x="164.8187" width="147.3196" height="279.9426" y="504.2305" clip-path="url(#clipPath3)" stroke="none"/>
      <rect x="164.8187" y="504.2305" clip-path="url(#clipPath3)" fill="rgb(183,182,158)" width="147.3196" height="21.4609" stroke="none"/>
    </g>
    <g font-size="15px" stroke-linecap="butt" transform="matrix(1,0,0,1,-149,-248)" text-rendering="geometricPrecision" font-family="sans-serif" shape-rendering="geometricPrecision" stroke-miterlimit="1.45">
      <text x="238.2657" xml:space="preserve" y="520.1538" clip-path="url(#clipPath3)" stroke="none">Color Key</text>
      <rect fill="none" x="164.8187" width="147.3196" height="279.9426" y="504.2305" clip-path="url(#clipPath3)"/>
    </g>
    <g fill="maroon" text-rendering="geometricPrecision" shape-rendering="geometricPrecision" transform="matrix(1,0,0,1,-149,-248)" stroke="maroon">
      <rect x="179.8187" width="117.3196" height="35.3086" y="540.6914" clip-path="url(#clipPath3)" stroke="none"/>
    </g>
    <g text-rendering="geometricPrecision" stroke-miterlimit="1.45" shape-rendering="geometricPrecision" transform="matrix(1,0,0,1,-149,-248)" stroke-linecap="butt">
      <rect fill="none" x="179.8187" width="117.3196" height="35.3086" y="540.6914" clip-path="url(#clipPath3)"/>
      <text x="201.4589" y="562.5" clip-path="url(#clipPath3)" fill="rgb(255,204,153)" font-family="sans-serif" stroke="none" xml:space="preserve">Future Work</text>
    </g>
    <g fill="red" text-rendering="geometricPrecision" shape-rendering="geometricPrecision" transform="matrix(1,0,0,1,-149,-248)" stroke="red">
      <rect x="179.8187" width="117.3196" height="35.3086" y="589.0863" clip-path="url(#clipPath3)" stroke="none"/>
    </g>
    <g text-rendering="geometricPrecision" stroke-miterlimit="1.45" shape-rendering="geometricPrecision" transform="matrix(1,0,0,1,-149,-248)" stroke-linecap="butt">
      <rect fill="none" x="179.8187" width="117.3196" height="35.3086" y="589.0863" clip-path="url(#clipPath3)"/>
      <text x="190.7334" xml:space="preserve" y="610.8949" clip-path="url(#clipPath3)" font-family="sans-serif" stroke="none">Upcoming Work</text>
    </g>
    <g fill="rgb(255,102,0)" text-rendering="geometricPrecision" shape-rendering="geometricPrecision" transform="matrix(1,0,0,1,-149,-248)" stroke="rgb(255,102,0)">
      <rect x="179.8187" width="117.3196" height="35.3086" y="637.3457" clip-path="url(#clipPath3)" stroke="none"/>
    </g>
    <g text-rendering="geometricPrecision" stroke-miterlimit="1.45" shape-rendering="geometricPrecision" transform="matrix(1,0,0,1,-149,-248)" stroke-linecap="butt">
      <rect fill="none" x="179.8187" width="117.3196" height="35.3086" y="637.3457" clip-path="url(#clipPath3)"/>
      <text x="206.9433" xml:space="preserve" y="659.1543" clip-path="url(#clipPath3)" font-family="sans-serif" stroke="none">Next Work</text>
    </g>
    <g fill="rgb(255,204,0)" text-rendering="geometricPrecision" shape-rendering="geometricPrecision" transform="matrix(1,0,0,1,-149,-248)" stroke="rgb(255,204,0)">
      <rect x="179.8187" width="117.3196" height="35.3086" y="685.6051" clip-path="url(#clipPath3)" stroke="none"/>
    </g>
    <g text-rendering="geometricPrecision" stroke-miterlimit="1.45" shape-rendering="geometricPrecision" transform="matrix(1,0,0,1,-149,-248)" stroke-linecap="butt">
      <rect fill="none" x="179.8187" width="117.3196" height="35.3086" y="685.6051" clip-path="url(#clipPath3)"/>
      <text x="205.0244" xml:space="preserve" y="707.4137" clip-path="url(#clipPath3)" font-family="sans-serif" stroke="none">In Progress</text>
    </g>
    <g fill="rgb(153,204,0)" text-rendering="geometricPrecision" shape-rendering="geometricPrecision" transform="matrix(1,0,0,1,-149,-248)" stroke="rgb(153,204,0)">
      <rect x="179.8187" width="117.3196" height="35.3086" y="733.8645" clip-path="url(#clipPath3)" stroke="none"/>
    </g>
    <g text-rendering="geometricPrecision" stroke-miterlimit="1.45" shape-rendering="geometricPrecision" transform="matrix(1,0,0,1,-149,-248)" stroke-linecap="butt">
      <rect fill="none" x="179.8187" width="117.3196" height="35.3086" y="733.8645" clip-path="url(#clipPath3)"/>
      <text x="222.6933" xml:space="preserve" y="755.6731" clip-path="url(#clipPath3)" font-family="sans-serif" stroke="none">Done</text>
    </g>
    <g fill="rgb(153,204,0)" text-rendering="geometricPrecision" shape-rendering="geometricPrecision" transform="matrix(1,0,0,1,-149,-248)" stroke="rgb(153,204,0)">
      <rect x="996.4176" width="147.3196" height="59.728" y="471.3949" clip-path="url(#clipPath3)" stroke="none"/>
    </g>
    <g text-rendering="geometricPrecision" stroke-miterlimit="1.45" shape-rendering="geometricPrecision" transform="matrix(1,0,0,1,-149,-248)" stroke-linecap="butt">
      <rect fill="none" x="996.4176" width="147.3196" height="59.728" y="471.3949" clip-path="url(#clipPath3)"/>
      <text x="1035.844" xml:space="preserve" y="505.4132" clip-path="url(#clipPath3)" font-family="sans-serif" stroke="none">Area 1 Map</text>
    </g>
    <g fill="rgb(153,204,0)" text-rendering="geometricPrecision" shape-rendering="geometricPrecision" transform="matrix(1,0,0,1,-149,-248)" stroke="rgb(153,204,0)">
      <rect x="996.4176" width="147.3196" height="59.728" y="381.6668" clip-path="url(#clipPath3)" stroke="none"/>
    </g>
    <g text-rendering="geometricPrecision" stroke-miterlimit="1.45" shape-rendering="geometricPrecision" transform="matrix(1,0,0,1,-149,-248)" stroke-linecap="butt">
      <rect fill="none" x="996.4176" width="147.3196" height="59.728" y="381.6668" clip-path="url(#clipPath3)"/>
      <text x="1034.6897" xml:space="preserve" y="415.6852" clip-path="url(#clipPath3)" font-family="sans-serif" stroke="none">Area 1 Tiles</text>
    </g>
    <g fill="rgb(255,204,0)" text-rendering="geometricPrecision" shape-rendering="geometricPrecision" transform="matrix(1,0,0,1,-149,-248)" stroke="rgb(255,204,0)">
      <rect x="327.1382" width="147.3196" height="59.728" y="291.9388" clip-path="url(#clipPath3)" stroke="none"/>
    </g>
    <g text-rendering="geometricPrecision" stroke-miterlimit="1.45" shape-rendering="geometricPrecision" transform="matrix(1,0,0,1,-149,-248)" stroke-linecap="butt">
      <rect fill="none" x="327.1382" width="147.3196" height="59.728" y="291.9388" clip-path="url(#clipPath3)"/>
      <text x="363.3185" xml:space="preserve" y="325.9571" clip-path="url(#clipPath3)" font-family="sans-serif" stroke="none">Rokko sprite</text>
    </g>
    <g fill="rgb(255,204,0)" text-rendering="geometricPrecision" shape-rendering="geometricPrecision" transform="matrix(1,0,0,1,-149,-248)" stroke="rgb(255,204,0)">
      <rect x="996.4176" width="147.3196" height="59.728" y="291.9388" clip-path="url(#clipPath3)" stroke="none"/>
    </g>
    <g text-rendering="geometricPrecision" stroke-miterlimit="1.45" shape-rendering="geometricPrecision" transform="matrix(1,0,0,1,-149,-248)" stroke-linecap="butt">
      <rect fill="none" x="996.4176" width="147.3196" height="59.728" y="291.9388" clip-path="url(#clipPath3)"/>
      <text x="1021.3655" xml:space="preserve" y="325.9571" clip-path="url(#clipPath3)" font-family="sans-serif" stroke="none">Bushbaby sprite</text>
    </g>
    <g fill="red" text-rendering="geometricPrecision" shape-rendering="geometricPrecision" transform="matrix(1,0,0,1,-149,-248)" stroke="red">
      <rect x="494.4581" width="147.3196" height="59.728" y="291.9388" clip-path="url(#clipPath3)" stroke="none"/>
    </g>
    <g text-rendering="geometricPrecision" stroke-miterlimit="1.45" shape-rendering="geometricPrecision" transform="matrix(1,0,0,1,-149,-248)" stroke-linecap="butt">
      <rect fill="none" x="494.4581" width="147.3196" height="59.728" y="291.9388" clip-path="url(#clipPath3)"/>
      <text x="531.1247" xml:space="preserve" y="325.9571" clip-path="url(#clipPath3)" font-family="sans-serif" stroke="none">Rokko audio</text>
    </g>
    <g fill="red" text-rendering="geometricPrecision" shape-rendering="geometricPrecision" transform="matrix(1,0,0,1,-149,-248)" stroke="red">
      <rect x="829.0978" width="147.3196" height="59.728" y="291.9388" clip-path="url(#clipPath3)" stroke="none"/>
    </g>
    <g text-rendering="geometricPrecision" stroke-miterlimit="1.45" shape-rendering="geometricPrecision" transform="matrix(1,0,0,1,-149,-248)" stroke-linecap="butt">
      <rect fill="none" x="829.0978" width="147.3196" height="59.728" y="291.9388" clip-path="url(#clipPath3)"/>
      <text x="854.532" xml:space="preserve" y="325.9571" clip-path="url(#clipPath3)" font-family="sans-serif" stroke="none">Bushbaby audio</text>
    </g>
    <g fill="red" text-rendering="geometricPrecision" shape-rendering="geometricPrecision" transform="matrix(1,0,0,1,-149,-248)" stroke="red">
      <rect x="661.7779" width="147.3196" height="59.728" y="291.9388" clip-path="url(#clipPath3)" stroke="none"/>
    </g>
    <g text-rendering="geometricPrecision" stroke-miterlimit="1.45" shape-rendering="geometricPrecision" transform="matrix(1,0,0,1,-149,-248)" stroke-linecap="butt">
      <rect fill="none" x="661.7779" width="147.3196" height="59.728" y="291.9388" clip-path="url(#clipPath3)"/>
      <text x="687.1916" xml:space="preserve" y="325.9571" clip-path="url(#clipPath3)" font-family="sans-serif" stroke="none">Combat Music 1</text>
    </g>
    <g fill="maroon" text-rendering="geometricPrecision" shape-rendering="geometricPrecision" transform="matrix(1,0,0,1,-149,-248)" stroke="maroon">
      <rect x="829.0978" width="147.3196" height="59.728" y="471.3949" clip-path="url(#clipPath3)" stroke="none"/>
    </g>
    <g text-rendering="geometricPrecision" stroke-miterlimit="1.45" shape-rendering="geometricPrecision" transform="matrix(1,0,0,1,-149,-248)" stroke-linecap="butt">
      <rect fill="none" x="829.0978" width="147.3196" height="59.728" y="471.3949" clip-path="url(#clipPath3)"/>
      <text x="863.447" y="505.4132" clip-path="url(#clipPath3)" fill="rgb(255,204,153)" font-family="sans-serif" stroke="none" xml:space="preserve">Area 1 music</text>
    </g>
    <g fill="maroon" text-rendering="geometricPrecision" shape-rendering="geometricPrecision" transform="matrix(1,0,0,1,-149,-248)" stroke="maroon">
      <rect x="829.0978" width="147.3196" height="59.728" y="561.1229" clip-path="url(#clipPath3)" stroke="none"/>
    </g>
    <g text-rendering="geometricPrecision" stroke-miterlimit="1.45" shape-rendering="geometricPrecision" transform="matrix(1,0,0,1,-149,-248)" stroke-linecap="butt">
      <rect fill="none" x="829.0978" width="147.3196" height="59.728" y="561.1229" clip-path="url(#clipPath3)"/>
      <text x="883.0935" y="595.1412" clip-path="url(#clipPath3)" fill="rgb(255,204,153)" font-family="sans-serif" stroke="none" xml:space="preserve">Area 1</text>
    </g>
    <g fill="maroon" text-rendering="geometricPrecision" shape-rendering="geometricPrecision" transform="matrix(1,0,0,1,-149,-248)" stroke="maroon">
      <rect x="661.7779" width="147.3196" height="59.728" y="471.3949" clip-path="url(#clipPath3)" stroke="none"/>
    </g>
    <g text-rendering="geometricPrecision" stroke-miterlimit="1.45" shape-rendering="geometricPrecision" transform="matrix(1,0,0,1,-149,-248)" stroke-linecap="butt">
      <rect fill="none" x="661.7779" width="147.3196" height="59.728" y="471.3949" clip-path="url(#clipPath3)"/>
      <text x="680.0607" y="505.4132" clip-path="url(#clipPath3)" fill="rgb(255,204,153)" font-family="sans-serif" stroke="none" xml:space="preserve">Area 1 Encounters</text>
    </g>
    <g fill="red" text-rendering="geometricPrecision" shape-rendering="geometricPrecision" transform="matrix(1,0,0,1,-149,-248)" stroke="red">
      <rect x="494.4581" width="147.3196" height="59.728" y="381.6668" clip-path="url(#clipPath3)" stroke="none"/>
    </g>
    <g text-rendering="geometricPrecision" stroke-miterlimit="1.45" shape-rendering="geometricPrecision" transform="matrix(1,0,0,1,-149,-248)" stroke-linecap="butt">
      <rect fill="none" x="494.4581" width="147.3196" height="59.728" y="381.6668" clip-path="url(#clipPath3)"/>
      <text x="517.1706" xml:space="preserve" y="415.6852" clip-path="url(#clipPath3)" font-family="sans-serif" stroke="none">Rokko encounter</text>
    </g>
    <g fill="red" text-rendering="geometricPrecision" shape-rendering="geometricPrecision" transform="matrix(1,0,0,1,-149,-248)" stroke="red">
      <rect x="829.0978" width="147.3196" height="59.728" y="381.6668" clip-path="url(#clipPath3)" stroke="none"/>
    </g>
    <g text-rendering="geometricPrecision" stroke-miterlimit="1.45" shape-rendering="geometricPrecision" transform="matrix(1,0,0,1,-149,-248)" stroke-linecap="butt">
      <rect fill="none" x="829.0978" width="147.3196" height="59.728" y="381.6668" clip-path="url(#clipPath3)"/>
      <text x="840.5779" xml:space="preserve" y="415.6852" clip-path="url(#clipPath3)" font-family="sans-serif" stroke="none">Bushbaby encounter</text>
    </g>
    <g fill="maroon" text-rendering="geometricPrecision" shape-rendering="geometricPrecision" transform="matrix(1,0,0,1,-149,-248)" stroke="maroon">
      <rect x="1498.3771" width="147.3196" height="59.728" y="561.1229" clip-path="url(#clipPath3)" stroke="none"/>
    </g>
    <g text-rendering="geometricPrecision" stroke-miterlimit="1.45" shape-rendering="geometricPrecision" transform="matrix(1,0,0,1,-149,-248)" stroke-linecap="butt">
      <rect fill="none" x="1498.3771" width="147.3196" height="59.728" y="561.1229" clip-path="url(#clipPath3)"/>
      <text x="1542.1277" y="595.1412" clip-path="url(#clipPath3)" fill="rgb(255,204,153)" font-family="sans-serif" stroke="none" xml:space="preserve">Intro Area</text>
    </g>
    <g fill="maroon" text-rendering="geometricPrecision" shape-rendering="geometricPrecision" transform="matrix(1,0,0,1,-149,-248)" stroke="maroon">
      <rect x="1331.0573" width="147.3196" height="59.728" y="561.1229" clip-path="url(#clipPath3)" stroke="none"/>
    </g>
    <g text-rendering="geometricPrecision" stroke-miterlimit="1.45" shape-rendering="geometricPrecision" transform="matrix(1,0,0,1,-149,-248)" stroke-linecap="butt">
      <rect fill="none" x="1331.0573" width="147.3196" height="59.728" y="561.1229" clip-path="url(#clipPath3)"/>
      <text x="1385.053" y="595.1412" clip-path="url(#clipPath3)" fill="rgb(255,204,153)" font-family="sans-serif" stroke="none" xml:space="preserve">Area 4</text>
    </g>
    <g fill="maroon" text-rendering="geometricPrecision" shape-rendering="geometricPrecision" transform="matrix(1,0,0,1,-149,-248)" stroke="maroon">
      <rect x="1163.7374" width="147.3196" height="59.728" y="561.1229" clip-path="url(#clipPath3)" stroke="none"/>
    </g>
    <g text-rendering="geometricPrecision" stroke-miterlimit="1.45" shape-rendering="geometricPrecision" transform="matrix(1,0,0,1,-149,-248)" stroke-linecap="butt">
      <rect fill="none" x="1163.7374" width="147.3196" height="59.728" y="561.1229" clip-path="url(#clipPath3)"/>
      <text x="1217.7332" y="595.1412" clip-path="url(#clipPath3)" fill="rgb(255,204,153)" font-family="sans-serif" stroke="none" xml:space="preserve">Area 3</text>
    </g>
    <g fill="maroon" text-rendering="geometricPrecision" shape-rendering="geometricPrecision" transform="matrix(1,0,0,1,-149,-248)" stroke="maroon">
      <rect x="1331.0573" width="147.3196" height="59.728" y="471.3949" clip-path="url(#clipPath3)" stroke="none"/>
    </g>
    <g text-rendering="geometricPrecision" stroke-miterlimit="1.45" shape-rendering="geometricPrecision" transform="matrix(1,0,0,1,-149,-248)" stroke-linecap="butt">
      <rect fill="none" x="1331.0573" width="147.3196" height="59.728" y="471.3949" clip-path="url(#clipPath3)"/>
      <text x="1350.0842" y="505.4132" clip-path="url(#clipPath3)" fill="rgb(255,204,153)" font-family="sans-serif" stroke="none" xml:space="preserve">Dragon Encounter</text>
    </g>
    <g fill="maroon" text-rendering="geometricPrecision" shape-rendering="geometricPrecision" transform="matrix(1,0,0,1,-149,-248)" stroke="maroon">
      <rect x="996.4176" width="147.3196" height="59.728" y="561.1229" clip-path="url(#clipPath3)" stroke="none"/>
    </g>
    <g text-rendering="geometricPrecision" stroke-miterlimit="1.45" shape-rendering="geometricPrecision" transform="matrix(1,0,0,1,-149,-248)" stroke-linecap="butt">
      <rect fill="none" x="996.4176" width="147.3196" height="59.728" y="561.1229" clip-path="url(#clipPath3)"/>
      <text x="1050.4133" y="595.1412" clip-path="url(#clipPath3)" fill="rgb(255,204,153)" font-family="sans-serif" stroke="none" xml:space="preserve">Area 2</text>
    </g>
    <g fill="maroon" text-rendering="geometricPrecision" shape-rendering="geometricPrecision" transform="matrix(1,0,0,1,-149,-248)" stroke="maroon">
      <rect x="1163.7374" width="147.3196" height="59.728" y="655.8509" clip-path="url(#clipPath3)" stroke="none"/>
    </g>
    <g text-rendering="geometricPrecision" stroke-miterlimit="1.45" shape-rendering="geometricPrecision" transform="matrix(1,0,0,1,-149,-248)" stroke-linecap="butt">
      <rect fill="none" x="1163.7374" width="147.3196" height="59.728" y="655.8509" clip-path="url(#clipPath3)"/>
      <text x="1193.7654" y="689.8693" clip-path="url(#clipPath3)" fill="rgb(255,204,153)" font-family="sans-serif" stroke="none" xml:space="preserve">Game Content</text>
    </g>
    <g fill="maroon" text-rendering="geometricPrecision" shape-rendering="geometricPrecision" transform="matrix(1,0,0,1,-149,-248)" stroke="maroon">
      <circle r="29.864" clip-path="url(#clipPath3)" cx="1252.3294" cy="775.443" stroke="none"/>
    </g>
    <g text-rendering="geometricPrecision" stroke-miterlimit="1.45" shape-rendering="geometricPrecision" transform="matrix(1,0,0,1,-149,-248)" stroke-linecap="butt">
      <circle fill="none" r="29.864" clip-path="url(#clipPath3)" cx="1252.3294" cy="775.443"/>
      <text x="1239.2366" y="772.6129" clip-path="url(#clipPath3)" fill="rgb(255,204,153)" font-family="sans-serif" stroke="none" xml:space="preserve">v1.0</text>
      <text x="1228.6165" y="786.5817" clip-path="url(#clipPath3)" fill="rgb(255,204,153)" font-family="sans-serif" stroke="none" xml:space="preserve">Release</text>
    </g>
    <g fill="maroon" text-rendering="geometricPrecision" shape-rendering="geometricPrecision" transform="matrix(1,0,0,1,-149,-248)" stroke="maroon">
      <rect x="1331.0573" width="147.3196" height="59.728" y="655.8509" clip-path="url(#clipPath3)" stroke="none"/>
    </g>
    <g text-rendering="geometricPrecision" stroke-miterlimit="1.45" shape-rendering="geometricPrecision" transform="matrix(1,0,0,1,-149,-248)" stroke-linecap="butt">
      <rect fill="none" x="1331.0573" width="147.3196" height="59.728" y="655.8509" clip-path="url(#clipPath3)"/>
      <text x="1371.2512" y="689.8693" clip-path="url(#clipPath3)" fill="rgb(255,204,153)" font-family="sans-serif" stroke="none" xml:space="preserve">Game Flow</text>
      <path fill="none" d="M1070.0774 441.3949 L1070.0774 463.3656" clip-path="url(#clipPath3)"/>
      <path d="M1070.0774 471.3656 L1075.0774 459.3656 L1070.0774 462.3656 L1065.0774 459.3656 Z" clip-path="url(#clipPath3)" stroke="none"/>
      <path fill="none" d="M902.7576 531.1229 L902.7576 553.0936" clip-path="url(#clipPath3)"/>
      <path d="M902.7576 561.0936 L907.7576 549.0936 L902.7576 552.0936 L897.7576 549.0936 Z" clip-path="url(#clipPath3)" stroke="none"/>
      <path fill="none" d="M1070.0774 531.1229 L1070.0774 541.1229 L951.8641 541.1229 L951.8641 553.0839" clip-path="url(#clipPath3)"/>
      <path d="M951.8641 561.0839 L956.8641 549.0839 L951.8641 552.0839 L946.8641 549.0839 Z" clip-path="url(#clipPath3)" stroke="none"/>
      <path fill="none" d="M735.4377 531.1229 L735.4377 541.1229 L853.651 541.1229 L853.651 553.0839" clip-path="url(#clipPath3)"/>
      <path d="M853.651 561.0839 L858.651 549.0839 L853.651 552.0839 L848.651 549.0839 Z" clip-path="url(#clipPath3)" stroke="none"/>
      <path fill="none" d="M568.1179 351.6668 L568.1179 373.6375" clip-path="url(#clipPath3)"/>
      <path d="M568.1179 381.6375 L573.1179 369.6375 L568.1179 372.6375 L563.1179 369.6375 Z" clip-path="url(#clipPath3)" stroke="none"/>
      <path fill="none" d="M400.798 351.6668 L400.798 361.6668 L519.0114 361.6668 L519.0114 373.6278" clip-path="url(#clipPath3)"/>
      <path d="M519.0114 381.6278 L524.0114 369.6278 L519.0114 372.6278 L514.0114 369.6278 Z" clip-path="url(#clipPath3)" stroke="none"/>
      <path fill="none" d="M698.6078 351.6668 L698.6078 361.6668 L617.2244 361.6668 L617.2244 373.6278" clip-path="url(#clipPath3)"/>
      <path d="M617.2244 381.6278 L622.2244 369.6278 L617.2244 372.6278 L612.2244 369.6278 Z" clip-path="url(#clipPath3)" stroke="none"/>
      <path fill="none" d="M568.1179 441.3949 L568.1179 451.3949 L698.6078 451.3949 L698.6078 463.3558" clip-path="url(#clipPath3)"/>
      <path d="M698.6078 471.3558 L703.6078 459.3558 L698.6078 462.3558 L693.6078 459.3558 Z" clip-path="url(#clipPath3)" stroke="none"/>
      <path fill="none" d="M1070.0774 351.6668 L1070.0774 361.6668 L951.8641 361.6668 L951.8641 373.6278" clip-path="url(#clipPath3)"/>
      <path d="M951.8641 381.6278 L956.8641 369.6278 L951.8641 372.6278 L946.8641 369.6278 Z" clip-path="url(#clipPath3)" stroke="none"/>
      <path fill="none" d="M902.7576 351.6668 L902.7576 373.6375" clip-path="url(#clipPath3)"/>
      <path d="M902.7576 381.6375 L907.7576 369.6375 L902.7576 372.6375 L897.7576 369.6375 Z" clip-path="url(#clipPath3)" stroke="none"/>
      <path fill="none" d="M772.2676 351.6668 L772.2676 361.6668 L853.651 361.6668 L853.651 373.6278" clip-path="url(#clipPath3)"/>
      <path d="M853.651 381.6278 L858.651 369.6278 L853.651 372.6278 L848.651 369.6278 Z" clip-path="url(#clipPath3)" stroke="none"/>
      <path fill="none" d="M902.7576 441.3949 L902.7576 451.3949 L772.2676 451.3949 L772.2676 463.3558" clip-path="url(#clipPath3)"/>
      <path d="M772.2676 471.3558 L777.2676 459.3558 L772.2676 462.3558 L767.2676 459.3558 Z" clip-path="url(#clipPath3)" stroke="none"/>
      <path fill="none" d="M1404.717 531.1229 L1404.717 553.1229" clip-path="url(#clipPath3)"/>
      <path d="M1404.717 561.1229 L1409.717 549.1229 L1404.717 552.1229 L1399.717 549.1229 Z" clip-path="url(#clipPath3)" stroke="none"/>
      <path fill="none" d="M1404.717 620.851 L1404.717 630.851 L1266.8611 630.851 L1266.8611 647.8021" clip-path="url(#clipPath3)"/>
      <path d="M1266.8611 655.8021 L1271.8611 643.8021 L1266.8611 646.8021 L1261.8611 643.8021 Z" clip-path="url(#clipPath3)" stroke="none"/>
      <path fill="none" d="M902.7576 620.851 L902.7576 640.851 L1178.4694 640.851 L1178.4694 647.8217" clip-path="url(#clipPath3)"/>
      <path d="M1178.4694 655.8217 L1183.4694 643.8217 L1178.4694 646.8217 L1173.4694 643.8217 Z" clip-path="url(#clipPath3)" stroke="none"/>
      <path fill="none" d="M1070.0774 620.851 L1070.0774 630.851 L1207.9333 630.851 L1207.9333 647.8021" clip-path="url(#clipPath3)"/>
      <path d="M1207.9333 655.8021 L1212.9333 643.8021 L1207.9333 646.8021 L1202.9333 643.8021 Z" clip-path="url(#clipPath3)" stroke="none"/>
      <path fill="none" d="M1237.3972 620.851 L1237.3972 647.8168" clip-path="url(#clipPath3)"/>
      <path d="M1237.3972 655.8168 L1242.3972 643.8168 L1237.3972 646.8168 L1232.3972 643.8168 Z" clip-path="url(#clipPath3)" stroke="none"/>
      <path fill="none" d="M1572.0369 620.851 L1572.0369 640.851 L1296.3251 640.851 L1296.3251 647.8217" clip-path="url(#clipPath3)"/>
      <path d="M1296.3251 655.8217 L1301.3251 643.8217 L1296.3251 646.8217 L1291.3251 643.8217 Z" clip-path="url(#clipPath3)" stroke="none"/>
      <path fill="none" d="M1237.3972 715.579 L1237.3973 737.579" clip-path="url(#clipPath3)"/>
      <path d="M1237.3973 745.579 L1242.3973 733.579 L1237.3973 736.579 L1232.3973 733.579 Z" clip-path="url(#clipPath3)" stroke="none"/>
      <path fill="none" d="M1404.717 715.579 L1404.717 725.579 L1267.2614 725.579 L1267.2614 737.579" clip-path="url(#clipPath3)"/>
      <path d="M1267.2614 745.579 L1272.2614 733.579 L1267.2614 736.579 L1262.2614 733.579 Z" clip-path="url(#clipPath3)" stroke="none"/>
    </g>
  </g>
</svg>
