<?xml version="1.0" encoding="UTF-8"?><svg xmlns="http://www.w3.org/2000/svg" xmlns:xlink="http://www.w3.org/1999/xlink" fill-opacity="1" color-rendering="auto" color-interpolation="auto" text-rendering="auto" stroke="black" stroke-linecap="square" width="1924" stroke-miterlimit="10" shape-rendering="auto" stroke-opacity="1" fill="black" stroke-dasharray="none" font-weight="normal" stroke-width="1" height="656" font-family="'Dialog'" font-style="normal" stroke-linejoin="miter" font-size="12px" stroke-dashoffset="0" image-rendering="auto">
  <!--Generated by ySVG 2.5-->
  <defs id="genericDefs"/>
  <g>
    <defs id="defs1">
      <clipPath clipPathUnits="userSpaceOnUse" id="clipPath1">
        <path d="M0 0 L1924 0 L1924 656 L0 656 L0 0 Z"/>
      </clipPath>
      <clipPath clipPathUnits="userSpaceOnUse" id="clipPath2">
        <path d="M137 -172 L2061 -172 L2061 484 L137 484 L137 -172 Z"/>
      </clipPath>
      <clipPath clipPathUnits="userSpaceOnUse" id="clipPath3">
        <path d="M141 -168 L2065 -168 L2065 488 L141 488 L141 -168 Z"/>
      </clipPath>
    </defs>
    <g fill="rgb(210,210,210)" text-rendering="geometricPrecision" shape-rendering="geometricPrecision" transform="matrix(1,0,0,1,-141,168) translate(4,4)" stroke="rgb(210,210,210)">
      <rect x="156.8187" width="147.3196" height="216" y="-52.6543" clip-path="url(#clipPath2)" stroke="none"/>
    </g>
    <g fill="rgb(242,240,216)" text-rendering="geometricPrecision" shape-rendering="geometricPrecision" transform="matrix(1,0,0,1,-141,168)" stroke="rgb(242,240,216)">
      <rect x="156.8187" width="147.3196" height="216" y="-52.6543" clip-path="url(#clipPath3)" stroke="none"/>
      <rect x="156.8187" y="-52.6543" clip-path="url(#clipPath3)" fill="rgb(183,182,158)" width="147.3196" height="21.4609" stroke="none"/>
    </g>
    <g font-size="15px" stroke-linecap="butt" transform="matrix(1,0,0,1,-141,168)" text-rendering="geometricPrecision" font-family="sans-serif" shape-rendering="geometricPrecision" stroke-miterlimit="1.45">
      <text x="222.4581" xml:space="preserve" y="-36.7309" clip-path="url(#clipPath3)" stroke="none">Shape Key</text>
      <rect fill="none" x="156.8187" width="147.3196" height="216" y="-52.6543" clip-path="url(#clipPath3)"/>
    </g>
    <g fill="rgb(255,204,0)" text-rendering="geometricPrecision" shape-rendering="geometricPrecision" transform="matrix(1,0,0,1,-141,168)" stroke="rgb(255,204,0)">
      <rect x="171.8187" width="117.3196" height="35.3086" y="-12.6543" clip-path="url(#clipPath3)" stroke="none"/>
    </g>
    <g text-rendering="geometricPrecision" stroke-miterlimit="1.45" shape-rendering="geometricPrecision" transform="matrix(1,0,0,1,-141,168)" stroke-linecap="butt">
      <rect fill="none" x="171.8187" width="117.3196" height="35.3086" y="-12.6543" clip-path="url(#clipPath3)"/>
      <text x="190.998" xml:space="preserve" y="9.1543" clip-path="url(#clipPath3)" font-family="sans-serif" stroke="none">Halberd Task</text>
    </g>
    <g fill="rgb(255,204,0)" text-rendering="geometricPrecision" shape-rendering="geometricPrecision" transform="matrix(1,0,0,1,-141,168)" stroke="rgb(255,204,0)">
      <rect x="171.8187" y="35.6668" clip-path="url(#clipPath3)" width="117.3196" rx="4" ry="4" height="35.3086" stroke="none"/>
    </g>
    <g stroke-linecap="butt" transform="matrix(1,0,0,1,-141,168)" fill="gray" text-rendering="geometricPrecision" shape-rendering="geometricPrecision" stroke="gray" stroke-miterlimit="1.45">
      <rect x="171.8187" y="35.6668" clip-path="url(#clipPath3)" fill="none" width="117.3196" rx="4" ry="4" height="35.3086"/>
      <text x="189.6298" y="57.4754" clip-path="url(#clipPath3)" fill="black" font-family="sans-serif" stroke="none" xml:space="preserve">External Task</text>
    </g>
    <g fill="rgb(255,204,0)" text-rendering="geometricPrecision" shape-rendering="geometricPrecision" transform="matrix(1,0,0,1,-141,168)" stroke="rgb(255,204,0)">
      <circle r="29.864" clip-path="url(#clipPath3)" cx="230.4785" cy="113.852" stroke="none"/>
    </g>
    <g text-rendering="geometricPrecision" stroke-miterlimit="1.45" shape-rendering="geometricPrecision" transform="matrix(1,0,0,1,-141,168)" stroke-linecap="butt">
      <circle fill="none" r="29.864" clip-path="url(#clipPath3)" cx="230.4785" cy="113.852"/>
      <text x="206.7656" xml:space="preserve" y="118.0063" clip-path="url(#clipPath3)" font-family="sans-serif" stroke="none">Release</text>
    </g>
    <g fill="rgb(210,210,210)" text-rendering="geometricPrecision" shape-rendering="geometricPrecision" transform="matrix(1,0,0,1,-141,168) translate(4,4)" stroke="rgb(210,210,210)">
      <rect x="156.8187" width="147.3196" height="279.9426" y="188.2305" clip-path="url(#clipPath2)" stroke="none"/>
    </g>
    <g fill="rgb(242,240,216)" text-rendering="geometricPrecision" shape-rendering="geometricPrecision" transform="matrix(1,0,0,1,-141,168)" stroke="rgb(242,240,216)">
      <rect x="156.8187" width="147.3196" height="279.9426" y="188.2305" clip-path="url(#clipPath3)" stroke="none"/>
      <rect x="156.8187" y="188.2305" clip-path="url(#clipPath3)" fill="rgb(183,182,158)" width="147.3196" height="21.4609" stroke="none"/>
    </g>
    <g font-size="15px" stroke-linecap="butt" transform="matrix(1,0,0,1,-141,168)" text-rendering="geometricPrecision" font-family="sans-serif" shape-rendering="geometricPrecision" stroke-miterlimit="1.45">
      <text x="230.2657" xml:space="preserve" y="204.1538" clip-path="url(#clipPath3)" stroke="none">Color Key</text>
      <rect fill="none" x="156.8187" width="147.3196" height="279.9426" y="188.2305" clip-path="url(#clipPath3)"/>
    </g>
    <g fill="maroon" text-rendering="geometricPrecision" shape-rendering="geometricPrecision" transform="matrix(1,0,0,1,-141,168)" stroke="maroon">
      <rect x="171.8187" width="117.3196" height="35.3086" y="224.6914" clip-path="url(#clipPath3)" stroke="none"/>
    </g>
    <g text-rendering="geometricPrecision" stroke-miterlimit="1.45" shape-rendering="geometricPrecision" transform="matrix(1,0,0,1,-141,168)" stroke-linecap="butt">
      <rect fill="none" x="171.8187" width="117.3196" height="35.3086" y="224.6914" clip-path="url(#clipPath3)"/>
      <text x="193.4589" y="246.5" clip-path="url(#clipPath3)" fill="rgb(255,204,153)" font-family="sans-serif" stroke="none" xml:space="preserve">Future Work</text>
    </g>
    <g fill="red" text-rendering="geometricPrecision" shape-rendering="geometricPrecision" transform="matrix(1,0,0,1,-141,168)" stroke="red">
      <rect x="171.8187" width="117.3196" height="35.3086" y="273.0863" clip-path="url(#clipPath3)" stroke="none"/>
    </g>
    <g text-rendering="geometricPrecision" stroke-miterlimit="1.45" shape-rendering="geometricPrecision" transform="matrix(1,0,0,1,-141,168)" stroke-linecap="butt">
      <rect fill="none" x="171.8187" width="117.3196" height="35.3086" y="273.0863" clip-path="url(#clipPath3)"/>
      <text x="182.7334" xml:space="preserve" y="294.8949" clip-path="url(#clipPath3)" font-family="sans-serif" stroke="none">Upcoming Work</text>
    </g>
    <g fill="rgb(255,102,0)" text-rendering="geometricPrecision" shape-rendering="geometricPrecision" transform="matrix(1,0,0,1,-141,168)" stroke="rgb(255,102,0)">
      <rect x="171.8187" width="117.3196" height="35.3086" y="321.3457" clip-path="url(#clipPath3)" stroke="none"/>
    </g>
    <g text-rendering="geometricPrecision" stroke-miterlimit="1.45" shape-rendering="geometricPrecision" transform="matrix(1,0,0,1,-141,168)" stroke-linecap="butt">
      <rect fill="none" x="171.8187" width="117.3196" height="35.3086" y="321.3457" clip-path="url(#clipPath3)"/>
      <text x="198.9433" xml:space="preserve" y="343.1543" clip-path="url(#clipPath3)" font-family="sans-serif" stroke="none">Next Work</text>
    </g>
    <g fill="rgb(255,204,0)" text-rendering="geometricPrecision" shape-rendering="geometricPrecision" transform="matrix(1,0,0,1,-141,168)" stroke="rgb(255,204,0)">
      <rect x="171.8187" width="117.3196" height="35.3086" y="369.6051" clip-path="url(#clipPath3)" stroke="none"/>
    </g>
    <g text-rendering="geometricPrecision" stroke-miterlimit="1.45" shape-rendering="geometricPrecision" transform="matrix(1,0,0,1,-141,168)" stroke-linecap="butt">
      <rect fill="none" x="171.8187" width="117.3196" height="35.3086" y="369.6051" clip-path="url(#clipPath3)"/>
      <text x="197.0244" xml:space="preserve" y="391.4137" clip-path="url(#clipPath3)" font-family="sans-serif" stroke="none">In Progress</text>
    </g>
    <g fill="rgb(153,204,0)" text-rendering="geometricPrecision" shape-rendering="geometricPrecision" transform="matrix(1,0,0,1,-141,168)" stroke="rgb(153,204,0)">
      <rect x="171.8187" width="117.3196" height="35.3086" y="417.8645" clip-path="url(#clipPath3)" stroke="none"/>
    </g>
    <g text-rendering="geometricPrecision" stroke-miterlimit="1.45" shape-rendering="geometricPrecision" transform="matrix(1,0,0,1,-141,168)" stroke-linecap="butt">
      <rect fill="none" x="171.8187" width="117.3196" height="35.3086" y="417.8645" clip-path="url(#clipPath3)"/>
      <text x="214.6933" xml:space="preserve" y="439.6731" clip-path="url(#clipPath3)" font-family="sans-serif" stroke="none">Done</text>
    </g>
    <g fill="rgb(153,204,0)" text-rendering="geometricPrecision" shape-rendering="geometricPrecision" transform="matrix(1,0,0,1,-141,168)" stroke="rgb(153,204,0)">
      <circle r="37.8" clip-path="url(#clipPath3)" cx="1024.1382" cy="-114.3" stroke="none"/>
    </g>
    <g text-rendering="geometricPrecision" stroke-miterlimit="1.45" shape-rendering="geometricPrecision" transform="matrix(1,0,0,1,-141,168)" stroke-linecap="butt">
      <circle fill="none" r="37.8" clip-path="url(#clipPath3)" cx="1024.1382" cy="-114.3"/>
      <text x="1005.3209" xml:space="preserve" y="-117.1301" clip-path="url(#clipPath3)" font-family="sans-serif" stroke="none">v0.0.1</text>
      <text x="1000.5455" xml:space="preserve" y="-103.1613" clip-path="url(#clipPath3)" font-family="sans-serif" stroke="none">Preview</text>
    </g>
    <g fill="rgb(153,204,0)" text-rendering="geometricPrecision" shape-rendering="geometricPrecision" transform="matrix(1,0,0,1,-141,168)" stroke="rgb(153,204,0)">
      <rect x="934.1382" width="180" height="73" y="-31.5" clip-path="url(#clipPath3)" stroke="none"/>
    </g>
    <g text-rendering="geometricPrecision" stroke-miterlimit="1.45" shape-rendering="geometricPrecision" transform="matrix(1,0,0,1,-141,168)" stroke-linecap="butt">
      <rect fill="none" x="934.1382" width="180" height="73" y="-31.5" clip-path="url(#clipPath3)"/>
      <text x="965.5621" xml:space="preserve" y="9.1543" clip-path="url(#clipPath3)" font-family="sans-serif" stroke="none">Settable Resolution</text>
    </g>
    <g fill="red" text-rendering="geometricPrecision" shape-rendering="geometricPrecision" transform="matrix(1,0,0,1,-141,168)" stroke="red">
      <rect x="1134.1382" width="180" height="73" y="-31.5" clip-path="url(#clipPath3)" stroke="none"/>
    </g>
    <g text-rendering="geometricPrecision" stroke-miterlimit="1.45" shape-rendering="geometricPrecision" transform="matrix(1,0,0,1,-141,168)" stroke-linecap="butt">
      <rect fill="none" x="1134.1382" width="180" height="73" y="-31.5" clip-path="url(#clipPath3)"/>
      <text x="1187.3765" xml:space="preserve" y="9.1543" clip-path="url(#clipPath3)" font-family="sans-serif" stroke="none">Test Profiles</text>
    </g>
    <g fill="rgb(153,204,0)" text-rendering="geometricPrecision" shape-rendering="geometricPrecision" transform="matrix(1,0,0,1,-141,168)" stroke="rgb(153,204,0)">
      <rect x="839.1382" width="180" height="73" y="86.5" clip-path="url(#clipPath3)" stroke="none"/>
    </g>
    <g text-rendering="geometricPrecision" stroke-miterlimit="1.45" shape-rendering="geometricPrecision" transform="matrix(1,0,0,1,-141,168)" stroke-linecap="butt">
      <rect fill="none" x="839.1382" width="180" height="73" y="86.5" clip-path="url(#clipPath3)"/>
      <text x="888.5269" xml:space="preserve" y="127.1543" clip-path="url(#clipPath3)" font-family="sans-serif" stroke="none">Landing Page</text>
    </g>
    <g fill="maroon" text-rendering="geometricPrecision" shape-rendering="geometricPrecision" transform="matrix(1,0,0,1,-141,168)" stroke="maroon">
      <rect x="1869.1382" width="180" height="73" y="86.5" clip-path="url(#clipPath3)" stroke="none"/>
    </g>
    <g text-rendering="geometricPrecision" stroke-miterlimit="1.45" shape-rendering="geometricPrecision" transform="matrix(1,0,0,1,-141,168)" stroke-linecap="butt">
      <rect fill="none" x="1869.1382" width="180" height="73" y="86.5" clip-path="url(#clipPath3)"/>
      <text x="1943.7163" y="127.1543" clip-path="url(#clipPath3)" fill="rgb(255,204,153)" font-family="sans-serif" stroke="none" xml:space="preserve">NPCs</text>
    </g>
    <g fill="maroon" text-rendering="geometricPrecision" shape-rendering="geometricPrecision" transform="matrix(1,0,0,1,-141,168)" stroke="maroon">
      <rect x="1869.1382" width="180" height="73" y="194.5" clip-path="url(#clipPath3)" stroke="none"/>
    </g>
    <g text-rendering="geometricPrecision" stroke-miterlimit="1.45" shape-rendering="geometricPrecision" transform="matrix(1,0,0,1,-141,168)" stroke-linecap="butt">
      <rect fill="none" x="1869.1382" width="180" height="73" y="194.5" clip-path="url(#clipPath3)"/>
      <text x="1914.7417" y="235.1543" clip-path="url(#clipPath3)" fill="rgb(255,204,153)" font-family="sans-serif" stroke="none" xml:space="preserve">Basic Dialogue</text>
    </g>
    <g fill="rgb(255,102,0)" text-rendering="geometricPrecision" shape-rendering="geometricPrecision" transform="matrix(1,0,0,1,-141,168)" stroke="rgb(255,102,0)">
      <rect x="1334.1382" width="180" height="73" y="-31.5" clip-path="url(#clipPath3)" stroke="none"/>
    </g>
    <g text-rendering="geometricPrecision" stroke-miterlimit="1.45" shape-rendering="geometricPrecision" transform="matrix(1,0,0,1,-141,168)" stroke-linecap="butt">
      <rect fill="none" x="1334.1382" width="180" height="73" y="-31.5" clip-path="url(#clipPath3)"/>
      <text x="1375.4233" xml:space="preserve" y="9.1543" clip-path="url(#clipPath3)" font-family="sans-serif" stroke="none">Customizable UI</text>
    </g>
    <g fill="maroon" text-rendering="geometricPrecision" shape-rendering="geometricPrecision" transform="matrix(1,0,0,1,-141,168)" stroke="maroon">
      <rect x="1469.1382" width="180" height="73" y="194.5" clip-path="url(#clipPath3)" stroke="none"/>
    </g>
    <g text-rendering="geometricPrecision" stroke-miterlimit="1.45" shape-rendering="geometricPrecision" transform="matrix(1,0,0,1,-141,168)" stroke-linecap="butt">
      <rect fill="none" x="1469.1382" width="180" height="73" y="194.5" clip-path="url(#clipPath3)"/>
      <text x="1526.5688" y="235.1543" clip-path="url(#clipPath3)" fill="rgb(255,204,153)" font-family="sans-serif" stroke="none" xml:space="preserve">Equipment</text>
    </g>
    <g fill="maroon" text-rendering="geometricPrecision" shape-rendering="geometricPrecision" transform="matrix(1,0,0,1,-141,168)" stroke="maroon">
      <rect x="1069.1382" width="180" height="73" y="86.5" clip-path="url(#clipPath3)" stroke="none"/>
    </g>
    <g text-rendering="geometricPrecision" stroke-miterlimit="1.45" shape-rendering="geometricPrecision" transform="matrix(1,0,0,1,-141,168)" stroke-linecap="butt">
      <rect fill="none" x="1069.1382" width="180" height="73" y="86.5" clip-path="url(#clipPath3)"/>
      <text x="1141.3696" y="127.1543" clip-path="url(#clipPath3)" fill="rgb(255,204,153)" font-family="sans-serif" stroke="none" xml:space="preserve">Spells</text>
    </g>
    <g fill="maroon" text-rendering="geometricPrecision" shape-rendering="geometricPrecision" transform="matrix(1,0,0,1,-141,168)" stroke="maroon">
      <rect x="1469.1382" width="180" height="73" y="86.5" clip-path="url(#clipPath3)" stroke="none"/>
    </g>
    <g text-rendering="geometricPrecision" stroke-miterlimit="1.45" shape-rendering="geometricPrecision" transform="matrix(1,0,0,1,-141,168)" stroke-linecap="butt">
      <rect fill="none" x="1469.1382" width="180" height="73" y="86.5" clip-path="url(#clipPath3)"/>
      <text x="1542.354" y="127.1543" clip-path="url(#clipPath3)" fill="rgb(255,204,153)" font-family="sans-serif" stroke="none" xml:space="preserve">Items</text>
    </g>
    <g fill="red" text-rendering="geometricPrecision" shape-rendering="geometricPrecision" transform="matrix(1,0,0,1,-141,168)" stroke="red">
      <rect x="1759.1382" width="180" height="73" y="-31.5" clip-path="url(#clipPath3)" stroke="none"/>
    </g>
    <g text-rendering="geometricPrecision" stroke-miterlimit="1.45" shape-rendering="geometricPrecision" transform="matrix(1,0,0,1,-141,168)" stroke-linecap="butt">
      <rect fill="none" x="1759.1382" width="180" height="73" y="-31.5" clip-path="url(#clipPath3)"/>
      <text x="1795.4517" xml:space="preserve" y="9.1543" clip-path="url(#clipPath3)" font-family="sans-serif" stroke="none">Embedded Assets</text>
    </g>
    <g fill="rgb(153,204,0)" text-rendering="geometricPrecision" shape-rendering="geometricPrecision" transform="matrix(1,0,0,1,-141,168)" stroke="rgb(153,204,0)">
      <rect x="639.1382" width="180" height="73" y="86.5" clip-path="url(#clipPath3)" stroke="none"/>
    </g>
    <g text-rendering="geometricPrecision" stroke-miterlimit="1.45" shape-rendering="geometricPrecision" transform="matrix(1,0,0,1,-141,168)" stroke-linecap="butt">
      <rect fill="none" x="639.1382" width="180" height="73" y="86.5" clip-path="url(#clipPath3)"/>
      <text x="686.1832" xml:space="preserve" y="127.1543" clip-path="url(#clipPath3)" font-family="sans-serif" stroke="none">Asset Selector</text>
    </g>
    <g fill="maroon" text-rendering="geometricPrecision" shape-rendering="geometricPrecision" transform="matrix(1,0,0,1,-141,168)" stroke="maroon">
      <rect x="839.1382" width="180" height="73" y="194.5" clip-path="url(#clipPath3)" stroke="none"/>
    </g>
    <g text-rendering="geometricPrecision" stroke-miterlimit="1.45" shape-rendering="geometricPrecision" transform="matrix(1,0,0,1,-141,168)" stroke-linecap="butt">
      <rect fill="none" x="839.1382" width="180" height="73" y="194.5" clip-path="url(#clipPath3)"/>
      <text x="898.3062" y="235.1543" clip-path="url(#clipPath3)" fill="rgb(255,204,153)" font-family="sans-serif" stroke="none" xml:space="preserve">Packaging</text>
    </g>
    <g fill="maroon" text-rendering="geometricPrecision" shape-rendering="geometricPrecision" transform="matrix(1,0,0,1,-141,168)" stroke="maroon">
      <rect x="1669.1382" width="180" height="73" y="86.5" clip-path="url(#clipPath3)" stroke="none"/>
    </g>
    <g text-rendering="geometricPrecision" stroke-miterlimit="1.45" shape-rendering="geometricPrecision" transform="matrix(1,0,0,1,-141,168)" stroke-linecap="butt">
      <rect fill="none" x="1669.1382" width="180" height="73" y="86.5" clip-path="url(#clipPath3)"/>
      <text x="1727.8901" y="127.1543" clip-path="url(#clipPath3)" fill="rgb(255,204,153)" font-family="sans-serif" stroke="none" xml:space="preserve">Save/Load</text>
    </g>
    <g fill="red" text-rendering="geometricPrecision" shape-rendering="geometricPrecision" transform="matrix(1,0,0,1,-141,168)" stroke="red">
      <rect x="1269.1382" width="180" height="73" y="86.5" clip-path="url(#clipPath3)" stroke="none"/>
    </g>
    <g text-rendering="geometricPrecision" stroke-miterlimit="1.45" shape-rendering="geometricPrecision" transform="matrix(1,0,0,1,-141,168)" stroke-linecap="butt">
      <rect fill="none" x="1269.1382" width="180" height="73" y="86.5" clip-path="url(#clipPath3)"/>
      <text x="1309.2983" xml:space="preserve" y="127.1543" clip-path="url(#clipPath3)" font-family="sans-serif" stroke="none">Custom Controls</text>
    </g>
    <g fill="rgb(153,204,0)" text-rendering="geometricPrecision" shape-rendering="geometricPrecision" transform="matrix(1,0,0,1,-141,168)" stroke="rgb(153,204,0)">
      <rect x="734.1382" width="180" height="73" y="-31.5" clip-path="url(#clipPath3)" stroke="none"/>
    </g>
    <g text-rendering="geometricPrecision" stroke-miterlimit="1.45" shape-rendering="geometricPrecision" transform="matrix(1,0,0,1,-141,168)" stroke-linecap="butt">
      <rect fill="none" x="734.1382" width="180" height="73" y="-31.5" clip-path="url(#clipPath3)"/>
      <text x="808.4703" xml:space="preserve" y="9.1543" clip-path="url(#clipPath3)" font-family="sans-serif" stroke="none">Icons</text>
    </g>
    <g fill="rgb(255,102,0)" text-rendering="geometricPrecision" shape-rendering="geometricPrecision" transform="matrix(1,0,0,1,-141,168)" stroke="rgb(255,102,0)">
      <rect x="534.1382" width="180" height="73" y="-31.5" clip-path="url(#clipPath3)" stroke="none"/>
    </g>
    <g text-rendering="geometricPrecision" stroke-miterlimit="1.45" shape-rendering="geometricPrecision" transform="matrix(1,0,0,1,-141,168)" stroke-linecap="butt">
      <rect fill="none" x="534.1382" width="180" height="73" y="-31.5" clip-path="url(#clipPath3)"/>
      <text x="577.1285" xml:space="preserve" y="9.1543" clip-path="url(#clipPath3)" font-family="sans-serif" stroke="none">Windows Builds</text>
    </g>
    <g fill="rgb(153,204,0)" text-rendering="geometricPrecision" shape-rendering="geometricPrecision" transform="matrix(1,0,0,1,-141,168)" stroke="rgb(153,204,0)">
      <rect x="334.1382" width="180" height="73" y="-31.5" clip-path="url(#clipPath3)" stroke="none"/>
    </g>
    <g text-rendering="geometricPrecision" stroke-miterlimit="1.45" shape-rendering="geometricPrecision" transform="matrix(1,0,0,1,-141,168)" stroke-linecap="butt">
      <rect fill="none" x="334.1382" width="180" height="73" y="-31.5" clip-path="url(#clipPath3)"/>
      <text x="389.4273" xml:space="preserve" y="9.1543" clip-path="url(#clipPath3)" font-family="sans-serif" stroke="none">Repo Setup</text>
      <path fill="none" d="M1024.1382 -76.5 L1024.1382 -39.5439" clip-path="url(#clipPath3)"/>
      <path d="M1024.1382 -31.5439 L1029.1382 -43.5439 L1024.1382 -40.5439 L1019.1382 -43.5439 Z" clip-path="url(#clipPath3)" stroke="none"/>
      <path fill="none" d="M1034.9382 -76.5 L1034.9382 -46.5 L1224.1382 -46.5 L1224.1382 -39.5293" clip-path="url(#clipPath3)"/>
      <path d="M1224.1382 -31.5293 L1229.1382 -43.5293 L1224.1382 -40.5293 L1219.1382 -43.5293 Z" clip-path="url(#clipPath3)" stroke="none"/>
      <path fill="none" d="M1959.1382 159.5 L1959.1382 186.4658" clip-path="url(#clipPath3)"/>
      <path d="M1959.1382 194.4658 L1964.1382 182.4658 L1959.1382 185.4658 L1954.1382 182.4658 Z" clip-path="url(#clipPath3)" stroke="none"/>
      <path fill="none" d="M1045.7383 -76.5 L1045.7383 -56.5 L1424.1382 -56.5 L1424.1382 -39.5488" clip-path="url(#clipPath3)"/>
      <path d="M1424.1382 -31.5488 L1429.1382 -43.5488 L1424.1382 -40.5488 L1419.1382 -43.5488 Z" clip-path="url(#clipPath3)" stroke="none"/>
      <path fill="none" d="M1356.6382 41.5 L1356.6382 61.5 L1159.1382 61.5 L1159.1382 78.4512" clip-path="url(#clipPath3)"/>
      <path d="M1159.1382 86.4512 L1164.1382 74.4512 L1159.1382 77.4512 L1154.1382 74.4512 Z" clip-path="url(#clipPath3)" stroke="none"/>
      <path fill="none" d="M1446.6382 41.5 L1446.6382 61.5 L1559.1382 61.5 L1559.1382 78.4512" clip-path="url(#clipPath3)"/>
      <path d="M1559.1382 86.4512 L1564.1382 74.4512 L1559.1382 77.4512 L1554.1382 74.4512 Z" clip-path="url(#clipPath3)" stroke="none"/>
      <path fill="none" d="M1559.1382 159.5 L1559.1382 186.4658" clip-path="url(#clipPath3)"/>
      <path d="M1559.1382 194.4658 L1564.1382 182.4658 L1559.1382 185.4658 L1554.1382 182.4658 Z" clip-path="url(#clipPath3)" stroke="none"/>
      <path fill="none" d="M1056.5382 -76.5 L1056.5382 -66.5 L1849.1382 -66.5 L1849.1382 -39.5342" clip-path="url(#clipPath3)"/>
      <path d="M1849.1382 -31.5342 L1854.1382 -43.5342 L1849.1382 -40.5342 L1844.1382 -43.5342 Z" clip-path="url(#clipPath3)" stroke="none"/>
      <path fill="none" d="M1894.1382 41.5 L1894.1382 51.5 L1959.1382 51.5 L1959.1382 78.4658" clip-path="url(#clipPath3)"/>
      <path d="M1959.1382 86.4658 L1964.1382 74.4658 L1959.1382 77.4658 L1954.1382 74.4658 Z" clip-path="url(#clipPath3)" stroke="none"/>
      <path fill="none" d="M929.1382 159.5 L929.1382 186.4658" clip-path="url(#clipPath3)"/>
      <path d="M929.1382 194.4658 L934.1382 182.4658 L929.1382 185.4658 L924.1382 182.4658 Z" clip-path="url(#clipPath3)" stroke="none"/>
      <path fill="none" d="M1024.1382 41.5 L1024.1382 51.5 L1034.1382 51.5 L1034.1382 169.5 L965.1382 169.5 L965.1382 186.4512" clip-path="url(#clipPath3)"/>
      <path d="M965.1382 194.4512 L970.1382 182.4512 L965.1382 185.4512 L960.1382 182.4512 Z" clip-path="url(#clipPath3)" stroke="none"/>
      <path fill="none" d="M1224.1382 41.5 L1224.1382 51.5 L1054.1382 51.5 L1054.1382 179.5 L1001.1382 179.5 L1001.1382 186.4707" clip-path="url(#clipPath3)"/>
      <path d="M1001.1382 194.4707 L1006.1382 182.4707 L1001.1382 185.4707 L996.1382 182.4707 Z" clip-path="url(#clipPath3)" stroke="none"/>
      <path fill="none" d="M729.1382 159.5 L729.1382 169.5 L893.1382 169.5 L893.1382 186.4512" clip-path="url(#clipPath3)"/>
      <path d="M893.1382 194.4512 L898.1382 182.4512 L893.1382 185.4512 L888.1382 182.4512 Z" clip-path="url(#clipPath3)" stroke="none"/>
      <path fill="none" d="M1804.1382 41.5 L1804.1382 78.4561" clip-path="url(#clipPath3)"/>
      <path d="M1804.1382 86.4561 L1809.1382 74.4561 L1804.1382 77.4561 L1799.1382 74.4561 Z" clip-path="url(#clipPath3)" stroke="none"/>
      <path fill="none" d="M1491.6382 41.5 L1491.6382 51.5 L1714.1382 51.5 L1714.1382 78.4658" clip-path="url(#clipPath3)"/>
      <path d="M1714.1382 86.4658 L1719.1382 74.4658 L1714.1382 77.4658 L1709.1382 74.4658 Z" clip-path="url(#clipPath3)" stroke="none"/>
      <path fill="none" d="M1401.6382 41.5 L1401.6382 71.5 L1359.1382 71.5 L1359.1382 78.4707" clip-path="url(#clipPath3)"/>
      <path d="M1359.1382 86.4707 L1364.1382 74.4707 L1359.1382 77.4707 L1354.1382 74.4707 Z" clip-path="url(#clipPath3)" stroke="none"/>
      <path fill="none" d="M1013.3383 -76.5 L1013.3383 -46.5 L824.1382 -46.5 L824.1382 -39.5293" clip-path="url(#clipPath3)"/>
      <path d="M824.1382 -31.5293 L829.1382 -43.5293 L824.1382 -40.5293 L819.1382 -43.5293 Z" clip-path="url(#clipPath3)" stroke="none"/>
      <path fill="none" d="M869.1382 41.5 L869.1382 51.5 L929.1382 51.5 L929.1382 78.4658" clip-path="url(#clipPath3)"/>
      <path d="M929.1382 86.4658 L934.1382 74.4658 L929.1382 77.4658 L924.1382 74.4658 Z" clip-path="url(#clipPath3)" stroke="none"/>
      <path fill="none" d="M779.1382 41.5 L779.1382 51.5 L729.1382 51.5 L729.1382 78.4658" clip-path="url(#clipPath3)"/>
      <path d="M729.1382 86.4658 L734.1382 74.4658 L729.1382 77.4658 L724.1382 74.4658 Z" clip-path="url(#clipPath3)" stroke="none"/>
      <path fill="none" d="M1002.5383 -76.5 L1002.5383 -56.5 L624.1382 -56.5 L624.1382 -39.5488" clip-path="url(#clipPath3)"/>
      <path d="M624.1382 -31.5488 L629.1382 -43.5488 L624.1382 -40.5488 L619.1382 -43.5488 Z" clip-path="url(#clipPath3)" stroke="none"/>
      <path fill="none" d="M624.1382 41.5 L624.1382 179.5 L857.1382 179.5 L857.1382 186.4707" clip-path="url(#clipPath3)"/>
      <path d="M857.1382 194.4707 L862.1382 182.4707 L857.1382 185.4707 L852.1382 182.4707 Z" clip-path="url(#clipPath3)" stroke="none"/>
      <path fill="none" d="M991.7382 -76.5 L991.7382 -66.5 L424.1382 -66.5 L424.1382 -39.5342" clip-path="url(#clipPath3)"/>
      <path d="M424.1382 -31.5342 L429.1382 -43.5342 L424.1382 -40.5342 L419.1382 -43.5342 Z" clip-path="url(#clipPath3)" stroke="none"/>
    </g>
  </g>
</svg>
