<?xml version="1.0" encoding="UTF-8"?><svg xmlns="http://www.w3.org/2000/svg" xmlns:xlink="http://www.w3.org/1999/xlink" fill-opacity="1" color-rendering="auto" color-interpolation="auto" text-rendering="auto" stroke="black" stroke-linecap="square" width="1044" stroke-miterlimit="10" shape-rendering="auto" stroke-opacity="1" fill="black" stroke-dasharray="none" font-weight="normal" stroke-width="1" height="1141" font-family="'Dialog'" font-style="normal" stroke-linejoin="miter" font-size="12px" stroke-dashoffset="0" image-rendering="auto">
  <!--Generated by ySVG 2.5-->
  <defs id="genericDefs"/>
  <g>
    <defs id="defs1">
      <clipPath clipPathUnits="userSpaceOnUse" id="clipPath1">
        <path d="M0 0 L1044 0 L1044 1141 L0 1141 L0 0 Z"/>
      </clipPath>
      <clipPath clipPathUnits="userSpaceOnUse" id="clipPath2">
        <path d="M137 -86 L1181 -86 L1181 1055 L137 1055 L137 -86 Z"/>
      </clipPath>
      <clipPath clipPathUnits="userSpaceOnUse" id="clipPath3">
        <path d="M141 -82 L1185 -82 L1185 1059 L141 1059 L141 -82 Z"/>
      </clipPath>
    </defs>
    <g fill="rgb(210,210,210)" text-rendering="geometricPrecision" shape-rendering="geometricPrecision" transform="matrix(1,0,0,1,-141,82) translate(4,4)" stroke="rgb(210,210,210)">
      <rect x="156.8187" width="147.3196" height="216" y="-52.6543" clip-path="url(#clipPath2)" stroke="none"/>
    </g>
    <g fill="rgb(242,240,216)" text-rendering="geometricPrecision" shape-rendering="geometricPrecision" transform="matrix(1,0,0,1,-141,82)" stroke="rgb(242,240,216)">
      <rect x="156.8187" width="147.3196" height="216" y="-52.6543" clip-path="url(#clipPath3)" stroke="none"/>
      <rect x="156.8187" y="-52.6543" clip-path="url(#clipPath3)" fill="rgb(183,182,158)" width="147.3196" height="21.4609" stroke="none"/>
    </g>
    <g font-size="15px" stroke-linecap="butt" transform="matrix(1,0,0,1,-141,82)" text-rendering="geometricPrecision" font-family="sans-serif" shape-rendering="geometricPrecision" stroke-miterlimit="1.45">
      <text x="222.4581" xml:space="preserve" y="-36.7309" clip-path="url(#clipPath3)" stroke="none">Shape Key</text>
      <rect fill="none" x="156.8187" width="147.3196" height="216" y="-52.6543" clip-path="url(#clipPath3)"/>
    </g>
    <g fill="rgb(255,204,0)" text-rendering="geometricPrecision" shape-rendering="geometricPrecision" transform="matrix(1,0,0,1,-141,82)" stroke="rgb(255,204,0)">
      <rect x="171.8187" width="117.3196" height="35.3086" y="-12.6543" clip-path="url(#clipPath3)" stroke="none"/>
    </g>
    <g text-rendering="geometricPrecision" stroke-miterlimit="1.45" shape-rendering="geometricPrecision" transform="matrix(1,0,0,1,-141,82)" stroke-linecap="butt">
      <rect fill="none" x="171.8187" width="117.3196" height="35.3086" y="-12.6543" clip-path="url(#clipPath3)"/>
      <text x="190.998" xml:space="preserve" y="9.1543" clip-path="url(#clipPath3)" font-family="sans-serif" stroke="none">Halberd Task</text>
    </g>
    <g fill="rgb(255,204,0)" text-rendering="geometricPrecision" shape-rendering="geometricPrecision" transform="matrix(1,0,0,1,-141,82)" stroke="rgb(255,204,0)">
      <rect x="171.8187" y="35.6668" clip-path="url(#clipPath3)" width="117.3196" rx="4" ry="4" height="35.3086" stroke="none"/>
    </g>
    <g stroke-linecap="butt" transform="matrix(1,0,0,1,-141,82)" fill="gray" text-rendering="geometricPrecision" shape-rendering="geometricPrecision" stroke="gray" stroke-miterlimit="1.45">
      <rect x="171.8187" y="35.6668" clip-path="url(#clipPath3)" fill="none" width="117.3196" rx="4" ry="4" height="35.3086"/>
      <text x="189.6298" y="57.4754" clip-path="url(#clipPath3)" fill="black" font-family="sans-serif" stroke="none" xml:space="preserve">External Task</text>
    </g>
    <g fill="rgb(255,204,0)" text-rendering="geometricPrecision" shape-rendering="geometricPrecision" transform="matrix(1,0,0,1,-141,82)" stroke="rgb(255,204,0)">
      <circle r="29.864" clip-path="url(#clipPath3)" cx="230.4785" cy="113.852" stroke="none"/>
    </g>
    <g text-rendering="geometricPrecision" stroke-miterlimit="1.45" shape-rendering="geometricPrecision" transform="matrix(1,0,0,1,-141,82)" stroke-linecap="butt">
      <circle fill="none" r="29.864" clip-path="url(#clipPath3)" cx="230.4785" cy="113.852"/>
      <text x="206.7656" xml:space="preserve" y="118.0063" clip-path="url(#clipPath3)" font-family="sans-serif" stroke="none">Release</text>
    </g>
    <g fill="rgb(210,210,210)" text-rendering="geometricPrecision" shape-rendering="geometricPrecision" transform="matrix(1,0,0,1,-141,82) translate(4,4)" stroke="rgb(210,210,210)">
      <rect x="156.8187" width="147.3196" height="279.9426" y="188.2305" clip-path="url(#clipPath2)" stroke="none"/>
    </g>
    <g fill="rgb(242,240,216)" text-rendering="geometricPrecision" shape-rendering="geometricPrecision" transform="matrix(1,0,0,1,-141,82)" stroke="rgb(242,240,216)">
      <rect x="156.8187" width="147.3196" height="279.9426" y="188.2305" clip-path="url(#clipPath3)" stroke="none"/>
      <rect x="156.8187" y="188.2305" clip-path="url(#clipPath3)" fill="rgb(183,182,158)" width="147.3196" height="21.4609" stroke="none"/>
    </g>
    <g font-size="15px" stroke-linecap="butt" transform="matrix(1,0,0,1,-141,82)" text-rendering="geometricPrecision" font-family="sans-serif" shape-rendering="geometricPrecision" stroke-miterlimit="1.45">
      <text x="230.2657" xml:space="preserve" y="204.1538" clip-path="url(#clipPath3)" stroke="none">Color Key</text>
      <rect fill="none" x="156.8187" width="147.3196" height="279.9426" y="188.2305" clip-path="url(#clipPath3)"/>
    </g>
    <g fill="maroon" text-rendering="geometricPrecision" shape-rendering="geometricPrecision" transform="matrix(1,0,0,1,-141,82)" stroke="maroon">
      <rect x="171.8187" width="117.3196" height="35.3086" y="224.6914" clip-path="url(#clipPath3)" stroke="none"/>
    </g>
    <g text-rendering="geometricPrecision" stroke-miterlimit="1.45" shape-rendering="geometricPrecision" transform="matrix(1,0,0,1,-141,82)" stroke-linecap="butt">
      <rect fill="none" x="171.8187" width="117.3196" height="35.3086" y="224.6914" clip-path="url(#clipPath3)"/>
      <text x="193.4589" y="246.5" clip-path="url(#clipPath3)" fill="rgb(255,204,153)" font-family="sans-serif" stroke="none" xml:space="preserve">Future Work</text>
    </g>
    <g fill="red" text-rendering="geometricPrecision" shape-rendering="geometricPrecision" transform="matrix(1,0,0,1,-141,82)" stroke="red">
      <rect x="171.8187" width="117.3196" height="35.3086" y="273.0863" clip-path="url(#clipPath3)" stroke="none"/>
    </g>
    <g text-rendering="geometricPrecision" stroke-miterlimit="1.45" shape-rendering="geometricPrecision" transform="matrix(1,0,0,1,-141,82)" stroke-linecap="butt">
      <rect fill="none" x="171.8187" width="117.3196" height="35.3086" y="273.0863" clip-path="url(#clipPath3)"/>
      <text x="182.7334" xml:space="preserve" y="294.8949" clip-path="url(#clipPath3)" font-family="sans-serif" stroke="none">Upcoming Work</text>
    </g>
    <g fill="rgb(255,102,0)" text-rendering="geometricPrecision" shape-rendering="geometricPrecision" transform="matrix(1,0,0,1,-141,82)" stroke="rgb(255,102,0)">
      <rect x="171.8187" width="117.3196" height="35.3086" y="321.3457" clip-path="url(#clipPath3)" stroke="none"/>
    </g>
    <g text-rendering="geometricPrecision" stroke-miterlimit="1.45" shape-rendering="geometricPrecision" transform="matrix(1,0,0,1,-141,82)" stroke-linecap="butt">
      <rect fill="none" x="171.8187" width="117.3196" height="35.3086" y="321.3457" clip-path="url(#clipPath3)"/>
      <text x="198.9433" xml:space="preserve" y="343.1543" clip-path="url(#clipPath3)" font-family="sans-serif" stroke="none">Next Work</text>
    </g>
    <g fill="rgb(255,204,0)" text-rendering="geometricPrecision" shape-rendering="geometricPrecision" transform="matrix(1,0,0,1,-141,82)" stroke="rgb(255,204,0)">
      <rect x="171.8187" width="117.3196" height="35.3086" y="369.6051" clip-path="url(#clipPath3)" stroke="none"/>
    </g>
    <g text-rendering="geometricPrecision" stroke-miterlimit="1.45" shape-rendering="geometricPrecision" transform="matrix(1,0,0,1,-141,82)" stroke-linecap="butt">
      <rect fill="none" x="171.8187" width="117.3196" height="35.3086" y="369.6051" clip-path="url(#clipPath3)"/>
      <text x="197.0244" xml:space="preserve" y="391.4137" clip-path="url(#clipPath3)" font-family="sans-serif" stroke="none">In Progress</text>
    </g>
    <g fill="rgb(153,204,0)" text-rendering="geometricPrecision" shape-rendering="geometricPrecision" transform="matrix(1,0,0,1,-141,82)" stroke="rgb(153,204,0)">
      <rect x="171.8187" width="117.3196" height="35.3086" y="417.8645" clip-path="url(#clipPath3)" stroke="none"/>
    </g>
    <g text-rendering="geometricPrecision" stroke-miterlimit="1.45" shape-rendering="geometricPrecision" transform="matrix(1,0,0,1,-141,82)" stroke-linecap="butt">
      <rect fill="none" x="171.8187" width="117.3196" height="35.3086" y="417.8645" clip-path="url(#clipPath3)"/>
      <text x="214.6933" xml:space="preserve" y="439.6731" clip-path="url(#clipPath3)" font-family="sans-serif" stroke="none">Done</text>
    </g>
    <g fill="rgb(153,204,0)" text-rendering="geometricPrecision" shape-rendering="geometricPrecision" transform="matrix(1,0,0,1,-141,82)" stroke="rgb(153,204,0)">
      <rect x="854.1382" width="180" height="73" y="36.2881" clip-path="url(#clipPath3)" stroke="none"/>
    </g>
    <g text-rendering="geometricPrecision" stroke-miterlimit="1.45" shape-rendering="geometricPrecision" transform="matrix(1,0,0,1,-141,82)" stroke-linecap="butt">
      <rect fill="none" x="854.1382" width="180" height="73" y="36.2881" clip-path="url(#clipPath3)"/>
      <text x="884.4547" xml:space="preserve" y="76.9424" clip-path="url(#clipPath3)" font-family="sans-serif" stroke="none">Main Editor Window</text>
    </g>
    <g fill="rgb(153,204,0)" text-rendering="geometricPrecision" shape-rendering="geometricPrecision" transform="matrix(1,0,0,1,-141,82)" stroke="rgb(153,204,0)">
      <rect x="654.1382" width="180" height="73" y="36.2881" clip-path="url(#clipPath3)" stroke="none"/>
    </g>
    <g text-rendering="geometricPrecision" stroke-miterlimit="1.45" shape-rendering="geometricPrecision" transform="matrix(1,0,0,1,-141,82)" stroke-linecap="butt">
      <rect fill="none" x="654.1382" width="180" height="73" y="36.2881" clip-path="url(#clipPath3)"/>
      <text x="684.3492" xml:space="preserve" y="76.9424" clip-path="url(#clipPath3)" font-family="sans-serif" stroke="none">Main Game Window</text>
    </g>
    <g fill="rgb(153,204,0)" text-rendering="geometricPrecision" shape-rendering="geometricPrecision" transform="matrix(1,0,0,1,-141,82)" stroke="rgb(153,204,0)">
      <rect x="699.1382" width="180" height="73" y="139.2881" clip-path="url(#clipPath3)" stroke="none"/>
    </g>
    <g text-rendering="geometricPrecision" stroke-miterlimit="1.45" shape-rendering="geometricPrecision" transform="matrix(1,0,0,1,-141,82)" stroke-linecap="butt">
      <rect fill="none" x="699.1382" width="180" height="73" y="139.2881" clip-path="url(#clipPath3)"/>
      <text x="712.2427" xml:space="preserve" y="179.9424" clip-path="url(#clipPath3)" font-family="sans-serif" stroke="none">'Playable' Editor Viewport</text>
    </g>
    <g fill="rgb(153,204,0)" text-rendering="geometricPrecision" shape-rendering="geometricPrecision" transform="matrix(1,0,0,1,-141,82)" stroke="rgb(153,204,0)">
      <rect x="789.1382" width="180" height="73" y="242.2881" clip-path="url(#clipPath3)" stroke="none"/>
    </g>
    <g text-rendering="geometricPrecision" stroke-miterlimit="1.45" shape-rendering="geometricPrecision" transform="matrix(1,0,0,1,-141,82)" stroke-linecap="butt">
      <rect fill="none" x="789.1382" width="180" height="73" y="242.2881" clip-path="url(#clipPath3)"/>
      <text x="835.4537" xml:space="preserve" y="282.9424" clip-path="url(#clipPath3)" font-family="sans-serif" stroke="none">Tilemap Editor</text>
    </g>
    <g fill="rgb(255,102,0)" text-rendering="geometricPrecision" shape-rendering="geometricPrecision" transform="matrix(1,0,0,1,-141,82)" stroke="rgb(255,102,0)">
      <rect x="379.1382" width="180" height="73" y="242.2881" clip-path="url(#clipPath3)" stroke="none"/>
    </g>
    <g text-rendering="geometricPrecision" stroke-miterlimit="1.45" shape-rendering="geometricPrecision" transform="matrix(1,0,0,1,-141,82)" stroke-linecap="butt">
      <rect fill="none" x="379.1382" width="180" height="73" y="242.2881" clip-path="url(#clipPath3)"/>
      <text x="425.9312" xml:space="preserve" y="282.9424" clip-path="url(#clipPath3)" font-family="sans-serif" stroke="none">Combat Editor</text>
    </g>
    <g fill="rgb(153,204,0)" text-rendering="geometricPrecision" shape-rendering="geometricPrecision" transform="matrix(1,0,0,1,-141,82)" stroke="rgb(153,204,0)">
      <rect x="899.1382" y="139.2881" clip-path="url(#clipPath3)" width="180" rx="4" ry="4" height="73" stroke="none"/>
    </g>
    <g stroke-linecap="butt" transform="matrix(1,0,0,1,-141,82)" fill="gray" text-rendering="geometricPrecision" shape-rendering="geometricPrecision" stroke="gray" stroke-miterlimit="1.45">
      <rect x="899.1382" y="139.2881" clip-path="url(#clipPath3)" fill="none" width="180" rx="4" ry="4" height="73"/>
      <text x="926.8824" y="179.9424" clip-path="url(#clipPath3)" fill="black" font-family="sans-serif" stroke="none" xml:space="preserve">DFGame Tile Module</text>
    </g>
    <g fill="rgb(153,204,0)" text-rendering="geometricPrecision" shape-rendering="geometricPrecision" transform="matrix(1,0,0,1,-141,82)" stroke="rgb(153,204,0)">
      <rect x="989.1382" width="180" height="73" y="242.2881" clip-path="url(#clipPath3)" stroke="none"/>
    </g>
    <g text-rendering="geometricPrecision" stroke-miterlimit="1.45" shape-rendering="geometricPrecision" transform="matrix(1,0,0,1,-141,82)" stroke-linecap="butt">
      <rect fill="none" x="989.1382" width="180" height="73" y="242.2881" clip-path="url(#clipPath3)"/>
      <text x="1039.6138" xml:space="preserve" y="282.9424" clip-path="url(#clipPath3)" font-family="sans-serif" stroke="none">Tileset Editor</text>
    </g>
    <g fill="rgb(153,204,0)" text-rendering="geometricPrecision" shape-rendering="geometricPrecision" transform="matrix(1,0,0,1,-141,82)" stroke="rgb(153,204,0)">
      <rect x="699.1382" width="180" height="73" y="-66.7119" clip-path="url(#clipPath3)" stroke="none"/>
    </g>
    <g text-rendering="geometricPrecision" stroke-miterlimit="1.45" shape-rendering="geometricPrecision" transform="matrix(1,0,0,1,-141,82)" stroke-linecap="butt">
      <rect fill="none" x="699.1382" width="180" height="73" y="-66.7119" clip-path="url(#clipPath3)"/>
      <text x="749.7955" xml:space="preserve" y="-26.0576" clip-path="url(#clipPath3)" font-family="sans-serif" stroke="none">Build System</text>
    </g>
    <g fill="rgb(255,204,0)" text-rendering="geometricPrecision" shape-rendering="geometricPrecision" transform="matrix(1,0,0,1,-141,82)" stroke="rgb(255,204,0)">
      <rect x="884.1382" width="180" height="73" y="345.2881" clip-path="url(#clipPath3)" stroke="none"/>
    </g>
    <g text-rendering="geometricPrecision" stroke-miterlimit="1.45" shape-rendering="geometricPrecision" transform="matrix(1,0,0,1,-141,82)" stroke-linecap="butt">
      <rect fill="none" x="884.1382" width="180" height="73" y="345.2881" clip-path="url(#clipPath3)"/>
      <text x="942.357" xml:space="preserve" y="385.9424" clip-path="url(#clipPath3)" font-family="sans-serif" stroke="none">Movement</text>
    </g>
    <g fill="rgb(255,102,0)" text-rendering="geometricPrecision" shape-rendering="geometricPrecision" transform="matrix(1,0,0,1,-141,82)" stroke="rgb(255,102,0)">
      <rect x="484.1382" width="180" height="73" y="345.2881" clip-path="url(#clipPath3)" stroke="none"/>
    </g>
    <g text-rendering="geometricPrecision" stroke-miterlimit="1.45" shape-rendering="geometricPrecision" transform="matrix(1,0,0,1,-141,82)" stroke-linecap="butt">
      <rect fill="none" x="484.1382" width="180" height="73" y="345.2881" clip-path="url(#clipPath3)"/>
      <text x="509.9078" xml:space="preserve" y="385.9424" clip-path="url(#clipPath3)" font-family="sans-serif" stroke="none">Encounter Placement</text>
    </g>
    <g fill="red" text-rendering="geometricPrecision" shape-rendering="geometricPrecision" transform="matrix(1,0,0,1,-141,82)" stroke="red">
      <rect x="484.1382" width="180" height="73" y="448.2881" clip-path="url(#clipPath3)" stroke="none"/>
    </g>
    <g text-rendering="geometricPrecision" stroke-miterlimit="1.45" shape-rendering="geometricPrecision" transform="matrix(1,0,0,1,-141,82)" stroke-linecap="butt">
      <rect fill="none" x="484.1382" width="180" height="73" y="448.2881" clip-path="url(#clipPath3)"/>
      <text x="486.189" xml:space="preserve" y="488.9424" clip-path="url(#clipPath3)" font-family="sans-serif" stroke="none">Playable Random Encounters</text>
    </g>
    <g fill="rgb(153,204,0)" text-rendering="geometricPrecision" shape-rendering="geometricPrecision" transform="matrix(1,0,0,1,-141,82)" stroke="rgb(153,204,0)">
      <rect x="379.1382" width="180" height="73" y="139.2881" clip-path="url(#clipPath3)" stroke="none"/>
    </g>
    <g text-rendering="geometricPrecision" stroke-miterlimit="1.45" shape-rendering="geometricPrecision" transform="matrix(1,0,0,1,-141,82)" stroke-linecap="butt">
      <rect fill="none" x="379.1382" width="180" height="73" y="139.2881" clip-path="url(#clipPath3)"/>
      <text x="393.5435" xml:space="preserve" y="179.9424" clip-path="url(#clipPath3)" font-family="sans-serif" stroke="none">Monster/Character Editor</text>
    </g>
    <g fill="rgb(153,204,0)" text-rendering="geometricPrecision" shape-rendering="geometricPrecision" transform="matrix(1,0,0,1,-141,82)" stroke="rgb(153,204,0)">
      <rect x="379.1382" width="180" height="73" y="36.2881" clip-path="url(#clipPath3)" stroke="none"/>
    </g>
    <g text-rendering="geometricPrecision" stroke-miterlimit="1.45" shape-rendering="geometricPrecision" transform="matrix(1,0,0,1,-141,82)" stroke-linecap="butt">
      <rect fill="none" x="379.1382" width="180" height="73" y="36.2881" clip-path="url(#clipPath3)"/>
      <text x="453.8218" xml:space="preserve" y="76.9424" clip-path="url(#clipPath3)" font-family="sans-serif" stroke="none">Stats</text>
    </g>
    <g fill="rgb(153,204,0)" text-rendering="geometricPrecision" shape-rendering="geometricPrecision" transform="matrix(1,0,0,1,-141,82)" stroke="rgb(153,204,0)">
      <rect x="684.1382" y="551.2881" clip-path="url(#clipPath3)" width="180" rx="4" ry="4" height="73" stroke="none"/>
    </g>
    <g stroke-linecap="butt" transform="matrix(1,0,0,1,-141,82)" fill="gray" text-rendering="geometricPrecision" shape-rendering="geometricPrecision" stroke="gray" stroke-miterlimit="1.45">
      <rect x="684.1382" y="551.2881" clip-path="url(#clipPath3)" fill="none" width="180" rx="4" ry="4" height="73"/>
      <text x="697.7964" y="591.9424" clip-path="url(#clipPath3)" fill="black" font-family="sans-serif" stroke="none" xml:space="preserve">Initial Asset Management</text>
    </g>
    <g fill="maroon" text-rendering="geometricPrecision" shape-rendering="geometricPrecision" transform="matrix(1,0,0,1,-141,82)" stroke="maroon">
      <circle r="37.8" clip-path="url(#clipPath3)" cx="964.6882" cy="697.0881" stroke="none"/>
    </g>
    <g text-rendering="geometricPrecision" stroke-miterlimit="1.45" shape-rendering="geometricPrecision" transform="matrix(1,0,0,1,-141,82)" stroke-linecap="butt">
      <circle fill="none" r="37.8" clip-path="url(#clipPath3)" cx="964.6882" cy="697.0881"/>
      <text x="932.1072" y="694.258" clip-path="url(#clipPath3)" fill="rgb(255,204,153)" font-family="sans-serif" stroke="none" xml:space="preserve">v0.1 (MVP)</text>
      <text x="940.9753" y="708.2267" clip-path="url(#clipPath3)" fill="rgb(255,204,153)" font-family="sans-serif" stroke="none" xml:space="preserve">Release</text>
    </g>
    <g fill="maroon" text-rendering="geometricPrecision" shape-rendering="geometricPrecision" transform="matrix(1,0,0,1,-141,82)" stroke="maroon">
      <ellipse rx="37.8" ry="36.5" clip-path="url(#clipPath3)" cx="964.6882" cy="801.3881" stroke="none"/>
    </g>
    <g text-rendering="geometricPrecision" stroke-miterlimit="1.45" shape-rendering="geometricPrecision" transform="matrix(1,0,0,1,-141,82)" stroke-linecap="butt">
      <ellipse rx="37.8" fill="none" ry="36.5" clip-path="url(#clipPath3)" cx="964.6882" cy="801.3881"/>
      <text x="938.658" y="798.558" clip-path="url(#clipPath3)" fill="rgb(255,204,153)" font-family="sans-serif" stroke="none" xml:space="preserve">Example</text>
      <text x="946.8259" y="812.5268" clip-path="url(#clipPath3)" fill="rgb(255,204,153)" font-family="sans-serif" stroke="none" xml:space="preserve">Game</text>
    </g>
    <g fill="maroon" text-rendering="geometricPrecision" shape-rendering="geometricPrecision" transform="matrix(1,0,0,1,-141,82)" stroke="maroon">
      <rect x="874.6882" width="180" height="73" y="867.8881" clip-path="url(#clipPath3)" stroke="none"/>
    </g>
    <g text-rendering="geometricPrecision" stroke-miterlimit="1.45" shape-rendering="geometricPrecision" transform="matrix(1,0,0,1,-141,82)" stroke-linecap="butt">
      <rect fill="none" x="874.6882" width="180" height="73" y="867.8881" clip-path="url(#clipPath3)"/>
      <text x="877.9021" y="908.5424" clip-path="url(#clipPath3)" fill="rgb(255,204,153)" font-family="sans-serif" stroke="none" xml:space="preserve">Full Turn-Based RPG Support</text>
    </g>
    <g fill="maroon" text-rendering="geometricPrecision" shape-rendering="geometricPrecision" transform="matrix(1,0,0,1,-141,82)" stroke="maroon">
      <ellipse rx="37.8" ry="36.5" clip-path="url(#clipPath3)" cx="964.6882" cy="1007.3881" stroke="none"/>
    </g>
    <g text-rendering="geometricPrecision" stroke-miterlimit="1.45" shape-rendering="geometricPrecision" transform="matrix(1,0,0,1,-141,82)" stroke-linecap="butt">
      <ellipse rx="37.8" fill="none" ry="36.5" clip-path="url(#clipPath3)" cx="964.6882" cy="1007.3881"/>
      <text x="925.9753" y="1011.5424" clip-path="url(#clipPath3)" fill="rgb(255,204,153)" font-family="sans-serif" stroke="none" xml:space="preserve">v1.0 Release</text>
    </g>
    <g fill="red" text-rendering="geometricPrecision" shape-rendering="geometricPrecision" transform="matrix(1,0,0,1,-141,82)" stroke="red">
      <rect x="684.1382" width="180" height="73" y="345.2881" clip-path="url(#clipPath3)" stroke="none"/>
    </g>
    <g text-rendering="geometricPrecision" stroke-miterlimit="1.45" shape-rendering="geometricPrecision" transform="matrix(1,0,0,1,-141,82)" stroke-linecap="butt">
      <rect fill="none" x="684.1382" width="180" height="73" y="345.2881" clip-path="url(#clipPath3)"/>
      <text x="749.4673" xml:space="preserve" y="385.9424" clip-path="url(#clipPath3)" font-family="sans-serif" stroke="none">Initial UI</text>
    </g>
    <g fill="rgb(153,204,0)" text-rendering="geometricPrecision" shape-rendering="geometricPrecision" transform="matrix(1,0,0,1,-141,82)" stroke="rgb(153,204,0)">
      <rect x="684.1382" width="180" height="73" y="448.2881" clip-path="url(#clipPath3)" stroke="none"/>
    </g>
    <g text-rendering="geometricPrecision" stroke-miterlimit="1.45" shape-rendering="geometricPrecision" transform="matrix(1,0,0,1,-141,82)" stroke-linecap="butt">
      <rect fill="none" x="684.1382" width="180" height="73" y="448.2881" clip-path="url(#clipPath3)"/>
      <text x="711.941" xml:space="preserve" y="488.9424" clip-path="url(#clipPath3)" font-family="sans-serif" stroke="none">Project Management</text>
    </g>
    <g fill="maroon" text-rendering="geometricPrecision" shape-rendering="geometricPrecision" transform="matrix(1,0,0,1,-141,82)" stroke="maroon">
      <rect x="884.1382" width="180" height="73" y="448.2881" clip-path="url(#clipPath3)" stroke="none"/>
    </g>
    <g text-rendering="geometricPrecision" stroke-miterlimit="1.45" shape-rendering="geometricPrecision" transform="matrix(1,0,0,1,-141,82)" stroke-linecap="butt">
      <rect fill="none" x="884.1382" width="180" height="73" y="448.2881" clip-path="url(#clipPath3)"/>
      <text x="926.5455" y="488.9424" clip-path="url(#clipPath3)" fill="rgb(255,204,153)" font-family="sans-serif" stroke="none" xml:space="preserve">Map Transitions</text>
    </g>
    <g fill="maroon" text-rendering="geometricPrecision" shape-rendering="geometricPrecision" transform="matrix(1,0,0,1,-141,82)" stroke="maroon">
      <rect x="484.1382" width="180" height="73" y="551.2881" clip-path="url(#clipPath3)" stroke="none"/>
    </g>
    <g text-rendering="geometricPrecision" stroke-miterlimit="1.45" shape-rendering="geometricPrecision" transform="matrix(1,0,0,1,-141,82)" stroke-linecap="butt">
      <rect fill="none" x="484.1382" width="180" height="73" y="551.2881" clip-path="url(#clipPath3)"/>
      <text x="526.5338" y="591.9424" clip-path="url(#clipPath3)" fill="rgb(255,204,153)" font-family="sans-serif" stroke="none" xml:space="preserve">Win/Loss States</text>
      <path fill="none" d="M899.1382 109.2881 L899.1382 119.2881 L834.1382 119.2881 L834.1382 131.249" clip-path="url(#clipPath3)"/>
      <path d="M834.1382 139.249 L839.1382 127.249 L834.1382 130.249 L829.1382 127.249 Z" clip-path="url(#clipPath3)" stroke="none"/>
      <path fill="none" d="M744.1382 109.2881 L744.1382 131.2588" clip-path="url(#clipPath3)"/>
      <path d="M744.1382 139.2588 L749.1382 127.2588 L744.1382 130.2588 L739.1382 127.2588 Z" clip-path="url(#clipPath3)" stroke="none"/>
      <path fill="none" d="M834.1382 212.2881 L834.1382 234.2588" clip-path="url(#clipPath3)"/>
      <path d="M834.1382 242.2588 L839.1382 230.2588 L834.1382 233.2588 L829.1382 230.2588 Z" clip-path="url(#clipPath3)" stroke="none"/>
      <path fill="none" d="M744.1382 212.2881 L744.1382 222.2881 L514.1382 222.2881 L514.1382 234.249" clip-path="url(#clipPath3)"/>
      <path d="M514.1382 242.249 L519.1382 230.249 L514.1382 233.249 L509.1382 230.249 Z" clip-path="url(#clipPath3)" stroke="none"/>
      <path fill="none" d="M944.1382 212.2881 L944.1382 222.2881 L924.1382 222.2881 L924.1382 234.249" clip-path="url(#clipPath3)"/>
      <path d="M924.1382 242.249 L929.1382 230.249 L924.1382 233.249 L919.1382 230.249 Z" clip-path="url(#clipPath3)" stroke="none"/>
      <path fill="none" d="M989.1382 109.2881 L989.1382 119.2881 L1124.1382 119.2881 L1124.1382 234.2581" clip-path="url(#clipPath3)"/>
      <path d="M1124.1382 242.2581 L1129.1382 230.2581 L1124.1382 233.2581 L1119.1382 230.2581 Z" clip-path="url(#clipPath3)" stroke="none"/>
      <path fill="none" d="M1034.1382 212.2881 L1034.1382 234.2588" clip-path="url(#clipPath3)"/>
      <path d="M1034.1382 242.2588 L1039.1382 230.2588 L1034.1382 233.2588 L1029.1382 230.2588 Z" clip-path="url(#clipPath3)" stroke="none"/>
      <path fill="none" d="M834.1382 6.2881 L834.1382 16.2881 L944.1382 16.2881 L944.1382 28.249" clip-path="url(#clipPath3)"/>
      <path d="M944.1382 36.249 L949.1382 24.249 L944.1382 27.249 L939.1382 24.249 Z" clip-path="url(#clipPath3)" stroke="none"/>
      <path fill="none" d="M744.1382 6.2881 L744.1382 28.2588" clip-path="url(#clipPath3)"/>
      <path d="M744.1382 36.2588 L749.1382 24.2588 L744.1382 27.2588 L739.1382 24.2588 Z" clip-path="url(#clipPath3)" stroke="none"/>
      <path fill="none" d="M924.1382 315.2881 L924.1382 325.2881 L974.1382 325.2881 L974.1382 337.249" clip-path="url(#clipPath3)"/>
      <path d="M974.1382 345.249 L979.1382 333.249 L974.1382 336.249 L969.1382 333.249 Z" clip-path="url(#clipPath3)" stroke="none"/>
      <path fill="none" d="M834.1382 315.2881 L834.1382 325.2881 L574.1382 325.2881 L574.1382 337.249" clip-path="url(#clipPath3)"/>
      <path d="M574.1382 345.249 L579.1382 333.249 L574.1382 336.249 L569.1382 333.249 Z" clip-path="url(#clipPath3)" stroke="none"/>
      <path fill="none" d="M469.1382 315.2881 L469.1382 428.2881 L514.1382 428.2881 L514.1382 440.249" clip-path="url(#clipPath3)"/>
      <path d="M514.1382 448.249 L519.1382 436.249 L514.1382 439.249 L509.1382 436.249 Z" clip-path="url(#clipPath3)" stroke="none"/>
      <path fill="none" d="M574.1382 418.2881 L574.1382 440.2588" clip-path="url(#clipPath3)"/>
      <path d="M574.1382 448.2588 L579.1382 436.2588 L574.1382 439.2588 L569.1382 436.2588 Z" clip-path="url(#clipPath3)" stroke="none"/>
      <path fill="none" d="M469.1382 212.2881 L469.1382 227.2881 L469.1382 234.2635" clip-path="url(#clipPath3)"/>
      <path d="M469.1382 242.2635 L474.1382 230.2635 L469.1382 233.2635 L464.1382 230.2635 Z" clip-path="url(#clipPath3)" stroke="none"/>
      <path fill="none" d="M469.1382 109.2881 L469.1382 131.2588" clip-path="url(#clipPath3)"/>
      <path d="M469.1382 139.2588 L474.1382 127.2588 L469.1382 130.2588 L464.1382 127.2588 Z" clip-path="url(#clipPath3)" stroke="none"/>
      <path fill="none" d="M1079.1382 315.2881 L1079.1382 597.7881 L993.0383 597.7881 L993.0383 651.2881" clip-path="url(#clipPath3)"/>
      <path d="M993.0383 659.2881 L998.0383 647.2881 L993.0383 650.2881 L988.0383 647.2881 Z" clip-path="url(#clipPath3)" stroke="none"/>
      <path fill="none" d="M774.1382 624.2881 L774.1382 634.2881 L955.2382 634.2881 L955.2382 651.2881" clip-path="url(#clipPath3)"/>
      <path d="M955.2382 659.2881 L960.2382 647.2881 L955.2382 650.2881 L950.2382 647.2881 Z" clip-path="url(#clipPath3)" stroke="none"/>
      <path fill="none" d="M964.6882 734.8881 L964.6882 756.8881" clip-path="url(#clipPath3)"/>
      <path d="M964.6882 764.8881 L969.6882 752.8881 L964.6882 755.8881 L959.6882 752.8881 Z" clip-path="url(#clipPath3)" stroke="none"/>
      <path fill="none" d="M964.6882 837.8881 L964.6882 859.8588" clip-path="url(#clipPath3)"/>
      <path d="M964.6882 867.8588 L969.6882 855.8588 L964.6882 858.8588 L959.6882 855.8588 Z" clip-path="url(#clipPath3)" stroke="none"/>
      <path fill="none" d="M964.6882 940.8881 L964.6882 962.8881" clip-path="url(#clipPath3)"/>
      <path d="M964.6882 970.8881 L969.6882 958.8881 L964.6882 961.8881 L959.6882 958.8881 Z" clip-path="url(#clipPath3)" stroke="none"/>
      <path fill="none" d="M774.1382 418.2881 L774.1382 428.2881 L634.1382 428.2881 L634.1382 440.249" clip-path="url(#clipPath3)"/>
      <path d="M634.1382 448.249 L639.1382 436.249 L634.1382 439.249 L629.1382 436.249 Z" clip-path="url(#clipPath3)" stroke="none"/>
      <path fill="none" d="M774.1382 521.2881 L774.1382 543.2588" clip-path="url(#clipPath3)"/>
      <path d="M774.1382 551.2588 L779.1382 539.2588 L774.1382 542.2588 L769.1382 539.2588 Z" clip-path="url(#clipPath3)" stroke="none"/>
      <path fill="none" d="M974.1382 418.2881 L974.1382 440.2588" clip-path="url(#clipPath3)"/>
      <path d="M974.1382 448.2588 L979.1382 436.2588 L974.1382 439.2588 L969.1382 436.2588 Z" clip-path="url(#clipPath3)" stroke="none"/>
      <path fill="none" d="M974.1382 521.3218 L974.1382 651.2881" clip-path="url(#clipPath3)"/>
      <path d="M974.1382 659.2881 L979.1382 647.2881 L974.1382 650.2881 L969.1382 647.2881 Z" clip-path="url(#clipPath3)" stroke="none"/>
      <path fill="none" d="M574.1382 521.2881 L574.1382 543.2588" clip-path="url(#clipPath3)"/>
      <path d="M574.1382 551.2588 L579.1382 539.2588 L574.1382 542.2588 L569.1382 539.2588 Z" clip-path="url(#clipPath3)" stroke="none"/>
      <path fill="none" d="M574.1382 624.3271 L574.1382 644.2881 L936.3383 644.2881 L936.3383 651.2881" clip-path="url(#clipPath3)"/>
      <path d="M936.3383 659.2881 L941.3383 647.2881 L936.3383 650.2881 L931.3383 647.2881 Z" clip-path="url(#clipPath3)" stroke="none"/>
    </g>
  </g>
</svg>
