<?xml version="1.0" encoding="UTF-8"?><svg xmlns="http://www.w3.org/2000/svg" xmlns:xlink="http://www.w3.org/1999/xlink" fill-opacity="1" color-rendering="auto" color-interpolation="auto" text-rendering="auto" stroke="black" stroke-linecap="square" width="1398" stroke-miterlimit="10" shape-rendering="auto" stroke-opacity="1" fill="black" stroke-dasharray="none" font-weight="normal" stroke-width="1" height="1702" font-family="'Dialog'" font-style="normal" stroke-linejoin="miter" font-size="12px" stroke-dashoffset="0" image-rendering="auto">
  <!--Generated by ySVG 2.5-->
  <defs id="genericDefs"/>
  <g>
    <defs id="defs1">
      <clipPath clipPathUnits="userSpaceOnUse" id="clipPath1">
        <path d="M0 0 L1398 0 L1398 1702 L0 1702 L0 0 Z"/>
      </clipPath>
      <clipPath clipPathUnits="userSpaceOnUse" id="clipPath2">
        <path d="M137 -154 L1535 -154 L1535 1548 L137 1548 L137 -154 Z"/>
      </clipPath>
      <clipPath clipPathUnits="userSpaceOnUse" id="clipPath3">
        <path d="M141 -150 L1539 -150 L1539 1552 L141 1552 L141 -150 Z"/>
      </clipPath>
    </defs>
    <g fill="rgb(210,210,210)" text-rendering="geometricPrecision" shape-rendering="geometricPrecision" transform="matrix(1,0,0,1,-141,150) translate(4,4)" stroke="rgb(210,210,210)">
      <rect x="156.8187" width="147.3196" height="216" y="-52.6543" clip-path="url(#clipPath2)" stroke="none"/>
    </g>
    <g fill="rgb(242,240,216)" text-rendering="geometricPrecision" shape-rendering="geometricPrecision" transform="matrix(1,0,0,1,-141,150)" stroke="rgb(242,240,216)">
      <rect x="156.8187" width="147.3196" height="216" y="-52.6543" clip-path="url(#clipPath3)" stroke="none"/>
      <rect x="156.8187" y="-52.6543" clip-path="url(#clipPath3)" fill="rgb(183,182,158)" width="147.3196" height="21.4609" stroke="none"/>
    </g>
    <g font-size="15px" stroke-linecap="butt" transform="matrix(1,0,0,1,-141,150)" text-rendering="geometricPrecision" font-family="sans-serif" shape-rendering="geometricPrecision" stroke-miterlimit="1.45">
      <text x="222.4581" xml:space="preserve" y="-36.7309" clip-path="url(#clipPath3)" stroke="none">Shape Key</text>
      <rect fill="none" x="156.8187" width="147.3196" height="216" y="-52.6543" clip-path="url(#clipPath3)"/>
    </g>
    <g fill="rgb(255,204,0)" text-rendering="geometricPrecision" shape-rendering="geometricPrecision" transform="matrix(1,0,0,1,-141,150)" stroke="rgb(255,204,0)">
      <rect x="171.8187" width="117.3196" height="35.3086" y="-12.6543" clip-path="url(#clipPath3)" stroke="none"/>
    </g>
    <g text-rendering="geometricPrecision" stroke-miterlimit="1.45" shape-rendering="geometricPrecision" transform="matrix(1,0,0,1,-141,150)" stroke-linecap="butt">
      <rect fill="none" x="171.8187" width="117.3196" height="35.3086" y="-12.6543" clip-path="url(#clipPath3)"/>
      <text x="190.998" xml:space="preserve" y="9.1543" clip-path="url(#clipPath3)" font-family="sans-serif" stroke="none">Halberd Task</text>
    </g>
    <g fill="rgb(255,204,0)" text-rendering="geometricPrecision" shape-rendering="geometricPrecision" transform="matrix(1,0,0,1,-141,150)" stroke="rgb(255,204,0)">
      <rect x="171.8187" y="35.6668" clip-path="url(#clipPath3)" width="117.3196" rx="4" ry="4" height="35.3086" stroke="none"/>
    </g>
    <g stroke-linecap="butt" transform="matrix(1,0,0,1,-141,150)" fill="gray" text-rendering="geometricPrecision" shape-rendering="geometricPrecision" stroke="gray" stroke-miterlimit="1.45">
      <rect x="171.8187" y="35.6668" clip-path="url(#clipPath3)" fill="none" width="117.3196" rx="4" ry="4" height="35.3086"/>
      <text x="189.6298" y="57.4754" clip-path="url(#clipPath3)" fill="black" font-family="sans-serif" stroke="none" xml:space="preserve">External Task</text>
    </g>
    <g fill="rgb(255,204,0)" text-rendering="geometricPrecision" shape-rendering="geometricPrecision" transform="matrix(1,0,0,1,-141,150)" stroke="rgb(255,204,0)">
      <circle r="29.864" clip-path="url(#clipPath3)" cx="230.4785" cy="113.852" stroke="none"/>
    </g>
    <g text-rendering="geometricPrecision" stroke-miterlimit="1.45" shape-rendering="geometricPrecision" transform="matrix(1,0,0,1,-141,150)" stroke-linecap="butt">
      <circle fill="none" r="29.864" clip-path="url(#clipPath3)" cx="230.4785" cy="113.852"/>
      <text x="206.7656" xml:space="preserve" y="118.0063" clip-path="url(#clipPath3)" font-family="sans-serif" stroke="none">Release</text>
    </g>
    <g fill="rgb(210,210,210)" text-rendering="geometricPrecision" shape-rendering="geometricPrecision" transform="matrix(1,0,0,1,-141,150) translate(4,4)" stroke="rgb(210,210,210)">
      <rect x="156.8187" width="147.3196" height="279.9426" y="188.2305" clip-path="url(#clipPath2)" stroke="none"/>
    </g>
    <g fill="rgb(242,240,216)" text-rendering="geometricPrecision" shape-rendering="geometricPrecision" transform="matrix(1,0,0,1,-141,150)" stroke="rgb(242,240,216)">
      <rect x="156.8187" width="147.3196" height="279.9426" y="188.2305" clip-path="url(#clipPath3)" stroke="none"/>
      <rect x="156.8187" y="188.2305" clip-path="url(#clipPath3)" fill="rgb(183,182,158)" width="147.3196" height="21.4609" stroke="none"/>
    </g>
    <g font-size="15px" stroke-linecap="butt" transform="matrix(1,0,0,1,-141,150)" text-rendering="geometricPrecision" font-family="sans-serif" shape-rendering="geometricPrecision" stroke-miterlimit="1.45">
      <text x="230.2657" xml:space="preserve" y="204.1538" clip-path="url(#clipPath3)" stroke="none">Color Key</text>
      <rect fill="none" x="156.8187" width="147.3196" height="279.9426" y="188.2305" clip-path="url(#clipPath3)"/>
    </g>
    <g fill="maroon" text-rendering="geometricPrecision" shape-rendering="geometricPrecision" transform="matrix(1,0,0,1,-141,150)" stroke="maroon">
      <rect x="171.8187" width="117.3196" height="35.3086" y="224.6914" clip-path="url(#clipPath3)" stroke="none"/>
    </g>
    <g text-rendering="geometricPrecision" stroke-miterlimit="1.45" shape-rendering="geometricPrecision" transform="matrix(1,0,0,1,-141,150)" stroke-linecap="butt">
      <rect fill="none" x="171.8187" width="117.3196" height="35.3086" y="224.6914" clip-path="url(#clipPath3)"/>
      <text x="193.4589" y="246.5" clip-path="url(#clipPath3)" fill="rgb(255,204,153)" font-family="sans-serif" stroke="none" xml:space="preserve">Future Work</text>
    </g>
    <g fill="red" text-rendering="geometricPrecision" shape-rendering="geometricPrecision" transform="matrix(1,0,0,1,-141,150)" stroke="red">
      <rect x="171.8187" width="117.3196" height="35.3086" y="273.0863" clip-path="url(#clipPath3)" stroke="none"/>
    </g>
    <g text-rendering="geometricPrecision" stroke-miterlimit="1.45" shape-rendering="geometricPrecision" transform="matrix(1,0,0,1,-141,150)" stroke-linecap="butt">
      <rect fill="none" x="171.8187" width="117.3196" height="35.3086" y="273.0863" clip-path="url(#clipPath3)"/>
      <text x="182.7334" xml:space="preserve" y="294.8949" clip-path="url(#clipPath3)" font-family="sans-serif" stroke="none">Upcoming Work</text>
    </g>
    <g fill="rgb(255,102,0)" text-rendering="geometricPrecision" shape-rendering="geometricPrecision" transform="matrix(1,0,0,1,-141,150)" stroke="rgb(255,102,0)">
      <rect x="171.8187" width="117.3196" height="35.3086" y="321.3457" clip-path="url(#clipPath3)" stroke="none"/>
    </g>
    <g text-rendering="geometricPrecision" stroke-miterlimit="1.45" shape-rendering="geometricPrecision" transform="matrix(1,0,0,1,-141,150)" stroke-linecap="butt">
      <rect fill="none" x="171.8187" width="117.3196" height="35.3086" y="321.3457" clip-path="url(#clipPath3)"/>
      <text x="198.9433" xml:space="preserve" y="343.1543" clip-path="url(#clipPath3)" font-family="sans-serif" stroke="none">Next Work</text>
    </g>
    <g fill="rgb(255,204,0)" text-rendering="geometricPrecision" shape-rendering="geometricPrecision" transform="matrix(1,0,0,1,-141,150)" stroke="rgb(255,204,0)">
      <rect x="171.8187" width="117.3196" height="35.3086" y="369.6051" clip-path="url(#clipPath3)" stroke="none"/>
    </g>
    <g text-rendering="geometricPrecision" stroke-miterlimit="1.45" shape-rendering="geometricPrecision" transform="matrix(1,0,0,1,-141,150)" stroke-linecap="butt">
      <rect fill="none" x="171.8187" width="117.3196" height="35.3086" y="369.6051" clip-path="url(#clipPath3)"/>
      <text x="197.0244" xml:space="preserve" y="391.4137" clip-path="url(#clipPath3)" font-family="sans-serif" stroke="none">In Progress</text>
    </g>
    <g fill="rgb(153,204,0)" text-rendering="geometricPrecision" shape-rendering="geometricPrecision" transform="matrix(1,0,0,1,-141,150)" stroke="rgb(153,204,0)">
      <rect x="171.8187" width="117.3196" height="35.3086" y="417.8645" clip-path="url(#clipPath3)" stroke="none"/>
    </g>
    <g text-rendering="geometricPrecision" stroke-miterlimit="1.45" shape-rendering="geometricPrecision" transform="matrix(1,0,0,1,-141,150)" stroke-linecap="butt">
      <rect fill="none" x="171.8187" width="117.3196" height="35.3086" y="417.8645" clip-path="url(#clipPath3)"/>
      <text x="214.6933" xml:space="preserve" y="439.6731" clip-path="url(#clipPath3)" font-family="sans-serif" stroke="none">Done</text>
    </g>
    <g fill="rgb(153,204,0)" text-rendering="geometricPrecision" shape-rendering="geometricPrecision" transform="matrix(1,0,0,1,-141,150)" stroke="rgb(153,204,0)">
      <rect x="743.5882" width="180" height="73" y="-31.5" clip-path="url(#clipPath3)" stroke="none"/>
    </g>
    <g text-rendering="geometricPrecision" stroke-miterlimit="1.45" shape-rendering="geometricPrecision" transform="matrix(1,0,0,1,-141,150)" stroke-linecap="butt">
      <rect fill="none" x="743.5882" width="180" height="73" y="-31.5" clip-path="url(#clipPath3)"/>
      <text x="773.9047" xml:space="preserve" y="9.1543" clip-path="url(#clipPath3)" font-family="sans-serif" stroke="none">Main Editor Window</text>
    </g>
    <g fill="rgb(153,204,0)" text-rendering="geometricPrecision" shape-rendering="geometricPrecision" transform="matrix(1,0,0,1,-141,150)" stroke="rgb(153,204,0)">
      <rect x="543.5882" width="180" height="73" y="-31.5" clip-path="url(#clipPath3)" stroke="none"/>
    </g>
    <g text-rendering="geometricPrecision" stroke-miterlimit="1.45" shape-rendering="geometricPrecision" transform="matrix(1,0,0,1,-141,150)" stroke-linecap="butt">
      <rect fill="none" x="543.5882" width="180" height="73" y="-31.5" clip-path="url(#clipPath3)"/>
      <text x="573.7992" xml:space="preserve" y="9.1543" clip-path="url(#clipPath3)" font-family="sans-serif" stroke="none">Main Game Window</text>
    </g>
    <g fill="rgb(153,204,0)" text-rendering="geometricPrecision" shape-rendering="geometricPrecision" transform="matrix(1,0,0,1,-141,150)" stroke="rgb(153,204,0)">
      <rect x="588.5882" width="180" height="73" y="71.5" clip-path="url(#clipPath3)" stroke="none"/>
    </g>
    <g text-rendering="geometricPrecision" stroke-miterlimit="1.45" shape-rendering="geometricPrecision" transform="matrix(1,0,0,1,-141,150)" stroke-linecap="butt">
      <rect fill="none" x="588.5882" width="180" height="73" y="71.5" clip-path="url(#clipPath3)"/>
      <text x="601.6927" xml:space="preserve" y="112.1543" clip-path="url(#clipPath3)" font-family="sans-serif" stroke="none">'Playable' Editor Viewport</text>
    </g>
    <g fill="rgb(153,204,0)" text-rendering="geometricPrecision" shape-rendering="geometricPrecision" transform="matrix(1,0,0,1,-141,150)" stroke="rgb(153,204,0)">
      <rect x="853.5882" width="180" height="73" y="174.5" clip-path="url(#clipPath3)" stroke="none"/>
    </g>
    <g text-rendering="geometricPrecision" stroke-miterlimit="1.45" shape-rendering="geometricPrecision" transform="matrix(1,0,0,1,-141,150)" stroke-linecap="butt">
      <rect fill="none" x="853.5882" width="180" height="73" y="174.5" clip-path="url(#clipPath3)"/>
      <text x="899.9037" xml:space="preserve" y="215.1543" clip-path="url(#clipPath3)" font-family="sans-serif" stroke="none">Tilemap Editor</text>
    </g>
    <g fill="rgb(153,204,0)" text-rendering="geometricPrecision" shape-rendering="geometricPrecision" transform="matrix(1,0,0,1,-141,150)" stroke="rgb(153,204,0)">
      <rect x="388.5882" width="180" height="73" y="174.5" clip-path="url(#clipPath3)" stroke="none"/>
    </g>
    <g text-rendering="geometricPrecision" stroke-miterlimit="1.45" shape-rendering="geometricPrecision" transform="matrix(1,0,0,1,-141,150)" stroke-linecap="butt">
      <rect fill="none" x="388.5882" width="180" height="73" y="174.5" clip-path="url(#clipPath3)"/>
      <text x="435.3812" xml:space="preserve" y="215.1543" clip-path="url(#clipPath3)" font-family="sans-serif" stroke="none">Combat Editor</text>
    </g>
    <g fill="rgb(153,204,0)" text-rendering="geometricPrecision" shape-rendering="geometricPrecision" transform="matrix(1,0,0,1,-141,150)" stroke="rgb(153,204,0)">
      <rect x="943.5882" y="-31.5" clip-path="url(#clipPath3)" width="180" rx="4" ry="4" height="73" stroke="none"/>
    </g>
    <g stroke-linecap="butt" transform="matrix(1,0,0,1,-141,150)" fill="gray" text-rendering="geometricPrecision" shape-rendering="geometricPrecision" stroke="gray" stroke-miterlimit="1.45">
      <rect x="943.5882" y="-31.5" clip-path="url(#clipPath3)" fill="none" width="180" rx="4" ry="4" height="73"/>
      <text x="971.3324" y="9.1543" clip-path="url(#clipPath3)" fill="black" font-family="sans-serif" stroke="none" xml:space="preserve">DFGame Tile Module</text>
    </g>
    <g fill="rgb(153,204,0)" text-rendering="geometricPrecision" shape-rendering="geometricPrecision" transform="matrix(1,0,0,1,-141,150)" stroke="rgb(153,204,0)">
      <rect x="853.5882" width="180" height="73" y="71.5" clip-path="url(#clipPath3)" stroke="none"/>
    </g>
    <g text-rendering="geometricPrecision" stroke-miterlimit="1.45" shape-rendering="geometricPrecision" transform="matrix(1,0,0,1,-141,150)" stroke-linecap="butt">
      <rect fill="none" x="853.5882" width="180" height="73" y="71.5" clip-path="url(#clipPath3)"/>
      <text x="904.0638" xml:space="preserve" y="112.1543" clip-path="url(#clipPath3)" font-family="sans-serif" stroke="none">Tileset Editor</text>
    </g>
    <g fill="rgb(153,204,0)" text-rendering="geometricPrecision" shape-rendering="geometricPrecision" transform="matrix(1,0,0,1,-141,150)" stroke="rgb(153,204,0)">
      <rect x="588.5882" width="180" height="73" y="-134.5" clip-path="url(#clipPath3)" stroke="none"/>
    </g>
    <g text-rendering="geometricPrecision" stroke-miterlimit="1.45" shape-rendering="geometricPrecision" transform="matrix(1,0,0,1,-141,150)" stroke-linecap="butt">
      <rect fill="none" x="588.5882" width="180" height="73" y="-134.5" clip-path="url(#clipPath3)"/>
      <text x="639.2455" xml:space="preserve" y="-93.8457" clip-path="url(#clipPath3)" font-family="sans-serif" stroke="none">Build System</text>
    </g>
    <g fill="rgb(153,204,0)" text-rendering="geometricPrecision" shape-rendering="geometricPrecision" transform="matrix(1,0,0,1,-141,150)" stroke="rgb(153,204,0)">
      <rect x="1093.5882" width="180" height="73" y="277.5" clip-path="url(#clipPath3)" stroke="none"/>
    </g>
    <g text-rendering="geometricPrecision" stroke-miterlimit="1.45" shape-rendering="geometricPrecision" transform="matrix(1,0,0,1,-141,150)" stroke-linecap="butt">
      <rect fill="none" x="1093.5882" width="180" height="73" y="277.5" clip-path="url(#clipPath3)"/>
      <text x="1151.807" xml:space="preserve" y="318.1543" clip-path="url(#clipPath3)" font-family="sans-serif" stroke="none">Movement</text>
    </g>
    <g fill="rgb(153,204,0)" text-rendering="geometricPrecision" shape-rendering="geometricPrecision" transform="matrix(1,0,0,1,-141,150)" stroke="rgb(153,204,0)">
      <rect x="493.5882" width="180" height="73" y="277.5" clip-path="url(#clipPath3)" stroke="none"/>
    </g>
    <g text-rendering="geometricPrecision" stroke-miterlimit="1.45" shape-rendering="geometricPrecision" transform="matrix(1,0,0,1,-141,150)" stroke-linecap="butt">
      <rect fill="none" x="493.5882" width="180" height="73" y="277.5" clip-path="url(#clipPath3)"/>
      <text x="519.3578" xml:space="preserve" y="318.1543" clip-path="url(#clipPath3)" font-family="sans-serif" stroke="none">Encounter Placement</text>
    </g>
    <g fill="rgb(153,204,0)" text-rendering="geometricPrecision" shape-rendering="geometricPrecision" transform="matrix(1,0,0,1,-141,150)" stroke="rgb(153,204,0)">
      <rect x="493.5882" width="180" height="73" y="380.5" clip-path="url(#clipPath3)" stroke="none"/>
    </g>
    <g text-rendering="geometricPrecision" stroke-miterlimit="1.45" shape-rendering="geometricPrecision" transform="matrix(1,0,0,1,-141,150)" stroke-linecap="butt">
      <rect fill="none" x="493.5882" width="180" height="73" y="380.5" clip-path="url(#clipPath3)"/>
      <text x="495.639" xml:space="preserve" y="421.1543" clip-path="url(#clipPath3)" font-family="sans-serif" stroke="none">Playable Random Encounters</text>
    </g>
    <g fill="rgb(153,204,0)" text-rendering="geometricPrecision" shape-rendering="geometricPrecision" transform="matrix(1,0,0,1,-141,150)" stroke="rgb(153,204,0)">
      <rect x="343.5882" width="180" height="73" y="71.5" clip-path="url(#clipPath3)" stroke="none"/>
    </g>
    <g text-rendering="geometricPrecision" stroke-miterlimit="1.45" shape-rendering="geometricPrecision" transform="matrix(1,0,0,1,-141,150)" stroke-linecap="butt">
      <rect fill="none" x="343.5882" width="180" height="73" y="71.5" clip-path="url(#clipPath3)"/>
      <text x="357.9935" xml:space="preserve" y="112.1543" clip-path="url(#clipPath3)" font-family="sans-serif" stroke="none">Monster/Character Editor</text>
    </g>
    <g fill="rgb(153,204,0)" text-rendering="geometricPrecision" shape-rendering="geometricPrecision" transform="matrix(1,0,0,1,-141,150)" stroke="rgb(153,204,0)">
      <rect x="343.5882" width="180" height="73" y="-31.5" clip-path="url(#clipPath3)" stroke="none"/>
    </g>
    <g text-rendering="geometricPrecision" stroke-miterlimit="1.45" shape-rendering="geometricPrecision" transform="matrix(1,0,0,1,-141,150)" stroke-linecap="butt">
      <rect fill="none" x="343.5882" width="180" height="73" y="-31.5" clip-path="url(#clipPath3)"/>
      <text x="418.2719" xml:space="preserve" y="9.1543" clip-path="url(#clipPath3)" font-family="sans-serif" stroke="none">Stats</text>
    </g>
    <g fill="rgb(153,204,0)" text-rendering="geometricPrecision" shape-rendering="geometricPrecision" transform="matrix(1,0,0,1,-141,150)" stroke="rgb(153,204,0)">
      <rect x="893.5882" y="380.5" clip-path="url(#clipPath3)" width="180" rx="4" ry="4" height="73" stroke="none"/>
    </g>
    <g stroke-linecap="butt" transform="matrix(1,0,0,1,-141,150)" fill="gray" text-rendering="geometricPrecision" shape-rendering="geometricPrecision" stroke="gray" stroke-miterlimit="1.45">
      <rect x="893.5882" y="380.5" clip-path="url(#clipPath3)" fill="none" width="180" rx="4" ry="4" height="73"/>
      <text x="907.2465" y="421.1543" clip-path="url(#clipPath3)" fill="black" font-family="sans-serif" stroke="none" xml:space="preserve">Initial Asset Management</text>
    </g>
    <g fill="rgb(153,204,0)" text-rendering="geometricPrecision" shape-rendering="geometricPrecision" transform="matrix(1,0,0,1,-141,150)" stroke="rgb(153,204,0)">
      <circle r="37.8" clip-path="url(#clipPath3)" cx="983.5882" cy="521.3" stroke="none"/>
    </g>
    <g text-rendering="geometricPrecision" stroke-miterlimit="1.45" shape-rendering="geometricPrecision" transform="matrix(1,0,0,1,-141,150)" stroke-linecap="butt">
      <circle fill="none" r="37.8" clip-path="url(#clipPath3)" cx="983.5882" cy="521.3"/>
      <text x="964.7709" xml:space="preserve" y="518.4699" clip-path="url(#clipPath3)" font-family="sans-serif" stroke="none">v0.0.1</text>
      <text x="959.9955" xml:space="preserve" y="532.4387" clip-path="url(#clipPath3)" font-family="sans-serif" stroke="none">Preview</text>
    </g>
    <g fill="maroon" text-rendering="geometricPrecision" shape-rendering="geometricPrecision" transform="matrix(1,0,0,1,-141,150)" stroke="maroon">
      <ellipse rx="37.8" ry="36.5" clip-path="url(#clipPath3)" cx="1033.5882" cy="851.6" stroke="none"/>
    </g>
    <g text-rendering="geometricPrecision" stroke-miterlimit="1.45" shape-rendering="geometricPrecision" transform="matrix(1,0,0,1,-141,150)" stroke-linecap="butt">
      <ellipse rx="37.8" fill="none" ry="36.5" clip-path="url(#clipPath3)" cx="1033.5882" cy="851.6"/>
      <text x="1007.558" y="848.7699" clip-path="url(#clipPath3)" fill="rgb(255,204,153)" font-family="sans-serif" stroke="none" xml:space="preserve">Example</text>
      <text x="1015.726" y="862.7386" clip-path="url(#clipPath3)" fill="rgb(255,204,153)" font-family="sans-serif" stroke="none" xml:space="preserve">Game</text>
    </g>
    <g fill="rgb(153,204,0)" text-rendering="geometricPrecision" shape-rendering="geometricPrecision" transform="matrix(1,0,0,1,-141,150)" stroke="rgb(153,204,0)">
      <rect x="693.5882" width="180" height="73" y="277.5" clip-path="url(#clipPath3)" stroke="none"/>
    </g>
    <g text-rendering="geometricPrecision" stroke-miterlimit="1.45" shape-rendering="geometricPrecision" transform="matrix(1,0,0,1,-141,150)" stroke-linecap="butt">
      <rect fill="none" x="693.5882" width="180" height="73" y="277.5" clip-path="url(#clipPath3)"/>
      <text x="733.4672" xml:space="preserve" y="318.1543" clip-path="url(#clipPath3)" font-family="sans-serif" stroke="none">Initial Combat UI</text>
    </g>
    <g fill="rgb(153,204,0)" text-rendering="geometricPrecision" shape-rendering="geometricPrecision" transform="matrix(1,0,0,1,-141,150)" stroke="rgb(153,204,0)">
      <rect x="893.5882" width="180" height="73" y="277.5" clip-path="url(#clipPath3)" stroke="none"/>
    </g>
    <g text-rendering="geometricPrecision" stroke-miterlimit="1.45" shape-rendering="geometricPrecision" transform="matrix(1,0,0,1,-141,150)" stroke-linecap="butt">
      <rect fill="none" x="893.5882" width="180" height="73" y="277.5" clip-path="url(#clipPath3)"/>
      <text x="921.391" xml:space="preserve" y="318.1543" clip-path="url(#clipPath3)" font-family="sans-serif" stroke="none">Project Management</text>
    </g>
    <g fill="rgb(255,102,0)" text-rendering="geometricPrecision" shape-rendering="geometricPrecision" transform="matrix(1,0,0,1,-141,150)" stroke="rgb(255,102,0)">
      <rect x="1343.5882" width="180" height="73" y="604.1" clip-path="url(#clipPath3)" stroke="none"/>
    </g>
    <g text-rendering="geometricPrecision" stroke-miterlimit="1.45" shape-rendering="geometricPrecision" transform="matrix(1,0,0,1,-141,150)" stroke-linecap="butt">
      <rect fill="none" x="1343.5882" width="180" height="73" y="604.1" clip-path="url(#clipPath3)"/>
      <text x="1385.9955" xml:space="preserve" y="644.7543" clip-path="url(#clipPath3)" font-family="sans-serif" stroke="none">Map Transitions</text>
    </g>
    <g fill="red" text-rendering="geometricPrecision" shape-rendering="geometricPrecision" transform="matrix(1,0,0,1,-141,150)" stroke="red">
      <rect x="743.5882" width="180" height="73" y="604.1" clip-path="url(#clipPath3)" stroke="none"/>
    </g>
    <g text-rendering="geometricPrecision" stroke-miterlimit="1.45" shape-rendering="geometricPrecision" transform="matrix(1,0,0,1,-141,150)" stroke-linecap="butt">
      <rect fill="none" x="743.5882" width="180" height="73" y="604.1" clip-path="url(#clipPath3)"/>
      <text x="785.9838" xml:space="preserve" y="644.7543" clip-path="url(#clipPath3)" font-family="sans-serif" stroke="none">Win/Loss States</text>
    </g>
    <g fill="maroon" text-rendering="geometricPrecision" shape-rendering="geometricPrecision" transform="matrix(1,0,0,1,-141,150)" stroke="maroon">
      <ellipse rx="37.8" ry="36.5" clip-path="url(#clipPath3)" cx="1033.5882" cy="1499.9054" stroke="none"/>
    </g>
    <g text-rendering="geometricPrecision" stroke-miterlimit="1.45" shape-rendering="geometricPrecision" transform="matrix(1,0,0,1,-141,150)" stroke-linecap="butt">
      <ellipse rx="37.8" fill="none" ry="36.5" clip-path="url(#clipPath3)" cx="1033.5882" cy="1499.9054"/>
      <text x="994.8754" y="1504.0597" clip-path="url(#clipPath3)" fill="rgb(255,204,153)" font-family="sans-serif" stroke="none" xml:space="preserve">v1.0 Release</text>
    </g>
    <g fill="maroon" text-rendering="geometricPrecision" shape-rendering="geometricPrecision" transform="matrix(1,0,0,1,-141,150)" stroke="maroon">
      <rect x="943.5882" width="180" height="73" y="1360.4054" clip-path="url(#clipPath3)" stroke="none"/>
    </g>
    <g text-rendering="geometricPrecision" stroke-miterlimit="1.45" shape-rendering="geometricPrecision" transform="matrix(1,0,0,1,-141,150)" stroke-linecap="butt">
      <rect fill="none" x="943.5882" width="180" height="73" y="1360.4054" clip-path="url(#clipPath3)"/>
      <text x="946.8021" y="1401.0597" clip-path="url(#clipPath3)" fill="rgb(255,204,153)" font-family="sans-serif" stroke="none" xml:space="preserve">Full Turn-Based RPG Support</text>
    </g>
    <g fill="maroon" text-rendering="geometricPrecision" shape-rendering="geometricPrecision" transform="matrix(1,0,0,1,-141,150)" stroke="maroon">
      <ellipse rx="37.8" ry="36.5" clip-path="url(#clipPath3)" cx="1033.5882" cy="967.2" stroke="none"/>
    </g>
    <g text-rendering="geometricPrecision" stroke-miterlimit="1.45" shape-rendering="geometricPrecision" transform="matrix(1,0,0,1,-141,150)" stroke-linecap="butt">
      <ellipse rx="37.8" fill="none" ry="36.5" clip-path="url(#clipPath3)" cx="1033.5882" cy="967.2"/>
      <text x="996.9027" y="964.3699" clip-path="url(#clipPath3)" fill="rgb(255,204,153)" font-family="sans-serif" stroke="none" xml:space="preserve">v0.1 (AMVP)</text>
      <text x="1009.8754" y="978.3387" clip-path="url(#clipPath3)" fill="rgb(255,204,153)" font-family="sans-serif" stroke="none" xml:space="preserve">Release</text>
    </g>
    <g fill="maroon" text-rendering="geometricPrecision" shape-rendering="geometricPrecision" transform="matrix(1,0,0,1,-141,150)" stroke="maroon">
      <rect x="943.5882" width="180" height="73" y="604.1" clip-path="url(#clipPath3)" stroke="none"/>
    </g>
    <g text-rendering="geometricPrecision" stroke-miterlimit="1.45" shape-rendering="geometricPrecision" transform="matrix(1,0,0,1,-141,150)" stroke-linecap="butt">
      <rect fill="none" x="943.5882" width="180" height="73" y="604.1" clip-path="url(#clipPath3)"/>
      <text x="960.1293" y="644.7543" clip-path="url(#clipPath3)" fill="rgb(255,204,153)" font-family="sans-serif" stroke="none" xml:space="preserve">Sound Effects and Music</text>
    </g>
    <g fill="red" text-rendering="geometricPrecision" shape-rendering="geometricPrecision" transform="matrix(1,0,0,1,-141,150)" stroke="red">
      <rect x="1143.5882" width="180" height="73" y="604.1" clip-path="url(#clipPath3)" stroke="none"/>
    </g>
    <g text-rendering="geometricPrecision" stroke-miterlimit="1.45" shape-rendering="geometricPrecision" transform="matrix(1,0,0,1,-141,150)" stroke-linecap="butt">
      <rect fill="none" x="1143.5882" width="180" height="73" y="604.1" clip-path="url(#clipPath3)"/>
      <text x="1204.7689" xml:space="preserve" y="644.7543" clip-path="url(#clipPath3)" font-family="sans-serif" stroke="none">XP/Levels</text>
    </g>
    <g fill="maroon" text-rendering="geometricPrecision" shape-rendering="geometricPrecision" transform="matrix(1,0,0,1,-141,150)" stroke="maroon">
      <rect x="543.5882" width="180" height="73" y="604.1" clip-path="url(#clipPath3)" stroke="none"/>
    </g>
    <g text-rendering="geometricPrecision" stroke-miterlimit="1.45" shape-rendering="geometricPrecision" transform="matrix(1,0,0,1,-141,150)" stroke-linecap="butt">
      <rect fill="none" x="543.5882" width="180" height="73" y="604.1" clip-path="url(#clipPath3)"/>
      <text x="590.8793" y="644.7543" clip-path="url(#clipPath3)" fill="rgb(255,204,153)" font-family="sans-serif" stroke="none" xml:space="preserve">Game 'Export'</text>
    </g>
    <g fill="maroon" text-rendering="geometricPrecision" shape-rendering="geometricPrecision" transform="matrix(1,0,0,1,-141,150)" stroke="maroon">
      <rect x="698.5882" width="180" height="73" y="707.1" clip-path="url(#clipPath3)" stroke="none"/>
    </g>
    <g text-rendering="geometricPrecision" stroke-miterlimit="1.45" shape-rendering="geometricPrecision" transform="matrix(1,0,0,1,-141,150)" stroke-linecap="butt">
      <rect fill="none" x="698.5882" width="180" height="73" y="707.1" clip-path="url(#clipPath3)"/>
      <text x="728.1283" y="747.7543" clip-path="url(#clipPath3)" fill="rgb(255,204,153)" font-family="sans-serif" stroke="none" xml:space="preserve">Game Configuration</text>
    </g>
    <g fill="maroon" text-rendering="geometricPrecision" shape-rendering="geometricPrecision" transform="matrix(1,0,0,1,-141,150)" stroke="maroon">
      <ellipse rx="37.8" ry="36.5" clip-path="url(#clipPath3)" cx="1033.5882" cy="1127.3079" stroke="none"/>
    </g>
    <g text-rendering="geometricPrecision" stroke-miterlimit="1.45" shape-rendering="geometricPrecision" transform="matrix(1,0,0,1,-141,150)" stroke-linecap="butt">
      <ellipse rx="37.8" fill="none" ry="36.5" clip-path="url(#clipPath3)" cx="1033.5882" cy="1127.3079"/>
      <text x="1007.0072" y="1117.4935" clip-path="url(#clipPath3)" fill="rgb(255,204,153)" font-family="sans-serif" stroke="none" xml:space="preserve">Finalized</text>
      <text x="1007.558" y="1131.4623" clip-path="url(#clipPath3)" fill="rgb(255,204,153)" font-family="sans-serif" stroke="none" xml:space="preserve">Example</text>
      <text x="1015.726" y="1145.431" clip-path="url(#clipPath3)" fill="rgb(255,204,153)" font-family="sans-serif" stroke="none" xml:space="preserve">Game</text>
    </g>
    <g fill="maroon" text-rendering="geometricPrecision" shape-rendering="geometricPrecision" transform="matrix(1,0,0,1,-141,150)" stroke="maroon">
      <ellipse rx="37.8" ry="36.5" clip-path="url(#clipPath3)" cx="1033.5882" cy="1235.4996" stroke="none"/>
    </g>
    <g text-rendering="geometricPrecision" stroke-miterlimit="1.45" shape-rendering="geometricPrecision" transform="matrix(1,0,0,1,-141,150)" stroke-linecap="butt">
      <ellipse rx="37.8" fill="none" ry="36.5" clip-path="url(#clipPath3)" cx="1033.5882" cy="1235.4996"/>
      <text x="1020.4955" y="1225.6852" clip-path="url(#clipPath3)" fill="rgb(255,204,153)" font-family="sans-serif" stroke="none" xml:space="preserve">v0.2</text>
      <text x="1005.1556" y="1239.6539" clip-path="url(#clipPath3)" fill="rgb(255,204,153)" font-family="sans-serif" stroke="none" xml:space="preserve">True MVP</text>
      <text x="1009.8754" y="1253.6227" clip-path="url(#clipPath3)" fill="rgb(255,204,153)" font-family="sans-serif" stroke="none" xml:space="preserve">Release</text>
    </g>
    <g fill="maroon" text-rendering="geometricPrecision" shape-rendering="geometricPrecision" transform="matrix(1,0,0,1,-141,150)" stroke="maroon">
      <rect x="343.5882" width="180" height="73" y="604.1" clip-path="url(#clipPath3)" stroke="none"/>
    </g>
    <g text-rendering="geometricPrecision" stroke-miterlimit="1.45" shape-rendering="geometricPrecision" transform="matrix(1,0,0,1,-141,150)" stroke-linecap="butt">
      <rect fill="none" x="343.5882" width="180" height="73" y="604.1" clip-path="url(#clipPath3)"/>
      <text x="396.1293" y="644.7543" clip-path="url(#clipPath3)" fill="rgb(255,204,153)" font-family="sans-serif" stroke="none" xml:space="preserve">Sprite Editor</text>
      <path fill="none" d="M788.5883 41.5 L788.5883 51.5 L723.5883 51.5 L723.5883 63.4609" clip-path="url(#clipPath3)"/>
      <path d="M723.5883 71.4609 L728.5883 59.4609 L723.5883 62.4609 L718.5883 59.4609 Z" clip-path="url(#clipPath3)" stroke="none"/>
      <path fill="none" d="M633.5883 41.5 L633.5883 63.4707" clip-path="url(#clipPath3)"/>
      <path d="M633.5883 71.4707 L638.5883 59.4707 L633.5883 62.4707 L628.5883 59.4707 Z" clip-path="url(#clipPath3)" stroke="none"/>
      <path fill="none" d="M723.5883 144.5 L723.5883 154.5 L883.5883 154.5 L883.5883 166.4609" clip-path="url(#clipPath3)"/>
      <path d="M883.5883 174.4609 L888.5883 162.4609 L883.5883 165.4609 L878.5883 162.4609 Z" clip-path="url(#clipPath3)" stroke="none"/>
      <path fill="none" d="M633.5883 144.5 L633.5883 154.5 L523.5883 154.5 L523.5883 166.4609" clip-path="url(#clipPath3)"/>
      <path d="M523.5883 174.4609 L528.5883 162.4609 L523.5883 165.4609 L518.5883 162.4609 Z" clip-path="url(#clipPath3)" stroke="none"/>
      <path fill="none" d="M1078.5883 41.5 L1078.5883 154.5 L1003.5883 154.5 L1003.5883 166.4609" clip-path="url(#clipPath3)"/>
      <path d="M1003.5883 174.4609 L1008.5883 162.4609 L1003.5883 165.4609 L998.5883 162.4609 Z" clip-path="url(#clipPath3)" stroke="none"/>
      <path fill="none" d="M878.5883 41.5 L878.5883 51.5 L898.5883 51.5 L898.5883 63.4609" clip-path="url(#clipPath3)"/>
      <path d="M898.5883 71.4609 L903.5883 59.4609 L898.5883 62.4609 L893.5883 59.4609 Z" clip-path="url(#clipPath3)" stroke="none"/>
      <path fill="none" d="M988.5883 41.5 L988.5883 63.4707" clip-path="url(#clipPath3)"/>
      <path d="M988.5883 71.4707 L993.5883 59.4707 L988.5883 62.4707 L983.5883 59.4707 Z" clip-path="url(#clipPath3)" stroke="none"/>
      <path fill="none" d="M943.5883 144.5 L943.5883 166.4707" clip-path="url(#clipPath3)"/>
      <path d="M943.5883 174.4707 L948.5883 162.4707 L943.5883 165.4707 L938.5883 162.4707 Z" clip-path="url(#clipPath3)" stroke="none"/>
      <path fill="none" d="M723.5883 -61.5 L723.5883 -51.5 L833.5883 -51.5 L833.5883 -39.5391" clip-path="url(#clipPath3)"/>
      <path d="M833.5883 -31.5391 L838.5883 -43.5391 L833.5883 -40.5391 L828.5883 -43.5391 Z" clip-path="url(#clipPath3)" stroke="none"/>
      <path fill="none" d="M633.5883 -61.5 L633.5883 -39.5293" clip-path="url(#clipPath3)"/>
      <path d="M633.5883 -31.5293 L638.5883 -43.5293 L633.5883 -40.5293 L628.5883 -43.5293 Z" clip-path="url(#clipPath3)" stroke="none"/>
      <path fill="none" d="M988.5883 247.5 L988.5883 257.5 L1183.5883 257.5 L1183.5883 269.4609" clip-path="url(#clipPath3)"/>
      <path d="M1183.5883 277.4609 L1188.5883 265.4609 L1183.5883 268.4609 L1178.5883 265.4609 Z" clip-path="url(#clipPath3)" stroke="none"/>
      <path fill="none" d="M898.5883 247.5 L898.5883 257.5 L583.5883 257.5 L583.5883 269.4609" clip-path="url(#clipPath3)"/>
      <path d="M583.5883 277.4609 L588.5883 265.4609 L583.5883 268.4609 L578.5883 265.4609 Z" clip-path="url(#clipPath3)" stroke="none"/>
      <path fill="none" d="M478.5883 247.5 L478.5883 360.5 L523.5883 360.5 L523.5883 372.4609" clip-path="url(#clipPath3)"/>
      <path d="M523.5883 380.4609 L528.5883 368.4609 L523.5883 371.4609 L518.5883 368.4609 Z" clip-path="url(#clipPath3)" stroke="none"/>
      <path fill="none" d="M583.5883 350.5 L583.5883 372.4707" clip-path="url(#clipPath3)"/>
      <path d="M583.5883 380.4707 L588.5883 368.4707 L583.5883 371.4707 L578.5883 368.4707 Z" clip-path="url(#clipPath3)" stroke="none"/>
      <path fill="none" d="M433.5883 144.5 L433.5883 166.4707" clip-path="url(#clipPath3)"/>
      <path d="M433.5883 174.4707 L438.5883 162.4707 L433.5883 165.4707 L428.5883 162.4707 Z" clip-path="url(#clipPath3)" stroke="none"/>
      <path fill="none" d="M433.5883 41.5 L433.5883 63.4707" clip-path="url(#clipPath3)"/>
      <path d="M433.5883 71.4707 L438.5883 59.4707 L433.5883 62.4707 L428.5883 59.4707 Z" clip-path="url(#clipPath3)" stroke="none"/>
      <path fill="none" d="M983.5883 453.5 L983.5883 475.4707" clip-path="url(#clipPath3)"/>
      <path d="M983.5883 483.4707 L988.5883 471.4707 L983.5883 474.4707 L978.5883 471.4707 Z" clip-path="url(#clipPath3)" stroke="none"/>
      <path fill="none" d="M583.5883 453.5 L583.5883 463.5 L958.3882 463.5 L958.3882 475.5" clip-path="url(#clipPath3)"/>
      <path d="M958.3882 483.5 L963.3882 471.5 L958.3882 474.5 L953.3882 471.5 Z" clip-path="url(#clipPath3)" stroke="none"/>
      <path fill="none" d="M1183.5883 350.5 L1183.5883 463.5 L1008.7883 463.5 L1008.7883 475.5" clip-path="url(#clipPath3)"/>
      <path d="M1008.7883 483.5 L1013.7883 471.5 L1008.7883 474.5 L1003.7883 471.5 Z" clip-path="url(#clipPath3)" stroke="none"/>
      <path fill="none" d="M783.5883 350.5 L783.5883 360.5 L643.5883 360.5 L643.5883 372.4609" clip-path="url(#clipPath3)"/>
      <path d="M643.5883 380.4609 L648.5883 368.4609 L643.5883 371.4609 L638.5883 368.4609 Z" clip-path="url(#clipPath3)" stroke="none"/>
      <path fill="none" d="M983.5883 350.5 L983.5883 372.4707" clip-path="url(#clipPath3)"/>
      <path d="M983.5883 380.4707 L988.5883 368.4707 L983.5883 371.4707 L978.5883 368.4707 Z" clip-path="url(#clipPath3)" stroke="none"/>
      <path fill="none" d="M1015.0883 559.1 L1015.0883 569.1 L1433.5883 569.1 L1433.5883 596.0658" clip-path="url(#clipPath3)"/>
      <path d="M1433.5883 604.0658 L1438.5883 592.0658 L1433.5883 595.0658 L1428.5883 592.0658 Z" clip-path="url(#clipPath3)" stroke="none"/>
      <path fill="none" d="M1433.5883 677.1 L1433.5883 763.6 L1063.8282 763.6 L1063.8282 807.1" clip-path="url(#clipPath3)"/>
      <path d="M1063.8282 815.1 L1068.8282 803.1 L1063.8282 806.1 L1058.8282 803.1 Z" clip-path="url(#clipPath3)" stroke="none"/>
      <path fill="none" d="M977.2883 559.1 L977.2883 589.1 L833.5883 589.1 L833.5883 596.0707" clip-path="url(#clipPath3)"/>
      <path d="M833.5883 604.0707 L838.5883 592.0707 L833.5883 595.0707 L828.5883 592.0707 Z" clip-path="url(#clipPath3)" stroke="none"/>
      <path fill="none" d="M1033.5883 1433.4054 L1033.5883 1455.4054" clip-path="url(#clipPath3)"/>
      <path d="M1033.5883 1463.4054 L1038.5883 1451.4054 L1033.5883 1454.4054 L1028.5883 1451.4054 Z" clip-path="url(#clipPath3)" stroke="none"/>
      <path fill="none" d="M1033.5883 888.1 L1033.5883 922.7" clip-path="url(#clipPath3)"/>
      <path d="M1033.5883 930.7 L1038.5883 918.7 L1033.5883 921.7 L1028.5883 918.7 Z" clip-path="url(#clipPath3)" stroke="none"/>
      <path fill="none" d="M989.8882 559.1 L989.8882 589.1 L1033.5883 589.1 L1033.5883 596.0707" clip-path="url(#clipPath3)"/>
      <path d="M1033.5883 604.0707 L1038.5883 592.0707 L1033.5883 595.0707 L1028.5883 592.0707 Z" clip-path="url(#clipPath3)" stroke="none"/>
      <path fill="none" d="M1033.5883 677.1 L1033.5883 807.1" clip-path="url(#clipPath3)"/>
      <path d="M1033.5883 815.1 L1038.5883 803.1 L1033.5883 806.1 L1028.5883 803.1 Z" clip-path="url(#clipPath3)" stroke="none"/>
      <path fill="none" d="M1002.4882 559.1 L1002.4882 579.1 L1233.5883 579.1 L1233.5883 596.0511" clip-path="url(#clipPath3)"/>
      <path d="M1233.5883 604.0511 L1238.5883 592.0511 L1233.5883 595.0511 L1228.5883 592.0511 Z" clip-path="url(#clipPath3)" stroke="none"/>
      <path fill="none" d="M1233.5883 677.1 L1233.5883 753.6 L1048.7083 753.6 L1048.7083 807.1" clip-path="url(#clipPath3)"/>
      <path d="M1048.7083 815.1 L1053.7083 803.1 L1048.7083 806.1 L1043.7083 803.1 Z" clip-path="url(#clipPath3)" stroke="none"/>
      <path fill="none" d="M964.6882 559.1 L964.6882 579.1 L633.5883 579.1 L633.5883 596.0511" clip-path="url(#clipPath3)"/>
      <path d="M633.5883 604.0511 L638.5883 592.0511 L633.5883 595.0511 L628.5883 592.0511 Z" clip-path="url(#clipPath3)" stroke="none"/>
      <path fill="none" d="M633.5883 677.1 L633.5883 687.1 L743.5883 687.1 L743.5883 699.0609" clip-path="url(#clipPath3)"/>
      <path d="M743.5883 707.0609 L748.5883 695.0609 L743.5883 698.0609 L738.5883 695.0609 Z" clip-path="url(#clipPath3)" stroke="none"/>
      <path fill="none" d="M833.5883 677.1 L833.5883 699.0707" clip-path="url(#clipPath3)"/>
      <path d="M833.5883 707.0707 L838.5883 695.0707 L833.5883 698.0707 L828.5883 695.0707 Z" clip-path="url(#clipPath3)" stroke="none"/>
      <path fill="none" d="M788.5883 780.1 L788.5883 790.1 L1018.4683 790.1 L1018.4683 807.1" clip-path="url(#clipPath3)"/>
      <path d="M1018.4683 815.1 L1023.4683 803.1 L1018.4683 806.1 L1013.4683 803.1 Z" clip-path="url(#clipPath3)" stroke="none"/>
    </g>
    <g stroke-linecap="round" transform="matrix(1,0,0,1,-141,150)" stroke-dashoffset="2" text-rendering="geometricPrecision" shape-rendering="geometricPrecision" stroke-dasharray="0,20" stroke-width="5" stroke-miterlimit="1.45">
      <path fill="none" d="M1033.5883 1003.7 L1033.5883 1078.808" clip-path="url(#clipPath3)"/>
      <path d="M1033.5883 1090.808 L1041.0883 1072.808 L1033.5883 1077.308 L1026.0883 1072.808 Z" clip-path="url(#clipPath3)" stroke="none"/>
    </g>
    <g text-rendering="geometricPrecision" stroke-miterlimit="1.45" shape-rendering="geometricPrecision" transform="matrix(1,0,0,1,-141,150)" stroke-linecap="butt">
      <path fill="none" d="M1033.5883 1163.808 L1033.5883 1190.9996" clip-path="url(#clipPath3)"/>
      <path d="M1033.5883 1198.9996 L1038.5883 1186.9996 L1033.5883 1189.9996 L1028.5883 1186.9996 Z" clip-path="url(#clipPath3)" stroke="none"/>
    </g>
    <g stroke-linecap="round" transform="matrix(1,0,0,1,-141,150)" stroke-dashoffset="2" text-rendering="geometricPrecision" shape-rendering="geometricPrecision" stroke-dasharray="0,20" stroke-width="5" stroke-miterlimit="1.45">
      <path fill="none" d="M1033.5883 1271.9996 L1033.5883 1286.9996 L1033.5883 1286.9996 L1033.5883 1348.3696" clip-path="url(#clipPath3)"/>
      <path d="M1033.5883 1360.3696 L1041.0883 1342.3696 L1033.5883 1346.8696 L1026.0883 1342.3696 Z" clip-path="url(#clipPath3)" stroke="none"/>
    </g>
    <g text-rendering="geometricPrecision" stroke-miterlimit="1.45" shape-rendering="geometricPrecision" transform="matrix(1,0,0,1,-141,150)" stroke-linecap="butt">
      <path fill="none" d="M952.0883 559.1 L952.0883 569.1 L433.5883 569.1 L433.5883 596.0658" clip-path="url(#clipPath3)"/>
      <path d="M433.5883 604.0658 L438.5883 592.0658 L433.5883 595.0658 L428.5883 592.0658 Z" clip-path="url(#clipPath3)" stroke="none"/>
      <path fill="none" d="M433.5883 677.1 L433.5883 800.1 L1003.3483 800.1 L1003.3483 807.1" clip-path="url(#clipPath3)"/>
      <path d="M1003.3483 815.1 L1008.3483 803.1 L1003.3483 806.1 L998.3483 803.1 Z" clip-path="url(#clipPath3)" stroke="none"/>
    </g>
  </g>
</svg>
