<?xml version="1.0" encoding="UTF-8"?><svg xmlns="http://www.w3.org/2000/svg" xmlns:xlink="http://www.w3.org/1999/xlink" fill-opacity="1" color-rendering="auto" color-interpolation="auto" text-rendering="auto" stroke="black" stroke-linecap="square" width="1829" stroke-miterlimit="10" shape-rendering="auto" stroke-opacity="1" fill="black" stroke-dasharray="none" font-weight="normal" stroke-width="1" height="1325" font-family="'Dialog'" font-style="normal" stroke-linejoin="miter" font-size="12px" stroke-dashoffset="0" image-rendering="auto">
  <!--Generated by ySVG 2.5-->
  <defs id="genericDefs"/>
  <g>
    <defs id="defs1">
      <clipPath clipPathUnits="userSpaceOnUse" id="clipPath1">
        <path d="M0 0 L1829 0 L1829 1325 L0 1325 L0 0 Z"/>
      </clipPath>
      <clipPath clipPathUnits="userSpaceOnUse" id="clipPath2">
        <path d="M137 -162 L1966 -162 L1966 1163 L137 1163 L137 -162 Z"/>
      </clipPath>
      <clipPath clipPathUnits="userSpaceOnUse" id="clipPath3">
        <path d="M141 -158 L1970 -158 L1970 1167 L141 1167 L141 -158 Z"/>
      </clipPath>
    </defs>
    <g fill="rgb(210,210,210)" text-rendering="geometricPrecision" shape-rendering="geometricPrecision" transform="matrix(1,0,0,1,-141,158) translate(4,4)" stroke="rgb(210,210,210)">
      <rect x="156.8187" width="147.3196" height="216" y="-52.6543" clip-path="url(#clipPath2)" stroke="none"/>
    </g>
    <g fill="rgb(242,240,216)" text-rendering="geometricPrecision" shape-rendering="geometricPrecision" transform="matrix(1,0,0,1,-141,158)" stroke="rgb(242,240,216)">
      <rect x="156.8187" width="147.3196" height="216" y="-52.6543" clip-path="url(#clipPath3)" stroke="none"/>
      <rect x="156.8187" y="-52.6543" clip-path="url(#clipPath3)" fill="rgb(183,182,158)" width="147.3196" height="21.4609" stroke="none"/>
    </g>
    <g font-size="15px" stroke-linecap="butt" transform="matrix(1,0,0,1,-141,158)" text-rendering="geometricPrecision" font-family="sans-serif" shape-rendering="geometricPrecision" stroke-miterlimit="1.45">
      <text x="222.4581" xml:space="preserve" y="-36.7309" clip-path="url(#clipPath3)" stroke="none">Shape Key</text>
      <rect fill="none" x="156.8187" width="147.3196" height="216" y="-52.6543" clip-path="url(#clipPath3)"/>
    </g>
    <g fill="rgb(255,204,0)" text-rendering="geometricPrecision" shape-rendering="geometricPrecision" transform="matrix(1,0,0,1,-141,158)" stroke="rgb(255,204,0)">
      <rect x="171.8187" width="117.3196" height="35.3086" y="-12.6543" clip-path="url(#clipPath3)" stroke="none"/>
    </g>
    <g text-rendering="geometricPrecision" stroke-miterlimit="1.45" shape-rendering="geometricPrecision" transform="matrix(1,0,0,1,-141,158)" stroke-linecap="butt">
      <rect fill="none" x="171.8187" width="117.3196" height="35.3086" y="-12.6543" clip-path="url(#clipPath3)"/>
      <text x="190.998" xml:space="preserve" y="9.1543" clip-path="url(#clipPath3)" font-family="sans-serif" stroke="none">Halberd Task</text>
    </g>
    <g fill="rgb(255,204,0)" text-rendering="geometricPrecision" shape-rendering="geometricPrecision" transform="matrix(1,0,0,1,-141,158)" stroke="rgb(255,204,0)">
      <rect x="171.8187" y="35.6668" clip-path="url(#clipPath3)" width="117.3196" rx="4" ry="4" height="35.3086" stroke="none"/>
    </g>
    <g stroke-linecap="butt" transform="matrix(1,0,0,1,-141,158)" fill="gray" text-rendering="geometricPrecision" shape-rendering="geometricPrecision" stroke="gray" stroke-miterlimit="1.45">
      <rect x="171.8187" y="35.6668" clip-path="url(#clipPath3)" fill="none" width="117.3196" rx="4" ry="4" height="35.3086"/>
      <text x="189.6298" y="57.4754" clip-path="url(#clipPath3)" fill="black" font-family="sans-serif" stroke="none" xml:space="preserve">External Task</text>
    </g>
    <g fill="rgb(255,204,0)" text-rendering="geometricPrecision" shape-rendering="geometricPrecision" transform="matrix(1,0,0,1,-141,158)" stroke="rgb(255,204,0)">
      <circle r="29.864" clip-path="url(#clipPath3)" cx="230.4785" cy="113.852" stroke="none"/>
    </g>
    <g text-rendering="geometricPrecision" stroke-miterlimit="1.45" shape-rendering="geometricPrecision" transform="matrix(1,0,0,1,-141,158)" stroke-linecap="butt">
      <circle fill="none" r="29.864" clip-path="url(#clipPath3)" cx="230.4785" cy="113.852"/>
      <text x="206.7656" xml:space="preserve" y="118.0063" clip-path="url(#clipPath3)" font-family="sans-serif" stroke="none">Release</text>
    </g>
    <g fill="rgb(210,210,210)" text-rendering="geometricPrecision" shape-rendering="geometricPrecision" transform="matrix(1,0,0,1,-141,158) translate(4,4)" stroke="rgb(210,210,210)">
      <rect x="156.8187" width="147.3196" height="279.9426" y="188.2305" clip-path="url(#clipPath2)" stroke="none"/>
    </g>
    <g fill="rgb(242,240,216)" text-rendering="geometricPrecision" shape-rendering="geometricPrecision" transform="matrix(1,0,0,1,-141,158)" stroke="rgb(242,240,216)">
      <rect x="156.8187" width="147.3196" height="279.9426" y="188.2305" clip-path="url(#clipPath3)" stroke="none"/>
      <rect x="156.8187" y="188.2305" clip-path="url(#clipPath3)" fill="rgb(183,182,158)" width="147.3196" height="21.4609" stroke="none"/>
    </g>
    <g font-size="15px" stroke-linecap="butt" transform="matrix(1,0,0,1,-141,158)" text-rendering="geometricPrecision" font-family="sans-serif" shape-rendering="geometricPrecision" stroke-miterlimit="1.45">
      <text x="230.2657" xml:space="preserve" y="204.1538" clip-path="url(#clipPath3)" stroke="none">Color Key</text>
      <rect fill="none" x="156.8187" width="147.3196" height="279.9426" y="188.2305" clip-path="url(#clipPath3)"/>
    </g>
    <g fill="maroon" text-rendering="geometricPrecision" shape-rendering="geometricPrecision" transform="matrix(1,0,0,1,-141,158)" stroke="maroon">
      <rect x="171.8187" width="117.3196" height="35.3086" y="224.6914" clip-path="url(#clipPath3)" stroke="none"/>
    </g>
    <g text-rendering="geometricPrecision" stroke-miterlimit="1.45" shape-rendering="geometricPrecision" transform="matrix(1,0,0,1,-141,158)" stroke-linecap="butt">
      <rect fill="none" x="171.8187" width="117.3196" height="35.3086" y="224.6914" clip-path="url(#clipPath3)"/>
      <text x="193.4589" y="246.5" clip-path="url(#clipPath3)" fill="rgb(255,204,153)" font-family="sans-serif" stroke="none" xml:space="preserve">Future Work</text>
    </g>
    <g fill="red" text-rendering="geometricPrecision" shape-rendering="geometricPrecision" transform="matrix(1,0,0,1,-141,158)" stroke="red">
      <rect x="171.8187" width="117.3196" height="35.3086" y="273.0863" clip-path="url(#clipPath3)" stroke="none"/>
    </g>
    <g text-rendering="geometricPrecision" stroke-miterlimit="1.45" shape-rendering="geometricPrecision" transform="matrix(1,0,0,1,-141,158)" stroke-linecap="butt">
      <rect fill="none" x="171.8187" width="117.3196" height="35.3086" y="273.0863" clip-path="url(#clipPath3)"/>
      <text x="182.7334" xml:space="preserve" y="294.8949" clip-path="url(#clipPath3)" font-family="sans-serif" stroke="none">Upcoming Work</text>
    </g>
    <g fill="rgb(255,102,0)" text-rendering="geometricPrecision" shape-rendering="geometricPrecision" transform="matrix(1,0,0,1,-141,158)" stroke="rgb(255,102,0)">
      <rect x="171.8187" width="117.3196" height="35.3086" y="321.3457" clip-path="url(#clipPath3)" stroke="none"/>
    </g>
    <g text-rendering="geometricPrecision" stroke-miterlimit="1.45" shape-rendering="geometricPrecision" transform="matrix(1,0,0,1,-141,158)" stroke-linecap="butt">
      <rect fill="none" x="171.8187" width="117.3196" height="35.3086" y="321.3457" clip-path="url(#clipPath3)"/>
      <text x="198.9433" xml:space="preserve" y="343.1543" clip-path="url(#clipPath3)" font-family="sans-serif" stroke="none">Next Work</text>
    </g>
    <g fill="rgb(255,204,0)" text-rendering="geometricPrecision" shape-rendering="geometricPrecision" transform="matrix(1,0,0,1,-141,158)" stroke="rgb(255,204,0)">
      <rect x="171.8187" width="117.3196" height="35.3086" y="369.6051" clip-path="url(#clipPath3)" stroke="none"/>
    </g>
    <g text-rendering="geometricPrecision" stroke-miterlimit="1.45" shape-rendering="geometricPrecision" transform="matrix(1,0,0,1,-141,158)" stroke-linecap="butt">
      <rect fill="none" x="171.8187" width="117.3196" height="35.3086" y="369.6051" clip-path="url(#clipPath3)"/>
      <text x="197.0244" xml:space="preserve" y="391.4137" clip-path="url(#clipPath3)" font-family="sans-serif" stroke="none">In Progress</text>
    </g>
    <g fill="rgb(153,204,0)" text-rendering="geometricPrecision" shape-rendering="geometricPrecision" transform="matrix(1,0,0,1,-141,158)" stroke="rgb(153,204,0)">
      <rect x="171.8187" width="117.3196" height="35.3086" y="417.8645" clip-path="url(#clipPath3)" stroke="none"/>
    </g>
    <g text-rendering="geometricPrecision" stroke-miterlimit="1.45" shape-rendering="geometricPrecision" transform="matrix(1,0,0,1,-141,158)" stroke-linecap="butt">
      <rect fill="none" x="171.8187" width="117.3196" height="35.3086" y="417.8645" clip-path="url(#clipPath3)"/>
      <text x="214.6933" xml:space="preserve" y="439.6731" clip-path="url(#clipPath3)" font-family="sans-serif" stroke="none">Done</text>
    </g>
    <g fill="rgb(153,204,0)" text-rendering="geometricPrecision" shape-rendering="geometricPrecision" transform="matrix(1,0,0,1,-141,158)" stroke="rgb(153,204,0)">
      <circle r="37.8" clip-path="url(#clipPath3)" cx="1043.5886" cy="-104.3" stroke="none"/>
    </g>
    <g text-rendering="geometricPrecision" stroke-miterlimit="1.45" shape-rendering="geometricPrecision" transform="matrix(1,0,0,1,-141,158)" stroke-linecap="butt">
      <circle fill="none" r="37.8" clip-path="url(#clipPath3)" cx="1043.5886" cy="-104.3"/>
      <text x="1024.7712" xml:space="preserve" y="-107.1301" clip-path="url(#clipPath3)" font-family="sans-serif" stroke="none">v0.0.1</text>
      <text x="1019.9958" xml:space="preserve" y="-93.1613" clip-path="url(#clipPath3)" font-family="sans-serif" stroke="none">Preview</text>
    </g>
    <g fill="red" text-rendering="geometricPrecision" shape-rendering="geometricPrecision" transform="matrix(1,0,0,1,-141,158)" stroke="red">
      <ellipse rx="37.8" ry="36.5" clip-path="url(#clipPath3)" cx="1124.4132" cy="251" stroke="none"/>
    </g>
    <g text-rendering="geometricPrecision" stroke-miterlimit="1.45" shape-rendering="geometricPrecision" transform="matrix(1,0,0,1,-141,158)" stroke-linecap="butt">
      <ellipse rx="37.8" fill="none" ry="36.5" clip-path="url(#clipPath3)" cx="1124.4132" cy="251"/>
      <text x="1098.3829" xml:space="preserve" y="248.1699" clip-path="url(#clipPath3)" font-family="sans-serif" stroke="none">Example</text>
      <text x="1106.5509" xml:space="preserve" y="262.1387" clip-path="url(#clipPath3)" font-family="sans-serif" stroke="none">Game</text>
    </g>
    <g fill="rgb(255,204,0)" text-rendering="geometricPrecision" shape-rendering="geometricPrecision" transform="matrix(1,0,0,1,-141,158)" stroke="rgb(255,204,0)">
      <rect x="953.5886" width="180" height="73" y="-31.5" clip-path="url(#clipPath3)" stroke="none"/>
    </g>
    <g text-rendering="geometricPrecision" stroke-miterlimit="1.45" shape-rendering="geometricPrecision" transform="matrix(1,0,0,1,-141,158)" stroke-linecap="butt">
      <rect fill="none" x="953.5886" width="180" height="73" y="-31.5" clip-path="url(#clipPath3)"/>
      <text x="1004.3191" xml:space="preserve" y="9.1543" clip-path="url(#clipPath3)" font-family="sans-serif" stroke="none">Map Triggers</text>
    </g>
    <g fill="rgb(153,204,0)" text-rendering="geometricPrecision" shape-rendering="geometricPrecision" transform="matrix(1,0,0,1,-141,158)" stroke="rgb(153,204,0)">
      <rect x="639.1382" width="180" height="73" y="86.5" clip-path="url(#clipPath3)" stroke="none"/>
    </g>
    <g text-rendering="geometricPrecision" stroke-miterlimit="1.45" shape-rendering="geometricPrecision" transform="matrix(1,0,0,1,-141,158)" stroke-linecap="butt">
      <rect fill="none" x="639.1382" width="180" height="73" y="86.5" clip-path="url(#clipPath3)"/>
      <text x="681.5338" xml:space="preserve" y="127.1543" clip-path="url(#clipPath3)" font-family="sans-serif" stroke="none">Win/Loss States</text>
    </g>
    <g fill="maroon" text-rendering="geometricPrecision" shape-rendering="geometricPrecision" transform="matrix(1,0,0,1,-141,158)" stroke="maroon">
      <ellipse rx="37.8" ry="36.5" clip-path="url(#clipPath3)" cx="1536.9067" cy="1114.5" stroke="none"/>
    </g>
    <g text-rendering="geometricPrecision" stroke-miterlimit="1.45" shape-rendering="geometricPrecision" transform="matrix(1,0,0,1,-141,158)" stroke-linecap="butt">
      <ellipse rx="37.8" fill="none" ry="36.5" clip-path="url(#clipPath3)" cx="1536.9067" cy="1114.5"/>
      <text x="1498.1937" y="1118.6543" clip-path="url(#clipPath3)" fill="rgb(255,204,153)" font-family="sans-serif" stroke="none" xml:space="preserve">v1.0 Release</text>
    </g>
    <g fill="maroon" text-rendering="geometricPrecision" shape-rendering="geometricPrecision" transform="matrix(1,0,0,1,-141,158)" stroke="maroon">
      <rect x="1446.9067" width="180" height="73" y="975" clip-path="url(#clipPath3)" stroke="none"/>
    </g>
    <g text-rendering="geometricPrecision" stroke-miterlimit="1.45" shape-rendering="geometricPrecision" transform="matrix(1,0,0,1,-141,158)" stroke-linecap="butt">
      <rect fill="none" x="1446.9067" width="180" height="73" y="975" clip-path="url(#clipPath3)"/>
      <text x="1450.1205" y="1015.6543" clip-path="url(#clipPath3)" fill="rgb(255,204,153)" font-family="sans-serif" stroke="none" xml:space="preserve">Full Turn-Based RPG Support</text>
    </g>
    <g fill="maroon" text-rendering="geometricPrecision" shape-rendering="geometricPrecision" transform="matrix(1,0,0,1,-141,158)" stroke="maroon">
      <ellipse rx="37.8" ry="36.5" clip-path="url(#clipPath3)" cx="827.8382" cy="329" stroke="none"/>
    </g>
    <g text-rendering="geometricPrecision" stroke-miterlimit="1.45" shape-rendering="geometricPrecision" transform="matrix(1,0,0,1,-141,158)" stroke-linecap="butt">
      <ellipse rx="37.8" fill="none" ry="36.5" clip-path="url(#clipPath3)" cx="827.8382" cy="329"/>
      <text x="791.1527" y="326.1699" clip-path="url(#clipPath3)" fill="rgb(255,204,153)" font-family="sans-serif" stroke="none" xml:space="preserve">v0.1 (AMVP)</text>
      <text x="804.1254" y="340.1387" clip-path="url(#clipPath3)" fill="rgb(255,204,153)" font-family="sans-serif" stroke="none" xml:space="preserve">Release</text>
    </g>
    <g fill="rgb(153,204,0)" text-rendering="geometricPrecision" shape-rendering="geometricPrecision" transform="matrix(1,0,0,1,-141,158)" stroke="rgb(153,204,0)">
      <rect x="1353.5886" width="180" height="73" y="-31.5" clip-path="url(#clipPath3)" stroke="none"/>
    </g>
    <g text-rendering="geometricPrecision" stroke-miterlimit="1.45" shape-rendering="geometricPrecision" transform="matrix(1,0,0,1,-141,158)" stroke-linecap="butt">
      <rect fill="none" x="1353.5886" width="180" height="73" y="-31.5" clip-path="url(#clipPath3)"/>
      <text x="1370.1296" xml:space="preserve" y="9.1543" clip-path="url(#clipPath3)" font-family="sans-serif" stroke="none">Sound Effects and Music</text>
    </g>
    <g fill="rgb(153,204,0)" text-rendering="geometricPrecision" shape-rendering="geometricPrecision" transform="matrix(1,0,0,1,-141,158)" stroke="rgb(153,204,0)">
      <rect x="334.1382" width="180" height="73" y="-31.5" clip-path="url(#clipPath3)" stroke="none"/>
    </g>
    <g text-rendering="geometricPrecision" stroke-miterlimit="1.45" shape-rendering="geometricPrecision" transform="matrix(1,0,0,1,-141,158)" stroke-linecap="butt">
      <rect fill="none" x="334.1382" width="180" height="73" y="-31.5" clip-path="url(#clipPath3)"/>
      <text x="395.3189" xml:space="preserve" y="9.1543" clip-path="url(#clipPath3)" font-family="sans-serif" stroke="none">XP/Levels</text>
    </g>
    <g fill="red" text-rendering="geometricPrecision" shape-rendering="geometricPrecision" transform="matrix(1,0,0,1,-141,158)" stroke="red">
      <rect x="439.1382" width="180" height="73" y="86.5" clip-path="url(#clipPath3)" stroke="none"/>
    </g>
    <g text-rendering="geometricPrecision" stroke-miterlimit="1.45" shape-rendering="geometricPrecision" transform="matrix(1,0,0,1,-141,158)" stroke-linecap="butt">
      <rect fill="none" x="439.1382" width="180" height="73" y="86.5" clip-path="url(#clipPath3)"/>
      <text x="486.4293" xml:space="preserve" y="127.1543" clip-path="url(#clipPath3)" font-family="sans-serif" stroke="none">Game 'Export'</text>
    </g>
    <g fill="rgb(153,204,0)" text-rendering="geometricPrecision" shape-rendering="geometricPrecision" transform="matrix(1,0,0,1,-141,158)" stroke="rgb(153,204,0)">
      <rect x="594.1382" width="180" height="73" y="-31.5" clip-path="url(#clipPath3)" stroke="none"/>
    </g>
    <g text-rendering="geometricPrecision" stroke-miterlimit="1.45" shape-rendering="geometricPrecision" transform="matrix(1,0,0,1,-141,158)" stroke-linecap="butt">
      <rect fill="none" x="594.1382" width="180" height="73" y="-31.5" clip-path="url(#clipPath3)"/>
      <text x="623.6783" xml:space="preserve" y="9.1543" clip-path="url(#clipPath3)" font-family="sans-serif" stroke="none">Game Configuration</text>
    </g>
    <g fill="maroon" text-rendering="geometricPrecision" shape-rendering="geometricPrecision" transform="matrix(1,0,0,1,-141,158)" stroke="maroon">
      <ellipse rx="37.8" ry="36.5" clip-path="url(#clipPath3)" cx="904.9567" cy="769.5188" stroke="none"/>
    </g>
    <g text-rendering="geometricPrecision" stroke-miterlimit="1.45" shape-rendering="geometricPrecision" transform="matrix(1,0,0,1,-141,158)" stroke-linecap="butt">
      <ellipse rx="37.8" fill="none" ry="36.5" clip-path="url(#clipPath3)" cx="904.9567" cy="769.5188"/>
      <text x="878.3756" y="759.7043" clip-path="url(#clipPath3)" fill="rgb(255,204,153)" font-family="sans-serif" stroke="none" xml:space="preserve">Finalized</text>
      <text x="878.9264" y="773.6731" clip-path="url(#clipPath3)" fill="rgb(255,204,153)" font-family="sans-serif" stroke="none" xml:space="preserve">Example</text>
      <text x="887.0944" y="787.6418" clip-path="url(#clipPath3)" fill="rgb(255,204,153)" font-family="sans-serif" stroke="none" xml:space="preserve">Game</text>
    </g>
    <g fill="maroon" text-rendering="geometricPrecision" shape-rendering="geometricPrecision" transform="matrix(1,0,0,1,-141,158)" stroke="maroon">
      <ellipse rx="37.8" ry="36.5" clip-path="url(#clipPath3)" cx="1536.9067" cy="872.5188" stroke="none"/>
    </g>
    <g text-rendering="geometricPrecision" stroke-miterlimit="1.45" shape-rendering="geometricPrecision" transform="matrix(1,0,0,1,-141,158)" stroke-linecap="butt">
      <ellipse rx="37.8" fill="none" ry="36.5" clip-path="url(#clipPath3)" cx="1536.9067" cy="872.5188"/>
      <text x="1523.8138" y="862.7043" clip-path="url(#clipPath3)" fill="rgb(255,204,153)" font-family="sans-serif" stroke="none" xml:space="preserve">v0.2</text>
      <text x="1508.474" y="876.6731" clip-path="url(#clipPath3)" fill="rgb(255,204,153)" font-family="sans-serif" stroke="none" xml:space="preserve">True MVP</text>
      <text x="1513.1937" y="890.6418" clip-path="url(#clipPath3)" fill="rgb(255,204,153)" font-family="sans-serif" stroke="none" xml:space="preserve">Release</text>
    </g>
    <g fill="rgb(153,204,0)" text-rendering="geometricPrecision" shape-rendering="geometricPrecision" transform="matrix(1,0,0,1,-141,158)" stroke="rgb(153,204,0)">
      <rect x="1153.5886" width="180" height="73" y="-31.5" clip-path="url(#clipPath3)" stroke="none"/>
    </g>
    <g text-rendering="geometricPrecision" stroke-miterlimit="1.45" shape-rendering="geometricPrecision" transform="matrix(1,0,0,1,-141,158)" stroke-linecap="butt">
      <rect fill="none" x="1153.5886" width="180" height="73" y="-31.5" clip-path="url(#clipPath3)"/>
      <text x="1206.1296" xml:space="preserve" y="9.1543" clip-path="url(#clipPath3)" font-family="sans-serif" stroke="none">Sprite Editor</text>
    </g>
    <g fill="maroon" text-rendering="geometricPrecision" shape-rendering="geometricPrecision" transform="matrix(1,0,0,1,-141,158)" stroke="maroon">
      <rect x="1669.4067" width="180" height="73" y="625.0188" clip-path="url(#clipPath3)" stroke="none"/>
    </g>
    <g text-rendering="geometricPrecision" stroke-miterlimit="1.45" shape-rendering="geometricPrecision" transform="matrix(1,0,0,1,-141,158)" stroke-linecap="butt">
      <rect fill="none" x="1669.4067" width="180" height="73" y="625.0188" clip-path="url(#clipPath3)"/>
      <text x="1700.8304" y="665.6731" clip-path="url(#clipPath3)" fill="rgb(255,204,153)" font-family="sans-serif" stroke="none" xml:space="preserve">Settable Resolution</text>
    </g>
    <g fill="maroon" text-rendering="geometricPrecision" shape-rendering="geometricPrecision" transform="matrix(1,0,0,1,-141,158)" stroke="maroon">
      <rect x="1469.4067" width="180" height="73" y="625.0188" clip-path="url(#clipPath3)" stroke="none"/>
    </g>
    <g text-rendering="geometricPrecision" stroke-miterlimit="1.45" shape-rendering="geometricPrecision" transform="matrix(1,0,0,1,-141,158)" stroke-linecap="butt">
      <rect fill="none" x="1469.4067" width="180" height="73" y="625.0188" clip-path="url(#clipPath3)"/>
      <text x="1522.6449" y="665.6731" clip-path="url(#clipPath3)" fill="rgb(255,204,153)" font-family="sans-serif" stroke="none" xml:space="preserve">Test Profiles</text>
    </g>
    <g fill="maroon" text-rendering="geometricPrecision" shape-rendering="geometricPrecision" transform="matrix(1,0,0,1,-141,158)" stroke="maroon">
      <rect x="1269.4067" width="180" height="73" y="625.0188" clip-path="url(#clipPath3)" stroke="none"/>
    </g>
    <g text-rendering="geometricPrecision" stroke-miterlimit="1.45" shape-rendering="geometricPrecision" transform="matrix(1,0,0,1,-141,158)" stroke-linecap="butt">
      <rect fill="none" x="1269.4067" width="180" height="73" y="625.0188" clip-path="url(#clipPath3)"/>
      <text x="1318.7953" y="665.6731" clip-path="url(#clipPath3)" fill="rgb(255,204,153)" font-family="sans-serif" stroke="none" xml:space="preserve">Landing Page</text>
    </g>
    <g fill="maroon" text-rendering="geometricPrecision" shape-rendering="geometricPrecision" transform="matrix(1,0,0,1,-141,158)" stroke="maroon">
      <rect x="424.4067" width="180" height="73" y="522.0188" clip-path="url(#clipPath3)" stroke="none"/>
    </g>
    <g text-rendering="geometricPrecision" stroke-miterlimit="1.45" shape-rendering="geometricPrecision" transform="matrix(1,0,0,1,-141,158)" stroke-linecap="butt">
      <rect fill="none" x="424.4067" width="180" height="73" y="522.0188" clip-path="url(#clipPath3)"/>
      <text x="498.9848" y="562.6731" clip-path="url(#clipPath3)" fill="rgb(255,204,153)" font-family="sans-serif" stroke="none" xml:space="preserve">NPCs</text>
    </g>
    <g fill="maroon" text-rendering="geometricPrecision" shape-rendering="geometricPrecision" transform="matrix(1,0,0,1,-141,158)" stroke="maroon">
      <rect x="424.4067" width="180" height="73" y="625.0188" clip-path="url(#clipPath3)" stroke="none"/>
    </g>
    <g text-rendering="geometricPrecision" stroke-miterlimit="1.45" shape-rendering="geometricPrecision" transform="matrix(1,0,0,1,-141,158)" stroke-linecap="butt">
      <rect fill="none" x="424.4067" width="180" height="73" y="625.0188" clip-path="url(#clipPath3)"/>
      <text x="470.0102" y="665.6731" clip-path="url(#clipPath3)" fill="rgb(255,204,153)" font-family="sans-serif" stroke="none" xml:space="preserve">Basic Dialogue</text>
    </g>
    <g fill="maroon" text-rendering="geometricPrecision" shape-rendering="geometricPrecision" transform="matrix(1,0,0,1,-141,158)" stroke="maroon">
      <rect x="1001.9067" width="180" height="73" y="414.0188" clip-path="url(#clipPath3)" stroke="none"/>
    </g>
    <g text-rendering="geometricPrecision" stroke-miterlimit="1.45" shape-rendering="geometricPrecision" transform="matrix(1,0,0,1,-141,158)" stroke-linecap="butt">
      <rect fill="none" x="1001.9067" width="180" height="73" y="414.0188" clip-path="url(#clipPath3)"/>
      <text x="1043.1918" y="454.6731" clip-path="url(#clipPath3)" fill="rgb(255,204,153)" font-family="sans-serif" stroke="none" xml:space="preserve">Customizable UI</text>
    </g>
    <g fill="maroon" text-rendering="geometricPrecision" shape-rendering="geometricPrecision" transform="matrix(1,0,0,1,-141,158)" stroke="maroon">
      <rect x="824.4067" width="180" height="73" y="625.0188" clip-path="url(#clipPath3)" stroke="none"/>
    </g>
    <g text-rendering="geometricPrecision" stroke-miterlimit="1.45" shape-rendering="geometricPrecision" transform="matrix(1,0,0,1,-141,158)" stroke-linecap="butt">
      <rect fill="none" x="824.4067" width="180" height="73" y="625.0188" clip-path="url(#clipPath3)"/>
      <text x="881.8373" y="665.6731" clip-path="url(#clipPath3)" fill="rgb(255,204,153)" font-family="sans-serif" stroke="none" xml:space="preserve">Equipment</text>
    </g>
    <g fill="maroon" text-rendering="geometricPrecision" shape-rendering="geometricPrecision" transform="matrix(1,0,0,1,-141,158)" stroke="maroon">
      <rect x="1024.4067" width="180" height="73" y="522.0188" clip-path="url(#clipPath3)" stroke="none"/>
    </g>
    <g text-rendering="geometricPrecision" stroke-miterlimit="1.45" shape-rendering="geometricPrecision" transform="matrix(1,0,0,1,-141,158)" stroke-linecap="butt">
      <rect fill="none" x="1024.4067" width="180" height="73" y="522.0188" clip-path="url(#clipPath3)"/>
      <text x="1096.6381" y="562.6731" clip-path="url(#clipPath3)" fill="rgb(255,204,153)" font-family="sans-serif" stroke="none" xml:space="preserve">Spells</text>
    </g>
    <g fill="maroon" text-rendering="geometricPrecision" shape-rendering="geometricPrecision" transform="matrix(1,0,0,1,-141,158)" stroke="maroon">
      <rect x="824.4067" width="180" height="73" y="522.0188" clip-path="url(#clipPath3)" stroke="none"/>
    </g>
    <g text-rendering="geometricPrecision" stroke-miterlimit="1.45" shape-rendering="geometricPrecision" transform="matrix(1,0,0,1,-141,158)" stroke-linecap="butt">
      <rect fill="none" x="824.4067" width="180" height="73" y="522.0188" clip-path="url(#clipPath3)"/>
      <text x="897.6225" y="562.6731" clip-path="url(#clipPath3)" fill="rgb(255,204,153)" font-family="sans-serif" stroke="none" xml:space="preserve">Items</text>
    </g>
    <g fill="maroon" text-rendering="geometricPrecision" shape-rendering="geometricPrecision" transform="matrix(1,0,0,1,-141,158)" stroke="maroon">
      <rect x="469.4067" width="180" height="73" y="414.0188" clip-path="url(#clipPath3)" stroke="none"/>
    </g>
    <g text-rendering="geometricPrecision" stroke-miterlimit="1.45" shape-rendering="geometricPrecision" transform="matrix(1,0,0,1,-141,158)" stroke-linecap="butt">
      <rect fill="none" x="469.4067" width="180" height="73" y="414.0188" clip-path="url(#clipPath3)"/>
      <text x="505.7202" y="454.6731" clip-path="url(#clipPath3)" fill="rgb(255,204,153)" font-family="sans-serif" stroke="none" xml:space="preserve">Embedded Assets</text>
    </g>
    <g fill="maroon" text-rendering="geometricPrecision" shape-rendering="geometricPrecision" transform="matrix(1,0,0,1,-141,158)" stroke="maroon">
      <rect x="1069.4067" width="180" height="73" y="625.0188" clip-path="url(#clipPath3)" stroke="none"/>
    </g>
    <g text-rendering="geometricPrecision" stroke-miterlimit="1.45" shape-rendering="geometricPrecision" transform="matrix(1,0,0,1,-141,158)" stroke-linecap="butt">
      <rect fill="none" x="1069.4067" width="180" height="73" y="625.0188" clip-path="url(#clipPath3)"/>
      <text x="1116.4515" y="665.6731" clip-path="url(#clipPath3)" fill="rgb(255,204,153)" font-family="sans-serif" stroke="none" xml:space="preserve">Asset Selector</text>
    </g>
    <g fill="maroon" text-rendering="geometricPrecision" shape-rendering="geometricPrecision" transform="matrix(1,0,0,1,-141,158)" stroke="maroon">
      <rect x="1446.9067" width="180" height="73" y="733.0188" clip-path="url(#clipPath3)" stroke="none"/>
    </g>
    <g text-rendering="geometricPrecision" stroke-miterlimit="1.45" shape-rendering="geometricPrecision" transform="matrix(1,0,0,1,-141,158)" stroke-linecap="butt">
      <rect fill="none" x="1446.9067" width="180" height="73" y="733.0188" clip-path="url(#clipPath3)"/>
      <text x="1506.0746" y="773.6731" clip-path="url(#clipPath3)" fill="rgb(255,204,153)" font-family="sans-serif" stroke="none" xml:space="preserve">Packaging</text>
    </g>
    <g fill="maroon" text-rendering="geometricPrecision" shape-rendering="geometricPrecision" transform="matrix(1,0,0,1,-141,158)" stroke="maroon">
      <rect x="624.4067" width="180" height="73" y="522.0188" clip-path="url(#clipPath3)" stroke="none"/>
    </g>
    <g text-rendering="geometricPrecision" stroke-miterlimit="1.45" shape-rendering="geometricPrecision" transform="matrix(1,0,0,1,-141,158)" stroke-linecap="butt">
      <rect fill="none" x="624.4067" width="180" height="73" y="522.0188" clip-path="url(#clipPath3)"/>
      <text x="683.1586" y="562.6731" clip-path="url(#clipPath3)" fill="rgb(255,204,153)" font-family="sans-serif" stroke="none" xml:space="preserve">Save/Load</text>
    </g>
    <g fill="maroon" text-rendering="geometricPrecision" shape-rendering="geometricPrecision" transform="matrix(1,0,0,1,-141,158)" stroke="maroon">
      <rect x="1774.4067" width="180" height="73" y="522.0188" clip-path="url(#clipPath3)" stroke="none"/>
    </g>
    <g text-rendering="geometricPrecision" stroke-miterlimit="1.45" shape-rendering="geometricPrecision" transform="matrix(1,0,0,1,-141,158)" stroke-linecap="butt">
      <rect fill="none" x="1774.4067" width="180" height="73" y="522.0188" clip-path="url(#clipPath3)"/>
      <text x="1814.5668" y="562.6731" clip-path="url(#clipPath3)" fill="rgb(255,204,153)" font-family="sans-serif" stroke="none" xml:space="preserve">Custom Controls</text>
    </g>
    <g fill="maroon" text-rendering="geometricPrecision" shape-rendering="geometricPrecision" transform="matrix(1,0,0,1,-141,158)" stroke="maroon">
      <rect x="1224.4067" width="180" height="73" y="522.0188" clip-path="url(#clipPath3)" stroke="none"/>
    </g>
    <g text-rendering="geometricPrecision" stroke-miterlimit="1.45" shape-rendering="geometricPrecision" transform="matrix(1,0,0,1,-141,158)" stroke-linecap="butt">
      <rect fill="none" x="1224.4067" width="180" height="73" y="522.0188" clip-path="url(#clipPath3)"/>
      <text x="1298.7386" y="562.6731" clip-path="url(#clipPath3)" fill="rgb(255,204,153)" font-family="sans-serif" stroke="none" xml:space="preserve">Icons</text>
    </g>
    <g fill="rgb(255,204,0)" text-rendering="geometricPrecision" shape-rendering="geometricPrecision" transform="matrix(1,0,0,1,-141,158)" stroke="rgb(255,204,0)">
      <rect x="1239.1382" width="180" height="73" y="86.5" clip-path="url(#clipPath3)" stroke="none"/>
    </g>
    <g text-rendering="geometricPrecision" stroke-miterlimit="1.45" shape-rendering="geometricPrecision" transform="matrix(1,0,0,1,-141,158)" stroke-linecap="butt">
      <rect fill="none" x="1239.1382" width="180" height="73" y="86.5" clip-path="url(#clipPath3)"/>
      <text x="1275.7593" xml:space="preserve" y="127.1543" clip-path="url(#clipPath3)" font-family="sans-serif" stroke="none">Transition Trigger</text>
    </g>
    <g fill="rgb(255,102,0)" text-rendering="geometricPrecision" shape-rendering="geometricPrecision" transform="matrix(1,0,0,1,-141,158)" stroke="rgb(255,102,0)">
      <rect x="1039.1382" width="180" height="73" y="86.5" clip-path="url(#clipPath3)" stroke="none"/>
    </g>
    <g text-rendering="geometricPrecision" stroke-miterlimit="1.45" shape-rendering="geometricPrecision" transform="matrix(1,0,0,1,-141,158)" stroke-linecap="butt">
      <rect fill="none" x="1039.1382" width="180" height="73" y="86.5" clip-path="url(#clipPath3)"/>
      <text x="1082.1138" xml:space="preserve" y="127.1543" clip-path="url(#clipPath3)" font-family="sans-serif" stroke="none">Combat Trigger</text>
    </g>
    <g fill="rgb(255,102,0)" text-rendering="geometricPrecision" shape-rendering="geometricPrecision" transform="matrix(1,0,0,1,-141,158)" stroke="rgb(255,102,0)">
      <rect x="839.1382" width="180" height="73" y="86.5" clip-path="url(#clipPath3)" stroke="none"/>
    </g>
    <g text-rendering="geometricPrecision" stroke-miterlimit="1.45" shape-rendering="geometricPrecision" transform="matrix(1,0,0,1,-141,158)" stroke-linecap="butt">
      <rect fill="none" x="839.1382" width="180" height="73" y="86.5" clip-path="url(#clipPath3)"/>
      <text x="878.9673" xml:space="preserve" y="127.1543" clip-path="url(#clipPath3)" font-family="sans-serif" stroke="none">Win/Loss Trigger</text>
      <path fill="none" d="M1043.5886 -66.5 L1043.5886 -39.5342" clip-path="url(#clipPath3)"/>
      <path d="M1043.5886 -31.5342 L1048.5886 -43.5342 L1043.5886 -40.5342 L1038.5886 -43.5342 Z" clip-path="url(#clipPath3)" stroke="none"/>
      <path fill="none" d="M729.1382 159.5 L729.1382 179.5 L1110.2383 179.5 L1110.2383 206.5" clip-path="url(#clipPath3)"/>
      <path d="M1110.2383 214.5 L1115.2383 202.5 L1110.2383 205.5 L1105.2383 202.5 Z" clip-path="url(#clipPath3)" stroke="none"/>
      <path fill="none" d="M1536.9066 1048 L1536.9066 1070" clip-path="url(#clipPath3)"/>
      <path d="M1536.9066 1078 L1541.9066 1066 L1536.9066 1069 L1531.9066 1066 Z" clip-path="url(#clipPath3)" stroke="none"/>
      <path fill="none" d="M1086.6133 251 L827.8383 251 L827.8383 284.5" clip-path="url(#clipPath3)"/>
      <path d="M827.8383 292.5 L832.8383 280.5 L827.8383 283.5 L822.8383 280.5 Z" clip-path="url(#clipPath3)" stroke="none"/>
      <path fill="none" d="M1073.8286 -66.5 L1073.8286 -56.5 L1443.5886 -56.5 L1443.5886 -39.5488" clip-path="url(#clipPath3)"/>
      <path d="M1443.5886 -31.5488 L1448.5886 -43.5488 L1443.5886 -40.5488 L1438.5886 -43.5488 Z" clip-path="url(#clipPath3)" stroke="none"/>
      <path fill="none" d="M1443.5886 41.5 L1443.5886 189.5 L1157.4883 189.5 L1157.4883 206.5" clip-path="url(#clipPath3)"/>
      <path d="M1157.4883 214.5 L1162.4883 202.5 L1157.4883 205.5 L1152.4883 202.5 Z" clip-path="url(#clipPath3)" stroke="none"/>
      <path fill="none" d="M1013.3486 -66.5 L1013.3486 -56.5 L424.1382 -56.5 L424.1382 -39.5488" clip-path="url(#clipPath3)"/>
      <path d="M424.1382 -31.5488 L429.1382 -43.5488 L424.1382 -40.5488 L419.1382 -43.5488 Z" clip-path="url(#clipPath3)" stroke="none"/>
      <path fill="none" d="M424.1382 41.5 L424.1382 199.5 L1091.3383 199.5 L1091.3383 206.5" clip-path="url(#clipPath3)"/>
      <path d="M1091.3383 214.5 L1096.3383 202.5 L1091.3383 205.5 L1086.3383 202.5 Z" clip-path="url(#clipPath3)" stroke="none"/>
      <path fill="none" d="M529.1382 159.5 L529.1382 189.5 L1100.7882 189.5 L1100.7882 206.5" clip-path="url(#clipPath3)"/>
      <path d="M1100.7882 214.5 L1105.7882 202.5 L1100.7882 205.5 L1095.7882 202.5 Z" clip-path="url(#clipPath3)" stroke="none"/>
      <path fill="none" d="M1028.4686 -66.5 L1028.4686 -46.5 L684.1382 -46.5 L684.1382 -39.5293" clip-path="url(#clipPath3)"/>
      <path d="M684.1382 -31.5293 L689.1382 -43.5293 L684.1382 -40.5293 L679.1382 -43.5293 Z" clip-path="url(#clipPath3)" stroke="none"/>
      <path fill="none" d="M639.1382 41.5 L639.1382 51.5 L529.1382 51.5 L529.1382 78.4658" clip-path="url(#clipPath3)"/>
      <path d="M529.1382 86.4658 L534.1382 74.4658 L529.1382 77.4658 L524.1382 74.4658 Z" clip-path="url(#clipPath3)" stroke="none"/>
      <path fill="none" d="M729.1382 41.5 L729.1382 78.4561" clip-path="url(#clipPath3)"/>
      <path d="M729.1382 86.4561 L734.1382 74.4561 L729.1382 77.4561 L724.1382 74.4561 Z" clip-path="url(#clipPath3)" stroke="none"/>
      <path fill="none" d="M904.9567 806.0188 L904.9567 816.0188 L1511.7067 816.0188 L1511.7067 828.0188" clip-path="url(#clipPath3)"/>
      <path d="M1511.7067 836.0188 L1516.7067 824.0188 L1511.7067 827.0188 L1506.7067 824.0188 Z" clip-path="url(#clipPath3)" stroke="none"/>
    </g>
    <g stroke-linecap="round" transform="matrix(1,0,0,1,-141,158)" stroke-dashoffset="2" text-rendering="geometricPrecision" shape-rendering="geometricPrecision" stroke-dasharray="0,20" stroke-width="5" stroke-miterlimit="1.45">
      <path fill="none" d="M1536.9066 909.0188 L1536.9066 962.9678" clip-path="url(#clipPath3)"/>
      <path d="M1536.9066 974.9678 L1544.4066 956.9678 L1536.9066 961.4678 L1529.4066 956.9678 Z" clip-path="url(#clipPath3)" stroke="none"/>
    </g>
    <g text-rendering="geometricPrecision" stroke-miterlimit="1.45" shape-rendering="geometricPrecision" transform="matrix(1,0,0,1,-141,158)" stroke-linecap="butt">
      <path fill="none" d="M1058.7086 -66.5 L1058.7086 -46.5 L1243.5886 -46.5 L1243.5886 -39.5293" clip-path="url(#clipPath3)"/>
      <path d="M1243.5886 -31.5293 L1248.5886 -43.5293 L1243.5886 -40.5293 L1238.5886 -43.5293 Z" clip-path="url(#clipPath3)" stroke="none"/>
      <path fill="none" d="M1243.5886 41.5 L1243.5886 51.5 L1434.1382 51.5 L1434.1382 179.5 L1148.0382 179.5 L1148.0382 206.5" clip-path="url(#clipPath3)"/>
      <path d="M1148.0382 214.5 L1153.0382 202.5 L1148.0382 205.5 L1143.0382 202.5 Z" clip-path="url(#clipPath3)" stroke="none"/>
      <path fill="none" d="M856.6052 365.5 L856.6052 380.5556 L1721.4066 380.5556 L1721.4066 616.989" clip-path="url(#clipPath3)"/>
      <path d="M1721.4066 624.989 L1726.4066 612.989 L1721.4066 615.989 L1716.4066 612.989 Z" clip-path="url(#clipPath3)" stroke="none"/>
      <path fill="none" d="M844.539 365.5 L844.539 387.2594 L1559.4066 387.2594 L1559.4066 616.9898" clip-path="url(#clipPath3)"/>
      <path d="M1559.4066 624.9898 L1564.4066 612.9898 L1559.4066 615.9898 L1554.4066 612.9898 Z" clip-path="url(#clipPath3)" stroke="none"/>
      <path fill="none" d="M514.4067 595.0188 L514.4067 616.9895" clip-path="url(#clipPath3)"/>
      <path d="M514.4067 624.9895 L519.4067 612.9895 L514.4067 615.9895 L509.4067 612.9895 Z" clip-path="url(#clipPath3)" stroke="none"/>
      <path fill="none" d="M514.4067 698.0188 L514.4067 718.0188 L876.6067 718.0188 L876.6067 725.0188" clip-path="url(#clipPath3)"/>
      <path d="M876.6067 733.0188 L881.6067 721.0188 L876.6067 724.0188 L871.6067 721.0188 Z" clip-path="url(#clipPath3)" stroke="none"/>
      <path fill="none" d="M820.4067 365.5 L820.4067 400.6669 L1091.9066 400.6669 L1091.9066 405.9927" clip-path="url(#clipPath3)"/>
      <path d="M1091.9066 413.9927 L1096.9066 401.9927 L1091.9066 404.9927 L1086.9066 401.9927 Z" clip-path="url(#clipPath3)" stroke="none"/>
      <path fill="none" d="M914.4067 698.0188 L914.4067 725.0188" clip-path="url(#clipPath3)"/>
      <path d="M914.4067 733.0188 L919.4067 721.0188 L914.4067 724.0188 L909.4067 721.0188 Z" clip-path="url(#clipPath3)" stroke="none"/>
      <path fill="none" d="M1114.4066 487.053 L1114.4066 513.9847" clip-path="url(#clipPath3)"/>
      <path d="M1114.4066 521.9847 L1119.4066 509.9847 L1114.4066 512.9847 L1109.4066 509.9847 Z" clip-path="url(#clipPath3)" stroke="none"/>
      <path fill="none" d="M1114.4066 595.0188 L1114.4066 605.0188 L1054.4066 605.0188 L1054.4066 708.0188 L933.3066 708.0188 L933.3066 725.0188" clip-path="url(#clipPath3)"/>
      <path d="M933.3066 733.0188 L938.3066 721.0188 L933.3066 724.0188 L928.3066 721.0188 Z" clip-path="url(#clipPath3)" stroke="none"/>
      <path fill="none" d="M1069.4066 487.0579 L1069.4066 507.0188 L914.4067 507.0188 L914.4067 513.9895" clip-path="url(#clipPath3)"/>
      <path d="M914.4067 521.9895 L919.4067 509.9895 L914.4067 512.9895 L909.4067 509.9895 Z" clip-path="url(#clipPath3)" stroke="none"/>
      <path fill="none" d="M914.4067 595.0188 L914.4067 616.9895" clip-path="url(#clipPath3)"/>
      <path d="M914.4067 624.9895 L919.4067 612.9895 L914.4067 615.9895 L909.4067 612.9895 Z" clip-path="url(#clipPath3)" stroke="none"/>
      <path fill="none" d="M802.1611 365.5 L802.1611 373.8519 L559.4067 373.8519 L559.4067 405.9796" clip-path="url(#clipPath3)"/>
      <path d="M559.4067 413.9796 L564.4067 401.9796 L559.4067 404.9796 L554.4067 401.9796 Z" clip-path="url(#clipPath3)" stroke="none"/>
      <path fill="none" d="M514.4067 487.053 L514.4067 513.9847" clip-path="url(#clipPath3)"/>
      <path d="M514.4067 521.9847 L519.4067 509.9847 L514.4067 512.9847 L509.4067 509.9847 Z" clip-path="url(#clipPath3)" stroke="none"/>
      <path fill="none" d="M1359.4066 698.0188 L1359.4066 708.0188 L1514.4066 708.0188 L1514.4066 724.97" clip-path="url(#clipPath3)"/>
      <path d="M1514.4066 732.97 L1519.4066 720.97 L1514.4066 723.97 L1509.4066 720.97 Z" clip-path="url(#clipPath3)" stroke="none"/>
      <path fill="none" d="M1759.4066 698.0188 L1759.4066 708.0188 L1604.4066 708.0188 L1604.4066 724.97" clip-path="url(#clipPath3)"/>
      <path d="M1604.4066 732.97 L1609.4066 720.97 L1604.4066 723.97 L1599.4066 720.97 Z" clip-path="url(#clipPath3)" stroke="none"/>
      <path fill="none" d="M1559.4066 698.0188 L1559.4066 724.9846" clip-path="url(#clipPath3)"/>
      <path d="M1559.4066 732.9846 L1564.4066 720.9846 L1559.4066 723.9846 L1554.4066 720.9846 Z" clip-path="url(#clipPath3)" stroke="none"/>
      <path fill="none" d="M1159.4066 698.0188 L1159.4066 718.0188 L1469.4066 718.0188 L1469.4066 724.9895" clip-path="url(#clipPath3)"/>
      <path d="M1469.4066 732.9895 L1474.4066 720.9895 L1469.4066 723.9895 L1464.4066 720.9895 Z" clip-path="url(#clipPath3)" stroke="none"/>
      <path fill="none" d="M1536.9066 806.0481 L1536.9066 828.0188" clip-path="url(#clipPath3)"/>
      <path d="M1536.9066 836.0188 L1541.9066 824.0188 L1536.9066 827.0188 L1531.9066 824.0188 Z" clip-path="url(#clipPath3)" stroke="none"/>
      <path fill="none" d="M604.4067 487.0579 L604.4067 497.0188 L669.4067 497.0188 L669.4067 513.97" clip-path="url(#clipPath3)"/>
      <path d="M669.4067 521.97 L674.4067 509.97 L669.4067 512.97 L664.4067 509.97 Z" clip-path="url(#clipPath3)" stroke="none"/>
      <path fill="none" d="M1024.4066 487.0579 L1024.4066 497.0188 L759.4067 497.0188 L759.4067 513.97" clip-path="url(#clipPath3)"/>
      <path d="M759.4067 521.97 L764.4067 509.97 L759.4067 512.97 L754.4067 509.97 Z" clip-path="url(#clipPath3)" stroke="none"/>
      <path fill="none" d="M714.4067 595.0188 L714.4067 708.0188 L895.5067 708.0188 L895.5067 725.0188" clip-path="url(#clipPath3)"/>
      <path d="M895.5067 733.0188 L900.5067 721.0188 L895.5067 724.0188 L890.5067 721.0188 Z" clip-path="url(#clipPath3)" stroke="none"/>
      <path fill="none" d="M1159.4066 487.0579 L1159.4066 497.0188 L1864.4066 497.0188 L1864.4066 513.97" clip-path="url(#clipPath3)"/>
      <path d="M1864.4066 521.97 L1869.4066 509.97 L1864.4066 512.97 L1859.4066 509.97 Z" clip-path="url(#clipPath3)" stroke="none"/>
      <path fill="none" d="M1864.4066 595.0188 L1864.4066 816.0188 L1562.1067 816.0188 L1562.1067 828.0188" clip-path="url(#clipPath3)"/>
      <path d="M1562.1067 836.0188 L1567.1067 824.0188 L1562.1067 827.0188 L1557.1067 824.0188 Z" clip-path="url(#clipPath3)" stroke="none"/>
      <path fill="none" d="M832.4728 365.5 L832.4728 393.9632 L1314.4066 393.9632 L1314.4066 513.9875" clip-path="url(#clipPath3)"/>
      <path d="M1314.4066 521.9875 L1319.4066 509.9875 L1314.4066 512.9875 L1309.4066 509.9875 Z" clip-path="url(#clipPath3)" stroke="none"/>
      <path fill="none" d="M1359.4066 595.0188 L1359.4066 616.9895" clip-path="url(#clipPath3)"/>
      <path d="M1359.4066 624.9895 L1364.4066 612.9895 L1359.4066 615.9895 L1354.4066 612.9895 Z" clip-path="url(#clipPath3)" stroke="none"/>
      <path fill="none" d="M1269.4066 595.0188 L1269.4066 605.0188 L1159.4066 605.0188 L1159.4066 616.9797" clip-path="url(#clipPath3)"/>
      <path d="M1159.4066 624.9797 L1164.4066 612.9797 L1159.4066 615.9797 L1154.4066 612.9797 Z" clip-path="url(#clipPath3)" stroke="none"/>
      <path fill="none" d="M1103.5886 41.5 L1103.5886 61.5 L1329.1382 61.5 L1329.1382 78.4512" clip-path="url(#clipPath3)"/>
      <path d="M1329.1382 86.4512 L1334.1382 74.4512 L1329.1382 77.4512 L1324.1382 74.4512 Z" clip-path="url(#clipPath3)" stroke="none"/>
      <path fill="none" d="M1329.1382 159.5 L1329.1382 169.5 L1138.5883 169.5 L1138.5883 206.5" clip-path="url(#clipPath3)"/>
      <path d="M1138.5883 214.5 L1143.5883 202.5 L1138.5883 205.5 L1133.5883 202.5 Z" clip-path="url(#clipPath3)" stroke="none"/>
      <path fill="none" d="M1043.5886 41.5 L1043.5886 71.5 L1129.1382 71.5 L1129.1382 78.4707" clip-path="url(#clipPath3)"/>
      <path d="M1129.1382 86.4707 L1134.1382 74.4707 L1129.1382 77.4707 L1124.1382 74.4707 Z" clip-path="url(#clipPath3)" stroke="none"/>
      <path fill="none" d="M1129.1382 159.5 L1129.1382 206.5" clip-path="url(#clipPath3)"/>
      <path d="M1129.1382 214.5 L1134.1382 202.5 L1129.1382 205.5 L1124.1382 202.5 Z" clip-path="url(#clipPath3)" stroke="none"/>
      <path fill="none" d="M983.5886 41.5 L983.5886 51.5 L929.1382 51.5 L929.1382 78.4658" clip-path="url(#clipPath3)"/>
      <path d="M929.1382 86.4658 L934.1382 74.4658 L929.1382 77.4658 L924.1382 74.4658 Z" clip-path="url(#clipPath3)" stroke="none"/>
      <path fill="none" d="M929.1382 159.5 L929.1382 169.5 L1119.6882 169.5 L1119.6882 206.5" clip-path="url(#clipPath3)"/>
      <path d="M1119.6882 214.5 L1124.6882 202.5 L1119.6882 205.5 L1114.6882 202.5 Z" clip-path="url(#clipPath3)" stroke="none"/>
    </g>
  </g>
</svg>
