<?xml version="1.0" encoding="UTF-8"?><svg xmlns="http://www.w3.org/2000/svg" xmlns:xlink="http://www.w3.org/1999/xlink" fill-opacity="1" color-rendering="auto" color-interpolation="auto" text-rendering="auto" stroke="black" stroke-linecap="square" width="1339" stroke-miterlimit="10" shape-rendering="auto" stroke-opacity="1" fill="black" stroke-dasharray="none" font-weight="normal" stroke-width="1" height="1309" font-family="'Dialog'" font-style="normal" stroke-linejoin="miter" font-size="12px" stroke-dashoffset="0" image-rendering="auto">
  <!--Generated by ySVG 2.5-->
  <defs id="genericDefs"/>
  <g>
    <defs id="defs1">
      <clipPath clipPathUnits="userSpaceOnUse" id="clipPath1">
        <path d="M0 0 L1339 0 L1339 1309 L0 1309 L0 0 Z"/>
      </clipPath>
      <clipPath clipPathUnits="userSpaceOnUse" id="clipPath2">
        <path d="M137 -207 L1476 -207 L1476 1102 L137 1102 L137 -207 Z"/>
      </clipPath>
      <clipPath clipPathUnits="userSpaceOnUse" id="clipPath3">
        <path d="M141 -203 L1480 -203 L1480 1106 L141 1106 L141 -203 Z"/>
      </clipPath>
    </defs>
    <g fill="rgb(210,210,210)" text-rendering="geometricPrecision" shape-rendering="geometricPrecision" transform="matrix(1,0,0,1,-141,203) translate(4,4)" stroke="rgb(210,210,210)">
      <rect x="156.8187" width="147.3196" height="216" y="-52.6543" clip-path="url(#clipPath2)" stroke="none"/>
    </g>
    <g fill="rgb(242,240,216)" text-rendering="geometricPrecision" shape-rendering="geometricPrecision" transform="matrix(1,0,0,1,-141,203)" stroke="rgb(242,240,216)">
      <rect x="156.8187" width="147.3196" height="216" y="-52.6543" clip-path="url(#clipPath3)" stroke="none"/>
      <rect x="156.8187" y="-52.6543" clip-path="url(#clipPath3)" fill="rgb(183,182,158)" width="147.3196" height="21.4609" stroke="none"/>
    </g>
    <g font-size="15px" stroke-linecap="butt" transform="matrix(1,0,0,1,-141,203)" text-rendering="geometricPrecision" font-family="sans-serif" shape-rendering="geometricPrecision" stroke-miterlimit="1.45">
      <text x="222.4581" xml:space="preserve" y="-36.7309" clip-path="url(#clipPath3)" stroke="none">Shape Key</text>
      <rect fill="none" x="156.8187" width="147.3196" height="216" y="-52.6543" clip-path="url(#clipPath3)"/>
    </g>
    <g fill="rgb(255,204,0)" text-rendering="geometricPrecision" shape-rendering="geometricPrecision" transform="matrix(1,0,0,1,-141,203)" stroke="rgb(255,204,0)">
      <rect x="171.8187" width="117.3196" height="35.3086" y="-12.6543" clip-path="url(#clipPath3)" stroke="none"/>
    </g>
    <g text-rendering="geometricPrecision" stroke-miterlimit="1.45" shape-rendering="geometricPrecision" transform="matrix(1,0,0,1,-141,203)" stroke-linecap="butt">
      <rect fill="none" x="171.8187" width="117.3196" height="35.3086" y="-12.6543" clip-path="url(#clipPath3)"/>
      <text x="190.998" xml:space="preserve" y="9.1543" clip-path="url(#clipPath3)" font-family="sans-serif" stroke="none">Halberd Task</text>
    </g>
    <g fill="rgb(255,204,0)" text-rendering="geometricPrecision" shape-rendering="geometricPrecision" transform="matrix(1,0,0,1,-141,203)" stroke="rgb(255,204,0)">
      <rect x="171.8187" y="35.6668" clip-path="url(#clipPath3)" width="117.3196" rx="4" ry="4" height="35.3086" stroke="none"/>
    </g>
    <g stroke-linecap="butt" transform="matrix(1,0,0,1,-141,203)" fill="gray" text-rendering="geometricPrecision" shape-rendering="geometricPrecision" stroke="gray" stroke-miterlimit="1.45">
      <rect x="171.8187" y="35.6668" clip-path="url(#clipPath3)" fill="none" width="117.3196" rx="4" ry="4" height="35.3086"/>
      <text x="189.6298" y="57.4754" clip-path="url(#clipPath3)" fill="black" font-family="sans-serif" stroke="none" xml:space="preserve">External Task</text>
    </g>
    <g fill="rgb(255,204,0)" text-rendering="geometricPrecision" shape-rendering="geometricPrecision" transform="matrix(1,0,0,1,-141,203)" stroke="rgb(255,204,0)">
      <circle r="29.864" clip-path="url(#clipPath3)" cx="230.4785" cy="113.852" stroke="none"/>
    </g>
    <g text-rendering="geometricPrecision" stroke-miterlimit="1.45" shape-rendering="geometricPrecision" transform="matrix(1,0,0,1,-141,203)" stroke-linecap="butt">
      <circle fill="none" r="29.864" clip-path="url(#clipPath3)" cx="230.4785" cy="113.852"/>
      <text x="206.7656" xml:space="preserve" y="118.0063" clip-path="url(#clipPath3)" font-family="sans-serif" stroke="none">Release</text>
    </g>
    <g fill="rgb(210,210,210)" text-rendering="geometricPrecision" shape-rendering="geometricPrecision" transform="matrix(1,0,0,1,-141,203) translate(4,4)" stroke="rgb(210,210,210)">
      <rect x="156.8187" width="147.3196" height="279.9426" y="188.2305" clip-path="url(#clipPath2)" stroke="none"/>
    </g>
    <g fill="rgb(242,240,216)" text-rendering="geometricPrecision" shape-rendering="geometricPrecision" transform="matrix(1,0,0,1,-141,203)" stroke="rgb(242,240,216)">
      <rect x="156.8187" width="147.3196" height="279.9426" y="188.2305" clip-path="url(#clipPath3)" stroke="none"/>
      <rect x="156.8187" y="188.2305" clip-path="url(#clipPath3)" fill="rgb(183,182,158)" width="147.3196" height="21.4609" stroke="none"/>
    </g>
    <g font-size="15px" stroke-linecap="butt" transform="matrix(1,0,0,1,-141,203)" text-rendering="geometricPrecision" font-family="sans-serif" shape-rendering="geometricPrecision" stroke-miterlimit="1.45">
      <text x="230.2657" xml:space="preserve" y="204.1538" clip-path="url(#clipPath3)" stroke="none">Color Key</text>
      <rect fill="none" x="156.8187" width="147.3196" height="279.9426" y="188.2305" clip-path="url(#clipPath3)"/>
    </g>
    <g fill="maroon" text-rendering="geometricPrecision" shape-rendering="geometricPrecision" transform="matrix(1,0,0,1,-141,203)" stroke="maroon">
      <rect x="171.8187" width="117.3196" height="35.3086" y="224.6914" clip-path="url(#clipPath3)" stroke="none"/>
    </g>
    <g text-rendering="geometricPrecision" stroke-miterlimit="1.45" shape-rendering="geometricPrecision" transform="matrix(1,0,0,1,-141,203)" stroke-linecap="butt">
      <rect fill="none" x="171.8187" width="117.3196" height="35.3086" y="224.6914" clip-path="url(#clipPath3)"/>
      <text x="193.4589" y="246.5" clip-path="url(#clipPath3)" fill="rgb(255,204,153)" font-family="sans-serif" stroke="none" xml:space="preserve">Future Work</text>
    </g>
    <g fill="red" text-rendering="geometricPrecision" shape-rendering="geometricPrecision" transform="matrix(1,0,0,1,-141,203)" stroke="red">
      <rect x="171.8187" width="117.3196" height="35.3086" y="273.0863" clip-path="url(#clipPath3)" stroke="none"/>
    </g>
    <g text-rendering="geometricPrecision" stroke-miterlimit="1.45" shape-rendering="geometricPrecision" transform="matrix(1,0,0,1,-141,203)" stroke-linecap="butt">
      <rect fill="none" x="171.8187" width="117.3196" height="35.3086" y="273.0863" clip-path="url(#clipPath3)"/>
      <text x="182.7334" xml:space="preserve" y="294.8949" clip-path="url(#clipPath3)" font-family="sans-serif" stroke="none">Upcoming Work</text>
    </g>
    <g fill="rgb(255,102,0)" text-rendering="geometricPrecision" shape-rendering="geometricPrecision" transform="matrix(1,0,0,1,-141,203)" stroke="rgb(255,102,0)">
      <rect x="171.8187" width="117.3196" height="35.3086" y="321.3457" clip-path="url(#clipPath3)" stroke="none"/>
    </g>
    <g text-rendering="geometricPrecision" stroke-miterlimit="1.45" shape-rendering="geometricPrecision" transform="matrix(1,0,0,1,-141,203)" stroke-linecap="butt">
      <rect fill="none" x="171.8187" width="117.3196" height="35.3086" y="321.3457" clip-path="url(#clipPath3)"/>
      <text x="198.9433" xml:space="preserve" y="343.1543" clip-path="url(#clipPath3)" font-family="sans-serif" stroke="none">Next Work</text>
    </g>
    <g fill="rgb(255,204,0)" text-rendering="geometricPrecision" shape-rendering="geometricPrecision" transform="matrix(1,0,0,1,-141,203)" stroke="rgb(255,204,0)">
      <rect x="171.8187" width="117.3196" height="35.3086" y="369.6051" clip-path="url(#clipPath3)" stroke="none"/>
    </g>
    <g text-rendering="geometricPrecision" stroke-miterlimit="1.45" shape-rendering="geometricPrecision" transform="matrix(1,0,0,1,-141,203)" stroke-linecap="butt">
      <rect fill="none" x="171.8187" width="117.3196" height="35.3086" y="369.6051" clip-path="url(#clipPath3)"/>
      <text x="197.0244" xml:space="preserve" y="391.4137" clip-path="url(#clipPath3)" font-family="sans-serif" stroke="none">In Progress</text>
    </g>
    <g fill="rgb(153,204,0)" text-rendering="geometricPrecision" shape-rendering="geometricPrecision" transform="matrix(1,0,0,1,-141,203)" stroke="rgb(153,204,0)">
      <rect x="171.8187" width="117.3196" height="35.3086" y="417.8645" clip-path="url(#clipPath3)" stroke="none"/>
    </g>
    <g text-rendering="geometricPrecision" stroke-miterlimit="1.45" shape-rendering="geometricPrecision" transform="matrix(1,0,0,1,-141,203)" stroke-linecap="butt">
      <rect fill="none" x="171.8187" width="117.3196" height="35.3086" y="417.8645" clip-path="url(#clipPath3)"/>
      <text x="214.6933" xml:space="preserve" y="439.6731" clip-path="url(#clipPath3)" font-family="sans-serif" stroke="none">Done</text>
    </g>
    <g fill="rgb(153,204,0)" text-rendering="geometricPrecision" shape-rendering="geometricPrecision" transform="matrix(1,0,0,1,-141,203)" stroke="rgb(153,204,0)">
      <rect x="734.1382" width="180" height="73" y="-84.1543" clip-path="url(#clipPath3)" stroke="none"/>
    </g>
    <g text-rendering="geometricPrecision" stroke-miterlimit="1.45" shape-rendering="geometricPrecision" transform="matrix(1,0,0,1,-141,203)" stroke-linecap="butt">
      <rect fill="none" x="734.1382" width="180" height="73" y="-84.1543" clip-path="url(#clipPath3)"/>
      <text x="764.4547" xml:space="preserve" y="-43.5" clip-path="url(#clipPath3)" font-family="sans-serif" stroke="none">Main Editor Window</text>
    </g>
    <g fill="rgb(153,204,0)" text-rendering="geometricPrecision" shape-rendering="geometricPrecision" transform="matrix(1,0,0,1,-141,203)" stroke="rgb(153,204,0)">
      <rect x="534.1382" width="180" height="73" y="-84.1543" clip-path="url(#clipPath3)" stroke="none"/>
    </g>
    <g text-rendering="geometricPrecision" stroke-miterlimit="1.45" shape-rendering="geometricPrecision" transform="matrix(1,0,0,1,-141,203)" stroke-linecap="butt">
      <rect fill="none" x="534.1382" width="180" height="73" y="-84.1543" clip-path="url(#clipPath3)"/>
      <text x="564.3492" xml:space="preserve" y="-43.5" clip-path="url(#clipPath3)" font-family="sans-serif" stroke="none">Main Game Window</text>
    </g>
    <g fill="rgb(153,204,0)" text-rendering="geometricPrecision" shape-rendering="geometricPrecision" transform="matrix(1,0,0,1,-141,203)" stroke="rgb(153,204,0)">
      <rect x="579.1382" width="180" height="73" y="18.8457" clip-path="url(#clipPath3)" stroke="none"/>
    </g>
    <g text-rendering="geometricPrecision" stroke-miterlimit="1.45" shape-rendering="geometricPrecision" transform="matrix(1,0,0,1,-141,203)" stroke-linecap="butt">
      <rect fill="none" x="579.1382" width="180" height="73" y="18.8457" clip-path="url(#clipPath3)"/>
      <text x="592.2427" xml:space="preserve" y="59.5" clip-path="url(#clipPath3)" font-family="sans-serif" stroke="none">'Playable' Editor Viewport</text>
    </g>
    <g fill="rgb(153,204,0)" text-rendering="geometricPrecision" shape-rendering="geometricPrecision" transform="matrix(1,0,0,1,-141,203)" stroke="rgb(153,204,0)">
      <rect x="844.1382" width="180" height="73" y="121.8457" clip-path="url(#clipPath3)" stroke="none"/>
    </g>
    <g text-rendering="geometricPrecision" stroke-miterlimit="1.45" shape-rendering="geometricPrecision" transform="matrix(1,0,0,1,-141,203)" stroke-linecap="butt">
      <rect fill="none" x="844.1382" width="180" height="73" y="121.8457" clip-path="url(#clipPath3)"/>
      <text x="890.4537" xml:space="preserve" y="162.5" clip-path="url(#clipPath3)" font-family="sans-serif" stroke="none">Tilemap Editor</text>
    </g>
    <g fill="rgb(153,204,0)" text-rendering="geometricPrecision" shape-rendering="geometricPrecision" transform="matrix(1,0,0,1,-141,203)" stroke="rgb(153,204,0)">
      <rect x="379.1382" width="180" height="73" y="121.8457" clip-path="url(#clipPath3)" stroke="none"/>
    </g>
    <g text-rendering="geometricPrecision" stroke-miterlimit="1.45" shape-rendering="geometricPrecision" transform="matrix(1,0,0,1,-141,203)" stroke-linecap="butt">
      <rect fill="none" x="379.1382" width="180" height="73" y="121.8457" clip-path="url(#clipPath3)"/>
      <text x="425.9312" xml:space="preserve" y="162.5" clip-path="url(#clipPath3)" font-family="sans-serif" stroke="none">Combat Editor</text>
    </g>
    <g fill="rgb(153,204,0)" text-rendering="geometricPrecision" shape-rendering="geometricPrecision" transform="matrix(1,0,0,1,-141,203)" stroke="rgb(153,204,0)">
      <rect x="934.1382" y="-84.1543" clip-path="url(#clipPath3)" width="180" rx="4" ry="4" height="73" stroke="none"/>
    </g>
    <g stroke-linecap="butt" transform="matrix(1,0,0,1,-141,203)" fill="gray" text-rendering="geometricPrecision" shape-rendering="geometricPrecision" stroke="gray" stroke-miterlimit="1.45">
      <rect x="934.1382" y="-84.1543" clip-path="url(#clipPath3)" fill="none" width="180" rx="4" ry="4" height="73"/>
      <text x="961.8824" y="-43.5" clip-path="url(#clipPath3)" fill="black" font-family="sans-serif" stroke="none" xml:space="preserve">DFGame Tile Module</text>
    </g>
    <g fill="rgb(153,204,0)" text-rendering="geometricPrecision" shape-rendering="geometricPrecision" transform="matrix(1,0,0,1,-141,203)" stroke="rgb(153,204,0)">
      <rect x="844.1382" width="180" height="73" y="18.8457" clip-path="url(#clipPath3)" stroke="none"/>
    </g>
    <g text-rendering="geometricPrecision" stroke-miterlimit="1.45" shape-rendering="geometricPrecision" transform="matrix(1,0,0,1,-141,203)" stroke-linecap="butt">
      <rect fill="none" x="844.1382" width="180" height="73" y="18.8457" clip-path="url(#clipPath3)"/>
      <text x="894.6138" xml:space="preserve" y="59.5" clip-path="url(#clipPath3)" font-family="sans-serif" stroke="none">Tileset Editor</text>
    </g>
    <g fill="rgb(153,204,0)" text-rendering="geometricPrecision" shape-rendering="geometricPrecision" transform="matrix(1,0,0,1,-141,203)" stroke="rgb(153,204,0)">
      <rect x="579.1382" width="180" height="73" y="-187.1543" clip-path="url(#clipPath3)" stroke="none"/>
    </g>
    <g text-rendering="geometricPrecision" stroke-miterlimit="1.45" shape-rendering="geometricPrecision" transform="matrix(1,0,0,1,-141,203)" stroke-linecap="butt">
      <rect fill="none" x="579.1382" width="180" height="73" y="-187.1543" clip-path="url(#clipPath3)"/>
      <text x="629.7955" xml:space="preserve" y="-146.5" clip-path="url(#clipPath3)" font-family="sans-serif" stroke="none">Build System</text>
    </g>
    <g fill="rgb(153,204,0)" text-rendering="geometricPrecision" shape-rendering="geometricPrecision" transform="matrix(1,0,0,1,-141,203)" stroke="rgb(153,204,0)">
      <rect x="1084.1382" width="180" height="73" y="224.8457" clip-path="url(#clipPath3)" stroke="none"/>
    </g>
    <g text-rendering="geometricPrecision" stroke-miterlimit="1.45" shape-rendering="geometricPrecision" transform="matrix(1,0,0,1,-141,203)" stroke-linecap="butt">
      <rect fill="none" x="1084.1382" width="180" height="73" y="224.8457" clip-path="url(#clipPath3)"/>
      <text x="1142.3569" xml:space="preserve" y="265.5" clip-path="url(#clipPath3)" font-family="sans-serif" stroke="none">Movement</text>
    </g>
    <g fill="rgb(153,204,0)" text-rendering="geometricPrecision" shape-rendering="geometricPrecision" transform="matrix(1,0,0,1,-141,203)" stroke="rgb(153,204,0)">
      <rect x="484.1382" width="180" height="73" y="224.8457" clip-path="url(#clipPath3)" stroke="none"/>
    </g>
    <g text-rendering="geometricPrecision" stroke-miterlimit="1.45" shape-rendering="geometricPrecision" transform="matrix(1,0,0,1,-141,203)" stroke-linecap="butt">
      <rect fill="none" x="484.1382" width="180" height="73" y="224.8457" clip-path="url(#clipPath3)"/>
      <text x="509.9078" xml:space="preserve" y="265.5" clip-path="url(#clipPath3)" font-family="sans-serif" stroke="none">Encounter Placement</text>
    </g>
    <g fill="rgb(255,102,0)" text-rendering="geometricPrecision" shape-rendering="geometricPrecision" transform="matrix(1,0,0,1,-141,203)" stroke="rgb(255,102,0)">
      <rect x="484.1382" width="180" height="73" y="327.8457" clip-path="url(#clipPath3)" stroke="none"/>
    </g>
    <g text-rendering="geometricPrecision" stroke-miterlimit="1.45" shape-rendering="geometricPrecision" transform="matrix(1,0,0,1,-141,203)" stroke-linecap="butt">
      <rect fill="none" x="484.1382" width="180" height="73" y="327.8457" clip-path="url(#clipPath3)"/>
      <text x="486.189" xml:space="preserve" y="368.5" clip-path="url(#clipPath3)" font-family="sans-serif" stroke="none">Playable Random Encounters</text>
    </g>
    <g fill="rgb(153,204,0)" text-rendering="geometricPrecision" shape-rendering="geometricPrecision" transform="matrix(1,0,0,1,-141,203)" stroke="rgb(153,204,0)">
      <rect x="334.1382" width="180" height="73" y="18.8457" clip-path="url(#clipPath3)" stroke="none"/>
    </g>
    <g text-rendering="geometricPrecision" stroke-miterlimit="1.45" shape-rendering="geometricPrecision" transform="matrix(1,0,0,1,-141,203)" stroke-linecap="butt">
      <rect fill="none" x="334.1382" width="180" height="73" y="18.8457" clip-path="url(#clipPath3)"/>
      <text x="348.5435" xml:space="preserve" y="59.5" clip-path="url(#clipPath3)" font-family="sans-serif" stroke="none">Monster/Character Editor</text>
    </g>
    <g fill="rgb(153,204,0)" text-rendering="geometricPrecision" shape-rendering="geometricPrecision" transform="matrix(1,0,0,1,-141,203)" stroke="rgb(153,204,0)">
      <rect x="334.1382" width="180" height="73" y="-84.1543" clip-path="url(#clipPath3)" stroke="none"/>
    </g>
    <g text-rendering="geometricPrecision" stroke-miterlimit="1.45" shape-rendering="geometricPrecision" transform="matrix(1,0,0,1,-141,203)" stroke-linecap="butt">
      <rect fill="none" x="334.1382" width="180" height="73" y="-84.1543" clip-path="url(#clipPath3)"/>
      <text x="408.8218" xml:space="preserve" y="-43.5" clip-path="url(#clipPath3)" font-family="sans-serif" stroke="none">Stats</text>
    </g>
    <g fill="rgb(153,204,0)" text-rendering="geometricPrecision" shape-rendering="geometricPrecision" transform="matrix(1,0,0,1,-141,203)" stroke="rgb(153,204,0)">
      <rect x="884.1382" y="327.8457" clip-path="url(#clipPath3)" width="180" rx="4" ry="4" height="73" stroke="none"/>
    </g>
    <g stroke-linecap="butt" transform="matrix(1,0,0,1,-141,203)" fill="gray" text-rendering="geometricPrecision" shape-rendering="geometricPrecision" stroke="gray" stroke-miterlimit="1.45">
      <rect x="884.1382" y="327.8457" clip-path="url(#clipPath3)" fill="none" width="180" rx="4" ry="4" height="73"/>
      <text x="897.7964" y="368.5" clip-path="url(#clipPath3)" fill="black" font-family="sans-serif" stroke="none" xml:space="preserve">Initial Asset Management</text>
    </g>
    <g fill="red" text-rendering="geometricPrecision" shape-rendering="geometricPrecision" transform="matrix(1,0,0,1,-141,203)" stroke="red">
      <circle r="37.8" clip-path="url(#clipPath3)" cx="974.1382" cy="474.8957" stroke="none"/>
    </g>
    <g text-rendering="geometricPrecision" stroke-miterlimit="1.45" shape-rendering="geometricPrecision" transform="matrix(1,0,0,1,-141,203)" stroke-linecap="butt">
      <circle fill="none" r="37.8" clip-path="url(#clipPath3)" cx="974.1382" cy="474.8957"/>
      <text x="955.3209" xml:space="preserve" y="472.0656" clip-path="url(#clipPath3)" font-family="sans-serif" stroke="none">v0.0.1</text>
      <text x="942.3511" xml:space="preserve" y="486.0344" clip-path="url(#clipPath3)" font-family="sans-serif" stroke="none">Prerelease</text>
    </g>
    <g fill="maroon" text-rendering="geometricPrecision" shape-rendering="geometricPrecision" transform="matrix(1,0,0,1,-141,203)" stroke="maroon">
      <ellipse rx="37.8" ry="36.5" clip-path="url(#clipPath3)" cx="974.1382" cy="692.1957" stroke="none"/>
    </g>
    <g text-rendering="geometricPrecision" stroke-miterlimit="1.45" shape-rendering="geometricPrecision" transform="matrix(1,0,0,1,-141,203)" stroke-linecap="butt">
      <ellipse rx="37.8" fill="none" ry="36.5" clip-path="url(#clipPath3)" cx="974.1382" cy="692.1957"/>
      <text x="948.108" y="689.3657" clip-path="url(#clipPath3)" fill="rgb(255,204,153)" font-family="sans-serif" stroke="none" xml:space="preserve">Example</text>
      <text x="956.2759" y="703.3344" clip-path="url(#clipPath3)" fill="rgb(255,204,153)" font-family="sans-serif" stroke="none" xml:space="preserve">Game</text>
    </g>
    <g fill="rgb(255,204,0)" text-rendering="geometricPrecision" shape-rendering="geometricPrecision" transform="matrix(1,0,0,1,-141,203)" stroke="rgb(255,204,0)">
      <rect x="684.1382" width="180" height="73" y="224.8457" clip-path="url(#clipPath3)" stroke="none"/>
    </g>
    <g text-rendering="geometricPrecision" stroke-miterlimit="1.45" shape-rendering="geometricPrecision" transform="matrix(1,0,0,1,-141,203)" stroke-linecap="butt">
      <rect fill="none" x="684.1382" width="180" height="73" y="224.8457" clip-path="url(#clipPath3)"/>
      <text x="724.0172" xml:space="preserve" y="265.5" clip-path="url(#clipPath3)" font-family="sans-serif" stroke="none">Initial Combat UI</text>
    </g>
    <g fill="rgb(153,204,0)" text-rendering="geometricPrecision" shape-rendering="geometricPrecision" transform="matrix(1,0,0,1,-141,203)" stroke="rgb(153,204,0)">
      <rect x="884.1382" width="180" height="73" y="224.8457" clip-path="url(#clipPath3)" stroke="none"/>
    </g>
    <g text-rendering="geometricPrecision" stroke-miterlimit="1.45" shape-rendering="geometricPrecision" transform="matrix(1,0,0,1,-141,203)" stroke-linecap="butt">
      <rect fill="none" x="884.1382" width="180" height="73" y="224.8457" clip-path="url(#clipPath3)"/>
      <text x="911.941" xml:space="preserve" y="265.5" clip-path="url(#clipPath3)" font-family="sans-serif" stroke="none">Project Management</text>
    </g>
    <g fill="maroon" text-rendering="geometricPrecision" shape-rendering="geometricPrecision" transform="matrix(1,0,0,1,-141,203)" stroke="maroon">
      <rect x="1084.1382" width="180" height="73" y="547.6957" clip-path="url(#clipPath3)" stroke="none"/>
    </g>
    <g text-rendering="geometricPrecision" stroke-miterlimit="1.45" shape-rendering="geometricPrecision" transform="matrix(1,0,0,1,-141,203)" stroke-linecap="butt">
      <rect fill="none" x="1084.1382" width="180" height="73" y="547.6957" clip-path="url(#clipPath3)"/>
      <text x="1126.5454" y="588.35" clip-path="url(#clipPath3)" fill="rgb(255,204,153)" font-family="sans-serif" stroke="none" xml:space="preserve">Map Transitions</text>
    </g>
    <g fill="maroon" text-rendering="geometricPrecision" shape-rendering="geometricPrecision" transform="matrix(1,0,0,1,-141,203)" stroke="maroon">
      <rect x="884.1382" width="180" height="73" y="547.6957" clip-path="url(#clipPath3)" stroke="none"/>
    </g>
    <g text-rendering="geometricPrecision" stroke-miterlimit="1.45" shape-rendering="geometricPrecision" transform="matrix(1,0,0,1,-141,203)" stroke-linecap="butt">
      <rect fill="none" x="884.1382" width="180" height="73" y="547.6957" clip-path="url(#clipPath3)"/>
      <text x="926.5338" y="588.35" clip-path="url(#clipPath3)" fill="rgb(255,204,153)" font-family="sans-serif" stroke="none" xml:space="preserve">Win/Loss States</text>
    </g>
    <g fill="maroon" text-rendering="geometricPrecision" shape-rendering="geometricPrecision" transform="matrix(1,0,0,1,-141,203)" stroke="maroon">
      <ellipse rx="37.8" ry="36.5" clip-path="url(#clipPath3)" cx="974.1382" cy="1054.3756" stroke="none"/>
    </g>
    <g text-rendering="geometricPrecision" stroke-miterlimit="1.45" shape-rendering="geometricPrecision" transform="matrix(1,0,0,1,-141,203)" stroke-linecap="butt">
      <ellipse rx="37.8" fill="none" ry="36.5" clip-path="url(#clipPath3)" cx="974.1382" cy="1054.3756"/>
      <text x="935.4254" y="1058.5299" clip-path="url(#clipPath3)" fill="rgb(255,204,153)" font-family="sans-serif" stroke="none" xml:space="preserve">v1.0 Release</text>
    </g>
    <g fill="maroon" text-rendering="geometricPrecision" shape-rendering="geometricPrecision" transform="matrix(1,0,0,1,-141,203)" stroke="maroon">
      <rect x="884.1382" width="180" height="73" y="914.8756" clip-path="url(#clipPath3)" stroke="none"/>
    </g>
    <g text-rendering="geometricPrecision" stroke-miterlimit="1.45" shape-rendering="geometricPrecision" transform="matrix(1,0,0,1,-141,203)" stroke-linecap="butt">
      <rect fill="none" x="884.1382" width="180" height="73" y="914.8756" clip-path="url(#clipPath3)"/>
      <text x="887.3521" y="955.5299" clip-path="url(#clipPath3)" fill="rgb(255,204,153)" font-family="sans-serif" stroke="none" xml:space="preserve">Full Turn-Based RPG Support</text>
    </g>
    <g fill="maroon" text-rendering="geometricPrecision" shape-rendering="geometricPrecision" transform="matrix(1,0,0,1,-141,203)" stroke="maroon">
      <ellipse rx="37.8" ry="36.5" clip-path="url(#clipPath3)" cx="974.1382" cy="795.1957" stroke="none"/>
    </g>
    <g text-rendering="geometricPrecision" stroke-miterlimit="1.45" shape-rendering="geometricPrecision" transform="matrix(1,0,0,1,-141,203)" stroke-linecap="butt">
      <ellipse rx="37.8" fill="none" ry="36.5" clip-path="url(#clipPath3)" cx="974.1382" cy="795.1957"/>
      <text x="941.5572" y="792.3657" clip-path="url(#clipPath3)" fill="rgb(255,204,153)" font-family="sans-serif" stroke="none" xml:space="preserve">v0.1 (MVP)</text>
      <text x="950.4254" y="806.3344" clip-path="url(#clipPath3)" fill="rgb(255,204,153)" font-family="sans-serif" stroke="none" xml:space="preserve">Release</text>
    </g>
    <g fill="maroon" text-rendering="geometricPrecision" shape-rendering="geometricPrecision" transform="matrix(1,0,0,1,-141,203)" stroke="maroon">
      <rect x="684.1382" width="180" height="73" y="547.6957" clip-path="url(#clipPath3)" stroke="none"/>
    </g>
    <g text-rendering="geometricPrecision" stroke-miterlimit="1.45" shape-rendering="geometricPrecision" transform="matrix(1,0,0,1,-141,203)" stroke-linecap="butt">
      <rect fill="none" x="684.1382" width="180" height="73" y="547.6957" clip-path="url(#clipPath3)"/>
      <text x="700.6793" y="588.35" clip-path="url(#clipPath3)" fill="rgb(255,204,153)" font-family="sans-serif" stroke="none" xml:space="preserve">Sound Effects and Music</text>
    </g>
    <g fill="maroon" text-rendering="geometricPrecision" shape-rendering="geometricPrecision" transform="matrix(1,0,0,1,-141,203)" stroke="maroon">
      <rect x="484.1382" width="180" height="73" y="547.6957" clip-path="url(#clipPath3)" stroke="none"/>
    </g>
    <g text-rendering="geometricPrecision" stroke-miterlimit="1.45" shape-rendering="geometricPrecision" transform="matrix(1,0,0,1,-141,203)" stroke-linecap="butt">
      <rect fill="none" x="484.1382" width="180" height="73" y="547.6957" clip-path="url(#clipPath3)"/>
      <text x="545.3189" y="588.35" clip-path="url(#clipPath3)" fill="rgb(255,204,153)" font-family="sans-serif" stroke="none" xml:space="preserve">XP/Levels</text>
    </g>
    <g fill="maroon" text-rendering="geometricPrecision" shape-rendering="geometricPrecision" transform="matrix(1,0,0,1,-141,203)" stroke="maroon">
      <rect x="1284.1382" width="180" height="73" y="547.6957" clip-path="url(#clipPath3)" stroke="none"/>
    </g>
    <g text-rendering="geometricPrecision" stroke-miterlimit="1.45" shape-rendering="geometricPrecision" transform="matrix(1,0,0,1,-141,203)" stroke-linecap="butt">
      <rect fill="none" x="1284.1382" width="180" height="73" y="547.6957" clip-path="url(#clipPath3)"/>
      <text x="1331.4292" y="588.35" clip-path="url(#clipPath3)" fill="rgb(255,204,153)" font-family="sans-serif" stroke="none" xml:space="preserve">Game 'Export'</text>
      <path fill="none" d="M779.1382 -11.1543 L779.1382 -1.1543 L714.1382 -1.1543 L714.1382 10.8066" clip-path="url(#clipPath3)"/>
      <path d="M714.1382 18.8066 L719.1382 6.8066 L714.1382 9.8066 L709.1382 6.8066 Z" clip-path="url(#clipPath3)" stroke="none"/>
      <path fill="none" d="M624.1382 -11.1543 L624.1382 10.8164" clip-path="url(#clipPath3)"/>
      <path d="M624.1382 18.8164 L629.1382 6.8164 L624.1382 9.8164 L619.1382 6.8164 Z" clip-path="url(#clipPath3)" stroke="none"/>
      <path fill="none" d="M714.1382 91.8457 L714.1382 101.8457 L874.1382 101.8457 L874.1382 113.8066" clip-path="url(#clipPath3)"/>
      <path d="M874.1382 121.8066 L879.1382 109.8066 L874.1382 112.8066 L869.1382 109.8066 Z" clip-path="url(#clipPath3)" stroke="none"/>
      <path fill="none" d="M624.1382 91.8457 L624.1382 101.8457 L514.1382 101.8457 L514.1382 113.8066" clip-path="url(#clipPath3)"/>
      <path d="M514.1382 121.8066 L519.1382 109.8066 L514.1382 112.8066 L509.1382 109.8066 Z" clip-path="url(#clipPath3)" stroke="none"/>
      <path fill="none" d="M1069.1382 -11.1543 L1069.1382 101.8457 L994.1382 101.8457 L994.1382 113.8066" clip-path="url(#clipPath3)"/>
      <path d="M994.1382 121.8066 L999.1382 109.8066 L994.1382 112.8066 L989.1382 109.8066 Z" clip-path="url(#clipPath3)" stroke="none"/>
      <path fill="none" d="M869.1382 -11.1543 L869.1382 -1.1543 L889.1382 -1.1543 L889.1382 10.8066" clip-path="url(#clipPath3)"/>
      <path d="M889.1382 18.8066 L894.1382 6.8066 L889.1382 9.8066 L884.1382 6.8066 Z" clip-path="url(#clipPath3)" stroke="none"/>
      <path fill="none" d="M979.1382 -11.1543 L979.1382 10.8164" clip-path="url(#clipPath3)"/>
      <path d="M979.1382 18.8164 L984.1382 6.8164 L979.1382 9.8164 L974.1382 6.8164 Z" clip-path="url(#clipPath3)" stroke="none"/>
      <path fill="none" d="M934.1382 91.8457 L934.1382 113.8164" clip-path="url(#clipPath3)"/>
      <path d="M934.1382 121.8164 L939.1382 109.8164 L934.1382 112.8164 L929.1382 109.8164 Z" clip-path="url(#clipPath3)" stroke="none"/>
      <path fill="none" d="M714.1382 -114.1543 L714.1382 -104.1543 L824.1382 -104.1543 L824.1382 -92.1934" clip-path="url(#clipPath3)"/>
      <path d="M824.1382 -84.1934 L829.1382 -96.1934 L824.1382 -93.1934 L819.1382 -96.1934 Z" clip-path="url(#clipPath3)" stroke="none"/>
      <path fill="none" d="M624.1382 -114.1543 L624.1382 -92.1836" clip-path="url(#clipPath3)"/>
      <path d="M624.1382 -84.1836 L629.1382 -96.1836 L624.1382 -93.1836 L619.1382 -96.1836 Z" clip-path="url(#clipPath3)" stroke="none"/>
      <path fill="none" d="M979.1382 194.8457 L979.1382 204.8457 L1174.1382 204.8457 L1174.1382 216.8067" clip-path="url(#clipPath3)"/>
      <path d="M1174.1382 224.8067 L1179.1382 212.8067 L1174.1382 215.8067 L1169.1382 212.8067 Z" clip-path="url(#clipPath3)" stroke="none"/>
      <path fill="none" d="M889.1382 194.8457 L889.1382 204.8457 L574.1382 204.8457 L574.1382 216.8067" clip-path="url(#clipPath3)"/>
      <path d="M574.1382 224.8067 L579.1382 212.8067 L574.1382 215.8067 L569.1382 212.8067 Z" clip-path="url(#clipPath3)" stroke="none"/>
      <path fill="none" d="M469.1382 194.8457 L469.1382 307.8457 L514.1382 307.8457 L514.1382 319.8066" clip-path="url(#clipPath3)"/>
      <path d="M514.1382 327.8066 L519.1382 315.8066 L514.1382 318.8066 L509.1382 315.8066 Z" clip-path="url(#clipPath3)" stroke="none"/>
      <path fill="none" d="M574.1382 297.8457 L574.1382 319.8164" clip-path="url(#clipPath3)"/>
      <path d="M574.1382 327.8164 L579.1382 315.8164 L574.1382 318.8164 L569.1382 315.8164 Z" clip-path="url(#clipPath3)" stroke="none"/>
      <path fill="none" d="M424.1382 91.8457 L424.1382 113.8164" clip-path="url(#clipPath3)"/>
      <path d="M424.1382 121.8164 L429.1382 109.8164 L424.1382 112.8164 L419.1382 109.8164 Z" clip-path="url(#clipPath3)" stroke="none"/>
      <path fill="none" d="M424.1382 -11.1543 L424.1382 10.8164" clip-path="url(#clipPath3)"/>
      <path d="M424.1382 18.8164 L429.1382 6.8164 L424.1382 9.8164 L419.1382 6.8164 Z" clip-path="url(#clipPath3)" stroke="none"/>
      <path fill="none" d="M974.1382 400.8457 L974.1382 409.5957 L974.1382 409.5957 L974.1382 429.0957" clip-path="url(#clipPath3)"/>
      <path d="M974.1382 437.0957 L979.1382 425.0957 L974.1382 428.0957 L969.1382 425.0957 Z" clip-path="url(#clipPath3)" stroke="none"/>
      <path fill="none" d="M574.1382 400.8457 L574.1382 417.0957 L950.9382 417.0957 L950.9382 429.0957" clip-path="url(#clipPath3)"/>
      <path d="M950.9382 437.0957 L955.9382 425.0957 L950.9382 428.0957 L945.9382 425.0957 Z" clip-path="url(#clipPath3)" stroke="none"/>
      <path fill="none" d="M1231.6233 297.8457 L1231.6233 409.5957 L997.3383 409.5957 L997.3383 429.0957" clip-path="url(#clipPath3)"/>
      <path d="M997.3383 437.0957 L1002.3383 425.0957 L997.3383 428.0957 L992.3383 425.0957 Z" clip-path="url(#clipPath3)" stroke="none"/>
      <path fill="none" d="M774.1382 297.8457 L774.1382 307.8457 L634.1382 307.8457 L634.1382 319.8066" clip-path="url(#clipPath3)"/>
      <path d="M634.1382 327.8066 L639.1382 315.8066 L634.1382 318.8066 L629.1382 315.8066 Z" clip-path="url(#clipPath3)" stroke="none"/>
      <path fill="none" d="M974.1382 297.8457 L974.1382 319.8164" clip-path="url(#clipPath3)"/>
      <path d="M974.1382 327.8164 L979.1382 315.8164 L974.1382 318.8164 L969.1382 315.8164 Z" clip-path="url(#clipPath3)" stroke="none"/>
      <path fill="none" d="M989.2582 512.6957 L989.2582 532.6957 L1174.1382 532.6957 L1174.1382 539.6664" clip-path="url(#clipPath3)"/>
      <path d="M1174.1382 547.6664 L1179.1382 535.6664 L1174.1382 538.6664 L1169.1382 535.6664 Z" clip-path="url(#clipPath3)" stroke="none"/>
      <path fill="none" d="M1174.1382 620.7348 L1174.1382 630.6957 L989.2582 630.6957 L989.2582 647.6957" clip-path="url(#clipPath3)"/>
      <path d="M989.2582 655.6957 L994.2582 643.6957 L989.2582 646.6957 L984.2582 643.6957 Z" clip-path="url(#clipPath3)" stroke="none"/>
      <path fill="none" d="M974.1382 512.6957 L974.1382 539.6616" clip-path="url(#clipPath3)"/>
      <path d="M974.1382 547.6616 L979.1382 535.6616 L974.1382 538.6616 L969.1382 535.6616 Z" clip-path="url(#clipPath3)" stroke="none"/>
      <path fill="none" d="M974.1382 620.7299 L974.1382 647.6957" clip-path="url(#clipPath3)"/>
      <path d="M974.1382 655.6957 L979.1382 643.6957 L974.1382 646.6957 L969.1382 643.6957 Z" clip-path="url(#clipPath3)" stroke="none"/>
      <path fill="none" d="M974.1382 987.8756 L974.1382 1009.8756" clip-path="url(#clipPath3)"/>
      <path d="M974.1382 1017.8756 L979.1382 1005.8756 L974.1382 1008.8756 L969.1382 1005.8756 Z" clip-path="url(#clipPath3)" stroke="none"/>
      <path fill="none" d="M974.1382 728.6957 L974.1382 750.6957" clip-path="url(#clipPath3)"/>
      <path d="M974.1382 758.6957 L979.1382 746.6957 L974.1382 749.6957 L969.1382 746.6957 Z" clip-path="url(#clipPath3)" stroke="none"/>
    </g>
    <g stroke-linecap="round" transform="matrix(1,0,0,1,-141,203)" stroke-dashoffset="2" text-rendering="geometricPrecision" shape-rendering="geometricPrecision" stroke-dasharray="0,20" stroke-width="5" stroke-miterlimit="1.45">
      <path fill="none" d="M974.1382 831.6957 L974.1382 846.6957 L974.1382 846.6957 L974.1382 902.8423" clip-path="url(#clipPath3)"/>
      <path d="M974.1382 914.8423 L981.6382 896.8423 L974.1382 901.3423 L966.6382 896.8423 Z" clip-path="url(#clipPath3)" stroke="none"/>
    </g>
    <g text-rendering="geometricPrecision" stroke-miterlimit="1.45" shape-rendering="geometricPrecision" transform="matrix(1,0,0,1,-141,203)" stroke-linecap="butt">
      <path fill="none" d="M959.0182 512.6957 L959.0182 532.6957 L774.1382 532.6957 L774.1382 539.6664" clip-path="url(#clipPath3)"/>
      <path d="M774.1382 547.6664 L779.1382 535.6664 L774.1382 538.6664 L769.1382 535.6664 Z" clip-path="url(#clipPath3)" stroke="none"/>
      <path fill="none" d="M774.1382 620.7348 L774.1382 630.6957 L959.0182 630.6957 L959.0182 647.6957" clip-path="url(#clipPath3)"/>
      <path d="M959.0182 655.6957 L964.0182 643.6957 L959.0182 646.6957 L954.0182 643.6957 Z" clip-path="url(#clipPath3)" stroke="none"/>
      <path fill="none" d="M943.8983 512.6957 L943.8983 522.6957 L574.1382 522.6957 L574.1382 539.6469" clip-path="url(#clipPath3)"/>
      <path d="M574.1382 547.6469 L579.1382 535.6469 L574.1382 538.6469 L569.1382 535.6469 Z" clip-path="url(#clipPath3)" stroke="none"/>
      <path fill="none" d="M574.1382 620.7348 L574.1382 640.6957 L943.8983 640.6957 L943.8983 647.6957" clip-path="url(#clipPath3)"/>
      <path d="M943.8983 655.6957 L948.8983 643.6957 L943.8983 646.6957 L938.8983 643.6957 Z" clip-path="url(#clipPath3)" stroke="none"/>
      <path fill="none" d="M1004.3782 512.6957 L1004.3782 522.6957 L1374.1382 522.6957 L1374.1382 539.6469" clip-path="url(#clipPath3)"/>
      <path d="M1374.1382 547.6469 L1379.1382 535.6469 L1374.1382 538.6469 L1369.1382 535.6469 Z" clip-path="url(#clipPath3)" stroke="none"/>
      <path fill="none" d="M1374.1382 620.7348 L1374.1382 640.6957 L1004.3782 640.6957 L1004.3782 647.6957" clip-path="url(#clipPath3)"/>
      <path d="M1004.3782 655.6957 L1009.3782 643.6957 L1004.3782 646.6957 L999.3782 643.6957 Z" clip-path="url(#clipPath3)" stroke="none"/>
    </g>
  </g>
</svg>
