<?xml version="1.0" encoding="UTF-8"?><svg xmlns="http://www.w3.org/2000/svg" xmlns:xlink="http://www.w3.org/1999/xlink" fill-opacity="1" color-rendering="auto" color-interpolation="auto" text-rendering="auto" stroke="black" stroke-linecap="square" width="1829" stroke-miterlimit="10" shape-rendering="auto" stroke-opacity="1" fill="black" stroke-dasharray="none" font-weight="normal" stroke-width="1" height="1546" font-family="'Dialog'" font-style="normal" stroke-linejoin="miter" font-size="12px" stroke-dashoffset="0" image-rendering="auto">
  <!--Generated by ySVG 2.5-->
  <defs id="genericDefs"/>
  <g>
    <defs id="defs1">
      <clipPath clipPathUnits="userSpaceOnUse" id="clipPath1">
        <path d="M0 0 L1829 0 L1829 1546 L0 1546 L0 0 Z"/>
      </clipPath>
      <clipPath clipPathUnits="userSpaceOnUse" id="clipPath2">
        <path d="M137 -162 L1966 -162 L1966 1384 L137 1384 L137 -162 Z"/>
      </clipPath>
      <clipPath clipPathUnits="userSpaceOnUse" id="clipPath3">
        <path d="M141 -158 L1970 -158 L1970 1388 L141 1388 L141 -158 Z"/>
      </clipPath>
    </defs>
    <g fill="rgb(210,210,210)" text-rendering="geometricPrecision" shape-rendering="geometricPrecision" transform="matrix(1,0,0,1,-141,158) translate(4,4)" stroke="rgb(210,210,210)">
      <rect x="156.8187" width="147.3196" height="216" y="-52.6543" clip-path="url(#clipPath2)" stroke="none"/>
    </g>
    <g fill="rgb(242,240,216)" text-rendering="geometricPrecision" shape-rendering="geometricPrecision" transform="matrix(1,0,0,1,-141,158)" stroke="rgb(242,240,216)">
      <rect x="156.8187" width="147.3196" height="216" y="-52.6543" clip-path="url(#clipPath3)" stroke="none"/>
      <rect x="156.8187" y="-52.6543" clip-path="url(#clipPath3)" fill="rgb(183,182,158)" width="147.3196" height="21.4609" stroke="none"/>
    </g>
    <g font-size="15px" stroke-linecap="butt" transform="matrix(1,0,0,1,-141,158)" text-rendering="geometricPrecision" font-family="sans-serif" shape-rendering="geometricPrecision" stroke-miterlimit="1.45">
      <text x="222.4581" xml:space="preserve" y="-36.7309" clip-path="url(#clipPath3)" stroke="none">Shape Key</text>
      <rect fill="none" x="156.8187" width="147.3196" height="216" y="-52.6543" clip-path="url(#clipPath3)"/>
    </g>
    <g fill="rgb(255,204,0)" text-rendering="geometricPrecision" shape-rendering="geometricPrecision" transform="matrix(1,0,0,1,-141,158)" stroke="rgb(255,204,0)">
      <rect x="171.8187" width="117.3196" height="35.3086" y="-12.6543" clip-path="url(#clipPath3)" stroke="none"/>
    </g>
    <g text-rendering="geometricPrecision" stroke-miterlimit="1.45" shape-rendering="geometricPrecision" transform="matrix(1,0,0,1,-141,158)" stroke-linecap="butt">
      <rect fill="none" x="171.8187" width="117.3196" height="35.3086" y="-12.6543" clip-path="url(#clipPath3)"/>
      <text x="190.998" xml:space="preserve" y="9.1543" clip-path="url(#clipPath3)" font-family="sans-serif" stroke="none">Halberd Task</text>
    </g>
    <g fill="rgb(255,204,0)" text-rendering="geometricPrecision" shape-rendering="geometricPrecision" transform="matrix(1,0,0,1,-141,158)" stroke="rgb(255,204,0)">
      <rect x="171.8187" y="35.6668" clip-path="url(#clipPath3)" width="117.3196" rx="4" ry="4" height="35.3086" stroke="none"/>
    </g>
    <g stroke-linecap="butt" transform="matrix(1,0,0,1,-141,158)" fill="gray" text-rendering="geometricPrecision" shape-rendering="geometricPrecision" stroke="gray" stroke-miterlimit="1.45">
      <rect x="171.8187" y="35.6668" clip-path="url(#clipPath3)" fill="none" width="117.3196" rx="4" ry="4" height="35.3086"/>
      <text x="189.6298" y="57.4754" clip-path="url(#clipPath3)" fill="black" font-family="sans-serif" stroke="none" xml:space="preserve">External Task</text>
    </g>
    <g fill="rgb(255,204,0)" text-rendering="geometricPrecision" shape-rendering="geometricPrecision" transform="matrix(1,0,0,1,-141,158)" stroke="rgb(255,204,0)">
      <circle r="29.864" clip-path="url(#clipPath3)" cx="230.4785" cy="113.852" stroke="none"/>
    </g>
    <g text-rendering="geometricPrecision" stroke-miterlimit="1.45" shape-rendering="geometricPrecision" transform="matrix(1,0,0,1,-141,158)" stroke-linecap="butt">
      <circle fill="none" r="29.864" clip-path="url(#clipPath3)" cx="230.4785" cy="113.852"/>
      <text x="206.7656" xml:space="preserve" y="118.0063" clip-path="url(#clipPath3)" font-family="sans-serif" stroke="none">Release</text>
    </g>
    <g fill="rgb(210,210,210)" text-rendering="geometricPrecision" shape-rendering="geometricPrecision" transform="matrix(1,0,0,1,-141,158) translate(4,4)" stroke="rgb(210,210,210)">
      <rect x="156.8187" width="147.3196" height="279.9426" y="188.2305" clip-path="url(#clipPath2)" stroke="none"/>
    </g>
    <g fill="rgb(242,240,216)" text-rendering="geometricPrecision" shape-rendering="geometricPrecision" transform="matrix(1,0,0,1,-141,158)" stroke="rgb(242,240,216)">
      <rect x="156.8187" width="147.3196" height="279.9426" y="188.2305" clip-path="url(#clipPath3)" stroke="none"/>
      <rect x="156.8187" y="188.2305" clip-path="url(#clipPath3)" fill="rgb(183,182,158)" width="147.3196" height="21.4609" stroke="none"/>
    </g>
    <g font-size="15px" stroke-linecap="butt" transform="matrix(1,0,0,1,-141,158)" text-rendering="geometricPrecision" font-family="sans-serif" shape-rendering="geometricPrecision" stroke-miterlimit="1.45">
      <text x="230.2657" xml:space="preserve" y="204.1538" clip-path="url(#clipPath3)" stroke="none">Color Key</text>
      <rect fill="none" x="156.8187" width="147.3196" height="279.9426" y="188.2305" clip-path="url(#clipPath3)"/>
    </g>
    <g fill="maroon" text-rendering="geometricPrecision" shape-rendering="geometricPrecision" transform="matrix(1,0,0,1,-141,158)" stroke="maroon">
      <rect x="171.8187" width="117.3196" height="35.3086" y="224.6914" clip-path="url(#clipPath3)" stroke="none"/>
    </g>
    <g text-rendering="geometricPrecision" stroke-miterlimit="1.45" shape-rendering="geometricPrecision" transform="matrix(1,0,0,1,-141,158)" stroke-linecap="butt">
      <rect fill="none" x="171.8187" width="117.3196" height="35.3086" y="224.6914" clip-path="url(#clipPath3)"/>
      <text x="193.4589" y="246.5" clip-path="url(#clipPath3)" fill="rgb(255,204,153)" font-family="sans-serif" stroke="none" xml:space="preserve">Future Work</text>
    </g>
    <g fill="red" text-rendering="geometricPrecision" shape-rendering="geometricPrecision" transform="matrix(1,0,0,1,-141,158)" stroke="red">
      <rect x="171.8187" width="117.3196" height="35.3086" y="273.0863" clip-path="url(#clipPath3)" stroke="none"/>
    </g>
    <g text-rendering="geometricPrecision" stroke-miterlimit="1.45" shape-rendering="geometricPrecision" transform="matrix(1,0,0,1,-141,158)" stroke-linecap="butt">
      <rect fill="none" x="171.8187" width="117.3196" height="35.3086" y="273.0863" clip-path="url(#clipPath3)"/>
      <text x="182.7334" xml:space="preserve" y="294.8949" clip-path="url(#clipPath3)" font-family="sans-serif" stroke="none">Upcoming Work</text>
    </g>
    <g fill="rgb(255,102,0)" text-rendering="geometricPrecision" shape-rendering="geometricPrecision" transform="matrix(1,0,0,1,-141,158)" stroke="rgb(255,102,0)">
      <rect x="171.8187" width="117.3196" height="35.3086" y="321.3457" clip-path="url(#clipPath3)" stroke="none"/>
    </g>
    <g text-rendering="geometricPrecision" stroke-miterlimit="1.45" shape-rendering="geometricPrecision" transform="matrix(1,0,0,1,-141,158)" stroke-linecap="butt">
      <rect fill="none" x="171.8187" width="117.3196" height="35.3086" y="321.3457" clip-path="url(#clipPath3)"/>
      <text x="198.9433" xml:space="preserve" y="343.1543" clip-path="url(#clipPath3)" font-family="sans-serif" stroke="none">Next Work</text>
    </g>
    <g fill="rgb(255,204,0)" text-rendering="geometricPrecision" shape-rendering="geometricPrecision" transform="matrix(1,0,0,1,-141,158)" stroke="rgb(255,204,0)">
      <rect x="171.8187" width="117.3196" height="35.3086" y="369.6051" clip-path="url(#clipPath3)" stroke="none"/>
    </g>
    <g text-rendering="geometricPrecision" stroke-miterlimit="1.45" shape-rendering="geometricPrecision" transform="matrix(1,0,0,1,-141,158)" stroke-linecap="butt">
      <rect fill="none" x="171.8187" width="117.3196" height="35.3086" y="369.6051" clip-path="url(#clipPath3)"/>
      <text x="197.0244" xml:space="preserve" y="391.4137" clip-path="url(#clipPath3)" font-family="sans-serif" stroke="none">In Progress</text>
    </g>
    <g fill="rgb(153,204,0)" text-rendering="geometricPrecision" shape-rendering="geometricPrecision" transform="matrix(1,0,0,1,-141,158)" stroke="rgb(153,204,0)">
      <rect x="171.8187" width="117.3196" height="35.3086" y="417.8645" clip-path="url(#clipPath3)" stroke="none"/>
    </g>
    <g text-rendering="geometricPrecision" stroke-miterlimit="1.45" shape-rendering="geometricPrecision" transform="matrix(1,0,0,1,-141,158)" stroke-linecap="butt">
      <rect fill="none" x="171.8187" width="117.3196" height="35.3086" y="417.8645" clip-path="url(#clipPath3)"/>
      <text x="214.6933" xml:space="preserve" y="439.6731" clip-path="url(#clipPath3)" font-family="sans-serif" stroke="none">Done</text>
    </g>
    <g fill="rgb(153,204,0)" text-rendering="geometricPrecision" shape-rendering="geometricPrecision" transform="matrix(1,0,0,1,-141,158)" stroke="rgb(153,204,0)">
      <circle r="37.8" clip-path="url(#clipPath3)" cx="842.9585" cy="-104.3" stroke="none"/>
    </g>
    <g text-rendering="geometricPrecision" stroke-miterlimit="1.45" shape-rendering="geometricPrecision" transform="matrix(1,0,0,1,-141,158)" stroke-linecap="butt">
      <circle fill="none" r="37.8" clip-path="url(#clipPath3)" cx="842.9585" cy="-104.3"/>
      <text x="824.1411" xml:space="preserve" y="-107.1301" clip-path="url(#clipPath3)" font-family="sans-serif" stroke="none">v0.0.1</text>
      <text x="819.3657" xml:space="preserve" y="-93.1613" clip-path="url(#clipPath3)" font-family="sans-serif" stroke="none">Preview</text>
    </g>
    <g fill="rgb(255,102,0)" text-rendering="geometricPrecision" shape-rendering="geometricPrecision" transform="matrix(1,0,0,1,-141,158)" stroke="rgb(255,102,0)">
      <ellipse rx="37.8" ry="36.5" clip-path="url(#clipPath3)" cx="827.8382" cy="437" stroke="none"/>
    </g>
    <g text-rendering="geometricPrecision" stroke-miterlimit="1.45" shape-rendering="geometricPrecision" transform="matrix(1,0,0,1,-141,158)" stroke-linecap="butt">
      <ellipse rx="37.8" fill="none" ry="36.5" clip-path="url(#clipPath3)" cx="827.8382" cy="437"/>
      <text x="801.808" xml:space="preserve" y="434.1699" clip-path="url(#clipPath3)" font-family="sans-serif" stroke="none">Example</text>
      <text x="809.976" xml:space="preserve" y="448.1387" clip-path="url(#clipPath3)" font-family="sans-serif" stroke="none">Game</text>
    </g>
    <g fill="rgb(153,204,0)" text-rendering="geometricPrecision" shape-rendering="geometricPrecision" transform="matrix(1,0,0,1,-141,158)" stroke="rgb(153,204,0)">
      <rect x="832.8382" width="180" height="73" y="71.5" clip-path="url(#clipPath3)" stroke="none"/>
    </g>
    <g text-rendering="geometricPrecision" stroke-miterlimit="1.45" shape-rendering="geometricPrecision" transform="matrix(1,0,0,1,-141,158)" stroke-linecap="butt">
      <rect fill="none" x="832.8382" width="180" height="73" y="71.5" clip-path="url(#clipPath3)"/>
      <text x="883.5687" xml:space="preserve" y="112.1543" clip-path="url(#clipPath3)" font-family="sans-serif" stroke="none">Map Triggers</text>
    </g>
    <g fill="rgb(153,204,0)" text-rendering="geometricPrecision" shape-rendering="geometricPrecision" transform="matrix(1,0,0,1,-141,158)" stroke="rgb(153,204,0)">
      <rect x="632.8382" width="180" height="73" y="71.5" clip-path="url(#clipPath3)" stroke="none"/>
    </g>
    <g text-rendering="geometricPrecision" stroke-miterlimit="1.45" shape-rendering="geometricPrecision" transform="matrix(1,0,0,1,-141,158)" stroke-linecap="butt">
      <rect fill="none" x="632.8382" width="180" height="73" y="71.5" clip-path="url(#clipPath3)"/>
      <text x="675.2338" xml:space="preserve" y="112.1543" clip-path="url(#clipPath3)" font-family="sans-serif" stroke="none">Win/Loss States</text>
    </g>
    <g fill="maroon" text-rendering="geometricPrecision" shape-rendering="geometricPrecision" transform="matrix(1,0,0,1,-141,158)" stroke="maroon">
      <ellipse rx="37.8" ry="36.5" clip-path="url(#clipPath3)" cx="1536.9067" cy="1335.5" stroke="none"/>
    </g>
    <g text-rendering="geometricPrecision" stroke-miterlimit="1.45" shape-rendering="geometricPrecision" transform="matrix(1,0,0,1,-141,158)" stroke-linecap="butt">
      <ellipse rx="37.8" fill="none" ry="36.5" clip-path="url(#clipPath3)" cx="1536.9067" cy="1335.5"/>
      <text x="1498.1937" y="1339.6543" clip-path="url(#clipPath3)" fill="rgb(255,204,153)" font-family="sans-serif" stroke="none" xml:space="preserve">v1.0 Release</text>
    </g>
    <g fill="maroon" text-rendering="geometricPrecision" shape-rendering="geometricPrecision" transform="matrix(1,0,0,1,-141,158)" stroke="maroon">
      <rect x="1446.9067" width="180" height="73" y="1196" clip-path="url(#clipPath3)" stroke="none"/>
    </g>
    <g text-rendering="geometricPrecision" stroke-miterlimit="1.45" shape-rendering="geometricPrecision" transform="matrix(1,0,0,1,-141,158)" stroke-linecap="butt">
      <rect fill="none" x="1446.9067" width="180" height="73" y="1196" clip-path="url(#clipPath3)"/>
      <text x="1450.1205" y="1236.6543" clip-path="url(#clipPath3)" fill="rgb(255,204,153)" font-family="sans-serif" stroke="none" xml:space="preserve">Full Turn-Based RPG Support</text>
    </g>
    <g fill="maroon" text-rendering="geometricPrecision" shape-rendering="geometricPrecision" transform="matrix(1,0,0,1,-141,158)" stroke="maroon">
      <ellipse rx="37.8" ry="36.5" clip-path="url(#clipPath3)" cx="827.8382" cy="550" stroke="none"/>
    </g>
    <g text-rendering="geometricPrecision" stroke-miterlimit="1.45" shape-rendering="geometricPrecision" transform="matrix(1,0,0,1,-141,158)" stroke-linecap="butt">
      <ellipse rx="37.8" fill="none" ry="36.5" clip-path="url(#clipPath3)" cx="827.8382" cy="550"/>
      <text x="791.1527" y="547.1699" clip-path="url(#clipPath3)" fill="rgb(255,204,153)" font-family="sans-serif" stroke="none" xml:space="preserve">v0.1 (AMVP)</text>
      <text x="804.1254" y="561.1387" clip-path="url(#clipPath3)" fill="rgb(255,204,153)" font-family="sans-serif" stroke="none" xml:space="preserve">Release</text>
    </g>
    <g fill="rgb(153,204,0)" text-rendering="geometricPrecision" shape-rendering="geometricPrecision" transform="matrix(1,0,0,1,-141,158)" stroke="rgb(153,204,0)">
      <rect x="1057.9585" width="180" height="73" y="-31.5" clip-path="url(#clipPath3)" stroke="none"/>
    </g>
    <g text-rendering="geometricPrecision" stroke-miterlimit="1.45" shape-rendering="geometricPrecision" transform="matrix(1,0,0,1,-141,158)" stroke-linecap="butt">
      <rect fill="none" x="1057.9585" width="180" height="73" y="-31.5" clip-path="url(#clipPath3)"/>
      <text x="1074.4995" xml:space="preserve" y="9.1543" clip-path="url(#clipPath3)" font-family="sans-serif" stroke="none">Sound Effects and Music</text>
    </g>
    <g fill="rgb(153,204,0)" text-rendering="geometricPrecision" shape-rendering="geometricPrecision" transform="matrix(1,0,0,1,-141,158)" stroke="rgb(153,204,0)">
      <rect x="327.8382" width="180" height="73" y="-31.5" clip-path="url(#clipPath3)" stroke="none"/>
    </g>
    <g text-rendering="geometricPrecision" stroke-miterlimit="1.45" shape-rendering="geometricPrecision" transform="matrix(1,0,0,1,-141,158)" stroke-linecap="butt">
      <rect fill="none" x="327.8382" width="180" height="73" y="-31.5" clip-path="url(#clipPath3)"/>
      <text x="389.0189" xml:space="preserve" y="9.1543" clip-path="url(#clipPath3)" font-family="sans-serif" stroke="none">XP/Levels</text>
    </g>
    <g fill="rgb(255,204,0)" text-rendering="geometricPrecision" shape-rendering="geometricPrecision" transform="matrix(1,0,0,1,-141,158)" stroke="rgb(255,204,0)">
      <rect x="432.8382" width="180" height="73" y="71.5" clip-path="url(#clipPath3)" stroke="none"/>
    </g>
    <g text-rendering="geometricPrecision" stroke-miterlimit="1.45" shape-rendering="geometricPrecision" transform="matrix(1,0,0,1,-141,158)" stroke-linecap="butt">
      <rect fill="none" x="432.8382" width="180" height="73" y="71.5" clip-path="url(#clipPath3)"/>
      <text x="480.1293" xml:space="preserve" y="112.1543" clip-path="url(#clipPath3)" font-family="sans-serif" stroke="none">Game 'Export'</text>
    </g>
    <g fill="rgb(153,204,0)" text-rendering="geometricPrecision" shape-rendering="geometricPrecision" transform="matrix(1,0,0,1,-141,158)" stroke="rgb(153,204,0)">
      <rect x="587.8382" width="180" height="73" y="-31.5" clip-path="url(#clipPath3)" stroke="none"/>
    </g>
    <g text-rendering="geometricPrecision" stroke-miterlimit="1.45" shape-rendering="geometricPrecision" transform="matrix(1,0,0,1,-141,158)" stroke-linecap="butt">
      <rect fill="none" x="587.8382" width="180" height="73" y="-31.5" clip-path="url(#clipPath3)"/>
      <text x="617.3783" xml:space="preserve" y="9.1543" clip-path="url(#clipPath3)" font-family="sans-serif" stroke="none">Game Configuration</text>
    </g>
    <g fill="maroon" text-rendering="geometricPrecision" shape-rendering="geometricPrecision" transform="matrix(1,0,0,1,-141,158)" stroke="maroon">
      <ellipse rx="37.8" ry="36.5" clip-path="url(#clipPath3)" cx="904.9567" cy="990.5188" stroke="none"/>
    </g>
    <g text-rendering="geometricPrecision" stroke-miterlimit="1.45" shape-rendering="geometricPrecision" transform="matrix(1,0,0,1,-141,158)" stroke-linecap="butt">
      <ellipse rx="37.8" fill="none" ry="36.5" clip-path="url(#clipPath3)" cx="904.9567" cy="990.5188"/>
      <text x="878.3756" y="980.7043" clip-path="url(#clipPath3)" fill="rgb(255,204,153)" font-family="sans-serif" stroke="none" xml:space="preserve">Finalized</text>
      <text x="878.9264" y="994.6731" clip-path="url(#clipPath3)" fill="rgb(255,204,153)" font-family="sans-serif" stroke="none" xml:space="preserve">Example</text>
      <text x="887.0944" y="1008.6418" clip-path="url(#clipPath3)" fill="rgb(255,204,153)" font-family="sans-serif" stroke="none" xml:space="preserve">Game</text>
    </g>
    <g fill="maroon" text-rendering="geometricPrecision" shape-rendering="geometricPrecision" transform="matrix(1,0,0,1,-141,158)" stroke="maroon">
      <ellipse rx="37.8" ry="36.5" clip-path="url(#clipPath3)" cx="1536.9067" cy="1093.5188" stroke="none"/>
    </g>
    <g text-rendering="geometricPrecision" stroke-miterlimit="1.45" shape-rendering="geometricPrecision" transform="matrix(1,0,0,1,-141,158)" stroke-linecap="butt">
      <ellipse rx="37.8" fill="none" ry="36.5" clip-path="url(#clipPath3)" cx="1536.9067" cy="1093.5188"/>
      <text x="1523.8138" y="1083.7043" clip-path="url(#clipPath3)" fill="rgb(255,204,153)" font-family="sans-serif" stroke="none" xml:space="preserve">v0.2</text>
      <text x="1508.474" y="1097.6731" clip-path="url(#clipPath3)" fill="rgb(255,204,153)" font-family="sans-serif" stroke="none" xml:space="preserve">True MVP</text>
      <text x="1513.1937" y="1111.6418" clip-path="url(#clipPath3)" fill="rgb(255,204,153)" font-family="sans-serif" stroke="none" xml:space="preserve">Release</text>
    </g>
    <g fill="rgb(153,204,0)" text-rendering="geometricPrecision" shape-rendering="geometricPrecision" transform="matrix(1,0,0,1,-141,158)" stroke="rgb(153,204,0)">
      <rect x="857.9585" width="180" height="73" y="-31.5" clip-path="url(#clipPath3)" stroke="none"/>
    </g>
    <g text-rendering="geometricPrecision" stroke-miterlimit="1.45" shape-rendering="geometricPrecision" transform="matrix(1,0,0,1,-141,158)" stroke-linecap="butt">
      <rect fill="none" x="857.9585" width="180" height="73" y="-31.5" clip-path="url(#clipPath3)"/>
      <text x="910.4995" xml:space="preserve" y="9.1543" clip-path="url(#clipPath3)" font-family="sans-serif" stroke="none">Sprite Editor</text>
    </g>
    <g fill="maroon" text-rendering="geometricPrecision" shape-rendering="geometricPrecision" transform="matrix(1,0,0,1,-141,158)" stroke="maroon">
      <rect x="1669.4067" width="180" height="73" y="846.0188" clip-path="url(#clipPath3)" stroke="none"/>
    </g>
    <g text-rendering="geometricPrecision" stroke-miterlimit="1.45" shape-rendering="geometricPrecision" transform="matrix(1,0,0,1,-141,158)" stroke-linecap="butt">
      <rect fill="none" x="1669.4067" width="180" height="73" y="846.0188" clip-path="url(#clipPath3)"/>
      <text x="1700.8304" y="886.6731" clip-path="url(#clipPath3)" fill="rgb(255,204,153)" font-family="sans-serif" stroke="none" xml:space="preserve">Settable Resolution</text>
    </g>
    <g fill="maroon" text-rendering="geometricPrecision" shape-rendering="geometricPrecision" transform="matrix(1,0,0,1,-141,158)" stroke="maroon">
      <rect x="1469.4067" width="180" height="73" y="846.0188" clip-path="url(#clipPath3)" stroke="none"/>
    </g>
    <g text-rendering="geometricPrecision" stroke-miterlimit="1.45" shape-rendering="geometricPrecision" transform="matrix(1,0,0,1,-141,158)" stroke-linecap="butt">
      <rect fill="none" x="1469.4067" width="180" height="73" y="846.0188" clip-path="url(#clipPath3)"/>
      <text x="1522.6449" y="886.6731" clip-path="url(#clipPath3)" fill="rgb(255,204,153)" font-family="sans-serif" stroke="none" xml:space="preserve">Test Profiles</text>
    </g>
    <g fill="maroon" text-rendering="geometricPrecision" shape-rendering="geometricPrecision" transform="matrix(1,0,0,1,-141,158)" stroke="maroon">
      <rect x="1269.4067" width="180" height="73" y="846.0188" clip-path="url(#clipPath3)" stroke="none"/>
    </g>
    <g text-rendering="geometricPrecision" stroke-miterlimit="1.45" shape-rendering="geometricPrecision" transform="matrix(1,0,0,1,-141,158)" stroke-linecap="butt">
      <rect fill="none" x="1269.4067" width="180" height="73" y="846.0188" clip-path="url(#clipPath3)"/>
      <text x="1318.7953" y="886.6731" clip-path="url(#clipPath3)" fill="rgb(255,204,153)" font-family="sans-serif" stroke="none" xml:space="preserve">Landing Page</text>
    </g>
    <g fill="maroon" text-rendering="geometricPrecision" shape-rendering="geometricPrecision" transform="matrix(1,0,0,1,-141,158)" stroke="maroon">
      <rect x="424.4067" width="180" height="73" y="743.0188" clip-path="url(#clipPath3)" stroke="none"/>
    </g>
    <g text-rendering="geometricPrecision" stroke-miterlimit="1.45" shape-rendering="geometricPrecision" transform="matrix(1,0,0,1,-141,158)" stroke-linecap="butt">
      <rect fill="none" x="424.4067" width="180" height="73" y="743.0188" clip-path="url(#clipPath3)"/>
      <text x="498.9848" y="783.6731" clip-path="url(#clipPath3)" fill="rgb(255,204,153)" font-family="sans-serif" stroke="none" xml:space="preserve">NPCs</text>
    </g>
    <g fill="maroon" text-rendering="geometricPrecision" shape-rendering="geometricPrecision" transform="matrix(1,0,0,1,-141,158)" stroke="maroon">
      <rect x="424.4067" width="180" height="73" y="846.0188" clip-path="url(#clipPath3)" stroke="none"/>
    </g>
    <g text-rendering="geometricPrecision" stroke-miterlimit="1.45" shape-rendering="geometricPrecision" transform="matrix(1,0,0,1,-141,158)" stroke-linecap="butt">
      <rect fill="none" x="424.4067" width="180" height="73" y="846.0188" clip-path="url(#clipPath3)"/>
      <text x="470.0102" y="886.6731" clip-path="url(#clipPath3)" fill="rgb(255,204,153)" font-family="sans-serif" stroke="none" xml:space="preserve">Basic Dialogue</text>
    </g>
    <g fill="maroon" text-rendering="geometricPrecision" shape-rendering="geometricPrecision" transform="matrix(1,0,0,1,-141,158)" stroke="maroon">
      <rect x="1001.9067" width="180" height="73" y="635.0188" clip-path="url(#clipPath3)" stroke="none"/>
    </g>
    <g text-rendering="geometricPrecision" stroke-miterlimit="1.45" shape-rendering="geometricPrecision" transform="matrix(1,0,0,1,-141,158)" stroke-linecap="butt">
      <rect fill="none" x="1001.9067" width="180" height="73" y="635.0188" clip-path="url(#clipPath3)"/>
      <text x="1043.1918" y="675.6731" clip-path="url(#clipPath3)" fill="rgb(255,204,153)" font-family="sans-serif" stroke="none" xml:space="preserve">Customizable UI</text>
    </g>
    <g fill="maroon" text-rendering="geometricPrecision" shape-rendering="geometricPrecision" transform="matrix(1,0,0,1,-141,158)" stroke="maroon">
      <rect x="824.4067" width="180" height="73" y="846.0188" clip-path="url(#clipPath3)" stroke="none"/>
    </g>
    <g text-rendering="geometricPrecision" stroke-miterlimit="1.45" shape-rendering="geometricPrecision" transform="matrix(1,0,0,1,-141,158)" stroke-linecap="butt">
      <rect fill="none" x="824.4067" width="180" height="73" y="846.0188" clip-path="url(#clipPath3)"/>
      <text x="881.8373" y="886.6731" clip-path="url(#clipPath3)" fill="rgb(255,204,153)" font-family="sans-serif" stroke="none" xml:space="preserve">Equipment</text>
    </g>
    <g fill="maroon" text-rendering="geometricPrecision" shape-rendering="geometricPrecision" transform="matrix(1,0,0,1,-141,158)" stroke="maroon">
      <rect x="1024.4067" width="180" height="73" y="743.0188" clip-path="url(#clipPath3)" stroke="none"/>
    </g>
    <g text-rendering="geometricPrecision" stroke-miterlimit="1.45" shape-rendering="geometricPrecision" transform="matrix(1,0,0,1,-141,158)" stroke-linecap="butt">
      <rect fill="none" x="1024.4067" width="180" height="73" y="743.0188" clip-path="url(#clipPath3)"/>
      <text x="1096.6381" y="783.6731" clip-path="url(#clipPath3)" fill="rgb(255,204,153)" font-family="sans-serif" stroke="none" xml:space="preserve">Spells</text>
    </g>
    <g fill="maroon" text-rendering="geometricPrecision" shape-rendering="geometricPrecision" transform="matrix(1,0,0,1,-141,158)" stroke="maroon">
      <rect x="824.4067" width="180" height="73" y="743.0188" clip-path="url(#clipPath3)" stroke="none"/>
    </g>
    <g text-rendering="geometricPrecision" stroke-miterlimit="1.45" shape-rendering="geometricPrecision" transform="matrix(1,0,0,1,-141,158)" stroke-linecap="butt">
      <rect fill="none" x="824.4067" width="180" height="73" y="743.0188" clip-path="url(#clipPath3)"/>
      <text x="897.6225" y="783.6731" clip-path="url(#clipPath3)" fill="rgb(255,204,153)" font-family="sans-serif" stroke="none" xml:space="preserve">Items</text>
    </g>
    <g fill="maroon" text-rendering="geometricPrecision" shape-rendering="geometricPrecision" transform="matrix(1,0,0,1,-141,158)" stroke="maroon">
      <rect x="469.4067" width="180" height="73" y="635.0188" clip-path="url(#clipPath3)" stroke="none"/>
    </g>
    <g text-rendering="geometricPrecision" stroke-miterlimit="1.45" shape-rendering="geometricPrecision" transform="matrix(1,0,0,1,-141,158)" stroke-linecap="butt">
      <rect fill="none" x="469.4067" width="180" height="73" y="635.0188" clip-path="url(#clipPath3)"/>
      <text x="505.7202" y="675.6731" clip-path="url(#clipPath3)" fill="rgb(255,204,153)" font-family="sans-serif" stroke="none" xml:space="preserve">Embedded Assets</text>
    </g>
    <g fill="maroon" text-rendering="geometricPrecision" shape-rendering="geometricPrecision" transform="matrix(1,0,0,1,-141,158)" stroke="maroon">
      <rect x="1069.4067" width="180" height="73" y="846.0188" clip-path="url(#clipPath3)" stroke="none"/>
    </g>
    <g text-rendering="geometricPrecision" stroke-miterlimit="1.45" shape-rendering="geometricPrecision" transform="matrix(1,0,0,1,-141,158)" stroke-linecap="butt">
      <rect fill="none" x="1069.4067" width="180" height="73" y="846.0188" clip-path="url(#clipPath3)"/>
      <text x="1116.4515" y="886.6731" clip-path="url(#clipPath3)" fill="rgb(255,204,153)" font-family="sans-serif" stroke="none" xml:space="preserve">Asset Selector</text>
    </g>
    <g fill="maroon" text-rendering="geometricPrecision" shape-rendering="geometricPrecision" transform="matrix(1,0,0,1,-141,158)" stroke="maroon">
      <rect x="1446.9067" width="180" height="73" y="954.0188" clip-path="url(#clipPath3)" stroke="none"/>
    </g>
    <g text-rendering="geometricPrecision" stroke-miterlimit="1.45" shape-rendering="geometricPrecision" transform="matrix(1,0,0,1,-141,158)" stroke-linecap="butt">
      <rect fill="none" x="1446.9067" width="180" height="73" y="954.0188" clip-path="url(#clipPath3)"/>
      <text x="1506.0746" y="994.6731" clip-path="url(#clipPath3)" fill="rgb(255,204,153)" font-family="sans-serif" stroke="none" xml:space="preserve">Packaging</text>
    </g>
    <g fill="maroon" text-rendering="geometricPrecision" shape-rendering="geometricPrecision" transform="matrix(1,0,0,1,-141,158)" stroke="maroon">
      <rect x="624.4067" width="180" height="73" y="743.0188" clip-path="url(#clipPath3)" stroke="none"/>
    </g>
    <g text-rendering="geometricPrecision" stroke-miterlimit="1.45" shape-rendering="geometricPrecision" transform="matrix(1,0,0,1,-141,158)" stroke-linecap="butt">
      <rect fill="none" x="624.4067" width="180" height="73" y="743.0188" clip-path="url(#clipPath3)"/>
      <text x="683.1586" y="783.6731" clip-path="url(#clipPath3)" fill="rgb(255,204,153)" font-family="sans-serif" stroke="none" xml:space="preserve">Save/Load</text>
    </g>
    <g fill="maroon" text-rendering="geometricPrecision" shape-rendering="geometricPrecision" transform="matrix(1,0,0,1,-141,158)" stroke="maroon">
      <rect x="1774.4067" width="180" height="73" y="743.0188" clip-path="url(#clipPath3)" stroke="none"/>
    </g>
    <g text-rendering="geometricPrecision" stroke-miterlimit="1.45" shape-rendering="geometricPrecision" transform="matrix(1,0,0,1,-141,158)" stroke-linecap="butt">
      <rect fill="none" x="1774.4067" width="180" height="73" y="743.0188" clip-path="url(#clipPath3)"/>
      <text x="1814.5668" y="783.6731" clip-path="url(#clipPath3)" fill="rgb(255,204,153)" font-family="sans-serif" stroke="none" xml:space="preserve">Custom Controls</text>
    </g>
    <g fill="maroon" text-rendering="geometricPrecision" shape-rendering="geometricPrecision" transform="matrix(1,0,0,1,-141,158)" stroke="maroon">
      <rect x="1224.4067" width="180" height="73" y="743.0188" clip-path="url(#clipPath3)" stroke="none"/>
    </g>
    <g text-rendering="geometricPrecision" stroke-miterlimit="1.45" shape-rendering="geometricPrecision" transform="matrix(1,0,0,1,-141,158)" stroke-linecap="butt">
      <rect fill="none" x="1224.4067" width="180" height="73" y="743.0188" clip-path="url(#clipPath3)"/>
      <text x="1298.7386" y="783.6731" clip-path="url(#clipPath3)" fill="rgb(255,204,153)" font-family="sans-serif" stroke="none" xml:space="preserve">Icons</text>
    </g>
    <g fill="rgb(153,204,0)" text-rendering="geometricPrecision" shape-rendering="geometricPrecision" transform="matrix(1,0,0,1,-141,158)" stroke="rgb(153,204,0)">
      <rect x="937.8382" width="180" height="73" y="189.5" clip-path="url(#clipPath3)" stroke="none"/>
    </g>
    <g text-rendering="geometricPrecision" stroke-miterlimit="1.45" shape-rendering="geometricPrecision" transform="matrix(1,0,0,1,-141,158)" stroke-linecap="butt">
      <rect fill="none" x="937.8382" width="180" height="73" y="189.5" clip-path="url(#clipPath3)"/>
      <text x="974.4594" xml:space="preserve" y="230.1543" clip-path="url(#clipPath3)" font-family="sans-serif" stroke="none">Transition Trigger</text>
    </g>
    <g fill="rgb(153,204,0)" text-rendering="geometricPrecision" shape-rendering="geometricPrecision" transform="matrix(1,0,0,1,-141,158)" stroke="rgb(153,204,0)">
      <rect x="737.8382" width="180" height="73" y="189.5" clip-path="url(#clipPath3)" stroke="none"/>
    </g>
    <g text-rendering="geometricPrecision" stroke-miterlimit="1.45" shape-rendering="geometricPrecision" transform="matrix(1,0,0,1,-141,158)" stroke-linecap="butt">
      <rect fill="none" x="737.8382" width="180" height="73" y="189.5" clip-path="url(#clipPath3)"/>
      <text x="780.8138" xml:space="preserve" y="230.1543" clip-path="url(#clipPath3)" font-family="sans-serif" stroke="none">Combat Trigger</text>
    </g>
    <g fill="rgb(153,204,0)" text-rendering="geometricPrecision" shape-rendering="geometricPrecision" transform="matrix(1,0,0,1,-141,158)" stroke="rgb(153,204,0)">
      <rect x="537.8382" width="180" height="73" y="189.5" clip-path="url(#clipPath3)" stroke="none"/>
    </g>
    <g text-rendering="geometricPrecision" stroke-miterlimit="1.45" shape-rendering="geometricPrecision" transform="matrix(1,0,0,1,-141,158)" stroke-linecap="butt">
      <rect fill="none" x="537.8382" width="180" height="73" y="189.5" clip-path="url(#clipPath3)"/>
      <text x="577.6674" xml:space="preserve" y="230.1543" clip-path="url(#clipPath3)" font-family="sans-serif" stroke="none">Win/Loss Trigger</text>
    </g>
    <g fill="rgb(153,204,0)" text-rendering="geometricPrecision" shape-rendering="geometricPrecision" transform="matrix(1,0,0,1,-141,158)" stroke="rgb(153,204,0)">
      <rect x="737.8382" width="180" height="73" y="292.5" clip-path="url(#clipPath3)" stroke="none"/>
    </g>
    <g text-rendering="geometricPrecision" stroke-miterlimit="1.45" shape-rendering="geometricPrecision" transform="matrix(1,0,0,1,-141,158)" stroke-linecap="butt">
      <rect fill="none" x="737.8382" width="180" height="73" y="292.5" clip-path="url(#clipPath3)"/>
      <text x="755.6185" xml:space="preserve" y="333.1543" clip-path="url(#clipPath3)" font-family="sans-serif" stroke="none">Post-Encounter Triggers</text>
      <path fill="none" d="M842.9585 -66.5 L842.9585 51.5 L922.8383 51.5 L922.8383 63.4609" clip-path="url(#clipPath3)"/>
      <path d="M922.8383 71.4609 L927.8383 59.4609 L922.8383 62.4609 L917.8383 59.4609 Z" clip-path="url(#clipPath3)" stroke="none"/>
      <path fill="none" d="M1536.9066 1269 L1536.9066 1291" clip-path="url(#clipPath3)"/>
      <path d="M1536.9066 1299 L1541.9066 1287 L1536.9066 1290 L1531.9066 1287 Z" clip-path="url(#clipPath3)" stroke="none"/>
      <path fill="none" d="M827.8383 473.5 L827.8383 505.5" clip-path="url(#clipPath3)"/>
      <path d="M827.8383 513.5 L832.8383 501.5 L827.8383 504.5 L822.8383 501.5 Z" clip-path="url(#clipPath3)" stroke="none"/>
      <path fill="none" d="M873.1985 -66.5 L873.1985 -56.5 L1147.9585 -56.5 L1147.9585 -39.5488" clip-path="url(#clipPath3)"/>
      <path d="M1147.9585 -31.5488 L1152.9585 -43.5488 L1147.9585 -40.5488 L1142.9585 -43.5488 Z" clip-path="url(#clipPath3)" stroke="none"/>
      <path fill="none" d="M1147.9585 41.5 L1147.9585 385.5 L858.0782 385.5 L858.0782 392.5" clip-path="url(#clipPath3)"/>
      <path d="M858.0782 400.5 L863.0782 388.5 L858.0782 391.5 L853.0782 388.5 Z" clip-path="url(#clipPath3)" stroke="none"/>
      <path fill="none" d="M812.7185 -66.5 L812.7185 -56.5 L417.8383 -56.5 L417.8383 -39.5488" clip-path="url(#clipPath3)"/>
      <path d="M417.8383 -31.5488 L422.8383 -43.5488 L417.8383 -40.5488 L412.8383 -43.5488 Z" clip-path="url(#clipPath3)" stroke="none"/>
      <path fill="none" d="M417.8383 41.5 L417.8383 385.5 L797.5983 385.5 L797.5983 392.5" clip-path="url(#clipPath3)"/>
      <path d="M797.5983 400.5 L802.5983 388.5 L797.5983 391.5 L792.5983 388.5 Z" clip-path="url(#clipPath3)" stroke="none"/>
      <path fill="none" d="M522.8383 144.5 L522.8383 375.5 L812.7183 375.5 L812.7183 392.5" clip-path="url(#clipPath3)"/>
      <path d="M812.7183 400.5 L817.7183 388.5 L812.7183 391.5 L807.7183 388.5 Z" clip-path="url(#clipPath3)" stroke="none"/>
      <path fill="none" d="M827.8385 -66.5 L827.8385 -46.5 L677.8383 -46.5 L677.8383 -39.5293" clip-path="url(#clipPath3)"/>
      <path d="M677.8383 -31.5293 L682.8383 -43.5293 L677.8383 -40.5293 L672.8383 -43.5293 Z" clip-path="url(#clipPath3)" stroke="none"/>
      <path fill="none" d="M632.8383 41.5 L632.8383 51.5 L522.8383 51.5 L522.8383 63.4609" clip-path="url(#clipPath3)"/>
      <path d="M522.8383 71.4609 L527.8383 59.4609 L522.8383 62.4609 L517.8383 59.4609 Z" clip-path="url(#clipPath3)" stroke="none"/>
      <path fill="none" d="M722.8383 41.5 L722.8383 63.4707" clip-path="url(#clipPath3)"/>
      <path d="M722.8383 71.4707 L727.8383 59.4707 L722.8383 62.4707 L717.8383 59.4707 Z" clip-path="url(#clipPath3)" stroke="none"/>
      <path fill="none" d="M904.9567 1027.0188 L904.9567 1037.0188 L1511.7067 1037.0188 L1511.7067 1049.0188" clip-path="url(#clipPath3)"/>
      <path d="M1511.7067 1057.0188 L1516.7067 1045.0188 L1511.7067 1048.0188 L1506.7067 1045.0188 Z" clip-path="url(#clipPath3)" stroke="none"/>
    </g>
    <g stroke-linecap="round" transform="matrix(1,0,0,1,-141,158)" stroke-dashoffset="2" text-rendering="geometricPrecision" shape-rendering="geometricPrecision" stroke-dasharray="0,20" stroke-width="5" stroke-miterlimit="1.45">
      <path fill="none" d="M1536.9066 1130.0188 L1536.9066 1183.9678" clip-path="url(#clipPath3)"/>
      <path d="M1536.9066 1195.9678 L1544.4066 1177.9678 L1536.9066 1182.4678 L1529.4066 1177.9678 Z" clip-path="url(#clipPath3)" stroke="none"/>
    </g>
    <g text-rendering="geometricPrecision" stroke-miterlimit="1.45" shape-rendering="geometricPrecision" transform="matrix(1,0,0,1,-141,158)" stroke-linecap="butt">
      <path fill="none" d="M858.0785 -66.5 L858.0785 -46.5 L947.9585 -46.5 L947.9585 -39.5293" clip-path="url(#clipPath3)"/>
      <path d="M947.9585 -31.5293 L952.9585 -43.5293 L947.9585 -40.5293 L942.9585 -43.5293 Z" clip-path="url(#clipPath3)" stroke="none"/>
      <path fill="none" d="M947.9585 41.5 L947.9585 51.5 L1132.8383 51.5 L1132.8383 375.5 L842.9583 375.5 L842.9583 392.5" clip-path="url(#clipPath3)"/>
      <path d="M842.9583 400.5 L847.9583 388.5 L842.9583 391.5 L837.9583 388.5 Z" clip-path="url(#clipPath3)" stroke="none"/>
      <path fill="none" d="M856.6052 586.5 L856.6052 601.5557 L1721.4066 601.5557 L1721.4066 837.989" clip-path="url(#clipPath3)"/>
      <path d="M1721.4066 845.989 L1726.4066 833.989 L1721.4066 836.989 L1716.4066 833.989 Z" clip-path="url(#clipPath3)" stroke="none"/>
      <path fill="none" d="M844.539 586.5 L844.539 608.2594 L1559.4066 608.2594 L1559.4066 837.9898" clip-path="url(#clipPath3)"/>
      <path d="M1559.4066 845.9898 L1564.4066 833.9898 L1559.4066 836.9898 L1554.4066 833.9898 Z" clip-path="url(#clipPath3)" stroke="none"/>
      <path fill="none" d="M514.4067 816.0481 L514.4067 837.9896" clip-path="url(#clipPath3)"/>
      <path d="M514.4067 845.9896 L519.4067 833.9896 L514.4067 836.9896 L509.4067 833.9896 Z" clip-path="url(#clipPath3)" stroke="none"/>
      <path fill="none" d="M514.4067 919.0579 L514.4067 939.0188 L876.6067 939.0188 L876.6067 946.0188" clip-path="url(#clipPath3)"/>
      <path d="M876.6067 954.0188 L881.6067 942.0188 L876.6067 945.0188 L871.6067 942.0188 Z" clip-path="url(#clipPath3)" stroke="none"/>
      <path fill="none" d="M820.4067 586.5 L820.4067 621.6669 L1091.9066 621.6669 L1091.9066 626.9927" clip-path="url(#clipPath3)"/>
      <path d="M1091.9066 634.9927 L1096.9066 622.9927 L1091.9066 625.9927 L1086.9066 622.9927 Z" clip-path="url(#clipPath3)" stroke="none"/>
      <path fill="none" d="M914.4067 919.053 L914.4067 946.0188" clip-path="url(#clipPath3)"/>
      <path d="M914.4067 954.0188 L919.4067 942.0188 L914.4067 945.0188 L909.4067 942.0188 Z" clip-path="url(#clipPath3)" stroke="none"/>
      <path fill="none" d="M1114.4066 708.0188 L1114.4066 734.9846" clip-path="url(#clipPath3)"/>
      <path d="M1114.4066 742.9846 L1119.4066 730.9846 L1114.4066 733.9846 L1109.4066 730.9846 Z" clip-path="url(#clipPath3)" stroke="none"/>
      <path fill="none" d="M1114.4066 816.0579 L1114.4066 826.0188 L1054.4066 826.0188 L1054.4066 929.0188 L933.3066 929.0188 L933.3066 946.0188" clip-path="url(#clipPath3)"/>
      <path d="M933.3066 954.0188 L938.3066 942.0188 L933.3066 945.0188 L928.3066 942.0188 Z" clip-path="url(#clipPath3)" stroke="none"/>
      <path fill="none" d="M1069.4066 708.0188 L1069.4066 728.0188 L914.4067 728.0188 L914.4067 734.9895" clip-path="url(#clipPath3)"/>
      <path d="M914.4067 742.9895 L919.4067 730.9895 L914.4067 733.9895 L909.4067 730.9895 Z" clip-path="url(#clipPath3)" stroke="none"/>
      <path fill="none" d="M914.4067 816.0481 L914.4067 837.9896" clip-path="url(#clipPath3)"/>
      <path d="M914.4067 845.9896 L919.4067 833.9896 L914.4067 836.9896 L909.4067 833.9896 Z" clip-path="url(#clipPath3)" stroke="none"/>
      <path fill="none" d="M802.1611 586.5 L802.1611 594.8519 L559.4067 594.8519 L559.4067 626.9796" clip-path="url(#clipPath3)"/>
      <path d="M559.4067 634.9796 L564.4067 622.9796 L559.4067 625.9796 L554.4067 622.9796 Z" clip-path="url(#clipPath3)" stroke="none"/>
      <path fill="none" d="M514.4067 708.0188 L514.4067 734.9846" clip-path="url(#clipPath3)"/>
      <path d="M514.4067 742.9846 L519.4067 730.9846 L514.4067 733.9846 L509.4067 730.9846 Z" clip-path="url(#clipPath3)" stroke="none"/>
      <path fill="none" d="M1359.4066 919.0579 L1359.4066 929.0188 L1514.4066 929.0188 L1514.4066 945.97" clip-path="url(#clipPath3)"/>
      <path d="M1514.4066 953.97 L1519.4066 941.97 L1514.4066 944.97 L1509.4066 941.97 Z" clip-path="url(#clipPath3)" stroke="none"/>
      <path fill="none" d="M1759.4066 919.0579 L1759.4066 929.0188 L1604.4066 929.0188 L1604.4066 945.97" clip-path="url(#clipPath3)"/>
      <path d="M1604.4066 953.97 L1609.4066 941.97 L1604.4066 944.97 L1599.4066 941.97 Z" clip-path="url(#clipPath3)" stroke="none"/>
      <path fill="none" d="M1559.4066 919.053 L1559.4066 945.9847" clip-path="url(#clipPath3)"/>
      <path d="M1559.4066 953.9847 L1564.4066 941.9847 L1559.4066 944.9847 L1554.4066 941.9847 Z" clip-path="url(#clipPath3)" stroke="none"/>
      <path fill="none" d="M1159.4066 919.0579 L1159.4066 939.0188 L1469.4066 939.0188 L1469.4066 945.9895" clip-path="url(#clipPath3)"/>
      <path d="M1469.4066 953.9895 L1474.4066 941.9895 L1469.4066 944.9895 L1464.4066 941.9895 Z" clip-path="url(#clipPath3)" stroke="none"/>
      <path fill="none" d="M1536.9066 1027.0188 L1536.9066 1049.0188" clip-path="url(#clipPath3)"/>
      <path d="M1536.9066 1057.0188 L1541.9066 1045.0188 L1536.9066 1048.0188 L1531.9066 1045.0188 Z" clip-path="url(#clipPath3)" stroke="none"/>
      <path fill="none" d="M604.4067 708.0188 L604.4067 718.0188 L669.4067 718.0188 L669.4067 734.97" clip-path="url(#clipPath3)"/>
      <path d="M669.4067 742.97 L674.4067 730.97 L669.4067 733.97 L664.4067 730.97 Z" clip-path="url(#clipPath3)" stroke="none"/>
      <path fill="none" d="M1024.4066 708.0188 L1024.4066 718.0188 L759.4067 718.0188 L759.4067 734.97" clip-path="url(#clipPath3)"/>
      <path d="M759.4067 742.97 L764.4067 730.97 L759.4067 733.97 L754.4067 730.97 Z" clip-path="url(#clipPath3)" stroke="none"/>
      <path fill="none" d="M714.4067 816.0464 L714.4067 929.0188 L895.5067 929.0188 L895.5067 946.0188" clip-path="url(#clipPath3)"/>
      <path d="M895.5067 954.0188 L900.5067 942.0188 L895.5067 945.0188 L890.5067 942.0188 Z" clip-path="url(#clipPath3)" stroke="none"/>
      <path fill="none" d="M1159.4066 708.0188 L1159.4066 718.0188 L1864.4066 718.0188 L1864.4066 734.97" clip-path="url(#clipPath3)"/>
      <path d="M1864.4066 742.97 L1869.4066 730.97 L1864.4066 733.97 L1859.4066 730.97 Z" clip-path="url(#clipPath3)" stroke="none"/>
      <path fill="none" d="M1864.4066 816.0458 L1864.4066 1037.0188 L1562.1067 1037.0188 L1562.1067 1049.0188" clip-path="url(#clipPath3)"/>
      <path d="M1562.1067 1057.0188 L1567.1067 1045.0188 L1562.1067 1048.0188 L1557.1067 1045.0188 Z" clip-path="url(#clipPath3)" stroke="none"/>
      <path fill="none" d="M832.4728 586.5 L832.4728 614.9632 L1314.4066 614.9632 L1314.4066 735.0188" clip-path="url(#clipPath3)"/>
      <path d="M1314.4066 743.0188 L1319.4066 731.0188 L1314.4066 734.0188 L1309.4066 731.0188 Z" clip-path="url(#clipPath3)" stroke="none"/>
      <path fill="none" d="M1359.4066 816.0481 L1359.4066 837.9896" clip-path="url(#clipPath3)"/>
      <path d="M1359.4066 845.9896 L1364.4066 833.9896 L1359.4066 836.9896 L1354.4066 833.9896 Z" clip-path="url(#clipPath3)" stroke="none"/>
      <path fill="none" d="M1269.4066 816.0579 L1269.4066 826.0188 L1159.4066 826.0188 L1159.4066 837.9797" clip-path="url(#clipPath3)"/>
      <path d="M1159.4066 845.9797 L1164.4066 833.9797 L1159.4066 836.9797 L1154.4066 833.9797 Z" clip-path="url(#clipPath3)" stroke="none"/>
      <path fill="none" d="M982.8383 144.5 L982.8383 154.5 L1027.8383 154.5 L1027.8383 181.4658" clip-path="url(#clipPath3)"/>
      <path d="M1027.8383 189.4658 L1032.8383 177.4658 L1027.8383 180.4658 L1022.8383 177.4658 Z" clip-path="url(#clipPath3)" stroke="none"/>
      <path fill="none" d="M922.8383 144.5 L922.8383 174.5 L827.8383 174.5 L827.8383 181.4707" clip-path="url(#clipPath3)"/>
      <path d="M827.8383 189.4707 L832.8383 177.4707 L827.8383 180.4707 L822.8383 177.4707 Z" clip-path="url(#clipPath3)" stroke="none"/>
      <path fill="none" d="M862.8383 144.5 L862.8383 164.5 L672.8383 164.5 L672.8383 181.4512" clip-path="url(#clipPath3)"/>
      <path d="M672.8383 189.4512 L677.8383 177.4512 L672.8383 180.4512 L667.8383 177.4512 Z" clip-path="url(#clipPath3)" stroke="none"/>
      <path fill="none" d="M722.8383 144.5 L722.8383 154.5 L582.8383 154.5 L582.8383 181.4658" clip-path="url(#clipPath3)"/>
      <path d="M582.8383 189.4658 L587.8383 177.4658 L582.8383 180.4658 L577.8383 177.4658 Z" clip-path="url(#clipPath3)" stroke="none"/>
      <path fill="none" d="M1027.8383 262.5 L1027.8383 272.5 L887.8383 272.5 L887.8383 284.4609" clip-path="url(#clipPath3)"/>
      <path d="M887.8383 292.4609 L892.8383 280.4609 L887.8383 283.4609 L882.8383 280.4609 Z" clip-path="url(#clipPath3)" stroke="none"/>
      <path fill="none" d="M827.8383 262.5 L827.8383 284.4707" clip-path="url(#clipPath3)"/>
      <path d="M827.8383 292.4707 L832.8383 280.4707 L827.8383 283.4707 L822.8383 280.4707 Z" clip-path="url(#clipPath3)" stroke="none"/>
      <path fill="none" d="M627.8383 262.5 L627.8383 272.5 L767.8383 272.5 L767.8383 284.4609" clip-path="url(#clipPath3)"/>
      <path d="M767.8383 292.4609 L772.8383 280.4609 L767.8383 283.4609 L762.8383 280.4609 Z" clip-path="url(#clipPath3)" stroke="none"/>
      <path fill="none" d="M827.8383 365.5342 L827.8383 392.5" clip-path="url(#clipPath3)"/>
      <path d="M827.8383 400.5 L832.8383 388.5 L827.8383 391.5 L822.8383 388.5 Z" clip-path="url(#clipPath3)" stroke="none"/>
    </g>
  </g>
</svg>
