<?xml version="1.0" encoding="UTF-8"?><svg xmlns="http://www.w3.org/2000/svg" xmlns:xlink="http://www.w3.org/1999/xlink" fill-opacity="1" color-rendering="auto" color-interpolation="auto" text-rendering="auto" stroke="black" stroke-linecap="square" width="1454" stroke-miterlimit="10" shape-rendering="auto" stroke-opacity="1" fill="black" stroke-dasharray="none" font-weight="normal" stroke-width="1" height="616" font-family="'Dialog'" font-style="normal" stroke-linejoin="miter" font-size="12px" stroke-dashoffset="0" image-rendering="auto">
  <!--Generated by ySVG 2.5-->
  <defs id="genericDefs"/>
  <g>
    <defs id="defs1">
      <clipPath clipPathUnits="userSpaceOnUse" id="clipPath1">
        <path d="M0 0 L1454 0 L1454 616 L0 616 L0 0 Z"/>
      </clipPath>
      <clipPath clipPathUnits="userSpaceOnUse" id="clipPath2">
        <path d="M145 201 L1599 201 L1599 817 L145 817 L145 201 Z"/>
      </clipPath>
      <clipPath clipPathUnits="userSpaceOnUse" id="clipPath3">
        <path d="M149 205 L1603 205 L1603 821 L149 821 L149 205 Z"/>
      </clipPath>
    </defs>
    <g fill="rgb(210,210,210)" text-rendering="geometricPrecision" shape-rendering="geometricPrecision" transform="matrix(1,0,0,1,-149,-205) translate(4,4)" stroke="rgb(210,210,210)">
      <rect x="164.8187" width="147.3196" height="216" y="263.3457" clip-path="url(#clipPath2)" stroke="none"/>
    </g>
    <g fill="rgb(242,240,216)" text-rendering="geometricPrecision" shape-rendering="geometricPrecision" transform="matrix(1,0,0,1,-149,-205)" stroke="rgb(242,240,216)">
      <rect x="164.8187" width="147.3196" height="216" y="263.3457" clip-path="url(#clipPath3)" stroke="none"/>
      <rect x="164.8187" y="263.3457" clip-path="url(#clipPath3)" fill="rgb(183,182,158)" width="147.3196" height="21.4609" stroke="none"/>
    </g>
    <g font-size="15px" stroke-linecap="butt" transform="matrix(1,0,0,1,-149,-205)" text-rendering="geometricPrecision" font-family="sans-serif" shape-rendering="geometricPrecision" stroke-miterlimit="1.45">
      <text x="230.4581" xml:space="preserve" y="279.269" clip-path="url(#clipPath3)" stroke="none">Shape Key</text>
      <rect fill="none" x="164.8187" width="147.3196" height="216" y="263.3457" clip-path="url(#clipPath3)"/>
    </g>
    <g fill="rgb(255,204,0)" text-rendering="geometricPrecision" shape-rendering="geometricPrecision" transform="matrix(1,0,0,1,-149,-205)" stroke="rgb(255,204,0)">
      <rect x="179.8187" width="117.3196" height="35.3086" y="303.3457" clip-path="url(#clipPath3)" stroke="none"/>
    </g>
    <g text-rendering="geometricPrecision" stroke-miterlimit="1.45" shape-rendering="geometricPrecision" transform="matrix(1,0,0,1,-149,-205)" stroke-linecap="butt">
      <rect fill="none" x="179.8187" width="117.3196" height="35.3086" y="303.3457" clip-path="url(#clipPath3)"/>
      <text x="204.7666" xml:space="preserve" y="325.1543" clip-path="url(#clipPath3)" font-family="sans-serif" stroke="none">Game Task</text>
    </g>
    <g fill="rgb(255,204,0)" text-rendering="geometricPrecision" shape-rendering="geometricPrecision" transform="matrix(1,0,0,1,-149,-205)" stroke="rgb(255,204,0)">
      <rect x="179.8187" y="351.6668" clip-path="url(#clipPath3)" width="117.3196" rx="4" ry="4" height="35.3086" stroke="none"/>
    </g>
    <g stroke-linecap="butt" transform="matrix(1,0,0,1,-149,-205)" fill="gray" text-rendering="geometricPrecision" shape-rendering="geometricPrecision" stroke="gray" stroke-miterlimit="1.45">
      <rect x="179.8187" y="351.6668" clip-path="url(#clipPath3)" fill="none" width="117.3196" rx="4" ry="4" height="35.3086"/>
      <text x="197.6298" y="373.4754" clip-path="url(#clipPath3)" fill="black" font-family="sans-serif" stroke="none" xml:space="preserve">External Task</text>
    </g>
    <g fill="rgb(255,204,0)" text-rendering="geometricPrecision" shape-rendering="geometricPrecision" transform="matrix(1,0,0,1,-149,-205)" stroke="rgb(255,204,0)">
      <circle r="29.864" clip-path="url(#clipPath3)" cx="238.4785" cy="429.852" stroke="none"/>
    </g>
    <g text-rendering="geometricPrecision" stroke-miterlimit="1.45" shape-rendering="geometricPrecision" transform="matrix(1,0,0,1,-149,-205)" stroke-linecap="butt">
      <circle fill="none" r="29.864" clip-path="url(#clipPath3)" cx="238.4785" cy="429.852"/>
      <text x="214.7656" xml:space="preserve" y="434.0063" clip-path="url(#clipPath3)" font-family="sans-serif" stroke="none">Release</text>
    </g>
    <g fill="rgb(210,210,210)" text-rendering="geometricPrecision" shape-rendering="geometricPrecision" transform="matrix(1,0,0,1,-149,-205) translate(4,4)" stroke="rgb(210,210,210)">
      <rect x="164.8187" width="147.3196" height="279.9426" y="504.2305" clip-path="url(#clipPath2)" stroke="none"/>
    </g>
    <g fill="rgb(242,240,216)" text-rendering="geometricPrecision" shape-rendering="geometricPrecision" transform="matrix(1,0,0,1,-149,-205)" stroke="rgb(242,240,216)">
      <rect x="164.8187" width="147.3196" height="279.9426" y="504.2305" clip-path="url(#clipPath3)" stroke="none"/>
      <rect x="164.8187" y="504.2305" clip-path="url(#clipPath3)" fill="rgb(183,182,158)" width="147.3196" height="21.4609" stroke="none"/>
    </g>
    <g font-size="15px" stroke-linecap="butt" transform="matrix(1,0,0,1,-149,-205)" text-rendering="geometricPrecision" font-family="sans-serif" shape-rendering="geometricPrecision" stroke-miterlimit="1.45">
      <text x="238.2657" xml:space="preserve" y="520.1538" clip-path="url(#clipPath3)" stroke="none">Color Key</text>
      <rect fill="none" x="164.8187" width="147.3196" height="279.9426" y="504.2305" clip-path="url(#clipPath3)"/>
    </g>
    <g fill="maroon" text-rendering="geometricPrecision" shape-rendering="geometricPrecision" transform="matrix(1,0,0,1,-149,-205)" stroke="maroon">
      <rect x="179.8187" width="117.3196" height="35.3086" y="540.6914" clip-path="url(#clipPath3)" stroke="none"/>
    </g>
    <g text-rendering="geometricPrecision" stroke-miterlimit="1.45" shape-rendering="geometricPrecision" transform="matrix(1,0,0,1,-149,-205)" stroke-linecap="butt">
      <rect fill="none" x="179.8187" width="117.3196" height="35.3086" y="540.6914" clip-path="url(#clipPath3)"/>
      <text x="201.4589" y="562.5" clip-path="url(#clipPath3)" fill="rgb(255,204,153)" font-family="sans-serif" stroke="none" xml:space="preserve">Future Work</text>
    </g>
    <g fill="red" text-rendering="geometricPrecision" shape-rendering="geometricPrecision" transform="matrix(1,0,0,1,-149,-205)" stroke="red">
      <rect x="179.8187" width="117.3196" height="35.3086" y="589.0863" clip-path="url(#clipPath3)" stroke="none"/>
    </g>
    <g text-rendering="geometricPrecision" stroke-miterlimit="1.45" shape-rendering="geometricPrecision" transform="matrix(1,0,0,1,-149,-205)" stroke-linecap="butt">
      <rect fill="none" x="179.8187" width="117.3196" height="35.3086" y="589.0863" clip-path="url(#clipPath3)"/>
      <text x="190.7334" xml:space="preserve" y="610.8949" clip-path="url(#clipPath3)" font-family="sans-serif" stroke="none">Upcoming Work</text>
    </g>
    <g fill="rgb(255,102,0)" text-rendering="geometricPrecision" shape-rendering="geometricPrecision" transform="matrix(1,0,0,1,-149,-205)" stroke="rgb(255,102,0)">
      <rect x="179.8187" width="117.3196" height="35.3086" y="637.3457" clip-path="url(#clipPath3)" stroke="none"/>
    </g>
    <g text-rendering="geometricPrecision" stroke-miterlimit="1.45" shape-rendering="geometricPrecision" transform="matrix(1,0,0,1,-149,-205)" stroke-linecap="butt">
      <rect fill="none" x="179.8187" width="117.3196" height="35.3086" y="637.3457" clip-path="url(#clipPath3)"/>
      <text x="206.9433" xml:space="preserve" y="659.1543" clip-path="url(#clipPath3)" font-family="sans-serif" stroke="none">Next Work</text>
    </g>
    <g fill="rgb(255,204,0)" text-rendering="geometricPrecision" shape-rendering="geometricPrecision" transform="matrix(1,0,0,1,-149,-205)" stroke="rgb(255,204,0)">
      <rect x="179.8187" width="117.3196" height="35.3086" y="685.6051" clip-path="url(#clipPath3)" stroke="none"/>
    </g>
    <g text-rendering="geometricPrecision" stroke-miterlimit="1.45" shape-rendering="geometricPrecision" transform="matrix(1,0,0,1,-149,-205)" stroke-linecap="butt">
      <rect fill="none" x="179.8187" width="117.3196" height="35.3086" y="685.6051" clip-path="url(#clipPath3)"/>
      <text x="205.0244" xml:space="preserve" y="707.4137" clip-path="url(#clipPath3)" font-family="sans-serif" stroke="none">In Progress</text>
    </g>
    <g fill="rgb(153,204,0)" text-rendering="geometricPrecision" shape-rendering="geometricPrecision" transform="matrix(1,0,0,1,-149,-205)" stroke="rgb(153,204,0)">
      <rect x="179.8187" width="117.3196" height="35.3086" y="733.8645" clip-path="url(#clipPath3)" stroke="none"/>
    </g>
    <g text-rendering="geometricPrecision" stroke-miterlimit="1.45" shape-rendering="geometricPrecision" transform="matrix(1,0,0,1,-149,-205)" stroke-linecap="butt">
      <rect fill="none" x="179.8187" width="117.3196" height="35.3086" y="733.8645" clip-path="url(#clipPath3)"/>
      <text x="222.6933" xml:space="preserve" y="755.6731" clip-path="url(#clipPath3)" font-family="sans-serif" stroke="none">Done</text>
    </g>
    <g fill="rgb(153,204,0)" text-rendering="geometricPrecision" shape-rendering="geometricPrecision" transform="matrix(1,0,0,1,-149,-205)" stroke="rgb(153,204,0)">
      <rect x="937.7575" width="147.3196" height="59.728" y="471.3949" clip-path="url(#clipPath3)" stroke="none"/>
    </g>
    <g text-rendering="geometricPrecision" stroke-miterlimit="1.45" shape-rendering="geometricPrecision" transform="matrix(1,0,0,1,-149,-205)" stroke-linecap="butt">
      <rect fill="none" x="937.7575" width="147.3196" height="59.728" y="471.3949" clip-path="url(#clipPath3)"/>
      <text x="977.1839" xml:space="preserve" y="505.4132" clip-path="url(#clipPath3)" font-family="sans-serif" stroke="none">Area 1 Map</text>
    </g>
    <g fill="rgb(153,204,0)" text-rendering="geometricPrecision" shape-rendering="geometricPrecision" transform="matrix(1,0,0,1,-149,-205)" stroke="rgb(153,204,0)">
      <rect x="937.7575" width="147.3196" height="59.728" y="381.6668" clip-path="url(#clipPath3)" stroke="none"/>
    </g>
    <g text-rendering="geometricPrecision" stroke-miterlimit="1.45" shape-rendering="geometricPrecision" transform="matrix(1,0,0,1,-149,-205)" stroke-linecap="butt">
      <rect fill="none" x="937.7575" width="147.3196" height="59.728" y="381.6668" clip-path="url(#clipPath3)"/>
      <text x="976.0296" xml:space="preserve" y="415.6852" clip-path="url(#clipPath3)" font-family="sans-serif" stroke="none">Area 1 Tiles</text>
    </g>
    <g fill="rgb(153,204,0)" text-rendering="geometricPrecision" shape-rendering="geometricPrecision" transform="matrix(1,0,0,1,-149,-205)" stroke="rgb(153,204,0)">
      <rect x="342.1382" width="147.3196" height="59.728" y="291.9388" clip-path="url(#clipPath3)" stroke="none"/>
    </g>
    <g text-rendering="geometricPrecision" stroke-miterlimit="1.45" shape-rendering="geometricPrecision" transform="matrix(1,0,0,1,-149,-205)" stroke-linecap="butt">
      <rect fill="none" x="342.1382" width="147.3196" height="59.728" y="291.9388" clip-path="url(#clipPath3)"/>
      <text x="378.3185" xml:space="preserve" y="325.9571" clip-path="url(#clipPath3)" font-family="sans-serif" stroke="none">Rokko sprite</text>
    </g>
    <g fill="rgb(153,204,0)" text-rendering="geometricPrecision" shape-rendering="geometricPrecision" transform="matrix(1,0,0,1,-149,-205)" stroke="rgb(153,204,0)">
      <rect x="872.3399" width="147.3196" height="59.728" y="291.9388" clip-path="url(#clipPath3)" stroke="none"/>
    </g>
    <g text-rendering="geometricPrecision" stroke-miterlimit="1.45" shape-rendering="geometricPrecision" transform="matrix(1,0,0,1,-149,-205)" stroke-linecap="butt">
      <rect fill="none" x="872.3399" width="147.3196" height="59.728" y="291.9388" clip-path="url(#clipPath3)"/>
      <text x="897.2878" xml:space="preserve" y="325.9571" clip-path="url(#clipPath3)" font-family="sans-serif" stroke="none">Bushbaby sprite</text>
    </g>
    <g fill="rgb(255,204,0)" text-rendering="geometricPrecision" shape-rendering="geometricPrecision" transform="matrix(1,0,0,1,-149,-205)" stroke="rgb(255,204,0)">
      <rect x="603.1179" width="147.3196" height="59.728" y="291.9388" clip-path="url(#clipPath3)" stroke="none"/>
    </g>
    <g text-rendering="geometricPrecision" stroke-miterlimit="1.45" shape-rendering="geometricPrecision" transform="matrix(1,0,0,1,-149,-205)" stroke-linecap="butt">
      <rect fill="none" x="603.1179" width="147.3196" height="59.728" y="291.9388" clip-path="url(#clipPath3)"/>
      <text x="628.5316" xml:space="preserve" y="325.9571" clip-path="url(#clipPath3)" font-family="sans-serif" stroke="none">Combat Music 1</text>
    </g>
    <g fill="rgb(153,204,0)" text-rendering="geometricPrecision" shape-rendering="geometricPrecision" transform="matrix(1,0,0,1,-149,-205)" stroke="rgb(153,204,0)">
      <rect x="770.4377" width="147.3196" height="59.728" y="471.3949" clip-path="url(#clipPath3)" stroke="none"/>
    </g>
    <g text-rendering="geometricPrecision" stroke-miterlimit="1.45" shape-rendering="geometricPrecision" transform="matrix(1,0,0,1,-149,-205)" stroke-linecap="butt">
      <rect fill="none" x="770.4377" width="147.3196" height="59.728" y="471.3949" clip-path="url(#clipPath3)"/>
      <text x="804.7869" xml:space="preserve" y="505.4132" clip-path="url(#clipPath3)" font-family="sans-serif" stroke="none">Area 1 music</text>
    </g>
    <g fill="red" text-rendering="geometricPrecision" shape-rendering="geometricPrecision" transform="matrix(1,0,0,1,-149,-205)" stroke="red">
      <rect x="770.4377" width="147.3196" height="59.728" y="561.1229" clip-path="url(#clipPath3)" stroke="none"/>
    </g>
    <g text-rendering="geometricPrecision" stroke-miterlimit="1.45" shape-rendering="geometricPrecision" transform="matrix(1,0,0,1,-149,-205)" stroke-linecap="butt">
      <rect fill="none" x="770.4377" width="147.3196" height="59.728" y="561.1229" clip-path="url(#clipPath3)"/>
      <text x="824.4334" xml:space="preserve" y="595.1412" clip-path="url(#clipPath3)" font-family="sans-serif" stroke="none">Area 1</text>
    </g>
    <g fill="red" text-rendering="geometricPrecision" shape-rendering="geometricPrecision" transform="matrix(1,0,0,1,-149,-205)" stroke="red">
      <rect x="603.1179" width="147.3196" height="59.728" y="471.3949" clip-path="url(#clipPath3)" stroke="none"/>
    </g>
    <g text-rendering="geometricPrecision" stroke-miterlimit="1.45" shape-rendering="geometricPrecision" transform="matrix(1,0,0,1,-149,-205)" stroke-linecap="butt">
      <rect fill="none" x="603.1179" width="147.3196" height="59.728" y="471.3949" clip-path="url(#clipPath3)"/>
      <text x="621.4007" xml:space="preserve" y="505.4132" clip-path="url(#clipPath3)" font-family="sans-serif" stroke="none">Area 1 Encounters</text>
    </g>
    <g fill="red" text-rendering="geometricPrecision" shape-rendering="geometricPrecision" transform="matrix(1,0,0,1,-149,-205)" stroke="red">
      <rect x="435.798" width="147.3196" height="59.728" y="381.6668" clip-path="url(#clipPath3)" stroke="none"/>
    </g>
    <g text-rendering="geometricPrecision" stroke-miterlimit="1.45" shape-rendering="geometricPrecision" transform="matrix(1,0,0,1,-149,-205)" stroke-linecap="butt">
      <rect fill="none" x="435.798" width="147.3196" height="59.728" y="381.6668" clip-path="url(#clipPath3)"/>
      <text x="458.5105" xml:space="preserve" y="415.6852" clip-path="url(#clipPath3)" font-family="sans-serif" stroke="none">Rokko encounter</text>
    </g>
    <g fill="red" text-rendering="geometricPrecision" shape-rendering="geometricPrecision" transform="matrix(1,0,0,1,-149,-205)" stroke="red">
      <rect x="770.4377" width="147.3196" height="59.728" y="381.6668" clip-path="url(#clipPath3)" stroke="none"/>
    </g>
    <g text-rendering="geometricPrecision" stroke-miterlimit="1.45" shape-rendering="geometricPrecision" transform="matrix(1,0,0,1,-149,-205)" stroke-linecap="butt">
      <rect fill="none" x="770.4377" width="147.3196" height="59.728" y="381.6668" clip-path="url(#clipPath3)"/>
      <text x="781.9178" xml:space="preserve" y="415.6852" clip-path="url(#clipPath3)" font-family="sans-serif" stroke="none">Bushbaby encounter</text>
    </g>
    <g fill="maroon" text-rendering="geometricPrecision" shape-rendering="geometricPrecision" transform="matrix(1,0,0,1,-149,-205)" stroke="maroon">
      <rect x="1439.7171" width="147.3196" height="59.728" y="561.1229" clip-path="url(#clipPath3)" stroke="none"/>
    </g>
    <g text-rendering="geometricPrecision" stroke-miterlimit="1.45" shape-rendering="geometricPrecision" transform="matrix(1,0,0,1,-149,-205)" stroke-linecap="butt">
      <rect fill="none" x="1439.7171" width="147.3196" height="59.728" y="561.1229" clip-path="url(#clipPath3)"/>
      <text x="1483.4677" y="595.1412" clip-path="url(#clipPath3)" fill="rgb(255,204,153)" font-family="sans-serif" stroke="none" xml:space="preserve">Intro Area</text>
    </g>
    <g fill="maroon" text-rendering="geometricPrecision" shape-rendering="geometricPrecision" transform="matrix(1,0,0,1,-149,-205)" stroke="maroon">
      <rect x="1272.3972" width="147.3196" height="59.728" y="561.1229" clip-path="url(#clipPath3)" stroke="none"/>
    </g>
    <g text-rendering="geometricPrecision" stroke-miterlimit="1.45" shape-rendering="geometricPrecision" transform="matrix(1,0,0,1,-149,-205)" stroke-linecap="butt">
      <rect fill="none" x="1272.3972" width="147.3196" height="59.728" y="561.1229" clip-path="url(#clipPath3)"/>
      <text x="1326.3929" y="595.1412" clip-path="url(#clipPath3)" fill="rgb(255,204,153)" font-family="sans-serif" stroke="none" xml:space="preserve">Area 4</text>
    </g>
    <g fill="maroon" text-rendering="geometricPrecision" shape-rendering="geometricPrecision" transform="matrix(1,0,0,1,-149,-205)" stroke="maroon">
      <rect x="1105.0774" width="147.3196" height="59.728" y="561.1229" clip-path="url(#clipPath3)" stroke="none"/>
    </g>
    <g text-rendering="geometricPrecision" stroke-miterlimit="1.45" shape-rendering="geometricPrecision" transform="matrix(1,0,0,1,-149,-205)" stroke-linecap="butt">
      <rect fill="none" x="1105.0774" width="147.3196" height="59.728" y="561.1229" clip-path="url(#clipPath3)"/>
      <text x="1159.0731" y="595.1412" clip-path="url(#clipPath3)" fill="rgb(255,204,153)" font-family="sans-serif" stroke="none" xml:space="preserve">Area 3</text>
    </g>
    <g fill="maroon" text-rendering="geometricPrecision" shape-rendering="geometricPrecision" transform="matrix(1,0,0,1,-149,-205)" stroke="maroon">
      <rect x="1272.3972" width="147.3196" height="59.728" y="471.3949" clip-path="url(#clipPath3)" stroke="none"/>
    </g>
    <g text-rendering="geometricPrecision" stroke-miterlimit="1.45" shape-rendering="geometricPrecision" transform="matrix(1,0,0,1,-149,-205)" stroke-linecap="butt">
      <rect fill="none" x="1272.3972" width="147.3196" height="59.728" y="471.3949" clip-path="url(#clipPath3)"/>
      <text x="1291.4242" y="505.4132" clip-path="url(#clipPath3)" fill="rgb(255,204,153)" font-family="sans-serif" stroke="none" xml:space="preserve">Dragon Encounter</text>
    </g>
    <g fill="maroon" text-rendering="geometricPrecision" shape-rendering="geometricPrecision" transform="matrix(1,0,0,1,-149,-205)" stroke="maroon">
      <rect x="937.7575" width="147.3196" height="59.728" y="561.1229" clip-path="url(#clipPath3)" stroke="none"/>
    </g>
    <g text-rendering="geometricPrecision" stroke-miterlimit="1.45" shape-rendering="geometricPrecision" transform="matrix(1,0,0,1,-149,-205)" stroke-linecap="butt">
      <rect fill="none" x="937.7575" width="147.3196" height="59.728" y="561.1229" clip-path="url(#clipPath3)"/>
      <text x="991.7532" y="595.1412" clip-path="url(#clipPath3)" fill="rgb(255,204,153)" font-family="sans-serif" stroke="none" xml:space="preserve">Area 2</text>
    </g>
    <g fill="maroon" text-rendering="geometricPrecision" shape-rendering="geometricPrecision" transform="matrix(1,0,0,1,-149,-205)" stroke="maroon">
      <rect x="1105.0774" width="147.3196" height="59.728" y="655.8509" clip-path="url(#clipPath3)" stroke="none"/>
    </g>
    <g text-rendering="geometricPrecision" stroke-miterlimit="1.45" shape-rendering="geometricPrecision" transform="matrix(1,0,0,1,-149,-205)" stroke-linecap="butt">
      <rect fill="none" x="1105.0774" width="147.3196" height="59.728" y="655.8509" clip-path="url(#clipPath3)"/>
      <text x="1135.1053" y="689.8693" clip-path="url(#clipPath3)" fill="rgb(255,204,153)" font-family="sans-serif" stroke="none" xml:space="preserve">Game Content</text>
    </g>
    <g fill="maroon" text-rendering="geometricPrecision" shape-rendering="geometricPrecision" transform="matrix(1,0,0,1,-149,-205)" stroke="maroon">
      <circle r="29.864" clip-path="url(#clipPath3)" cx="1193.6693" cy="775.443" stroke="none"/>
    </g>
    <g text-rendering="geometricPrecision" stroke-miterlimit="1.45" shape-rendering="geometricPrecision" transform="matrix(1,0,0,1,-149,-205)" stroke-linecap="butt">
      <circle fill="none" r="29.864" clip-path="url(#clipPath3)" cx="1193.6693" cy="775.443"/>
      <text x="1180.5765" y="772.6129" clip-path="url(#clipPath3)" fill="rgb(255,204,153)" font-family="sans-serif" stroke="none" xml:space="preserve">v1.0</text>
      <text x="1169.9564" y="786.5817" clip-path="url(#clipPath3)" fill="rgb(255,204,153)" font-family="sans-serif" stroke="none" xml:space="preserve">Release</text>
    </g>
    <g fill="maroon" text-rendering="geometricPrecision" shape-rendering="geometricPrecision" transform="matrix(1,0,0,1,-149,-205)" stroke="maroon">
      <rect x="1272.3972" width="147.3196" height="59.728" y="655.8509" clip-path="url(#clipPath3)" stroke="none"/>
    </g>
    <g text-rendering="geometricPrecision" stroke-miterlimit="1.45" shape-rendering="geometricPrecision" transform="matrix(1,0,0,1,-149,-205)" stroke-linecap="butt">
      <rect fill="none" x="1272.3972" width="147.3196" height="59.728" y="655.8509" clip-path="url(#clipPath3)"/>
      <text x="1312.5912" y="689.8693" clip-path="url(#clipPath3)" fill="rgb(255,204,153)" font-family="sans-serif" stroke="none" xml:space="preserve">Game Flow</text>
    </g>
    <g fill="rgb(153,204,0)" text-rendering="geometricPrecision" shape-rendering="geometricPrecision" transform="matrix(1,0,0,1,-149,-205)" stroke="rgb(153,204,0)">
      <rect x="937.7575" width="147.3196" height="59.728" y="655.8509" clip-path="url(#clipPath3)" stroke="none"/>
    </g>
    <g text-rendering="geometricPrecision" stroke-miterlimit="1.45" shape-rendering="geometricPrecision" transform="matrix(1,0,0,1,-149,-205)" stroke-linecap="butt">
      <rect fill="none" x="937.7575" width="147.3196" height="59.728" y="655.8509" clip-path="url(#clipPath3)"/>
      <text x="973.7269" xml:space="preserve" y="689.8693" clip-path="url(#clipPath3)" font-family="sans-serif" stroke="none">Player sprite</text>
    </g>
    <g fill="rgb(255,102,0)" text-rendering="geometricPrecision" shape-rendering="geometricPrecision" transform="matrix(1,0,0,1,-149,-205)" stroke="rgb(255,102,0)">
      <rect x="603.1179" width="147.3196" height="59.728" y="220.2108" clip-path="url(#clipPath3)" stroke="none"/>
    </g>
    <g text-rendering="geometricPrecision" stroke-miterlimit="1.45" shape-rendering="geometricPrecision" transform="matrix(1,0,0,1,-149,-205)" stroke-linecap="butt">
      <rect fill="none" x="603.1179" width="147.3196" height="59.728" y="220.2108" clip-path="url(#clipPath3)"/>
      <text x="638.0032" xml:space="preserve" y="254.2291" clip-path="url(#clipPath3)" font-family="sans-serif" stroke="none">Combat SE 1</text>
      <path fill="none" d="M1011.4173 441.3949 L1011.4173 463.3656" clip-path="url(#clipPath3)"/>
      <path d="M1011.4173 471.3656 L1016.4173 459.3656 L1011.4173 462.3656 L1006.4173 459.3656 Z" clip-path="url(#clipPath3)" stroke="none"/>
      <path fill="none" d="M844.0975 531.1229 L844.0975 553.0936" clip-path="url(#clipPath3)"/>
      <path d="M844.0975 561.0936 L849.0975 549.0936 L844.0975 552.0936 L839.0975 549.0936 Z" clip-path="url(#clipPath3)" stroke="none"/>
      <path fill="none" d="M1011.4173 531.1229 L1011.4173 541.1229 L893.204 541.1229 L893.204 553.0839" clip-path="url(#clipPath3)"/>
      <path d="M893.204 561.0839 L898.204 549.0839 L893.204 552.0839 L888.204 549.0839 Z" clip-path="url(#clipPath3)" stroke="none"/>
      <path fill="none" d="M676.7776 531.1229 L676.7776 541.1229 L794.991 541.1229 L794.991 553.0839" clip-path="url(#clipPath3)"/>
      <path d="M794.991 561.0839 L799.991 549.0839 L794.991 552.0839 L789.991 549.0839 Z" clip-path="url(#clipPath3)" stroke="none"/>
      <path fill="none" d="M415.798 351.6668 L415.798 361.6668 L460.3513 361.6668 L460.3513 373.6278" clip-path="url(#clipPath3)"/>
      <path d="M460.3513 381.6278 L465.3513 369.6278 L460.3513 372.6278 L455.3513 369.6278 Z" clip-path="url(#clipPath3)" stroke="none"/>
      <path fill="none" d="M603.1179 321.8028 L546.2878 321.8028 L546.2878 373.6666" clip-path="url(#clipPath3)"/>
      <path d="M546.2878 381.6666 L551.2878 369.6666 L546.2878 372.6666 L541.2878 369.6666 Z" clip-path="url(#clipPath3)" stroke="none"/>
      <path fill="none" d="M509.4578 441.3949 L509.4578 451.3949 L639.9478 451.3949 L639.9478 463.3558" clip-path="url(#clipPath3)"/>
      <path d="M639.9478 471.3558 L644.9478 459.3558 L639.9478 462.3558 L634.9478 459.3558 Z" clip-path="url(#clipPath3)" stroke="none"/>
      <path fill="none" d="M945.9997 351.6668 L945.9997 361.6668 L893.204 361.6668 L893.204 373.6278" clip-path="url(#clipPath3)"/>
      <path d="M893.204 381.6278 L898.204 369.6278 L893.204 372.6278 L888.204 369.6278 Z" clip-path="url(#clipPath3)" stroke="none"/>
      <path fill="none" d="M750.4374 321.8028 L811.3887 321.8028 L811.3887 373.6728" clip-path="url(#clipPath3)"/>
      <path d="M811.3887 381.6728 L816.3887 369.6728 L811.3887 372.6728 L806.3887 369.6728 Z" clip-path="url(#clipPath3)" stroke="none"/>
      <path fill="none" d="M844.0975 441.3949 L844.0975 451.3949 L713.6075 451.3949 L713.6075 463.3558" clip-path="url(#clipPath3)"/>
      <path d="M713.6075 471.3558 L718.6075 459.3558 L713.6075 462.3558 L708.6075 459.3558 Z" clip-path="url(#clipPath3)" stroke="none"/>
      <path fill="none" d="M1346.057 531.1229 L1346.057 553.1229" clip-path="url(#clipPath3)"/>
      <path d="M1346.057 561.1229 L1351.057 549.1229 L1346.057 552.1229 L1341.057 549.1229 Z" clip-path="url(#clipPath3)" stroke="none"/>
      <path fill="none" d="M1346.057 620.851 L1346.057 630.851 L1208.201 630.851 L1208.201 647.8021" clip-path="url(#clipPath3)"/>
      <path d="M1208.201 655.8021 L1213.201 643.8021 L1208.201 646.8021 L1203.201 643.8021 Z" clip-path="url(#clipPath3)" stroke="none"/>
      <path fill="none" d="M1513.3768 620.851 L1513.3768 640.851 L1237.665 640.851 L1237.665 647.8217" clip-path="url(#clipPath3)"/>
      <path d="M1237.665 655.8217 L1242.665 643.8217 L1237.665 646.8217 L1232.665 643.8217 Z" clip-path="url(#clipPath3)" stroke="none"/>
      <path fill="none" d="M844.0975 620.851 L844.0975 640.851 L1119.8093 640.851 L1119.8093 647.8217" clip-path="url(#clipPath3)"/>
      <path d="M1119.8093 655.8217 L1124.8093 643.8217 L1119.8093 646.8217 L1114.8093 643.8217 Z" clip-path="url(#clipPath3)" stroke="none"/>
      <path fill="none" d="M1011.4173 620.851 L1011.4173 630.851 L1149.2733 630.851 L1149.2733 647.8021" clip-path="url(#clipPath3)"/>
      <path d="M1149.2733 655.8021 L1154.2733 643.8021 L1149.2733 646.8021 L1144.2733 643.8021 Z" clip-path="url(#clipPath3)" stroke="none"/>
      <path fill="none" d="M1178.7372 620.851 L1178.7372 647.8168" clip-path="url(#clipPath3)"/>
      <path d="M1178.7372 655.8168 L1183.7372 643.8168 L1178.7372 646.8168 L1173.7372 643.8168 Z" clip-path="url(#clipPath3)" stroke="none"/>
      <path fill="none" d="M1178.7372 715.579 L1178.7373 737.579" clip-path="url(#clipPath3)"/>
      <path d="M1178.7373 745.579 L1183.7373 733.579 L1178.7373 736.579 L1173.7373 733.579 Z" clip-path="url(#clipPath3)" stroke="none"/>
      <path fill="none" d="M1346.057 715.579 L1346.057 725.579 L1208.6013 725.579 L1208.6013 737.579" clip-path="url(#clipPath3)"/>
      <path d="M1208.6013 745.579 L1213.6013 733.579 L1208.6013 736.579 L1203.6013 733.579 Z" clip-path="url(#clipPath3)" stroke="none"/>
      <path fill="none" d="M1085.063 683.5 L1097.0692 683.5" clip-path="url(#clipPath3)"/>
      <path d="M1105.0692 683.5 L1093.0692 678.5 L1096.0692 683.5 L1093.0692 688.5 Z" clip-path="url(#clipPath3)" stroke="none"/>
      <path fill="none" d="M603.1179 250.0748 L509.4578 250.0748 L509.4578 373.6624" clip-path="url(#clipPath3)"/>
      <path d="M509.4578 381.6624 L514.4578 369.6624 L509.4578 372.6624 L504.4578 369.6624 Z" clip-path="url(#clipPath3)" stroke="none"/>
      <path fill="none" d="M750.4374 250.0748 L852.34 250.0748 L852.34 373.6707" clip-path="url(#clipPath3)"/>
      <path d="M852.34 381.6707 L857.34 369.6707 L852.34 372.6707 L847.34 369.6707 Z" clip-path="url(#clipPath3)" stroke="none"/>
    </g>
  </g>
</svg>
