<?xml version="1.0" encoding="UTF-8"?><svg xmlns="http://www.w3.org/2000/svg" xmlns:xlink="http://www.w3.org/1999/xlink" fill-opacity="1" color-rendering="auto" color-interpolation="auto" text-rendering="auto" stroke="black" stroke-linecap="square" width="1515" stroke-miterlimit="10" shape-rendering="auto" stroke-opacity="1" fill="black" stroke-dasharray="none" font-weight="normal" stroke-width="1" height="654" font-family="'Dialog'" font-style="normal" stroke-linejoin="miter" font-size="12px" stroke-dashoffset="0" image-rendering="auto">
  <!--Generated by ySVG 2.5-->
  <defs id="genericDefs"/>
  <g>
    <defs id="defs1">
      <clipPath clipPathUnits="userSpaceOnUse" id="clipPath1">
        <path d="M0 0 L1515 0 L1515 654 L0 654 L0 0 Z"/>
      </clipPath>
      <clipPath clipPathUnits="userSpaceOnUse" id="clipPath2">
        <path d="M145 180 L1660 180 L1660 834 L145 834 L145 180 Z"/>
      </clipPath>
      <clipPath clipPathUnits="userSpaceOnUse" id="clipPath3">
        <path d="M149 184 L1664 184 L1664 838 L149 838 L149 184 Z"/>
      </clipPath>
    </defs>
    <g fill="rgb(210,210,210)" text-rendering="geometricPrecision" shape-rendering="geometricPrecision" transform="matrix(1,0,0,1,-149,-184) translate(4,4)" stroke="rgb(210,210,210)">
      <rect x="164.8187" width="147.3196" height="216" y="263.3457" clip-path="url(#clipPath2)" stroke="none"/>
    </g>
    <g fill="rgb(242,240,216)" text-rendering="geometricPrecision" shape-rendering="geometricPrecision" transform="matrix(1,0,0,1,-149,-184)" stroke="rgb(242,240,216)">
      <rect x="164.8187" width="147.3196" height="216" y="263.3457" clip-path="url(#clipPath3)" stroke="none"/>
      <rect x="164.8187" y="263.3457" clip-path="url(#clipPath3)" fill="rgb(183,182,158)" width="147.3196" height="21.4609" stroke="none"/>
    </g>
    <g font-size="15px" stroke-linecap="butt" transform="matrix(1,0,0,1,-149,-184)" text-rendering="geometricPrecision" font-family="sans-serif" shape-rendering="geometricPrecision" stroke-miterlimit="1.45">
      <text x="230.4581" xml:space="preserve" y="279.269" clip-path="url(#clipPath3)" stroke="none">Shape Key</text>
      <rect fill="none" x="164.8187" width="147.3196" height="216" y="263.3457" clip-path="url(#clipPath3)"/>
    </g>
    <g fill="rgb(255,204,0)" text-rendering="geometricPrecision" shape-rendering="geometricPrecision" transform="matrix(1,0,0,1,-149,-184)" stroke="rgb(255,204,0)">
      <rect x="179.8187" width="117.3196" height="35.3086" y="303.3457" clip-path="url(#clipPath3)" stroke="none"/>
    </g>
    <g text-rendering="geometricPrecision" stroke-miterlimit="1.45" shape-rendering="geometricPrecision" transform="matrix(1,0,0,1,-149,-184)" stroke-linecap="butt">
      <rect fill="none" x="179.8187" width="117.3196" height="35.3086" y="303.3457" clip-path="url(#clipPath3)"/>
      <text x="204.7666" xml:space="preserve" y="325.1543" clip-path="url(#clipPath3)" font-family="sans-serif" stroke="none">Game Task</text>
    </g>
    <g fill="rgb(255,204,0)" text-rendering="geometricPrecision" shape-rendering="geometricPrecision" transform="matrix(1,0,0,1,-149,-184)" stroke="rgb(255,204,0)">
      <rect x="179.8187" y="351.6668" clip-path="url(#clipPath3)" width="117.3196" rx="4" ry="4" height="35.3086" stroke="none"/>
    </g>
    <g stroke-linecap="butt" transform="matrix(1,0,0,1,-149,-184)" fill="gray" text-rendering="geometricPrecision" shape-rendering="geometricPrecision" stroke="gray" stroke-miterlimit="1.45">
      <rect x="179.8187" y="351.6668" clip-path="url(#clipPath3)" fill="none" width="117.3196" rx="4" ry="4" height="35.3086"/>
      <text x="197.6298" y="373.4754" clip-path="url(#clipPath3)" fill="black" font-family="sans-serif" stroke="none" xml:space="preserve">External Task</text>
    </g>
    <g fill="rgb(255,204,0)" text-rendering="geometricPrecision" shape-rendering="geometricPrecision" transform="matrix(1,0,0,1,-149,-184)" stroke="rgb(255,204,0)">
      <circle r="29.864" clip-path="url(#clipPath3)" cx="238.4785" cy="429.852" stroke="none"/>
    </g>
    <g text-rendering="geometricPrecision" stroke-miterlimit="1.45" shape-rendering="geometricPrecision" transform="matrix(1,0,0,1,-149,-184)" stroke-linecap="butt">
      <circle fill="none" r="29.864" clip-path="url(#clipPath3)" cx="238.4785" cy="429.852"/>
      <text x="214.7656" xml:space="preserve" y="434.0063" clip-path="url(#clipPath3)" font-family="sans-serif" stroke="none">Release</text>
    </g>
    <g fill="rgb(210,210,210)" text-rendering="geometricPrecision" shape-rendering="geometricPrecision" transform="matrix(1,0,0,1,-149,-184) translate(4,4)" stroke="rgb(210,210,210)">
      <rect x="164.8187" width="147.3196" height="279.9426" y="504.2305" clip-path="url(#clipPath2)" stroke="none"/>
    </g>
    <g fill="rgb(242,240,216)" text-rendering="geometricPrecision" shape-rendering="geometricPrecision" transform="matrix(1,0,0,1,-149,-184)" stroke="rgb(242,240,216)">
      <rect x="164.8187" width="147.3196" height="279.9426" y="504.2305" clip-path="url(#clipPath3)" stroke="none"/>
      <rect x="164.8187" y="504.2305" clip-path="url(#clipPath3)" fill="rgb(183,182,158)" width="147.3196" height="21.4609" stroke="none"/>
    </g>
    <g font-size="15px" stroke-linecap="butt" transform="matrix(1,0,0,1,-149,-184)" text-rendering="geometricPrecision" font-family="sans-serif" shape-rendering="geometricPrecision" stroke-miterlimit="1.45">
      <text x="238.2657" xml:space="preserve" y="520.1538" clip-path="url(#clipPath3)" stroke="none">Color Key</text>
      <rect fill="none" x="164.8187" width="147.3196" height="279.9426" y="504.2305" clip-path="url(#clipPath3)"/>
    </g>
    <g fill="maroon" text-rendering="geometricPrecision" shape-rendering="geometricPrecision" transform="matrix(1,0,0,1,-149,-184)" stroke="maroon">
      <rect x="179.8187" width="117.3196" height="35.3086" y="540.6914" clip-path="url(#clipPath3)" stroke="none"/>
    </g>
    <g text-rendering="geometricPrecision" stroke-miterlimit="1.45" shape-rendering="geometricPrecision" transform="matrix(1,0,0,1,-149,-184)" stroke-linecap="butt">
      <rect fill="none" x="179.8187" width="117.3196" height="35.3086" y="540.6914" clip-path="url(#clipPath3)"/>
      <text x="201.4589" y="562.5" clip-path="url(#clipPath3)" fill="rgb(255,204,153)" font-family="sans-serif" stroke="none" xml:space="preserve">Future Work</text>
    </g>
    <g fill="red" text-rendering="geometricPrecision" shape-rendering="geometricPrecision" transform="matrix(1,0,0,1,-149,-184)" stroke="red">
      <rect x="179.8187" width="117.3196" height="35.3086" y="589.0863" clip-path="url(#clipPath3)" stroke="none"/>
    </g>
    <g text-rendering="geometricPrecision" stroke-miterlimit="1.45" shape-rendering="geometricPrecision" transform="matrix(1,0,0,1,-149,-184)" stroke-linecap="butt">
      <rect fill="none" x="179.8187" width="117.3196" height="35.3086" y="589.0863" clip-path="url(#clipPath3)"/>
      <text x="190.7334" xml:space="preserve" y="610.8949" clip-path="url(#clipPath3)" font-family="sans-serif" stroke="none">Upcoming Work</text>
    </g>
    <g fill="rgb(255,102,0)" text-rendering="geometricPrecision" shape-rendering="geometricPrecision" transform="matrix(1,0,0,1,-149,-184)" stroke="rgb(255,102,0)">
      <rect x="179.8187" width="117.3196" height="35.3086" y="637.3457" clip-path="url(#clipPath3)" stroke="none"/>
    </g>
    <g text-rendering="geometricPrecision" stroke-miterlimit="1.45" shape-rendering="geometricPrecision" transform="matrix(1,0,0,1,-149,-184)" stroke-linecap="butt">
      <rect fill="none" x="179.8187" width="117.3196" height="35.3086" y="637.3457" clip-path="url(#clipPath3)"/>
      <text x="206.9433" xml:space="preserve" y="659.1543" clip-path="url(#clipPath3)" font-family="sans-serif" stroke="none">Next Work</text>
    </g>
    <g fill="rgb(255,204,0)" text-rendering="geometricPrecision" shape-rendering="geometricPrecision" transform="matrix(1,0,0,1,-149,-184)" stroke="rgb(255,204,0)">
      <rect x="179.8187" width="117.3196" height="35.3086" y="685.6051" clip-path="url(#clipPath3)" stroke="none"/>
    </g>
    <g text-rendering="geometricPrecision" stroke-miterlimit="1.45" shape-rendering="geometricPrecision" transform="matrix(1,0,0,1,-149,-184)" stroke-linecap="butt">
      <rect fill="none" x="179.8187" width="117.3196" height="35.3086" y="685.6051" clip-path="url(#clipPath3)"/>
      <text x="205.0244" xml:space="preserve" y="707.4137" clip-path="url(#clipPath3)" font-family="sans-serif" stroke="none">In Progress</text>
    </g>
    <g fill="rgb(153,204,0)" text-rendering="geometricPrecision" shape-rendering="geometricPrecision" transform="matrix(1,0,0,1,-149,-184)" stroke="rgb(153,204,0)">
      <rect x="179.8187" width="117.3196" height="35.3086" y="733.8645" clip-path="url(#clipPath3)" stroke="none"/>
    </g>
    <g text-rendering="geometricPrecision" stroke-miterlimit="1.45" shape-rendering="geometricPrecision" transform="matrix(1,0,0,1,-149,-184)" stroke-linecap="butt">
      <rect fill="none" x="179.8187" width="117.3196" height="35.3086" y="733.8645" clip-path="url(#clipPath3)"/>
      <text x="222.6933" xml:space="preserve" y="755.6731" clip-path="url(#clipPath3)" font-family="sans-serif" stroke="none">Done</text>
    </g>
    <g fill="rgb(153,204,0)" text-rendering="geometricPrecision" shape-rendering="geometricPrecision" transform="matrix(1,0,0,1,-149,-184)" stroke="rgb(153,204,0)">
      <rect x="880.9275" width="147.3196" height="59.728" y="473.9393" clip-path="url(#clipPath3)" stroke="none"/>
    </g>
    <g text-rendering="geometricPrecision" stroke-miterlimit="1.45" shape-rendering="geometricPrecision" transform="matrix(1,0,0,1,-149,-184)" stroke-linecap="butt">
      <rect fill="none" x="880.9275" width="147.3196" height="59.728" y="473.9393" clip-path="url(#clipPath3)"/>
      <text x="920.3539" xml:space="preserve" y="507.9576" clip-path="url(#clipPath3)" font-family="sans-serif" stroke="none">Area 1 Map</text>
    </g>
    <g fill="rgb(153,204,0)" text-rendering="geometricPrecision" shape-rendering="geometricPrecision" transform="matrix(1,0,0,1,-149,-184)" stroke="rgb(153,204,0)">
      <rect x="880.9275" width="147.3196" height="59.728" y="384.2113" clip-path="url(#clipPath3)" stroke="none"/>
    </g>
    <g text-rendering="geometricPrecision" stroke-miterlimit="1.45" shape-rendering="geometricPrecision" transform="matrix(1,0,0,1,-149,-184)" stroke-linecap="butt">
      <rect fill="none" x="880.9275" width="147.3196" height="59.728" y="384.2113" clip-path="url(#clipPath3)"/>
      <text x="919.1996" xml:space="preserve" y="418.2296" clip-path="url(#clipPath3)" font-family="sans-serif" stroke="none">Area 1 Tiles</text>
    </g>
    <g fill="rgb(153,204,0)" text-rendering="geometricPrecision" shape-rendering="geometricPrecision" transform="matrix(1,0,0,1,-149,-184)" stroke="rgb(153,204,0)">
      <rect x="342.1382" width="147.3196" height="59.728" y="289.4833" clip-path="url(#clipPath3)" stroke="none"/>
    </g>
    <g text-rendering="geometricPrecision" stroke-miterlimit="1.45" shape-rendering="geometricPrecision" transform="matrix(1,0,0,1,-149,-184)" stroke-linecap="butt">
      <rect fill="none" x="342.1382" width="147.3196" height="59.728" y="289.4833" clip-path="url(#clipPath3)"/>
      <text x="378.3185" xml:space="preserve" y="323.5016" clip-path="url(#clipPath3)" font-family="sans-serif" stroke="none">Rokko sprite</text>
    </g>
    <g fill="rgb(153,204,0)" text-rendering="geometricPrecision" shape-rendering="geometricPrecision" transform="matrix(1,0,0,1,-149,-184)" stroke="rgb(153,204,0)">
      <rect x="844.0978" width="147.3196" height="59.728" y="289.4833" clip-path="url(#clipPath3)" stroke="none"/>
    </g>
    <g text-rendering="geometricPrecision" stroke-miterlimit="1.45" shape-rendering="geometricPrecision" transform="matrix(1,0,0,1,-149,-184)" stroke-linecap="butt">
      <rect fill="none" x="844.0978" width="147.3196" height="59.728" y="289.4833" clip-path="url(#clipPath3)"/>
      <text x="869.0457" xml:space="preserve" y="323.5016" clip-path="url(#clipPath3)" font-family="sans-serif" stroke="none">Bushbaby sprite</text>
    </g>
    <g fill="rgb(255,204,0)" text-rendering="geometricPrecision" shape-rendering="geometricPrecision" transform="matrix(1,0,0,1,-149,-184)" stroke="rgb(255,204,0)">
      <rect x="593.118" width="147.3196" height="59.728" y="199.7552" clip-path="url(#clipPath3)" stroke="none"/>
    </g>
    <g text-rendering="geometricPrecision" stroke-miterlimit="1.45" shape-rendering="geometricPrecision" transform="matrix(1,0,0,1,-149,-184)" stroke-linecap="butt">
      <rect fill="none" x="593.118" width="147.3196" height="59.728" y="199.7552" clip-path="url(#clipPath3)"/>
      <text x="618.5317" xml:space="preserve" y="233.7735" clip-path="url(#clipPath3)" font-family="sans-serif" stroke="none">Combat Music 1</text>
    </g>
    <g fill="rgb(153,204,0)" text-rendering="geometricPrecision" shape-rendering="geometricPrecision" transform="matrix(1,0,0,1,-149,-184)" stroke="rgb(153,204,0)">
      <rect x="713.6077" width="147.3196" height="59.728" y="473.9393" clip-path="url(#clipPath3)" stroke="none"/>
    </g>
    <g text-rendering="geometricPrecision" stroke-miterlimit="1.45" shape-rendering="geometricPrecision" transform="matrix(1,0,0,1,-149,-184)" stroke-linecap="butt">
      <rect fill="none" x="713.6077" width="147.3196" height="59.728" y="473.9393" clip-path="url(#clipPath3)"/>
      <text x="747.9569" xml:space="preserve" y="507.9576" clip-path="url(#clipPath3)" font-family="sans-serif" stroke="none">Area 1 music</text>
    </g>
    <g fill="red" text-rendering="geometricPrecision" shape-rendering="geometricPrecision" transform="matrix(1,0,0,1,-149,-184)" stroke="red">
      <rect x="831.8212" width="147.3196" height="59.728" y="568.6674" clip-path="url(#clipPath3)" stroke="none"/>
    </g>
    <g text-rendering="geometricPrecision" stroke-miterlimit="1.45" shape-rendering="geometricPrecision" transform="matrix(1,0,0,1,-149,-184)" stroke-linecap="butt">
      <rect fill="none" x="831.8212" width="147.3196" height="59.728" y="568.6674" clip-path="url(#clipPath3)"/>
      <text x="885.8169" xml:space="preserve" y="602.6857" clip-path="url(#clipPath3)" font-family="sans-serif" stroke="none">Area 1</text>
    </g>
    <g fill="red" text-rendering="geometricPrecision" shape-rendering="geometricPrecision" transform="matrix(1,0,0,1,-149,-184)" stroke="red">
      <rect x="546.2878" width="147.3196" height="59.728" y="473.9393" clip-path="url(#clipPath3)" stroke="none"/>
    </g>
    <g text-rendering="geometricPrecision" stroke-miterlimit="1.45" shape-rendering="geometricPrecision" transform="matrix(1,0,0,1,-149,-184)" stroke-linecap="butt">
      <rect fill="none" x="546.2878" width="147.3196" height="59.728" y="473.9393" clip-path="url(#clipPath3)"/>
      <text x="564.5707" xml:space="preserve" y="507.9576" clip-path="url(#clipPath3)" font-family="sans-serif" stroke="none">Area 1 Encounters</text>
    </g>
    <g fill="red" text-rendering="geometricPrecision" shape-rendering="geometricPrecision" transform="matrix(1,0,0,1,-149,-184)" stroke="red">
      <rect x="472.6283" width="147.3196" height="59.728" y="384.2113" clip-path="url(#clipPath3)" stroke="none"/>
    </g>
    <g text-rendering="geometricPrecision" stroke-miterlimit="1.45" shape-rendering="geometricPrecision" transform="matrix(1,0,0,1,-149,-184)" stroke-linecap="butt">
      <rect fill="none" x="472.6283" width="147.3196" height="59.728" y="384.2113" clip-path="url(#clipPath3)"/>
      <text x="495.3409" xml:space="preserve" y="418.2296" clip-path="url(#clipPath3)" font-family="sans-serif" stroke="none">Rokko encounter</text>
    </g>
    <g fill="red" text-rendering="geometricPrecision" shape-rendering="geometricPrecision" transform="matrix(1,0,0,1,-149,-184)" stroke="red">
      <rect x="713.6077" width="147.3196" height="59.728" y="384.2113" clip-path="url(#clipPath3)" stroke="none"/>
    </g>
    <g text-rendering="geometricPrecision" stroke-miterlimit="1.45" shape-rendering="geometricPrecision" transform="matrix(1,0,0,1,-149,-184)" stroke-linecap="butt">
      <rect fill="none" x="713.6077" width="147.3196" height="59.728" y="384.2113" clip-path="url(#clipPath3)"/>
      <text x="725.0878" xml:space="preserve" y="418.2296" clip-path="url(#clipPath3)" font-family="sans-serif" stroke="none">Bushbaby encounter</text>
    </g>
    <g fill="maroon" text-rendering="geometricPrecision" shape-rendering="geometricPrecision" transform="matrix(1,0,0,1,-149,-184)" stroke="maroon">
      <rect x="1501.1005" width="147.3196" height="59.728" y="568.6674" clip-path="url(#clipPath3)" stroke="none"/>
    </g>
    <g text-rendering="geometricPrecision" stroke-miterlimit="1.45" shape-rendering="geometricPrecision" transform="matrix(1,0,0,1,-149,-184)" stroke-linecap="butt">
      <rect fill="none" x="1501.1005" width="147.3196" height="59.728" y="568.6674" clip-path="url(#clipPath3)"/>
      <text x="1544.8512" y="602.6857" clip-path="url(#clipPath3)" fill="rgb(255,204,153)" font-family="sans-serif" stroke="none" xml:space="preserve">Intro Area</text>
    </g>
    <g fill="maroon" text-rendering="geometricPrecision" shape-rendering="geometricPrecision" transform="matrix(1,0,0,1,-149,-184)" stroke="maroon">
      <rect x="1333.7807" width="147.3196" height="59.728" y="568.6674" clip-path="url(#clipPath3)" stroke="none"/>
    </g>
    <g text-rendering="geometricPrecision" stroke-miterlimit="1.45" shape-rendering="geometricPrecision" transform="matrix(1,0,0,1,-149,-184)" stroke-linecap="butt">
      <rect fill="none" x="1333.7807" width="147.3196" height="59.728" y="568.6674" clip-path="url(#clipPath3)"/>
      <text x="1387.7764" y="602.6857" clip-path="url(#clipPath3)" fill="rgb(255,204,153)" font-family="sans-serif" stroke="none" xml:space="preserve">Area 4</text>
    </g>
    <g fill="maroon" text-rendering="geometricPrecision" shape-rendering="geometricPrecision" transform="matrix(1,0,0,1,-149,-184)" stroke="maroon">
      <rect x="999.141" width="147.3196" height="59.728" y="568.6674" clip-path="url(#clipPath3)" stroke="none"/>
    </g>
    <g text-rendering="geometricPrecision" stroke-miterlimit="1.45" shape-rendering="geometricPrecision" transform="matrix(1,0,0,1,-149,-184)" stroke-linecap="butt">
      <rect fill="none" x="999.141" width="147.3196" height="59.728" y="568.6674" clip-path="url(#clipPath3)"/>
      <text x="1053.1367" y="602.6857" clip-path="url(#clipPath3)" fill="rgb(255,204,153)" font-family="sans-serif" stroke="none" xml:space="preserve">Area 3</text>
    </g>
    <g fill="maroon" text-rendering="geometricPrecision" shape-rendering="geometricPrecision" transform="matrix(1,0,0,1,-149,-184)" stroke="maroon">
      <rect x="1382.8871" width="147.3196" height="59.728" y="473.9393" clip-path="url(#clipPath3)" stroke="none"/>
    </g>
    <g text-rendering="geometricPrecision" stroke-miterlimit="1.45" shape-rendering="geometricPrecision" transform="matrix(1,0,0,1,-149,-184)" stroke-linecap="butt">
      <rect fill="none" x="1382.8871" width="147.3196" height="59.728" y="473.9393" clip-path="url(#clipPath3)"/>
      <text x="1401.9141" y="507.9576" clip-path="url(#clipPath3)" fill="rgb(255,204,153)" font-family="sans-serif" stroke="none" xml:space="preserve">Dragon Encounter</text>
    </g>
    <g fill="maroon" text-rendering="geometricPrecision" shape-rendering="geometricPrecision" transform="matrix(1,0,0,1,-149,-184)" stroke="maroon">
      <rect x="1166.4609" width="147.3196" height="59.728" y="568.6674" clip-path="url(#clipPath3)" stroke="none"/>
    </g>
    <g text-rendering="geometricPrecision" stroke-miterlimit="1.45" shape-rendering="geometricPrecision" transform="matrix(1,0,0,1,-149,-184)" stroke-linecap="butt">
      <rect fill="none" x="1166.4609" width="147.3196" height="59.728" y="568.6674" clip-path="url(#clipPath3)"/>
      <text x="1220.4565" y="602.6857" clip-path="url(#clipPath3)" fill="rgb(255,204,153)" font-family="sans-serif" stroke="none" xml:space="preserve">Area 2</text>
    </g>
    <g fill="maroon" text-rendering="geometricPrecision" shape-rendering="geometricPrecision" transform="matrix(1,0,0,1,-149,-184)" stroke="maroon">
      <rect x="1011.4176" width="147.3196" height="59.728" y="673.3954" clip-path="url(#clipPath3)" stroke="none"/>
    </g>
    <g text-rendering="geometricPrecision" stroke-miterlimit="1.45" shape-rendering="geometricPrecision" transform="matrix(1,0,0,1,-149,-184)" stroke-linecap="butt">
      <rect fill="none" x="1011.4176" width="147.3196" height="59.728" y="673.3954" clip-path="url(#clipPath3)"/>
      <text x="1041.4456" y="707.4137" clip-path="url(#clipPath3)" fill="rgb(255,204,153)" font-family="sans-serif" stroke="none" xml:space="preserve">Game Content</text>
    </g>
    <g fill="maroon" text-rendering="geometricPrecision" shape-rendering="geometricPrecision" transform="matrix(1,0,0,1,-149,-184)" stroke="maroon">
      <circle r="29.864" clip-path="url(#clipPath3)" cx="1100.0095" cy="792.9874" stroke="none"/>
    </g>
    <g text-rendering="geometricPrecision" stroke-miterlimit="1.45" shape-rendering="geometricPrecision" transform="matrix(1,0,0,1,-149,-184)" stroke-linecap="butt">
      <circle fill="none" r="29.864" clip-path="url(#clipPath3)" cx="1100.0095" cy="792.9874"/>
      <text x="1086.9167" y="790.1573" clip-path="url(#clipPath3)" fill="rgb(255,204,153)" font-family="sans-serif" stroke="none" xml:space="preserve">v1.0</text>
      <text x="1076.2966" y="804.1261" clip-path="url(#clipPath3)" fill="rgb(255,204,153)" font-family="sans-serif" stroke="none" xml:space="preserve">Release</text>
    </g>
    <g fill="maroon" text-rendering="geometricPrecision" shape-rendering="geometricPrecision" transform="matrix(1,0,0,1,-149,-184)" stroke="maroon">
      <rect x="1178.7374" width="147.3196" height="59.728" y="673.3954" clip-path="url(#clipPath3)" stroke="none"/>
    </g>
    <g text-rendering="geometricPrecision" stroke-miterlimit="1.45" shape-rendering="geometricPrecision" transform="matrix(1,0,0,1,-149,-184)" stroke-linecap="butt">
      <rect fill="none" x="1178.7374" width="147.3196" height="59.728" y="673.3954" clip-path="url(#clipPath3)"/>
      <text x="1218.9314" y="707.4137" clip-path="url(#clipPath3)" fill="rgb(255,204,153)" font-family="sans-serif" stroke="none" xml:space="preserve">Game Flow</text>
    </g>
    <g fill="rgb(153,204,0)" text-rendering="geometricPrecision" shape-rendering="geometricPrecision" transform="matrix(1,0,0,1,-149,-184)" stroke="rgb(153,204,0)">
      <rect x="664.5013" width="147.3196" height="59.728" y="568.6674" clip-path="url(#clipPath3)" stroke="none"/>
    </g>
    <g text-rendering="geometricPrecision" stroke-miterlimit="1.45" shape-rendering="geometricPrecision" transform="matrix(1,0,0,1,-149,-184)" stroke-linecap="butt">
      <rect fill="none" x="664.5013" width="147.3196" height="59.728" y="568.6674" clip-path="url(#clipPath3)"/>
      <text x="700.4707" xml:space="preserve" y="602.6857" clip-path="url(#clipPath3)" font-family="sans-serif" stroke="none">Player sprite</text>
    </g>
    <g fill="rgb(255,102,0)" text-rendering="geometricPrecision" shape-rendering="geometricPrecision" transform="matrix(1,0,0,1,-149,-184)" stroke="rgb(255,102,0)">
      <rect x="593.118" width="147.3196" height="59.728" y="289.4833" clip-path="url(#clipPath3)" stroke="none"/>
    </g>
    <g text-rendering="geometricPrecision" stroke-miterlimit="1.45" shape-rendering="geometricPrecision" transform="matrix(1,0,0,1,-149,-184)" stroke-linecap="butt">
      <rect fill="none" x="593.118" width="147.3196" height="59.728" y="289.4833" clip-path="url(#clipPath3)"/>
      <text x="628.0034" xml:space="preserve" y="323.5016" clip-path="url(#clipPath3)" font-family="sans-serif" stroke="none">Combat SE 1</text>
    </g>
    <g fill="rgb(255,204,0)" text-rendering="geometricPrecision" shape-rendering="geometricPrecision" transform="matrix(1,0,0,1,-149,-184)" stroke="rgb(255,204,0)">
      <rect x="1048.2474" width="147.3196" height="59.728" y="473.9393" clip-path="url(#clipPath3)" stroke="none"/>
    </g>
    <g text-rendering="geometricPrecision" stroke-miterlimit="1.45" shape-rendering="geometricPrecision" transform="matrix(1,0,0,1,-149,-184)" stroke-linecap="butt">
      <rect fill="none" x="1048.2474" width="147.3196" height="59.728" y="473.9393" clip-path="url(#clipPath3)"/>
      <text x="1083.2645" xml:space="preserve" y="507.9576" clip-path="url(#clipPath3)" font-family="sans-serif" stroke="none">Area 2 Music</text>
    </g>
    <g fill="red" text-rendering="geometricPrecision" shape-rendering="geometricPrecision" transform="matrix(1,0,0,1,-149,-184)" stroke="red">
      <rect x="1215.5672" width="147.3196" height="59.728" y="473.9393" clip-path="url(#clipPath3)" stroke="none"/>
    </g>
    <g text-rendering="geometricPrecision" stroke-miterlimit="1.45" shape-rendering="geometricPrecision" transform="matrix(1,0,0,1,-149,-184)" stroke-linecap="butt">
      <rect fill="none" x="1215.5672" width="147.3196" height="59.728" y="473.9393" clip-path="url(#clipPath3)"/>
      <text x="1254.9937" xml:space="preserve" y="507.9576" clip-path="url(#clipPath3)" font-family="sans-serif" stroke="none">Area 2 Map</text>
    </g>
    <g fill="rgb(255,204,0)" text-rendering="geometricPrecision" shape-rendering="geometricPrecision" transform="matrix(1,0,0,1,-149,-184)" stroke="rgb(255,204,0)">
      <rect x="1215.5672" width="147.3196" height="59.728" y="384.2113" clip-path="url(#clipPath3)" stroke="none"/>
    </g>
    <g text-rendering="geometricPrecision" stroke-miterlimit="1.45" shape-rendering="geometricPrecision" transform="matrix(1,0,0,1,-149,-184)" stroke-linecap="butt">
      <rect fill="none" x="1215.5672" width="147.3196" height="59.728" y="384.2113" clip-path="url(#clipPath3)"/>
      <text x="1253.8394" xml:space="preserve" y="418.2296" clip-path="url(#clipPath3)" font-family="sans-serif" stroke="none">Area 2 Tiles</text>
      <path fill="none" d="M954.5873 443.9393 L954.5873 465.91" clip-path="url(#clipPath3)"/>
      <path d="M954.5873 473.91 L959.5873 461.91 L954.5873 464.91 L949.5873 461.91 Z" clip-path="url(#clipPath3)" stroke="none"/>
      <path fill="none" d="M787.2675 533.6674 L787.2675 543.6674 L905.481 543.6674 L905.481 560.6185" clip-path="url(#clipPath3)"/>
      <path d="M905.481 568.6185 L910.481 556.6185 L905.481 559.6185 L900.481 556.6185 Z" clip-path="url(#clipPath3)" stroke="none"/>
      <path fill="none" d="M954.5873 533.6674 L954.5875 560.6332" clip-path="url(#clipPath3)"/>
      <path d="M954.5875 568.6332 L959.5875 556.6332 L954.5875 559.6332 L949.5875 556.6332 Z" clip-path="url(#clipPath3)" stroke="none"/>
      <path fill="none" d="M619.9476 533.6674 L619.9476 553.6674 L856.3745 553.6674 L856.3745 560.6381" clip-path="url(#clipPath3)"/>
      <path d="M856.3745 568.6381 L861.3745 556.6381 L856.3745 559.6381 L851.3745 556.6381 Z" clip-path="url(#clipPath3)" stroke="none"/>
      <path fill="none" d="M415.798 349.2113 L415.798 359.2113 L497.1816 359.2113 L497.1816 376.1625" clip-path="url(#clipPath3)"/>
      <path d="M497.1816 384.1625 L502.1816 372.1625 L497.1816 375.1625 L492.1816 372.1625 Z" clip-path="url(#clipPath3)" stroke="none"/>
      <path fill="none" d="M593.118 229.6192 L541.2879 229.6192 L541.2879 376.2479" clip-path="url(#clipPath3)"/>
      <path d="M541.2879 384.2479 L546.2879 372.2479 L541.2879 375.2479 L536.2879 372.2479 Z" clip-path="url(#clipPath3)" stroke="none"/>
      <path fill="none" d="M546.2881 443.9393 L546.2881 453.9393 L583.1177 453.9393 L583.1177 465.9003" clip-path="url(#clipPath3)"/>
      <path d="M583.1177 473.9003 L588.1177 461.9003 L583.1177 464.9003 L578.1177 461.9003 Z" clip-path="url(#clipPath3)" stroke="none"/>
      <path fill="none" d="M917.7576 349.2113 L917.7576 359.2113 L836.374 359.2113 L836.374 376.1625" clip-path="url(#clipPath3)"/>
      <path d="M836.374 384.1625 L841.374 372.1625 L836.374 375.1625 L831.374 372.1625 Z" clip-path="url(#clipPath3)" stroke="none"/>
      <path fill="none" d="M740.4376 229.6192 L792.2676 229.6192 L792.2676 376.2493" clip-path="url(#clipPath3)"/>
      <path d="M792.2676 384.2493 L797.2676 372.2493 L792.2676 375.2493 L787.2676 372.2493 Z" clip-path="url(#clipPath3)" stroke="none"/>
      <path fill="none" d="M787.2675 443.9393 L787.2675 453.9393 L656.7775 453.9393 L656.7775 465.9003" clip-path="url(#clipPath3)"/>
      <path d="M656.7775 473.9003 L661.7775 461.9003 L656.7775 464.9003 L651.7775 461.9003 Z" clip-path="url(#clipPath3)" stroke="none"/>
      <path fill="none" d="M1456.5469 533.6674 L1456.5469 543.6674 L1407.4404 543.6674 L1407.4404 560.6185" clip-path="url(#clipPath3)"/>
      <path d="M1407.4404 568.6185 L1412.4404 556.6185 L1407.4404 559.6185 L1402.4404 556.6185 Z" clip-path="url(#clipPath3)" stroke="none"/>
      <path fill="none" d="M1407.4404 628.3954 L1407.4404 648.3954 L1121.9072 648.3954 L1121.9072 665.3466" clip-path="url(#clipPath3)"/>
      <path d="M1121.9072 673.3466 L1126.9072 661.3466 L1121.9072 664.3466 L1116.9072 661.3466 Z" clip-path="url(#clipPath3)" stroke="none"/>
      <path fill="none" d="M1574.7604 628.3954 L1574.7604 658.3954 L1146.4606 658.3954 L1146.4606 665.3661" clip-path="url(#clipPath3)"/>
      <path d="M1146.4606 673.3661 L1151.4606 661.3661 L1146.4606 664.3661 L1141.4606 661.3661 Z" clip-path="url(#clipPath3)" stroke="none"/>
      <path fill="none" d="M905.481 628.3954 L905.481 638.3954 L1048.2476 638.3954 L1048.2476 665.3612" clip-path="url(#clipPath3)"/>
      <path d="M1048.2476 673.3612 L1053.2476 661.3612 L1048.2476 664.3612 L1043.2476 661.3612 Z" clip-path="url(#clipPath3)" stroke="none"/>
      <path fill="none" d="M1240.1206 628.3954 L1240.1206 638.3954 L1097.354 638.3954 L1097.354 665.3612" clip-path="url(#clipPath3)"/>
      <path d="M1097.354 673.3612 L1102.354 661.3612 L1097.354 664.3612 L1092.354 661.3612 Z" clip-path="url(#clipPath3)" stroke="none"/>
      <path fill="none" d="M1072.8008 628.3954 L1072.8008 665.3514" clip-path="url(#clipPath3)"/>
      <path d="M1072.8008 673.3514 L1077.8008 661.3514 L1072.8008 664.3514 L1067.8008 661.3514 Z" clip-path="url(#clipPath3)" stroke="none"/>
      <path fill="none" d="M1085.0774 733.1234 L1085.0775 755.1234" clip-path="url(#clipPath3)"/>
      <path d="M1085.0775 763.1234 L1090.0775 751.1234 L1085.0775 754.1234 L1080.0775 751.1234 Z" clip-path="url(#clipPath3)" stroke="none"/>
      <path fill="none" d="M1252.3972 733.1234 L1252.3972 743.1234 L1114.9415 743.1234 L1114.9415 755.1234" clip-path="url(#clipPath3)"/>
      <path d="M1114.9415 763.1234 L1119.9415 751.1234 L1114.9415 754.1234 L1109.9415 751.1234 Z" clip-path="url(#clipPath3)" stroke="none"/>
      <path fill="none" d="M738.1611 628.3954 L738.1611 648.3954 L1023.6942 648.3954 L1023.6942 665.3466" clip-path="url(#clipPath3)"/>
      <path d="M1023.6942 673.3466 L1028.6942 661.3466 L1023.6942 664.3466 L1018.6942 661.3466 Z" clip-path="url(#clipPath3)" stroke="none"/>
      <path fill="none" d="M593.118 319.3473 L573.118 319.3473 L573.118 376.2081" clip-path="url(#clipPath3)"/>
      <path d="M573.118 384.2081 L578.118 372.2081 L573.118 375.2081 L568.118 372.2081 Z" clip-path="url(#clipPath3)" stroke="none"/>
      <path fill="none" d="M740.4376 319.3473 L760.4376 319.3473 L760.4376 376.2149" clip-path="url(#clipPath3)"/>
      <path d="M760.4376 384.2149 L765.4376 372.2149 L760.4376 375.2149 L755.4376 372.2149 Z" clip-path="url(#clipPath3)" stroke="none"/>
      <path fill="none" d="M1121.9071 533.6674 L1121.9071 543.6674 L1203.2908 543.6674 L1203.2908 560.6185" clip-path="url(#clipPath3)"/>
      <path d="M1203.2908 568.6185 L1208.2908 556.6185 L1203.2908 559.6185 L1198.2908 556.6185 Z" clip-path="url(#clipPath3)" stroke="none"/>
      <path fill="none" d="M1289.2271 533.6674 L1289.2271 543.6674 L1276.9506 543.6674 L1276.9506 560.6185" clip-path="url(#clipPath3)"/>
      <path d="M1276.9506 568.6185 L1281.9506 556.6185 L1276.9506 559.6185 L1271.9506 556.6185 Z" clip-path="url(#clipPath3)" stroke="none"/>
      <path fill="none" d="M1289.2271 443.9393 L1289.2271 465.91" clip-path="url(#clipPath3)"/>
      <path d="M1289.2271 473.91 L1294.2271 461.91 L1289.2271 464.91 L1284.2271 461.91 Z" clip-path="url(#clipPath3)" stroke="none"/>
    </g>
  </g>
</svg>
