<?xml version="1.0" encoding="UTF-8" standalone="no"?>
<!-- Created with Inkscape (http://www.inkscape.org/) -->

<svg
   xmlns:dc="http://purl.org/dc/elements/1.1/"
   xmlns:cc="http://creativecommons.org/ns#"
   xmlns:rdf="http://www.w3.org/1999/02/22-rdf-syntax-ns#"
   xmlns:svg="http://www.w3.org/2000/svg"
   xmlns="http://www.w3.org/2000/svg"
   xmlns:xlink="http://www.w3.org/1999/xlink"
   xmlns:sodipodi="http://sodipodi.sourceforge.net/DTD/sodipodi-0.dtd"
   xmlns:inkscape="http://www.inkscape.org/namespaces/inkscape"
   width="32"
   height="32"
   id="svg2"
   version="1.1"
   inkscape:version="0.91 r13725"
   sodipodi:docname="dflogo.svg"
   inkscape:export-filename="/home/df458/Documents/Games/Making/WIP/AMAZE/data/Assets/Sprites/dfEngine.png"
   inkscape:export-xdpi="90"
   inkscape:export-ydpi="90">
  <defs
     id="defs4">
    <linearGradient
       id="linearGradient4021">
      <stop
         style="stop-color:#82ff21;stop-opacity:1;"
         offset="0"
         id="stop4023" />
      <stop
         style="stop-color:#18f9ff;stop-opacity:1;"
         offset="1"
         id="stop4025" />
    </linearGradient>
    <linearGradient
       inkscape:collect="always"
       xlink:href="#linearGradient4021"
       id="linearGradient4027"
       x1="110"
       y1="170"
       x2="110"
       y2="115"
       gradientUnits="userSpaceOnUse"
       gradientTransform="matrix(0.07940447,0,0,0.07940447,7.0670012,1024.8486)" />
    <filter
       id="filter4048"
       inkscape:label="Glow"
       inkscape:menu="Shadows and Glows"
       inkscape:menu-tooltip="Glow of object's own color at the edges"
       style="color-interpolation-filters:sRGB">
      <feGaussianBlur
         id="feGaussianBlur4050"
         stdDeviation="5"
         result="result91" />
      <feComposite
         id="feComposite4052"
         in2="result91"
         in="SourceGraphic"
         operator="over" />
    </filter>
    <linearGradient
       inkscape:collect="always"
       xlink:href="#linearGradient4021"
       id="linearGradient4027-5"
       x1="110"
       y1="170"
       x2="110"
       y2="115"
       gradientUnits="userSpaceOnUse"
       gradientTransform="matrix(0.07940447,0,0,0.07940447,7.0670012,1024.8486)" />
    <filter
       inkscape:collect="always"
       style="color-interpolation-filters:sRGB"
       id="filter4803"
       x="-0.20600006"
       width="1.4120001"
       y="-0.15982755"
       height="1.3196551">
      <feGaussianBlur
         inkscape:collect="always"
         stdDeviation="1.5334987"
         id="feGaussianBlur4805" />
    </filter>
  </defs>
  <sodipodi:namedview
     id="base"
     pagecolor="#000000"
     bordercolor="#666666"
     borderopacity="1.0"
     inkscape:pageopacity="1"
     inkscape:pageshadow="2"
     inkscape:zoom="22.627417"
     inkscape:cx="24.253741"
     inkscape:cy="15.540039"
     inkscape:document-units="px"
     inkscape:current-layer="layer1"
     showgrid="true"
     inkscape:window-width="1920"
     inkscape:window-height="1066"
     inkscape:window-x="1280"
     inkscape:window-y="14"
     inkscape:window-maximized="0">
    <inkscape:grid
       type="xygrid"
       id="grid3167"
       empspacing="5"
       visible="true"
       enabled="true"
       snapvisiblegridlinesonly="true" />
  </sodipodi:namedview>
  <metadata
     id="metadata7">
    <rdf:RDF>
      <cc:Work
         rdf:about="">
        <dc:format>image/svg+xml</dc:format>
        <dc:type
           rdf:resource="http://purl.org/dc/dcmitype/StillImage" />
        <dc:title></dc:title>
      </cc:Work>
    </rdf:RDF>
  </metadata>
  <g
     inkscape:label="Layer 1"
     inkscape:groupmode="layer"
     id="layer1"
     transform="translate(0,-1020.3622)">
    <circle
       style="color:#000000;clip-rule:nonzero;display:inline;overflow:visible;visibility:visible;opacity:1;isolation:auto;mix-blend-mode:normal;color-interpolation:sRGB;color-interpolation-filters:linearRGB;solid-color:#000000;solid-opacity:1;fill:#323232;fill-opacity:1;fill-rule:nonzero;stroke:#eeeeee;stroke-width:2;stroke-linecap:butt;stroke-linejoin:miter;stroke-miterlimit:4;stroke-dasharray:none;stroke-dashoffset:0;stroke-opacity:1;color-rendering:auto;image-rendering:auto;shape-rendering:auto;text-rendering:auto;enable-background:accumulate"
       id="path4241"
       cx="16"
       cy="1036.3622"
       r="14.811024" />
    <path
       style="fill:url(#linearGradient4027);fill-opacity:1;fill-rule:nonzero;stroke:none;"
       d="m 20.168731,1024.8486 c -2.4973,0 -4.54482,1.9221 -4.74689,4.3673 l -0.0174,0 0,3.5732 0,1.191 0,0.397 0,5.5857 0,3.1488 c 0,1.9735 -1.59978,3.5732 -3.5732,3.5732 -1.9734297,0 -3.5732098,-1.5997 -3.5732098,-3.5732 0,-1.9734 1.5997801,-3.5732 3.5732098,-3.5732 l 1.62112,0 0.19851,0 0,0 c 0.23076,-0.082 0.39702,-0.3366 0.39702,-0.5955 0,-0.2589 -0.16626,-0.5135 -0.39702,-0.5955 l 0,0 -0.19851,0 -1.62112,0 -0.39703,0 0,0 c -2.4451397,0.202 -4.3672398,2.2669 -4.3672398,4.7642 0,2.6313 2.1330301,4.7643 4.7642698,4.7643 2.63123,0 4.76426,-2.133 4.76426,-4.7643 l 0,-7.5434 0,-1.5881 2.76815,0 0.19851,0 0,0 c 0.23076,-0.082 0.39702,-0.3366 0.39702,-0.5955 0,-0.2589 -0.16626,-0.5135 -0.39702,-0.5955 l 0,0 -0.19851,0 -2.76815,0 0,-0.027 0,-3.1489 c 0,-1.9735 1.59978,-3.5732 3.5732,-3.5732 1.97343,0 3.57321,1.5997 3.57321,3.5732 l 0,0 c 0.082,0.2307 0.33662,0.397 0.59553,0.397 0.25891,0 0.51348,-0.1663 0.59553,-0.397 l 0,0 c 0,-0.045 -10e-4,-0.089 -0.002,-0.134 -3e-5,-9e-4 2e-5,0 0,0 0.002,-0.02 0.002,-0.042 0.002,-0.062 0,-0.035 -0.004,-0.068 -0.01,-0.1018 -0.15499,-2.4913 -2.224,-4.464 -4.75435,-4.464 z"
       id="path3169"
       inkscape:connector-curvature="0"
       sodipodi:nodetypes="cccccccsssscccsccccccssscccccscccccssccsccccscsc" />
    <path
       style="fill:url(#linearGradient4027-5);fill-opacity:1;fill-rule:nonzero;stroke:none;filter:url(#filter4803)"
       d="m 20.168731,1024.8486 c -2.4973,0 -4.54482,1.9221 -4.74689,4.3673 l -0.0174,0 0,3.5732 0,1.191 0,0.397 0,5.5857 0,3.1488 c 0,1.9735 -1.59978,3.5732 -3.5732,3.5732 -1.9734297,0 -3.5732098,-1.5997 -3.5732098,-3.5732 0,-1.9734 1.5997801,-3.5732 3.5732098,-3.5732 l 1.62112,0 0.19851,0 0,0 c 0.23076,-0.082 0.39702,-0.3366 0.39702,-0.5955 0,-0.2589 -0.16626,-0.5135 -0.39702,-0.5955 l 0,0 -0.19851,0 -1.62112,0 -0.39703,0 0,0 c -2.4451397,0.202 -4.3672398,2.2669 -4.3672398,4.7642 0,2.6313 2.1330301,4.7643 4.7642698,4.7643 2.63123,0 4.76426,-2.133 4.76426,-4.7643 l 0,-7.5434 0,-1.5881 2.76815,0 0.19851,0 0,0 c 0.23076,-0.082 0.39702,-0.3366 0.39702,-0.5955 0,-0.2589 -0.16626,-0.5135 -0.39702,-0.5955 l 0,0 -0.19851,0 -2.76815,0 0,-0.027 0,-3.1489 c 0,-1.9735 1.59978,-3.5732 3.5732,-3.5732 1.97343,0 3.57321,1.5997 3.57321,3.5732 l 0,0 c 0.082,0.2307 0.33662,0.397 0.59553,0.397 0.25891,0 0.51348,-0.1663 0.59553,-0.397 l 0,0 c 0,-0.045 -10e-4,-0.089 -0.002,-0.134 -3e-5,-9e-4 2e-5,0 0,0 0.002,-0.02 0.002,-0.042 0.002,-0.062 0,-0.035 -0.004,-0.068 -0.01,-0.1018 -0.15499,-2.4913 -2.224,-4.464 -4.75435,-4.464 z"
       id="path3169-1"
       inkscape:connector-curvature="0"
       sodipodi:nodetypes="cccccccsssscccsccccccssscccccscccccssccsccccscsc" />
  </g>
</svg>
