<?xml version="1.0" encoding="UTF-8" standalone="no"?>
<!-- Created with Inkscape (http://www.inkscape.org/) -->

<svg
   xmlns:dc="http://purl.org/dc/elements/1.1/"
   xmlns:cc="http://creativecommons.org/ns#"
   xmlns:rdf="http://www.w3.org/1999/02/22-rdf-syntax-ns#"
   xmlns:svg="http://www.w3.org/2000/svg"
   xmlns="http://www.w3.org/2000/svg"
   xmlns:sodipodi="http://sodipodi.sourceforge.net/DTD/sodipodi-0.dtd"
   xmlns:inkscape="http://www.inkscape.org/namespaces/inkscape"
   width="48"
   height="48"
   viewBox="0 0 12.7 12.7"
   version="1.1"
   id="svg8"
   inkscape:version="0.92.1 r"
   sodipodi:docname="phone.svg">
  <defs
     id="defs2" />
  <sodipodi:namedview
     id="base"
     pagecolor="#ffffff"
     bordercolor="#666666"
     borderopacity="1.0"
     inkscape:pageopacity="0.0"
     inkscape:pageshadow="2"
     inkscape:zoom="13.244324"
     inkscape:cx="24.735531"
     inkscape:cy="22.777287"
     inkscape:document-units="mm"
     inkscape:current-layer="layer1"
     showgrid="true"
     units="px"
     inkscape:window-width="1916"
     inkscape:window-height="1058"
     inkscape:window-x="0"
     inkscape:window-y="18"
     inkscape:window-maximized="1">
    <inkscape:grid
       type="xygrid"
       id="grid3680"
       empspacing="4" />
  </sodipodi:namedview>
  <metadata
     id="metadata5">
    <rdf:RDF>
      <cc:Work
         rdf:about="">
        <dc:format>image/svg+xml</dc:format>
        <dc:type
           rdf:resource="http://purl.org/dc/dcmitype/StillImage" />
        <dc:title></dc:title>
      </cc:Work>
    </rdf:RDF>
  </metadata>
  <g
     inkscape:label="Calque 1"
     inkscape:groupmode="layer"
     id="layer1"
     transform="translate(0,-284.3)">
    <path
       style="color:#000000;clip-rule:nonzero;display:inline;overflow:visible;visibility:visible;opacity:0.5;isolation:auto;mix-blend-mode:normal;color-interpolation:sRGB;color-interpolation-filters:linearRGB;solid-color:#000000;solid-opacity:1;fill:#000000;fill-opacity:1;fill-rule:evenodd;stroke:none;stroke-width:3.99999976;stroke-linecap:round;stroke-linejoin:round;stroke-miterlimit:4;stroke-dasharray:none;stroke-dashoffset:0;stroke-opacity:1;color-rendering:auto;image-rendering:auto;shape-rendering:auto;text-rendering:auto;enable-background:accumulate"
       d="M 12 0 C 9.7840001 0 8 1.7839724 8 4 L 8 44 C 8 46.216028 9.7840001 48 12 48 L 36 48 C 38.216 48 40 46.216028 40 44 L 40 4 C 40 1.7839724 38.216 0 36 0 L 12 0 z M 16 4 L 32 4 C 34.216 4 36 5.7839724 36 8 L 36 32 C 36 34.216028 34.216 36 32 36 L 16 36 C 13.784 36 12 34.216028 12 32 L 12 8 C 12 5.7839724 13.784 4 16 4 z M 21 40 L 27 40 C 28.662 40 30 40.892 30 42 C 30 43.108 28.662 44 27 44 L 21 44 C 19.338 44 18 43.108 18 42 C 18 40.892 19.338 40 21 40 z "
       transform="matrix(0.26458333,0,0,0.26458333,0,284.3)"
       id="rect4563" />
  </g>
</svg>
